<?xml version="1.0" encoding="utf-8"?>
<!-- Generator: Adobe Illustrator 24.1.2, SVG Export Plug-In . SVG Version: 6.00 Build 0)  -->
<svg version="1.1" id="Layer_1" xmlns="http://www.w3.org/2000/svg" xmlns:xlink="http://www.w3.org/1999/xlink" x="0px" y="0px"
	 viewBox="0 0 1202.4 462.5" style="enable-background:new 0 0 1202.4 462.5;" xml:space="preserve">
<style type="text/css">
	.st0{fill:#2A9FD9;}
	.st1{fill:none;stroke:#2367B1;stroke-width:0.75;stroke-miterlimit:10;}
	.st2{fill:#2367B1;}
	.st3{fill:#BBBBBB;}
	.st4{fill:#878787;}
	.st5{fill:none;}
	.st6{enable-background:new    ;}
	.st7{fill:#010101;}
	.st8{fill:#FFFFFF;}
	.st9{fill:none;stroke:#2A9FD9;stroke-miterlimit:10;}
</style>
<g>
	<rect x="178.5" y="352.9" class="st0" width="34.8" height="17.5"/>
	<rect x="307.5" y="352.9" class="st0" width="52.7" height="17.5"/>
	<rect x="549.5" y="352.9" class="st0" width="35.7" height="17.5"/>
	<line class="st1" x1="2.9" y1="348.5" x2="1203.7" y2="348.5"/>
	<rect x="130.7" y="225.7" class="st2" width="35.4" height="39.4"/>
	<rect x="177.3" y="73" class="st2" width="35.4" height="102.7"/>
	<rect x="130.7" y="265.1" class="st3" width="35.4" height="58.8"/>
	<rect x="177.3" y="175.6" class="st3" width="35.4" height="35.4"/>
	<rect x="130.7" y="323.9" class="st4" width="35.4" height="24.5"/>
	<rect x="223.9" y="255.9" class="st4" width="35.4" height="92.6"/>
	<rect x="223.9" y="203" class="st3" width="35.4" height="54.3"/>
	<rect x="223.9" y="161.7" class="st2" width="35.4" height="41.1"/>
	<rect x="317.2" y="230.2" class="st4" width="35.4" height="118.3"/>
	<rect x="363.3" y="316" class="st4" width="35.4" height="32.5"/>
	<rect x="363.3" y="283.5" class="st3" width="35.4" height="32.5"/>
	<rect x="363.3" y="257.3" class="st2" width="35.4" height="26.1"/>
	<rect x="363.3" y="152.6" class="st0" width="35.4" height="105.8"/>
	<rect x="457" y="341.3" class="st4" width="35.4" height="7.2"/>
	<rect x="457" y="248.1" class="st3" width="35.4" height="93.2"/>
	<rect x="457" y="205.5" class="st2" width="35.4" height="42.6"/>
	<rect x="457" y="192.9" class="st0" width="35.4" height="12.6"/>
	<rect x="503.8" y="344.9" class="st4" width="35.4" height="3.6"/>
	<rect x="503.8" y="292.8" class="st3" width="35.4" height="52"/>
	<rect x="503.8" y="250.2" class="st2" width="35.4" height="42.6"/>
	<rect x="503.8" y="211.3" class="st0" width="35.4" height="38.9"/>
	<rect x="549.8" y="309.8" class="st4" width="35.4" height="38.6"/>
	<rect x="549.8" y="230.8" class="st3" width="35.4" height="79.1"/>
	<rect x="549.8" y="222.9" class="st2" width="35.4" height="7.9"/>
	<rect x="549.8" y="213.2" class="st0" width="35.4" height="9.7"/>
	<rect x="642.7" y="299.7" class="st4" width="35.4" height="48.8"/>
	<rect x="642.7" y="288.9" class="st3" width="35.4" height="10.8"/>
	<rect x="642.7" y="275.1" class="st2" width="35.4" height="13.8"/>
	<rect x="642.7" y="271.8" class="st0" width="35.4" height="3.3"/>
	<rect x="689.4" y="307" class="st4" width="35.4" height="41.4"/>
	<rect x="689.4" y="294.3" class="st3" width="35.4" height="12.8"/>
	<rect x="689.4" y="282" class="st2" width="35.4" height="12.3"/>
	<rect x="689.4" y="279.9" class="st0" width="35.4" height="2.1"/>
	<rect x="781.6" y="343.9" class="st4" width="35.4" height="4.6"/>
	<rect x="828.3" y="335.5" class="st4" width="35.4" height="12.9"/>
	<rect x="828.3" y="292.7" class="st2" width="35.4" height="42.8"/>
	<rect x="875.1" y="345.3" class="st3" width="35.4" height="3.2"/>
	<rect x="875.1" y="339.5" class="st2" width="35.4" height="5.8"/>
	<rect x="875.1" y="309" class="st0" width="35.4" height="30.5"/>
	<rect x="921.8" y="319.6" class="st2" width="35.4" height="28.9"/>
	<rect x="968.6" y="339" class="st3" width="35.4" height="9.5"/>
	<rect x="968.6" y="322.2" class="st0" width="35.4" height="16.8"/>
	<rect x="1014.6" y="336.6" class="st4" width="35.4" height="11.8"/>
	<rect x="1063.5" y="323.7" class="st4" width="35.4" height="24.8"/>
	<rect x="1063.5" y="312.2" class="st3" width="35.4" height="11.5"/>
	<rect x="1063.5" y="78.5" class="st2" width="35.4" height="233.7"/>
	<rect x="1063.5" y="41.6" class="st0" width="35.4" height="36.9"/>
	<rect x="1063.5" y="323.7" class="st4" width="35.4" height="24.8"/>
	<rect x="1014.6" y="334.8" class="st2" width="35.4" height="1.8"/>
	<rect x="1014.6" y="324.7" class="st0" width="35.4" height="10.1"/>
	<rect x="177.3" y="208.4" class="st4" width="35.4" height="140"/>
	<rect x="177.3" y="67.2" class="st0" width="35.4" height="5.7"/>
	<rect x="223.9" y="93.9" class="st0" width="35.4" height="67.8"/>
	<rect x="317.2" y="150.1" class="st3" width="35.4" height="80"/>
	<rect x="317.2" y="146.1" class="st2" width="35.4" height="4"/>
	<rect x="317.2" y="142.8" class="st0" width="35.4" height="3.3"/>
	<rect x="781.6" y="343.2" class="st3" width="35.4" height="0.7"/>
	<rect x="781.6" y="270.3" class="st0" width="35.4" height="72"/>
	<rect x="781.6" y="342.1" class="st3" width="35.4" height="1.8"/>
	<rect x="828.3" y="333.7" class="st3" width="35.4" height="1.9"/>
	<rect x="97.1" y="24.5" class="st5" width="24" height="23.3"/>
	<g class="st6">
		<path class="st7" d="M102,35.3h-0.8V26l-2.8,1v-0.8l3.5-1.3h0.1V35.3z"/>
		<path class="st7" d="M112.5,35.3h-6.4v-0.7l3.5-4c0.6-0.7,1-1.2,1.2-1.7c0.2-0.4,0.3-0.9,0.3-1.3c0-0.6-0.2-1.2-0.6-1.5
			c-0.4-0.4-0.9-0.6-1.6-0.6c-0.7,0-1.2,0.2-1.7,0.7s-0.6,1-0.6,1.7h-0.8c0-0.6,0.1-1.1,0.4-1.6s0.6-0.8,1.1-1.1s1-0.4,1.6-0.4
			c0.9,0,1.7,0.2,2.2,0.7s0.8,1.2,0.8,2c0,0.5-0.2,1-0.4,1.6c-0.3,0.6-0.8,1.3-1.6,2.1l-2.8,3.2h5.4
			C112.5,34.6,112.5,35.3,112.5,35.3z"/>
	</g>
	<rect x="97.1" y="78" class="st5" width="24" height="23.3"/>
	<g class="st6">
		<path class="st7" d="M102,88.8h-0.8v-9.2l-2.8,1v-0.8l3.5-1.3h0.1V88.8z"/>
		<path class="st7" d="M112.2,84.6c0,1.4-0.3,2.5-0.8,3.3s-1.3,1.1-2.3,1.1c-1,0-1.8-0.4-2.3-1.1c-0.5-0.7-0.8-1.8-0.8-3.2v-1.8
			c0-1.4,0.3-2.5,0.8-3.3s1.3-1.1,2.3-1.1c1,0,1.8,0.4,2.3,1.1s0.8,1.8,0.8,3.2V84.6z M111.4,82.7c0-1.2-0.2-2.1-0.6-2.7
			c-0.4-0.6-1-0.9-1.7-0.9c-0.8,0-1.3,0.3-1.7,0.9s-0.6,1.4-0.6,2.6v2c0,1.2,0.2,2.1,0.6,2.7c0.4,0.6,1,0.9,1.7,0.9
			c0.8,0,1.3-0.3,1.7-0.9c0.4-0.6,0.6-1.5,0.6-2.7L111.4,82.7L111.4,82.7z"/>
	</g>
	<rect x="97.1" y="128.7" class="st5" width="24" height="23.3"/>
	<g class="st6">
		<path class="st7" d="M111.1,131.9c0,0.5-0.2,1-0.5,1.4s-0.7,0.7-1.2,0.9c0.6,0.2,1.1,0.5,1.4,1s0.5,1,0.5,1.6
			c0,0.9-0.3,1.6-0.9,2.1c-0.6,0.5-1.4,0.8-2.4,0.8c-1,0-1.8-0.3-2.4-0.8c-0.6-0.5-0.9-1.2-0.9-2.1c0-0.6,0.2-1.1,0.5-1.6
			c0.3-0.4,0.8-0.8,1.4-1c-0.5-0.2-0.9-0.5-1.2-0.9c-0.3-0.4-0.4-0.9-0.4-1.4c0-0.9,0.3-1.5,0.8-2s1.3-0.8,2.2-0.8s1.6,0.2,2.2,0.8
			S111.1,131.1,111.1,131.9z M110.5,136.8c0-0.6-0.2-1.2-0.7-1.6s-1-0.6-1.7-0.6c-0.7,0-1.3,0.2-1.7,0.6c-0.4,0.4-0.7,0.9-0.7,1.6
			c0,0.6,0.2,1.2,0.7,1.6c0.4,0.4,1,0.6,1.8,0.6c0.7,0,1.3-0.2,1.8-0.6C110.3,138,110.5,137.4,110.5,136.8z M110.3,131.9
			c0-0.6-0.2-1.1-0.6-1.5c-0.4-0.4-0.9-0.6-1.6-0.6c-0.6,0-1.2,0.2-1.6,0.6s-0.6,0.9-0.6,1.5c0,0.6,0.2,1.1,0.6,1.4s0.9,0.6,1.6,0.6
			c0.6,0,1.2-0.2,1.6-0.6C110.1,133,110.3,132.5,110.3,131.9z"/>
	</g>
	<rect x="99" y="182.2" class="st5" width="24" height="23.3"/>
	<g class="st6">
		<path class="st7" d="M112,182.7v0.7h-0.1c-1.2,0-2.2,0.4-2.9,1.1s-1.1,1.7-1.2,3c0.3-0.4,0.6-0.7,1.1-0.9c0.4-0.2,0.9-0.3,1.5-0.3
			c0.9,0,1.6,0.3,2.2,0.9s0.8,1.4,0.8,2.4c0,0.7-0.1,1.3-0.4,1.8s-0.6,0.9-1.1,1.2c-0.5,0.3-1,0.4-1.6,0.4c-1,0-1.8-0.4-2.4-1.1
			s-0.9-1.6-0.9-2.8v-0.8c0-1.8,0.4-3.2,1.2-4.3c0.8-1,2-1.5,3.6-1.5H112z M110.2,187.1c-0.5,0-1,0.2-1.5,0.5
			c-0.5,0.3-0.8,0.7-0.9,1.2v0.7c0,0.9,0.2,1.6,0.7,2.2s1.1,0.8,1.8,0.8c0.7,0,1.2-0.3,1.6-0.8s0.6-1.2,0.6-2c0-0.8-0.2-1.4-0.6-1.9
			C111.4,187.3,110.9,187.1,110.2,187.1z"/>
	</g>
	<rect x="98" y="236.4" class="st5" width="24" height="23.3"/>
	<g class="st6">
		<path class="st7" d="M111.2,243.9h1.6v0.7h-1.6v2.6h-0.8v-2.6h-4.8v-0.5l4.7-7.2h0.9V243.9z M106.5,243.9h3.8v-5.9l-0.4,0.6
			L106.5,243.9z"/>
	</g>
	<rect x="98" y="290.5" class="st5" width="24" height="23.3"/>
	<g class="st6">
		<path class="st7" d="M112.4,301.3H106v-0.6l3.5-4c0.6-0.7,1-1.2,1.2-1.7c0.2-0.4,0.3-0.9,0.3-1.3c0-0.6-0.2-1.2-0.6-1.5
			s-0.9-0.6-1.6-0.6c-0.7,0-1.2,0.2-1.7,0.7s-0.6,1-0.6,1.7h-0.8c0-0.6,0.1-1.1,0.4-1.6s0.6-0.8,1.1-1.1s1-0.4,1.6-0.4
			c0.9,0,1.7,0.2,2.2,0.7s0.8,1.2,0.8,2c0,0.5-0.2,1-0.4,1.6c-0.3,0.6-0.8,1.3-1.6,2.1l-2.8,3.2h5.4
			C112.4,300.6,112.4,301.3,112.4,301.3z"/>
	</g>
	<rect x="99" y="342.7" class="st5" width="24" height="23.3"/>
	<g class="st6">
		<path class="st7" d="M113.2,349.2c0,1.4-0.3,2.5-0.8,3.3s-1.3,1.1-2.3,1.1c-1,0-1.8-0.4-2.3-1.1s-0.8-1.8-0.8-3.2v-1.8
			c0-1.4,0.3-2.5,0.8-3.3s1.3-1.1,2.3-1.1c1,0,1.8,0.4,2.3,1.1c0.5,0.7,0.8,1.8,0.8,3.2V349.2z M112.3,347.4c0-1.2-0.2-2.1-0.6-2.7
			s-1-0.9-1.7-0.9c-0.8,0-1.3,0.3-1.7,0.9s-0.6,1.5-0.6,2.6v2c0,1.2,0.2,2.1,0.6,2.7c0.4,0.6,1,0.9,1.7,0.9c0.8,0,1.3-0.3,1.7-0.9
			c0.4-0.6,0.6-1.5,0.6-2.7L112.3,347.4L112.3,347.4z"/>
	</g>
	<rect x="134.3" y="205.8" class="st5" width="32.6" height="14.3"/>
	<g class="st6">
		<path class="st7" d="M138.6,215.3h-0.7v-8.1l-2.4,0.9v-0.7l3.1-1.1h0.1L138.6,215.3L138.6,215.3z"/>
		<path class="st7" d="M147.6,211.5c0,1.3-0.2,2.2-0.7,2.9c-0.5,0.6-1.1,1-2.1,1c-0.9,0-1.6-0.3-2-1s-0.7-1.6-0.7-2.8V210
			c0-1.3,0.2-2.2,0.7-2.9s1.1-1,2.1-1c0.9,0,1.6,0.3,2,0.9s0.7,1.6,0.7,2.8L147.6,211.5L147.6,211.5z M146.8,209.9
			c0-1-0.2-1.8-0.5-2.3s-0.8-0.8-1.5-0.8c-0.7,0-1.2,0.3-1.5,0.8s-0.5,1.3-0.5,2.3v1.8c0,1,0.2,1.8,0.5,2.3s0.9,0.8,1.5,0.8
			c0.7,0,1.1-0.3,1.5-0.8c0.3-0.5,0.5-1.3,0.5-2.3L146.8,209.9L146.8,209.9z"/>
		<path class="st7" d="M149.2,214.8c0-0.1,0.1-0.3,0.1-0.4s0.2-0.1,0.4-0.1s0.3,0.1,0.4,0.1s0.1,0.2,0.1,0.4c0,0.1-0.1,0.3-0.1,0.4
			c-0.1,0.1-0.2,0.1-0.4,0.1c-0.2,0-0.3-0.1-0.4-0.1C149.2,215.1,149.2,215,149.2,214.8z"/>
		<path class="st7" d="M156.5,206.2v0.6h-0.1c-1.1,0-1.9,0.3-2.5,0.9s-1,1.5-1,2.6c0.2-0.3,0.6-0.6,0.9-0.8s0.8-0.3,1.3-0.3
			c0.8,0,1.4,0.3,1.9,0.8c0.5,0.5,0.7,1.2,0.7,2.1c0,0.6-0.1,1.1-0.3,1.6s-0.5,0.8-0.9,1.1s-0.9,0.4-1.4,0.4c-0.9,0-1.6-0.3-2.1-0.9
			s-0.8-1.4-0.8-2.4v-0.7c0-1.6,0.4-2.8,1.1-3.7s1.8-1.3,3.1-1.3L156.5,206.2L156.5,206.2z M155,210c-0.5,0-0.9,0.1-1.3,0.4
			s-0.7,0.6-0.8,1.1v0.6c0,0.8,0.2,1.4,0.6,1.9c0.4,0.5,0.9,0.7,1.6,0.7c0.6,0,1-0.2,1.4-0.7s0.5-1,0.5-1.7c0-0.7-0.2-1.3-0.5-1.7
			C156.1,210.2,155.6,210,155,210z"/>
	</g>
	<rect x="182.1" y="49.5" class="st5" width="32.6" height="14.3"/>
	<g class="st6">
		<path class="st7" d="M186.4,59h-0.7v-8.1l-2.4,0.9v-0.7l3.1-1.1h0.1L186.4,59L186.4,59z"/>
		<path class="st7" d="M195.4,55.3c0,1.3-0.2,2.2-0.7,2.9c-0.5,0.7-1.1,1-2.1,1c-0.9,0-1.6-0.3-2-1s-0.7-1.6-0.7-2.8v-1.6
			c0-1.3,0.2-2.2,0.7-2.9s1.1-1,2.1-1c0.9,0,1.6,0.3,2,0.9c0.5,0.6,0.7,1.5,0.7,2.8L195.4,55.3L195.4,55.3z M194.6,53.7
			c0-1-0.2-1.8-0.5-2.3c-0.3-0.5-0.8-0.8-1.5-0.8c-0.7,0-1.2,0.3-1.5,0.8s-0.5,1.3-0.5,2.3v1.8c0,1,0.2,1.8,0.5,2.3s0.9,0.8,1.5,0.8
			c0.7,0,1.1-0.3,1.5-0.8c0.3-0.5,0.5-1.3,0.5-2.3L194.6,53.7L194.6,53.7z"/>
		<path class="st7" d="M197,58.5c0-0.1,0.1-0.3,0.1-0.4s0.2-0.2,0.4-0.2s0.3,0,0.4,0.2s0.1,0.2,0.1,0.4c0,0.1-0.1,0.3-0.1,0.3
			s-0.2,0.1-0.4,0.1c-0.2,0-0.3,0-0.4-0.1C197,58.8,197,58.7,197,58.5z"/>
		<path class="st7" d="M204.3,50v0.6h-0.1c-1.1,0-1.9,0.3-2.5,1s-1,1.5-1,2.6c0.2-0.3,0.6-0.6,0.9-0.8s0.8-0.3,1.3-0.3
			c0.8,0,1.4,0.3,1.9,0.8c0.5,0.5,0.7,1.2,0.7,2.1c0,0.6-0.1,1.1-0.3,1.6s-0.5,0.8-0.9,1.1s-0.9,0.4-1.4,0.4c-0.9,0-1.6-0.3-2.1-0.9
			s-0.8-1.4-0.8-2.4v-0.7c0-1.6,0.4-2.8,1.1-3.7s1.8-1.3,3.1-1.3L204.3,50L204.3,50z M202.8,53.8c-0.5,0-0.9,0.1-1.3,0.4
			s-0.7,0.6-0.8,1v0.6c0,0.8,0.2,1.4,0.6,1.9c0.4,0.5,0.9,0.7,1.6,0.7c0.6,0,1-0.2,1.4-0.7s0.5-1,0.5-1.7c0-0.7-0.2-1.3-0.5-1.7
			C203.9,54,203.4,53.8,202.8,53.8z"/>
	</g>
	<rect x="232.6" y="70.9" class="st5" width="32.6" height="14.3"/>
	<g class="st6">
		<path class="st7" d="M238,76.2c-0.3,0.4-0.6,0.7-1,0.9s-0.8,0.3-1.3,0.3c-0.5,0-1-0.1-1.4-0.4s-0.7-0.6-0.9-1.1
			c-0.2-0.5-0.3-1-0.3-1.5c0-0.6,0.1-1.1,0.3-1.6s0.5-0.9,0.9-1.1s0.9-0.4,1.4-0.4c0.9,0,1.6,0.3,2.1,0.9c0.5,0.6,0.8,1.5,0.8,2.7
			v0.7c0,1.6-0.3,2.8-1,3.6s-1.7,1.2-3.2,1.2h-0.1l0-0.6h0.3c1.1,0,1.9-0.3,2.4-0.9S238,77.4,238,76.2z M235.8,76.8
			c0.5,0,0.9-0.2,1.3-0.4c0.4-0.3,0.7-0.7,0.8-1.1v-0.4c0-0.9-0.2-1.6-0.6-2.1s-0.9-0.8-1.5-0.8c-0.6,0-1.1,0.2-1.4,0.7
			c-0.4,0.5-0.6,1.1-0.6,1.8c0,0.7,0.2,1.2,0.5,1.7C234.8,76.5,235.3,76.8,235.8,76.8z"/>
		<path class="st7" d="M240.4,79.9c0-0.1,0.1-0.3,0.1-0.4c0.1-0.1,0.2-0.2,0.4-0.2s0.3,0.1,0.4,0.2c0.1,0.1,0.1,0.2,0.1,0.4
			c0,0.1-0.1,0.3-0.1,0.3s-0.2,0.1-0.4,0.1c-0.2,0-0.3-0.1-0.4-0.1C240.5,80.1,240.4,80,240.4,79.9z"/>
		<path class="st7" d="M247.7,71.3v0.6h-0.1c-1.1,0-1.9,0.3-2.5,0.9s-1,1.5-1,2.6c0.2-0.3,0.6-0.6,0.9-0.8s0.8-0.3,1.3-0.3
			c0.8,0,1.4,0.3,1.9,0.8c0.5,0.5,0.7,1.2,0.7,2.1c0,0.6-0.1,1.1-0.3,1.6s-0.5,0.8-0.9,1.1s-0.9,0.4-1.4,0.4c-0.9,0-1.6-0.3-2.1-0.9
			s-0.8-1.4-0.8-2.4v-0.7c0-1.6,0.4-2.8,1.1-3.7c0.7-0.9,1.8-1.3,3.1-1.3L247.7,71.3L247.7,71.3z M246.2,75.1
			c-0.5,0-0.9,0.1-1.3,0.4c-0.4,0.3-0.7,0.6-0.8,1.1v0.6c0,0.8,0.2,1.4,0.6,1.9c0.4,0.5,0.9,0.7,1.6,0.7c0.6,0,1-0.2,1.4-0.7
			s0.5-1,0.5-1.7c0-0.7-0.2-1.3-0.5-1.7C247.3,75.3,246.8,75.1,246.2,75.1z"/>
	</g>
	<rect x="323.1" y="121.5" class="st5" width="32.6" height="14.3"/>
	<g class="st6">
		<path class="st7" d="M329.5,122.5l-3.8,8.5h-0.8l3.8-8.3h-5.1V122h5.9L329.5,122.5L329.5,122.5z"/>
		<path class="st7" d="M331,130.6c0-0.1,0-0.3,0.1-0.4s0.2-0.1,0.4-0.1s0.3,0.1,0.4,0.1s0.1,0.2,0.1,0.4c0,0.1,0,0.3-0.1,0.4
			c-0.1,0.1-0.2,0.1-0.4,0.1c-0.2,0-0.3-0.1-0.4-0.1C331,130.8,331,130.7,331,130.6z"/>
		<path class="st7" d="M339.5,122.5l-3.8,8.5h-0.8l3.8-8.3h-5.1V122h5.9L339.5,122.5L339.5,122.5z"/>
	</g>
	<rect x="370.2" y="124.6" class="st5" width="32.6" height="14.3"/>
	<g class="st6">
		<path class="st7" d="M376.6,125.6l-3.8,8.5H372l3.8-8.3h-5.1v-0.6h5.9L376.6,125.6L376.6,125.6z"/>
		<path class="st7" d="M378.1,133.6c0-0.1,0-0.3,0.1-0.4s0.2-0.1,0.4-0.1s0.3,0.1,0.4,0.1s0.1,0.2,0.1,0.4c0,0.1,0,0.3-0.1,0.4
			c-0.1,0.1-0.2,0.1-0.4,0.1c-0.2,0-0.3-0.1-0.4-0.1C378.2,133.9,378.1,133.8,378.1,133.6z"/>
		<path class="st7" d="M385.6,131.2h1.4v0.6h-1.4v2.3h-0.7v-2.3h-4.2v-0.4l4.1-6.3h0.8L385.6,131.2L385.6,131.2z M381.6,131.2h3.3
			v-5.1l-0.3,0.6L381.6,131.2z"/>
	</g>
	<rect x="466.7" y="168.5" class="st5" width="32.6" height="14.3"/>
	<g class="st6">
		<path class="st7" d="M468,173.3l0.4-4.4h4.5v0.7h-3.8l-0.3,3c0.5-0.3,1-0.5,1.7-0.5c0.8,0,1.5,0.3,1.9,0.8
			c0.5,0.5,0.7,1.2,0.7,2.1c0,0.9-0.2,1.7-0.7,2.2s-1.1,0.8-2,0.8c-0.8,0-1.4-0.2-1.9-0.6s-0.8-1-0.8-1.8h0.7
			c0.1,0.6,0.3,1.1,0.6,1.4c0.3,0.3,0.8,0.5,1.4,0.5c0.6,0,1.1-0.2,1.5-0.6s0.5-1,0.5-1.7c0-0.7-0.2-1.2-0.5-1.6
			c-0.4-0.4-0.9-0.6-1.5-0.6c-0.4,0-0.6,0-0.9,0.1s-0.5,0.3-0.8,0.5L468,173.3z"/>
		<path class="st7" d="M474.6,177.5c0-0.1,0-0.3,0.1-0.4s0.2-0.1,0.4-0.1s0.3,0.1,0.4,0.1s0.1,0.2,0.1,0.4c0,0.1,0,0.3-0.1,0.4
			c-0.1,0.1-0.2,0.1-0.4,0.1c-0.2,0-0.3-0.1-0.4-0.1C474.6,177.7,474.6,177.6,474.6,177.5z"/>
		<path class="st7" d="M482.1,173.8c-0.3,0.4-0.6,0.7-1,0.9s-0.8,0.3-1.3,0.3c-0.5,0-1-0.1-1.4-0.4s-0.7-0.6-0.9-1.1
			c-0.2-0.5-0.3-1-0.3-1.5c0-0.6,0.1-1.1,0.3-1.6s0.5-0.9,1-1.1s0.9-0.4,1.4-0.4c0.9,0,1.6,0.3,2.1,0.9s0.8,1.5,0.8,2.7v0.7
			c0,1.6-0.3,2.8-1,3.6s-1.7,1.2-3.2,1.2h-0.1l0-0.6h0.3c1.1,0,1.9-0.3,2.4-0.9S482.1,175,482.1,173.8z M480,174.3
			c0.5,0,0.9-0.1,1.3-0.4c0.4-0.3,0.7-0.7,0.8-1.1v-0.4c0-0.9-0.2-1.6-0.6-2.1s-0.9-0.8-1.5-0.8c-0.6,0-1.1,0.2-1.4,0.7
			s-0.6,1.1-0.6,1.8c0,0.7,0.2,1.2,0.5,1.7S479.4,174.3,480,174.3z"/>
	</g>
	<rect x="511" y="186.2" class="st5" width="32.6" height="14.3"/>
	<g class="st6">
		<path class="st7" d="M512.4,191l0.4-4.4h4.5v0.7h-3.8l-0.3,3c0.5-0.3,1-0.5,1.7-0.5c0.8,0,1.5,0.3,1.9,0.8s0.7,1.2,0.7,2.1
			c0,0.9-0.2,1.7-0.7,2.2c-0.5,0.5-1.1,0.8-2,0.8c-0.8,0-1.4-0.2-1.9-0.6s-0.8-1-0.8-1.8h0.7c0.1,0.6,0.3,1.1,0.6,1.4
			c0.3,0.3,0.8,0.5,1.4,0.5c0.6,0,1.1-0.2,1.5-0.6s0.5-1,0.5-1.7c0-0.7-0.2-1.2-0.5-1.6c-0.4-0.4-0.9-0.6-1.5-0.6
			c-0.3,0-0.7,0-0.9,0.1s-0.5,0.3-0.8,0.5L512.4,191z"/>
		<path class="st7" d="M518.9,195.2c0-0.1,0-0.3,0.1-0.4s0.2-0.1,0.4-0.1c0.2,0,0.3,0.1,0.4,0.1s0.1,0.2,0.1,0.4
			c0,0.1,0,0.3-0.1,0.4c-0.1,0.1-0.2,0.1-0.4,0.1c-0.2,0-0.3-0.1-0.4-0.1C518.9,195.4,518.9,195.3,518.9,195.2z"/>
		<path class="st7" d="M527.5,195.6h-5.6v-0.6l3.1-3.5c0.5-0.6,0.9-1.1,1.1-1.4c0.2-0.4,0.3-0.8,0.3-1.1c0-0.6-0.2-1-0.5-1.3
			s-0.8-0.5-1.4-0.5c-0.6,0-1.1,0.2-1.5,0.6s-0.6,0.9-0.6,1.5h-0.7c0-0.5,0.1-1,0.3-1.4c0.2-0.4,0.5-0.7,1-1s0.9-0.4,1.4-0.4
			c0.8,0,1.5,0.2,1.9,0.6s0.7,1,0.7,1.8c0,0.4-0.1,0.9-0.4,1.4s-0.7,1.1-1.4,1.9l-2.5,2.8h4.7L527.5,195.6L527.5,195.6z"/>
	</g>
	<rect x="558.4" y="190.9" class="st5" width="32.6" height="14.3"/>
	<g class="st6">
		<path class="st7" d="M559.8,195.8l0.4-4.4h4.5v0.7h-3.8l-0.3,3c0.5-0.3,1-0.5,1.7-0.5c0.8,0,1.5,0.3,1.9,0.8s0.7,1.2,0.7,2.1
			c0,0.9-0.2,1.7-0.7,2.2c-0.5,0.5-1.1,0.8-2,0.8c-0.8,0-1.4-0.2-1.9-0.6s-0.8-1-0.8-1.8h0.7c0.1,0.6,0.3,1.1,0.6,1.4
			c0.3,0.3,0.8,0.5,1.4,0.5c0.6,0,1.1-0.2,1.5-0.6s0.5-1,0.5-1.7c0-0.7-0.2-1.2-0.5-1.6c-0.4-0.4-0.9-0.6-1.5-0.6
			c-0.3,0-0.7,0-0.9,0.1s-0.5,0.3-0.8,0.5L559.8,195.8z"/>
		<path class="st7" d="M566.3,200c0-0.1,0-0.3,0.1-0.4s0.2-0.1,0.4-0.1c0.2,0,0.3,0.1,0.4,0.1s0.1,0.2,0.1,0.4c0,0.1,0,0.3-0.1,0.4
			c-0.1,0.1-0.2,0.1-0.4,0.1c-0.2,0-0.3-0.1-0.4-0.1C566.4,200.2,566.3,200.1,566.3,200z"/>
		<path class="st7" d="M572.7,200.4H572v-8.1l-2.4,0.9v-0.7l3-1.1h0.1L572.7,200.4L572.7,200.4z"/>
	</g>
	<rect x="651.2" y="250.2" class="st5" width="32.6" height="14.3"/>
	<g class="st6">
		<path class="st7" d="M657.7,259.6h-5.6V259l3.1-3.5c0.5-0.6,0.9-1.1,1.1-1.4c0.2-0.4,0.3-0.8,0.3-1.1c0-0.6-0.2-1-0.5-1.3
			s-0.8-0.5-1.4-0.5c-0.6,0-1.1,0.2-1.5,0.6s-0.6,0.9-0.6,1.5h-0.7c0-0.5,0.1-1,0.3-1.4c0.2-0.4,0.5-0.7,1-1s0.9-0.4,1.4-0.4
			c0.8,0,1.5,0.2,1.9,0.6c0.5,0.4,0.7,1,0.7,1.8c0,0.4-0.1,0.9-0.4,1.4c-0.3,0.5-0.7,1.1-1.4,1.9L653,259h4.7L657.7,259.6
			L657.7,259.6z"/>
		<path class="st7" d="M659.1,259.2c0-0.1,0-0.3,0.1-0.4s0.2-0.1,0.4-0.1s0.3,0,0.4,0.1c0.1,0.1,0.1,0.2,0.1,0.4
			c0,0.1,0,0.3-0.1,0.4s-0.2,0.1-0.4,0.1s-0.3,0-0.4-0.1C659.2,259.4,659.1,259.3,659.1,259.2z"/>
		<path class="st7" d="M666.7,255.5c-0.3,0.4-0.6,0.7-1,0.9s-0.8,0.3-1.3,0.3c-0.5,0-1-0.1-1.3-0.4s-0.7-0.6-0.9-1.1
			c-0.2-0.5-0.3-1-0.3-1.5c0-0.6,0.1-1.1,0.3-1.6c0.2-0.5,0.5-0.9,1-1.1c0.4-0.3,0.9-0.4,1.4-0.4c0.9,0,1.6,0.3,2.1,0.9
			c0.5,0.6,0.8,1.5,0.8,2.7v0.7c0,1.6-0.3,2.8-1,3.6s-1.7,1.2-3.2,1.2h-0.1l0-0.6h0.3c1.1,0,1.9-0.3,2.4-0.9
			C666.4,257.5,666.7,256.7,666.7,255.5z M664.5,256c0.5,0,0.9-0.1,1.3-0.4c0.4-0.3,0.7-0.7,0.8-1.1V254c0-0.9-0.2-1.6-0.6-2.1
			c-0.4-0.5-0.9-0.8-1.5-0.8c-0.6,0-1.1,0.2-1.4,0.7s-0.6,1.1-0.6,1.8c0,0.7,0.2,1.2,0.5,1.7C663.5,255.8,664,256,664.5,256z"/>
	</g>
	<rect x="697.4" y="257.3" class="st5" width="32.6" height="14.3"/>
	<g class="st6">
		<path class="st7" d="M703.8,266.8h-5.6v-0.6l3.1-3.5c0.5-0.6,0.9-1.1,1.1-1.5s0.3-0.8,0.3-1.1c0-0.6-0.2-1-0.5-1.4
			c-0.3-0.3-0.8-0.5-1.4-0.5c-0.6,0-1.1,0.2-1.5,0.6s-0.6,0.9-0.6,1.5H698c0-0.5,0.1-1,0.3-1.4s0.5-0.7,1-1c0.4-0.2,0.9-0.4,1.4-0.4
			c0.8,0,1.5,0.2,1.9,0.6c0.5,0.4,0.7,1,0.7,1.8c0,0.4-0.1,0.9-0.4,1.4c-0.3,0.5-0.7,1.1-1.4,1.9l-2.5,2.8h4.7V266.8z"/>
		<path class="st7" d="M705.2,266.3c0-0.1,0-0.3,0.1-0.4c0.1-0.1,0.2-0.1,0.4-0.1s0.3,0,0.4,0.1c0.1,0.1,0.1,0.2,0.1,0.4
			c0,0.1,0,0.3-0.1,0.4c-0.1,0.1-0.2,0.1-0.4,0.1s-0.3,0-0.4-0.1C705.3,266.6,705.2,266.5,705.2,266.3z"/>
		<path class="st7" d="M712.5,257.8v0.6h-0.1c-1.1,0-1.9,0.3-2.5,1s-1,1.5-1,2.6c0.2-0.3,0.6-0.6,0.9-0.8s0.8-0.3,1.3-0.3
			c0.8,0,1.4,0.3,1.9,0.8c0.5,0.5,0.7,1.2,0.7,2.1c0,0.6-0.1,1.1-0.3,1.6c-0.2,0.5-0.5,0.8-0.9,1.1s-0.9,0.4-1.4,0.4
			c-0.9,0-1.5-0.3-2.1-0.9s-0.8-1.4-0.8-2.4v-0.7c0-1.6,0.4-2.8,1.1-3.7c0.7-0.9,1.8-1.3,3.1-1.3L712.5,257.8L712.5,257.8z
			 M711,261.5c-0.5,0-0.9,0.1-1.3,0.4c-0.4,0.3-0.7,0.6-0.8,1v0.6c0,0.8,0.2,1.4,0.6,1.9c0.4,0.5,0.9,0.7,1.6,0.7
			c0.6,0,1-0.2,1.4-0.7c0.3-0.5,0.5-1,0.5-1.7c0-0.7-0.2-1.3-0.5-1.7C712.1,261.8,711.6,261.5,711,261.5z"/>
	</g>
	<rect x="790.6" y="249.9" class="st5" width="32.6" height="14.3"/>
	<g class="st6">
		<path class="st7" d="M797,259.3h-5.6v-0.6l3.1-3.5c0.5-0.6,0.9-1.1,1.1-1.4c0.2-0.4,0.3-0.8,0.3-1.1c0-0.6-0.2-1-0.5-1.4
			s-0.8-0.5-1.4-0.5c-0.6,0-1.1,0.2-1.5,0.6s-0.6,0.9-0.6,1.5h-0.7c0-0.5,0.1-1,0.3-1.4s0.5-0.7,1-1c0.4-0.2,0.9-0.4,1.4-0.4
			c0.8,0,1.5,0.2,1.9,0.6c0.5,0.4,0.7,1,0.7,1.8c0,0.4-0.1,0.9-0.4,1.4c-0.3,0.5-0.7,1.1-1.4,1.9l-2.5,2.8h4.7V259.3z"/>
		<path class="st7" d="M798.5,258.9c0-0.1,0-0.3,0.1-0.4c0.1-0.1,0.2-0.1,0.4-0.1s0.3,0,0.4,0.1c0.1,0.1,0.1,0.2,0.1,0.4
			c0,0.1,0,0.3-0.1,0.4c-0.1,0.1-0.2,0.1-0.4,0.1s-0.3,0-0.4-0.1C798.5,259.1,798.5,259,798.5,258.9z"/>
		<path class="st7" d="M806,255.2c-0.3,0.4-0.6,0.7-1,0.9s-0.8,0.3-1.3,0.3c-0.5,0-1-0.1-1.3-0.4c-0.4-0.3-0.7-0.6-0.9-1.1
			s-0.3-1-0.3-1.5c0-0.6,0.1-1.1,0.3-1.6s0.5-0.9,1-1.1c0.4-0.3,0.9-0.4,1.4-0.4c0.9,0,1.6,0.3,2.1,0.9s0.8,1.5,0.8,2.7v0.7
			c0,1.6-0.3,2.8-1,3.6s-1.7,1.2-3.2,1.2h-0.1l0-0.6h0.3c1.1,0,1.9-0.3,2.4-0.9C805.7,257.2,806,256.4,806,255.2z M803.9,255.7
			c0.5,0,0.9-0.1,1.3-0.4s0.7-0.7,0.8-1.1v-0.4c0-0.9-0.2-1.6-0.6-2.1s-0.9-0.8-1.5-0.8c-0.6,0-1.1,0.2-1.4,0.7s-0.6,1.1-0.6,1.8
			c0,0.7,0.2,1.2,0.5,1.7C802.8,255.5,803.3,255.7,803.9,255.7z"/>
	</g>
	<rect x="836.7" y="272.8" class="st5" width="32.6" height="14.3"/>
	<g class="st6">
		<path class="st7" d="M843.1,282.2h-5.6v-0.6l3.1-3.5c0.5-0.6,0.9-1.1,1.1-1.5s0.3-0.8,0.3-1.1c0-0.6-0.2-1-0.5-1.3
			s-0.8-0.5-1.4-0.5c-0.6,0-1.1,0.2-1.5,0.6c-0.4,0.4-0.6,0.9-0.6,1.5h-0.7c0-0.5,0.1-1,0.3-1.4c0.2-0.4,0.5-0.7,1-1
			c0.4-0.2,0.9-0.4,1.4-0.4c0.8,0,1.5,0.2,1.9,0.6c0.5,0.4,0.7,1,0.7,1.8c0,0.4-0.1,0.9-0.4,1.4c-0.3,0.5-0.7,1.1-1.4,1.9l-2.5,2.8
			h4.7V282.2z"/>
		<path class="st7" d="M844.5,281.8c0-0.1,0-0.3,0.1-0.4c0.1-0.1,0.2-0.1,0.4-0.1c0.2,0,0.3,0,0.4,0.1c0.1,0.1,0.1,0.2,0.1,0.4
			c0,0.1,0,0.3-0.1,0.4s-0.2,0.1-0.4,0.1c-0.2,0-0.3,0-0.4-0.1C844.6,282,844.5,281.9,844.5,281.8z"/>
		<path class="st7" d="M850.9,282.2h-0.7v-8.1l-2.4,0.9v-0.7l3-1.1h0.1L850.9,282.2L850.9,282.2z"/>
	</g>
	<rect x="884.3" y="288.9" class="st5" width="32.6" height="14.3"/>
	<g class="st6">
		<path class="st7" d="M888.6,298.3h-0.7v-8.1l-2.4,0.9v-0.7l3-1.1h0.1L888.6,298.3L888.6,298.3z"/>
		<path class="st7" d="M892.2,297.9c0-0.1,0-0.3,0.1-0.4s0.2-0.1,0.4-0.1s0.3,0,0.4,0.1c0.1,0.1,0.1,0.2,0.1,0.4
			c0,0.1,0,0.3-0.1,0.4s-0.2,0.1-0.4,0.1s-0.3,0-0.4-0.1C892.2,298.1,892.2,298,892.2,297.9z"/>
		<path class="st7" d="M895.7,293.7l0.4-4.4h4.5v0.7h-3.8l-0.3,3c0.5-0.3,1-0.5,1.7-0.5c0.8,0,1.5,0.3,1.9,0.8s0.7,1.2,0.7,2.1
			c0,0.9-0.2,1.7-0.7,2.2c-0.5,0.5-1.1,0.8-2,0.8c-0.8,0-1.4-0.2-1.9-0.6c-0.5-0.4-0.8-1-0.8-1.8h0.7c0.1,0.6,0.3,1.1,0.6,1.4
			c0.3,0.3,0.8,0.5,1.4,0.5c0.6,0,1.1-0.2,1.5-0.6s0.5-1,0.5-1.7c0-0.7-0.2-1.2-0.5-1.6c-0.4-0.4-0.9-0.6-1.5-0.6
			c-0.3,0-0.7,0-0.9,0.1c-0.3,0.1-0.5,0.3-0.8,0.5L895.7,293.7z"/>
	</g>
	<rect x="929.3" y="299.2" class="st5" width="32.6" height="14.3"/>
	<g class="st6">
		<path class="st7" d="M933.6,308.6h-0.7v-8.1l-2.4,0.9v-0.7l3-1.1h0.1L933.6,308.6L933.6,308.6z"/>
		<path class="st7" d="M937.2,308.2c0-0.1,0-0.3,0.1-0.4c0.1-0.1,0.2-0.1,0.4-0.1c0.2,0,0.3,0,0.4,0.1c0.1,0.1,0.1,0.2,0.1,0.4
			c0,0.1,0,0.3-0.1,0.4s-0.2,0.1-0.4,0.1c-0.2,0-0.3,0-0.4-0.1C937.3,308.4,937.2,308.3,937.2,308.2z"/>
		<path class="st7" d="M943.6,308.6h-0.7v-8.1l-2.4,0.9v-0.7l3-1.1h0.1L943.6,308.6L943.6,308.6z"/>
	</g>
	<rect x="977.4" y="306.3" class="st5" width="32.6" height="14.3"/>
	<g class="st6">
		<path class="st7" d="M981.7,315.8h-0.7v-8.1l-2.4,0.9v-0.7l3-1.1h0.1L981.7,315.8L981.7,315.8z"/>
		<path class="st7" d="M985.3,315.3c0-0.1,0-0.3,0.1-0.4c0.1-0.1,0.2-0.1,0.4-0.1s0.3,0,0.4,0.1c0.1,0.1,0.1,0.2,0.1,0.4
			c0,0.1,0,0.3-0.1,0.4s-0.2,0.1-0.4,0.1s-0.3,0-0.4-0.1C985.3,315.6,985.3,315.5,985.3,315.3z"/>
		<path class="st7" d="M993.7,312c0,1.3-0.2,2.2-0.7,2.9c-0.5,0.6-1.2,1-2,1c-0.9,0-1.6-0.3-2-1s-0.7-1.6-0.7-2.8v-1.6
			c0-1.3,0.2-2.2,0.7-2.9c0.5-0.6,1.2-1,2-1c0.9,0,1.6,0.3,2,0.9c0.5,0.6,0.7,1.5,0.7,2.8L993.7,312L993.7,312z M992.9,310.4
			c0-1-0.2-1.8-0.5-2.3s-0.8-0.8-1.5-0.8c-0.7,0-1.2,0.3-1.5,0.8c-0.3,0.5-0.5,1.3-0.5,2.3v1.8c0,1,0.2,1.8,0.5,2.3
			c0.3,0.5,0.8,0.8,1.5,0.8c0.7,0,1.2-0.3,1.5-0.8c0.3-0.5,0.5-1.3,0.5-2.3L992.9,310.4L992.9,310.4z"/>
	</g>
	<rect x="1022.2" y="308.5" class="st5" width="32.6" height="14.3"/>
	<g class="st6">
		<path class="st7" d="M1028.4,314.2c0,1.3-0.2,2.2-0.7,2.9c-0.5,0.6-1.2,1-2.1,1c-0.9,0-1.6-0.3-2-1s-0.7-1.6-0.7-2.8v-1.6
			c0-1.3,0.2-2.2,0.7-2.9c0.5-0.6,1.2-1,2.1-1c0.9,0,1.6,0.3,2,0.9s0.7,1.5,0.7,2.8L1028.4,314.2L1028.4,314.2z M1027.7,312.6
			c0-1-0.2-1.8-0.5-2.3s-0.8-0.8-1.5-0.8c-0.7,0-1.2,0.3-1.5,0.8c-0.3,0.5-0.5,1.3-0.5,2.3v1.8c0,1,0.2,1.8,0.5,2.3
			c0.3,0.5,0.8,0.8,1.5,0.8s1.2-0.3,1.5-0.8s0.5-1.3,0.5-2.3L1027.7,312.6L1027.7,312.6z"/>
		<path class="st7" d="M1030.1,317.5c0-0.1,0.1-0.3,0.1-0.4c0.1-0.1,0.2-0.1,0.4-0.1s0.3,0,0.4,0.1c0.1,0.1,0.1,0.2,0.1,0.4
			c0,0.1-0.1,0.3-0.1,0.4s-0.2,0.1-0.4,0.1c-0.2,0-0.3,0-0.4-0.1C1030.1,317.8,1030.1,317.7,1030.1,317.5z"/>
		<path class="st7" d="M1037.6,313.8c-0.3,0.4-0.6,0.7-1,0.9s-0.8,0.3-1.3,0.3c-0.5,0-1-0.1-1.3-0.4s-0.7-0.6-0.9-1.1
			c-0.2-0.5-0.3-1-0.3-1.5c0-0.6,0.1-1.1,0.3-1.6c0.2-0.5,0.5-0.9,0.9-1.1s0.9-0.4,1.4-0.4c0.9,0,1.6,0.3,2.1,0.9s0.8,1.5,0.8,2.7
			v0.7c0,1.6-0.3,2.8-1,3.6c-0.7,0.8-1.7,1.2-3.2,1.2h-0.1l0-0.6h0.3c1.1,0,1.9-0.3,2.4-0.9S1037.6,315,1037.6,313.8z M1035.5,314.4
			c0.5,0,0.9-0.1,1.3-0.4c0.4-0.3,0.7-0.7,0.8-1.1v-0.4c0-0.9-0.2-1.6-0.6-2.1s-0.9-0.8-1.5-0.8c-0.6,0-1.1,0.2-1.4,0.7
			s-0.6,1.1-0.6,1.8c0,0.7,0.2,1.2,0.5,1.7C1034.4,314.2,1034.9,314.4,1035.5,314.4z"/>
	</g>
	<rect x="1070.3" y="21.7" class="st5" width="32.6" height="14.3"/>
	<g class="st6">
		<path class="st7" d="M1074.6,31.1h-0.7v-8.1l-2.4,0.9v-0.7l3.1-1.1h0.1L1074.6,31.1L1074.6,31.1z"/>
		<path class="st7" d="M1081.5,31.1h-0.7v-8.1l-2.4,0.9v-0.7l3.1-1.1h0.1L1081.5,31.1L1081.5,31.1z"/>
		<path class="st7" d="M1085.1,30.7c0-0.1,0.1-0.3,0.1-0.4c0.1-0.1,0.2-0.1,0.4-0.1s0.3,0,0.4,0.1s0.1,0.2,0.1,0.4
			c0,0.1-0.1,0.3-0.1,0.4s-0.2,0.1-0.4,0.1c-0.2,0-0.3,0-0.4-0.1C1085.2,30.9,1085.1,30.8,1085.1,30.7z"/>
		<path class="st7" d="M1092.4,22.1v0.6h-0.1c-1.1,0-1.9,0.3-2.5,1s-1,1.5-1,2.6c0.2-0.3,0.6-0.6,0.9-0.8s0.8-0.3,1.3-0.3
			c0.8,0,1.4,0.3,1.9,0.8c0.5,0.5,0.7,1.2,0.7,2.1c0,0.6-0.1,1.1-0.3,1.6s-0.5,0.8-0.9,1.1s-0.9,0.4-1.4,0.4c-0.9,0-1.6-0.3-2.1-0.9
			c-0.5-0.6-0.8-1.4-0.8-2.4v-0.7c0-1.6,0.4-2.8,1.1-3.7s1.8-1.3,3.1-1.3L1092.4,22.1L1092.4,22.1z M1090.9,25.9
			c-0.5,0-0.9,0.1-1.3,0.4s-0.7,0.6-0.8,1V28c0,0.8,0.2,1.4,0.6,1.9c0.4,0.5,0.9,0.7,1.6,0.7c0.6,0,1-0.2,1.4-0.7s0.5-1,0.5-1.7
			c0-0.7-0.2-1.3-0.5-1.7C1092,26.1,1091.5,25.9,1090.9,25.9z"/>
	</g>
	<rect x="129.8" y="358.2" class="st5" width="45" height="27.4"/>
	<g class="st6">
		<path class="st7" d="M136,359.4h-2.5v6.9h-1v-6.9H130v-0.8h5.9V359.4z"/>
		<path class="st7" d="M136.2,363.4c0-0.6,0.1-1.1,0.3-1.5s0.5-0.8,0.9-1s0.8-0.4,1.3-0.4c0.8,0,1.4,0.3,1.9,0.8
			c0.5,0.5,0.7,1.2,0.7,2.1v0.1c0,0.6-0.1,1-0.3,1.5c-0.2,0.4-0.5,0.8-0.9,1c-0.4,0.2-0.9,0.4-1.4,0.4c-0.8,0-1.4-0.3-1.9-0.8
			C136.4,365,136.2,364.3,136.2,363.4L136.2,363.4L136.2,363.4z M137.1,363.5c0,0.6,0.1,1.1,0.4,1.5c0.3,0.4,0.7,0.6,1.2,0.6
			c0.5,0,0.9-0.2,1.2-0.6c0.3-0.4,0.4-0.9,0.4-1.6c0-0.6-0.1-1.1-0.4-1.5c-0.3-0.4-0.7-0.6-1.2-0.6c-0.5,0-0.9,0.2-1.2,0.6
			C137.3,362.2,137.1,362.8,137.1,363.5z"/>
		<path class="st7" d="M144.4,364.8l1.3-4.3h1l-2.3,6.6c-0.4,1-0.9,1.4-1.7,1.4l-0.2,0l-0.4-0.1v-0.8l0.3,0c0.3,0,0.6-0.1,0.8-0.2
			c0.2-0.1,0.3-0.4,0.5-0.7l0.2-0.6l-2-5.6h1.1L144.4,364.8z"/>
		<path class="st7" d="M147.3,363.4c0-0.6,0.1-1.1,0.3-1.5s0.5-0.8,0.9-1s0.8-0.4,1.3-0.4c0.8,0,1.4,0.3,1.9,0.8
			c0.5,0.5,0.7,1.2,0.7,2.1v0.1c0,0.6-0.1,1-0.3,1.5c-0.2,0.4-0.5,0.8-0.9,1c-0.4,0.2-0.9,0.4-1.4,0.4c-0.8,0-1.4-0.3-1.9-0.8
			C147.5,365,147.3,364.3,147.3,363.4L147.3,363.4L147.3,363.4z M148.2,363.5c0,0.6,0.1,1.1,0.4,1.5c0.3,0.4,0.7,0.6,1.2,0.6
			c0.5,0,0.9-0.2,1.2-0.6c0.3-0.4,0.4-0.9,0.4-1.6c0-0.6-0.1-1.1-0.4-1.5c-0.3-0.4-0.7-0.6-1.2-0.6c-0.5,0-0.9,0.2-1.2,0.6
			C148.4,362.2,148.2,362.8,148.2,363.5z"/>
		<path class="st7" d="M155,359.2v1.4h1.1v0.8H155v3.5c0,0.2,0.1,0.4,0.1,0.5c0.1,0.1,0.3,0.2,0.5,0.2c0.1,0,0.3,0,0.5-0.1v0.8
			c-0.3,0.1-0.5,0.1-0.8,0.1c-0.4,0-0.8-0.1-1-0.4c-0.2-0.3-0.3-0.6-0.3-1.1v-3.5h-1v-0.8h1v-1.4L155,359.2L155,359.2z"/>
		<path class="st7" d="M160.7,366.3c-0.1-0.1-0.1-0.3-0.1-0.6c-0.4,0.5-1,0.7-1.6,0.7c-0.6,0-1-0.2-1.4-0.5s-0.5-0.7-0.5-1.2
			c0-0.6,0.2-1,0.7-1.4c0.4-0.3,1.1-0.5,1.9-0.5h0.9v-0.5c0-0.3-0.1-0.6-0.3-0.8c-0.2-0.2-0.5-0.3-0.9-0.3c-0.4,0-0.6,0.1-0.9,0.3
			c-0.2,0.2-0.4,0.4-0.4,0.6h-1c0-0.3,0.1-0.6,0.3-0.8s0.5-0.5,0.8-0.6c0.4-0.2,0.7-0.2,1.1-0.2c0.7,0,1.2,0.2,1.5,0.5
			s0.6,0.8,0.6,1.4v2.6c0,0.5,0.1,0.9,0.2,1.2v0.1L160.7,366.3L160.7,366.3z M159.1,365.5c0.3,0,0.6-0.1,0.9-0.2
			c0.3-0.2,0.5-0.4,0.6-0.6v-1.2h-0.8c-1.2,0-1.8,0.4-1.8,1c0,0.3,0.1,0.5,0.3,0.7C158.5,365.4,158.8,365.5,159.1,365.5z"/>
	</g>
	<rect x="187.6" y="358.2" class="st5" width="38.3" height="27.4"/>
	<g class="st6">
		<path class="st8" d="M191.1,364.9l2.2-6.3h1.1l-2.9,7.7h-0.9l-2.8-7.7h1.1L191.1,364.9z"/>
		<path class="st8" d="M197,363.8l0.1,1l0.2-0.9l1.5-5.4h0.9l1.5,5.4l0.2,0.9l0.2-1l1.2-5.2h1l-1.9,7.7h-0.9l-1.6-5.6l-0.1-0.6
			l-0.1,0.6l-1.6,5.6h-0.9l-1.9-7.7h1L197,363.8z"/>
	</g>
	<rect x="229.6" y="357.3" class="st5" width="38.3" height="27.4"/>
	<g class="st6">
		<path class="st7" d="M233.4,362.3h-1.8v3.1h-1v-7.7h2.5c0.9,0,1.5,0.2,2,0.6c0.5,0.4,0.7,1,0.7,1.7c0,0.5-0.1,0.9-0.4,1.2
			s-0.6,0.6-1.1,0.8l1.8,3.3v0.1H235L233.4,362.3z M231.6,361.4h1.6c0.5,0,0.9-0.1,1.2-0.4s0.4-0.6,0.4-1c0-0.5-0.1-0.8-0.4-1.1
			s-0.7-0.4-1.2-0.4h-1.6L231.6,361.4L231.6,361.4z"/>
		<path class="st7" d="M243.1,365.4h-1l-3.9-5.9v5.9h-1v-7.7h1l3.9,5.9v-5.9h1L243.1,365.4L243.1,365.4z"/>
		<path class="st7" d="M246.2,357.7l2.5,6.3l2.5-6.3h1.3v7.7h-1v-3l0.1-3.2l-2.5,6.2h-0.8l-2.5-6.2l0.1,3.2v3h-1v-7.7L246.2,357.7
			L246.2,357.7z"/>
	</g>
	<rect x="310.8" y="357.3" class="st5" width="48.8" height="27.4"/>
	<g class="st6">
		<path class="st8" d="M316,362h-3.2v3.4h-1v-7.7h4.8v0.8h-3.7v2.6h3.2L316,362L316,362z"/>
		<path class="st8" d="M323.3,362.9c-0.1,0.8-0.4,1.4-0.9,1.9s-1.2,0.7-2,0.7c-0.9,0-1.6-0.3-2.2-1s-0.8-1.5-0.8-2.6v-0.7
			c0-0.7,0.1-1.3,0.4-1.9s0.6-1,1.1-1.2c0.5-0.3,1-0.4,1.6-0.4c0.8,0,1.5,0.2,2,0.7c0.5,0.5,0.8,1.1,0.9,1.9h-1
			c-0.1-0.6-0.3-1.1-0.6-1.3s-0.7-0.4-1.2-0.4c-0.6,0-1.1,0.2-1.5,0.7s-0.5,1.2-0.5,2v0.7c0,0.8,0.2,1.5,0.5,2s0.8,0.7,1.5,0.7
			c0.6,0,1-0.1,1.3-0.4c0.3-0.2,0.5-0.7,0.6-1.3L323.3,362.9L323.3,362.9z"/>
		<path class="st8" d="M329,363.4h-3.2l-0.7,2h-1l2.9-7.7h0.9l2.9,7.7h-1L329,363.4z M326,362.5h2.6l-1.3-3.6L326,362.5z"/>
		<path class="st8" d="M334.4,361.2h2.1v0.9h-2.1v2.4h-1v-2.4h-2.1v-0.9h2.1V359h1V361.2z"/>
		<path class="st8" d="M338.9,362.4v3h-1v-7.7h2.8c0.8,0,1.5,0.2,2,0.6c0.5,0.4,0.7,1,0.7,1.7c0,0.7-0.2,1.3-0.7,1.7s-1.1,0.6-2,0.6
			L338.9,362.4L338.9,362.4z M338.9,361.5h1.8c0.5,0,1-0.1,1.2-0.4s0.4-0.6,0.4-1.1c0-0.5-0.1-0.8-0.4-1.1s-0.7-0.4-1.2-0.4h-1.9
			L338.9,361.5L338.9,361.5z"/>
		<path class="st8" d="M347,362c-0.9-0.2-1.5-0.6-1.9-0.9c-0.4-0.4-0.6-0.8-0.6-1.4c0-0.6,0.2-1.1,0.7-1.5c0.5-0.4,1.1-0.6,1.9-0.6
			c0.5,0,1,0.1,1.4,0.3c0.4,0.2,0.7,0.5,1,0.8c0.2,0.4,0.3,0.8,0.3,1.2h-1c0-0.5-0.1-0.8-0.4-1.1c-0.3-0.3-0.7-0.4-1.2-0.4
			c-0.5,0-0.9,0.1-1.2,0.3s-0.4,0.5-0.4,0.9c0,0.3,0.1,0.6,0.4,0.8c0.3,0.2,0.7,0.4,1.4,0.6c0.6,0.2,1.1,0.4,1.5,0.6
			s0.6,0.5,0.8,0.8c0.2,0.3,0.3,0.6,0.3,1c0,0.6-0.2,1.1-0.7,1.5c-0.5,0.4-1.1,0.6-2,0.6c-0.5,0-1-0.1-1.5-0.3
			c-0.5-0.2-0.8-0.5-1.1-0.8c-0.2-0.4-0.4-0.8-0.4-1.2h1c0,0.5,0.2,0.8,0.5,1.1c0.3,0.3,0.8,0.4,1.4,0.4c0.5,0,0.9-0.1,1.2-0.3
			c0.3-0.2,0.4-0.5,0.4-0.9c0-0.4-0.1-0.7-0.4-0.9C348.1,362.4,347.7,362.1,347,362z"/>
		<path class="st8" d="M355.4,363.4h-3.2l-0.7,2h-1l2.9-7.7h0.9l2.9,7.7h-1L355.4,363.4z M352.4,362.5h2.6l-1.3-3.6L352.4,362.5z"/>
	</g>
	<rect x="363.1" y="355.8" class="st5" width="48.8" height="27.4"/>
	<g class="st6">
		<path class="st7" d="M369.9,363.9h-1v-3.5H365v3.5h-1v-7.7h1v3.3h3.9v-3.3h1V363.9z"/>
		<path class="st7" d="M373.4,362.4l1.3-4.3h1l-2.3,6.6c-0.4,1-0.9,1.4-1.7,1.4l-0.2,0l-0.4-0.1v-0.8l0.3,0c0.3,0,0.6-0.1,0.8-0.2
			s0.3-0.4,0.5-0.7l0.2-0.6l-2-5.6h1.1L373.4,362.4z"/>
		<path class="st7" d="M380.2,363.3c-0.4,0.5-0.9,0.7-1.7,0.7c-0.6,0-1.1-0.2-1.4-0.5s-0.5-0.9-0.5-1.6v-3.7h1v3.7
			c0,0.9,0.4,1.3,1,1.3c0.8,0,1.2-0.3,1.5-0.8v-4.1h1v5.7h-0.9L380.2,363.3z"/>
		<path class="st7" d="M383.5,358.2l0,0.7c0.4-0.5,1-0.8,1.7-0.8c1.2,0,1.8,0.7,1.8,2v3.8h-1v-3.8c0-0.4-0.1-0.7-0.3-0.9
			s-0.5-0.3-0.9-0.3c-0.3,0-0.6,0.1-0.8,0.2s-0.4,0.4-0.6,0.7v4.1h-1v-5.7H383.5z"/>
		<path class="st7" d="M388.3,361c0-0.9,0.2-1.6,0.6-2.1s1-0.8,1.6-0.8s1.2,0.2,1.6,0.7v-3h1v8.1h-0.9l0-0.6
			c-0.4,0.5-0.9,0.7-1.6,0.7c-0.7,0-1.2-0.3-1.6-0.8S388.3,361.9,388.3,361L388.3,361L388.3,361z M389.3,361.1
			c0,0.6,0.1,1.1,0.4,1.5s0.6,0.5,1.1,0.5c0.6,0,1.1-0.3,1.4-0.8v-2.6c-0.3-0.5-0.7-0.8-1.3-0.8c-0.5,0-0.9,0.2-1.1,0.5
			S389.3,360.4,389.3,361.1z"/>
		<path class="st7" d="M398.2,363.9c-0.1-0.1-0.1-0.3-0.1-0.6c-0.5,0.5-1,0.7-1.6,0.7c-0.6,0-1-0.2-1.4-0.5
			c-0.4-0.3-0.5-0.7-0.5-1.2c0-0.6,0.2-1,0.7-1.4c0.5-0.3,1.1-0.5,1.9-0.5h1V360c0-0.3-0.1-0.6-0.3-0.8c-0.2-0.2-0.5-0.3-0.9-0.3
			c-0.4,0-0.6,0.1-0.9,0.3c-0.2,0.2-0.4,0.4-0.4,0.6h-1c0-0.3,0.1-0.6,0.3-0.8s0.5-0.5,0.8-0.6c0.4-0.2,0.7-0.2,1.1-0.2
			c0.7,0,1.2,0.2,1.5,0.5s0.6,0.8,0.6,1.4v2.6c0,0.5,0.1,0.9,0.2,1.2v0.1L398.2,363.9L398.2,363.9z M396.6,363.1
			c0.3,0,0.6-0.1,0.9-0.2s0.5-0.4,0.6-0.6v-1.2h-0.8c-1.2,0-1.8,0.4-1.8,1c0,0.3,0.1,0.5,0.3,0.7C396,363,396.2,363.1,396.6,363.1z"
			/>
		<path class="st7" d="M400.5,356.6c0-0.2,0-0.3,0.1-0.4s0.2-0.2,0.4-0.2s0.3,0,0.4,0.2c0.1,0.1,0.1,0.2,0.1,0.4s0,0.3-0.1,0.4
			s-0.2,0.2-0.4,0.2s-0.3,0-0.4-0.2S400.5,356.8,400.5,356.6z M401.6,363.9h-1v-5.7h1V363.9z"/>
	</g>
	<rect x="466.7" y="357.3" class="st5" width="24.4" height="27.4"/>
	<g class="st6">
		<path class="st7" d="M473.2,364.4c-0.3,0.4-0.6,0.6-1.1,0.8s-1,0.3-1.6,0.3c-0.6,0-1.2-0.1-1.7-0.4c-0.5-0.3-0.9-0.7-1.1-1.2
			c-0.3-0.5-0.4-1.2-0.4-1.9v-0.7c0-1.2,0.3-2,0.8-2.7s1.3-1,2.3-1c0.8,0,1.5,0.2,1.9,0.6s0.8,1,0.9,1.7h-1c-0.2-1-0.8-1.5-1.8-1.5
			c-0.7,0-1.2,0.2-1.5,0.7c-0.4,0.5-0.5,1.2-0.5,2.1v0.6c0,0.9,0.2,1.5,0.6,2c0.4,0.5,0.9,0.8,1.6,0.8c0.4,0,0.7,0,1-0.1
			c0.3-0.1,0.5-0.2,0.7-0.4v-1.7h-1.8v-0.8h2.8L473.2,364.4L473.2,364.4z"/>
		<path class="st7" d="M476.2,357.7l2.5,6.3l2.5-6.3h1.3v7.7h-1v-3l0.1-3.2l-2.5,6.2h-0.8l-2.5-6.2l0.1,3.2v3h-1v-7.7L476.2,357.7
			L476.2,357.7z"/>
	</g>
	<rect x="506" y="357.3" class="st5" width="33.2" height="27.4"/>
	<g class="st6">
		<path class="st7" d="M512.8,365.4h-1v-3.5h-3.9v3.5h-1v-7.7h1v3.3h3.9v-3.3h1V365.4z"/>
		<path class="st7" d="M514.2,362.5c0-0.6,0.1-1.1,0.3-1.5c0.2-0.5,0.5-0.8,0.9-1c0.4-0.2,0.8-0.4,1.3-0.4c0.8,0,1.4,0.3,1.9,0.8
			s0.7,1.2,0.7,2.1v0.1c0,0.5-0.1,1-0.3,1.5s-0.5,0.8-0.9,1c-0.4,0.2-0.8,0.4-1.4,0.4c-0.8,0-1.4-0.3-1.9-0.8
			S514.2,363.4,514.2,362.5L514.2,362.5L514.2,362.5z M515.2,362.6c0,0.6,0.2,1.1,0.4,1.5s0.7,0.6,1.2,0.6c0.5,0,0.9-0.2,1.2-0.6
			c0.3-0.4,0.4-0.9,0.4-1.6c0-0.6-0.2-1.1-0.5-1.5c-0.3-0.4-0.7-0.6-1.2-0.6c-0.5,0-0.9,0.2-1.2,0.6
			C515.3,361.3,515.2,361.9,515.2,362.6z"/>
		<path class="st7" d="M521.5,359.7l0,0.7c0.4-0.5,1-0.8,1.7-0.8c1.2,0,1.8,0.7,1.8,2v3.8h-1v-3.8c0-0.4-0.1-0.7-0.3-0.9
			s-0.5-0.3-0.9-0.3c-0.3,0-0.6,0.1-0.8,0.2s-0.4,0.4-0.6,0.7v4.1h-1v-5.7H521.5z"/>
		<path class="st7" d="M526.3,362.5c0-0.9,0.2-1.6,0.6-2.1s1-0.8,1.6-0.8s1.2,0.2,1.6,0.7v-3h1v8.1h-0.9l0-0.6
			c-0.4,0.5-0.9,0.7-1.6,0.7c-0.7,0-1.2-0.3-1.6-0.8S526.3,363.4,526.3,362.5L526.3,362.5z M527.3,362.6c0,0.6,0.1,1.1,0.4,1.5
			s0.6,0.5,1.1,0.5c0.6,0,1.1-0.3,1.3-0.8v-2.6c-0.3-0.5-0.7-0.8-1.3-0.8c-0.5,0-0.8,0.2-1.1,0.5S527.3,361.9,527.3,362.6z"/>
		<path class="st7" d="M536.2,365.4c-0.1-0.1-0.1-0.3-0.1-0.6c-0.5,0.5-1,0.7-1.6,0.7c-0.6,0-1-0.2-1.4-0.5s-0.5-0.7-0.5-1.2
			c0-0.6,0.2-1,0.7-1.4c0.5-0.3,1.1-0.5,1.9-0.5h0.9v-0.5c0-0.3-0.1-0.6-0.3-0.8c-0.2-0.2-0.5-0.3-0.9-0.3c-0.3,0-0.6,0.1-0.9,0.3
			c-0.2,0.2-0.3,0.4-0.3,0.6h-1c0-0.3,0.1-0.6,0.3-0.8s0.5-0.5,0.8-0.6c0.3-0.2,0.7-0.2,1.1-0.2c0.7,0,1.2,0.2,1.5,0.5
			s0.6,0.8,0.6,1.4v2.6c0,0.5,0.1,0.9,0.2,1.2v0.1L536.2,365.4L536.2,365.4z M534.5,364.6c0.3,0,0.6-0.1,0.9-0.2s0.5-0.4,0.6-0.6
			v-1.2h-0.8c-1.2,0-1.8,0.4-1.8,1c0,0.3,0.1,0.5,0.3,0.7C534,364.5,534.2,364.6,534.5,364.6z"/>
	</g>
	<rect x="556.6" y="357.3" class="st5" width="33.2" height="27.4"/>
	<g class="st6">
		<path class="st8" d="M561.7,362h-3.2v3.4h-1v-7.7h4.8v0.8h-3.7v2.6h3.2L561.7,362L561.7,362z"/>
		<path class="st8" d="M562.9,362.5c0-0.6,0.1-1.1,0.3-1.5c0.2-0.5,0.5-0.8,0.9-1c0.4-0.2,0.8-0.4,1.3-0.4c0.8,0,1.4,0.3,1.9,0.8
			s0.7,1.2,0.7,2.1v0.1c0,0.5-0.1,1-0.3,1.5s-0.5,0.8-0.9,1s-0.8,0.4-1.4,0.4c-0.8,0-1.4-0.3-1.9-0.8S562.9,363.4,562.9,362.5
			L562.9,362.5L562.9,362.5z M563.9,362.6c0,0.6,0.2,1.1,0.4,1.5c0.3,0.4,0.7,0.6,1.2,0.6c0.5,0,0.9-0.2,1.2-0.6
			c0.3-0.4,0.4-0.9,0.4-1.6c0-0.6-0.2-1.1-0.5-1.5c-0.3-0.4-0.7-0.6-1.2-0.6c-0.5,0-0.9,0.2-1.2,0.6
			C564,361.3,563.9,361.9,563.9,362.6z"/>
		<path class="st8" d="M572.1,360.5c-0.2,0-0.3,0-0.5,0c-0.6,0-1.1,0.3-1.3,0.8v4h-1v-5.7h1l0,0.7c0.3-0.5,0.8-0.8,1.4-0.8
			c0.2,0,0.3,0,0.4,0.1L572.1,360.5L572.1,360.5z"/>
		<path class="st8" d="M572.6,362.5c0-0.9,0.2-1.6,0.6-2.1c0.4-0.5,1-0.8,1.6-0.8s1.2,0.2,1.6,0.7v-3h1v8.1h-0.9l0-0.6
			c-0.4,0.5-0.9,0.7-1.6,0.7c-0.7,0-1.2-0.3-1.6-0.8S572.6,363.4,572.6,362.5L572.6,362.5z M573.6,362.6c0,0.6,0.1,1.1,0.4,1.5
			s0.6,0.5,1.1,0.5c0.6,0,1.1-0.3,1.4-0.8v-2.6c-0.3-0.5-0.7-0.8-1.3-0.8c-0.5,0-0.8,0.2-1.1,0.5
			C573.7,361.3,573.6,361.9,573.6,362.6z"/>
	</g>
	<rect x="689.4" y="357.3" class="st5" width="39" height="27.4"/>
	<g class="st6">
		<path class="st7" d="M696.9,365.4v-7.7h2.5c0.8,0,1.5,0.2,1.9,0.5c0.4,0.3,0.6,0.9,0.6,1.5c0,0.4-0.1,0.7-0.3,1
			c-0.2,0.3-0.5,0.5-0.8,0.6c0.4,0.1,0.7,0.3,1,0.7s0.4,0.7,0.4,1.2c0,0.7-0.2,1.2-0.7,1.6c-0.5,0.4-1.1,0.6-1.9,0.6L696.9,365.4
			L696.9,365.4z M698,361h1.5c0.4,0,0.8-0.1,1.1-0.3c0.3-0.2,0.4-0.5,0.4-0.9c0-0.4-0.1-0.7-0.4-0.9s-0.6-0.3-1.1-0.3H698L698,361
			L698,361z M698,361.8v2.8h1.7c0.5,0,0.8-0.1,1.1-0.4s0.4-0.6,0.4-1c0-0.9-0.5-1.4-1.5-1.4L698,361.8L698,361.8z"/>
		<path class="st7" d="M705,357.7l2.5,6.3l2.5-6.3h1.3v7.7h-1v-3l0.1-3.2l-2.5,6.2h-0.8l-2.5-6.2l0.1,3.2v3h-1v-7.7L705,357.7
			L705,357.7z"/>
		<path class="st7" d="M714.8,363l0.2,1l0.2-0.9l1.5-5.4h0.8l1.5,5.4l0.2,0.9l0.2-1l1.2-5.2h1l-1.9,7.7h-0.9l-1.6-5.6l-0.1-0.6
			l-0.1,0.6l-1.6,5.6h-0.9l-1.9-7.7h1L714.8,363z"/>
	</g>
	<rect x="780.7" y="357.3" class="st5" width="39" height="27.4"/>
	<g class="st6">
		<path class="st7" d="M787.5,362c-0.9-0.2-1.5-0.6-1.9-0.9c-0.4-0.4-0.6-0.8-0.6-1.4c0-0.6,0.2-1.1,0.7-1.5
			c0.5-0.4,1.1-0.6,1.9-0.6c0.5,0,1,0.1,1.4,0.3c0.4,0.2,0.7,0.5,1,0.8c0.2,0.4,0.3,0.8,0.3,1.2h-1c0-0.5-0.2-0.8-0.4-1.1
			c-0.3-0.3-0.7-0.4-1.2-0.4c-0.5,0-0.9,0.1-1.2,0.3s-0.4,0.5-0.4,0.9c0,0.3,0.1,0.6,0.4,0.8s0.7,0.4,1.4,0.6s1.1,0.4,1.5,0.6
			s0.6,0.5,0.8,0.8s0.3,0.6,0.3,1c0,0.6-0.2,1.1-0.7,1.5c-0.5,0.4-1.1,0.6-2,0.6c-0.5,0-1-0.1-1.5-0.3c-0.5-0.2-0.8-0.5-1.1-0.8
			c-0.2-0.4-0.4-0.8-0.4-1.2h1c0,0.5,0.2,0.8,0.5,1.1c0.3,0.3,0.8,0.4,1.4,0.4c0.5,0,0.9-0.1,1.2-0.3c0.3-0.2,0.4-0.5,0.4-0.9
			c0-0.4-0.1-0.7-0.4-0.9C788.6,362.4,788.1,362.1,787.5,362z"/>
		<path class="st7" d="M795,364.8c-0.4,0.5-0.9,0.7-1.7,0.7c-0.6,0-1.1-0.2-1.4-0.5s-0.5-0.9-0.5-1.6v-3.7h1v3.7
			c0,0.9,0.3,1.3,1,1.3c0.8,0,1.2-0.3,1.5-0.8v-4.1h1v5.7H795L795,364.8z"/>
		<path class="st7" d="M798.3,364.6h3.3v0.8h-4.5v-0.7l3.2-4.2h-3.1v-0.8h4.3v0.7L798.3,364.6z"/>
		<path class="st7" d="M806.3,364.8c-0.4,0.5-0.9,0.7-1.7,0.7c-0.6,0-1.1-0.2-1.4-0.5s-0.5-0.9-0.5-1.6v-3.7h1v3.7
			c0,0.9,0.3,1.3,1,1.3c0.8,0,1.2-0.3,1.5-0.8v-4.1h1v5.7h-0.9L806.3,364.8z"/>
		<path class="st7" d="M810.3,362.7l-0.6,0.6v2h-1v-8.1h1v4.9l0.5-0.6l1.8-1.9h1.2L811,362l2.5,3.3h-1.1L810.3,362.7z"/>
		<path class="st7" d="M814.2,358.1c0-0.2,0-0.3,0.1-0.4s0.2-0.2,0.4-0.2s0.3,0,0.4,0.2c0.1,0.1,0.2,0.2,0.2,0.4s0,0.3-0.2,0.4
			c-0.1,0.1-0.2,0.2-0.4,0.2s-0.3,0-0.4-0.2S814.2,358.3,814.2,358.1z M815.2,365.4h-1v-5.7h1V365.4z"/>
	</g>
	<rect x="826.5" y="357.3" class="st5" width="39" height="27.4"/>
	<g class="st6">
		<path class="st7" d="M839.3,364.4c-0.3,0.4-0.6,0.6-1.1,0.8s-1,0.3-1.6,0.3c-0.6,0-1.2-0.1-1.7-0.4s-0.9-0.7-1.1-1.2
			c-0.3-0.5-0.4-1.2-0.4-1.9v-0.7c0-1.2,0.3-2,0.8-2.7s1.3-1,2.3-1c0.8,0,1.5,0.2,1.9,0.6s0.8,1,0.9,1.7h-1c-0.2-1-0.8-1.5-1.8-1.5
			c-0.7,0-1.2,0.2-1.5,0.7c-0.3,0.5-0.5,1.2-0.5,2.1v0.6c0,0.9,0.2,1.5,0.6,2c0.4,0.5,0.9,0.8,1.6,0.8c0.4,0,0.7,0,1-0.1
			s0.5-0.2,0.7-0.4v-1.7h-1.8v-0.8h2.8L839.3,364.4L839.3,364.4z"/>
		<path class="st7" d="M843.2,365.5c-0.8,0-1.4-0.2-1.9-0.8s-0.7-1.2-0.7-2v-0.2c0-0.6,0.1-1.1,0.3-1.5c0.2-0.4,0.5-0.8,0.9-1
			c0.4-0.2,0.8-0.4,1.3-0.4c0.7,0,1.3,0.2,1.7,0.7c0.4,0.5,0.6,1.2,0.6,2.1v0.4h-3.9c0,0.6,0.2,1,0.5,1.4c0.3,0.4,0.7,0.5,1.2,0.5
			c0.3,0,0.6-0.1,0.9-0.2s0.5-0.3,0.6-0.6l0.6,0.5C844.9,365.1,844.2,365.5,843.2,365.5z M843.1,360.4c-0.4,0-0.7,0.1-1,0.4
			c-0.3,0.3-0.4,0.7-0.5,1.2h2.9v-0.1c0-0.5-0.2-0.9-0.4-1.1C843.8,360.5,843.5,360.4,843.1,360.4z"/>
		<path class="st7" d="M848.9,365.5c-0.8,0-1.4-0.2-1.9-0.8c-0.5-0.5-0.7-1.2-0.7-2v-0.2c0-0.6,0.1-1.1,0.3-1.5
			c0.2-0.4,0.5-0.8,0.9-1s0.8-0.4,1.3-0.4c0.7,0,1.3,0.2,1.7,0.7s0.6,1.2,0.6,2.1v0.4h-3.9c0,0.6,0.2,1,0.5,1.4s0.7,0.5,1.2,0.5
			c0.3,0,0.6-0.1,0.9-0.2c0.2-0.1,0.5-0.3,0.6-0.6l0.6,0.5C850.6,365.1,849.9,365.5,848.9,365.5z M848.8,360.4c-0.4,0-0.7,0.1-1,0.4
			c-0.3,0.3-0.4,0.7-0.5,1.2h2.9v-0.1c0-0.5-0.2-0.9-0.4-1.1C849.5,360.5,849.2,360.4,848.8,360.4z"/>
		<path class="st7" d="M853.3,365.4h-1v-8.1h1V365.4z"/>
		<path class="st7" d="M856.8,363.9l1.3-4.3h1l-2.3,6.6c-0.3,1-0.9,1.4-1.7,1.4l-0.2,0l-0.4-0.1v-0.8l0.3,0c0.3,0,0.6-0.1,0.8-0.2
			s0.3-0.4,0.5-0.7l0.2-0.6l-2-5.6h1.1L856.8,363.9z"/>
	</g>
	<rect x="873.3" y="357.3" class="st5" width="39" height="27.4"/>
	<g class="st6">
		<path class="st7" d="M878.7,357.7l2.5,6.3l2.5-6.3h1.3v7.7h-1v-3l0.1-3.2l-2.5,6.2h-0.8l-2.5-6.2l0.1,3.2v3h-1v-7.7L878.7,357.7
			L878.7,357.7z"/>
		<path class="st7" d="M890.2,365.4c-0.1-0.1-0.1-0.3-0.1-0.6c-0.5,0.5-1,0.7-1.6,0.7c-0.6,0-1-0.2-1.4-0.5s-0.5-0.7-0.5-1.2
			c0-0.6,0.2-1,0.7-1.4c0.5-0.3,1.1-0.5,1.9-0.5h0.9v-0.5c0-0.3-0.1-0.6-0.3-0.8c-0.2-0.2-0.5-0.3-0.9-0.3c-0.3,0-0.6,0.1-0.9,0.3
			c-0.2,0.2-0.3,0.4-0.3,0.6h-1c0-0.3,0.1-0.6,0.3-0.8s0.5-0.5,0.8-0.6c0.3-0.2,0.7-0.2,1.1-0.2c0.7,0,1.2,0.2,1.5,0.5
			s0.6,0.8,0.6,1.4v2.6c0,0.5,0.1,0.9,0.2,1.2v0.1L890.2,365.4L890.2,365.4z M888.5,364.6c0.3,0,0.6-0.1,0.9-0.2s0.5-0.4,0.6-0.6
			v-1.2h-0.8c-1.2,0-1.8,0.4-1.8,1c0,0.3,0.1,0.5,0.3,0.7C888,364.5,888.2,364.6,888.5,364.6z"/>
		<path class="st7" d="M893.4,364.6h3.3v0.8h-4.5v-0.7l3.2-4.2h-3.1v-0.8h4.3v0.7L893.4,364.6z"/>
		<path class="st7" d="M897.5,362.5c0-0.9,0.2-1.6,0.6-2.1s1-0.8,1.6-0.8s1.2,0.2,1.6,0.7v-3h1v8.1h-0.9l0-0.6
			c-0.4,0.5-0.9,0.7-1.6,0.7c-0.7,0-1.2-0.3-1.6-0.8S897.5,363.4,897.5,362.5L897.5,362.5z M898.5,362.6c0,0.6,0.1,1.1,0.4,1.5
			s0.6,0.5,1.1,0.5c0.6,0,1.1-0.3,1.3-0.8v-2.6c-0.3-0.5-0.7-0.8-1.3-0.8c-0.5,0-0.8,0.2-1.1,0.5
			C898.6,361.3,898.5,361.9,898.5,362.6z"/>
		<path class="st7" d="M907.4,365.4c-0.1-0.1-0.1-0.3-0.1-0.6c-0.5,0.5-1,0.7-1.6,0.7c-0.6,0-1-0.2-1.4-0.5s-0.5-0.7-0.5-1.2
			c0-0.6,0.2-1,0.7-1.4c0.5-0.3,1.1-0.5,1.9-0.5h1v-0.5c0-0.3-0.1-0.6-0.3-0.8c-0.2-0.2-0.5-0.3-0.9-0.3c-0.3,0-0.6,0.1-0.9,0.3
			s-0.3,0.4-0.3,0.6h-1c0-0.3,0.1-0.6,0.3-0.8s0.5-0.5,0.8-0.6c0.3-0.2,0.7-0.2,1.1-0.2c0.7,0,1.2,0.2,1.5,0.5s0.6,0.8,0.6,1.4v2.6
			c0,0.5,0.1,0.9,0.2,1.2v0.1L907.4,365.4L907.4,365.4z M905.8,364.6c0.3,0,0.6-0.1,0.9-0.2s0.5-0.4,0.6-0.6v-1.2h-0.8
			c-1.2,0-1.8,0.4-1.8,1c0,0.3,0.1,0.5,0.3,0.7C905.2,364.5,905.5,364.6,905.8,364.6z"/>
	</g>
	<rect x="915.1" y="357.3" class="st5" width="50.2" height="27.4"/>
	<g class="st6">
		<path class="st7" d="M922,364.4c-0.3,0.4-0.6,0.6-1.1,0.8s-1,0.3-1.6,0.3c-0.6,0-1.2-0.1-1.7-0.4s-0.9-0.7-1.1-1.2
			s-0.4-1.2-0.4-1.9v-0.7c0-1.2,0.3-2,0.8-2.7s1.3-1,2.3-1c0.8,0,1.5,0.2,1.9,0.6c0.5,0.4,0.8,1,0.9,1.7h-1c-0.2-1-0.8-1.5-1.8-1.5
			c-0.7,0-1.2,0.2-1.5,0.7s-0.5,1.2-0.5,2.1v0.6c0,0.9,0.2,1.5,0.6,2c0.4,0.5,0.9,0.8,1.6,0.8c0.4,0,0.7,0,1-0.1
			c0.3-0.1,0.5-0.2,0.7-0.4v-1.7h-1.8v-0.8h2.8L922,364.4L922,364.4z"/>
		<path class="st7" d="M926.3,360.5c-0.2,0-0.3,0-0.5,0c-0.6,0-1.1,0.3-1.3,0.8v4h-1v-5.7h1l0,0.7c0.3-0.5,0.8-0.8,1.4-0.8
			c0.2,0,0.3,0,0.4,0.1L926.3,360.5L926.3,360.5z"/>
		<path class="st7" d="M929.4,365.5c-0.8,0-1.4-0.2-1.9-0.8c-0.5-0.5-0.7-1.2-0.7-2v-0.2c0-0.6,0.1-1.1,0.3-1.5
			c0.2-0.4,0.5-0.8,0.9-1s0.8-0.4,1.3-0.4c0.7,0,1.3,0.2,1.7,0.7s0.6,1.2,0.6,2.1v0.4h-3.9c0,0.6,0.2,1,0.5,1.4s0.7,0.5,1.2,0.5
			c0.3,0,0.6-0.1,0.9-0.2c0.2-0.1,0.5-0.3,0.6-0.6l0.6,0.5C931.1,365.1,930.4,365.5,929.4,365.5z M929.3,360.4c-0.4,0-0.7,0.1-1,0.4
			c-0.3,0.3-0.4,0.7-0.5,1.2h2.9v-0.1c0-0.5-0.2-0.9-0.4-1.1C930,360.5,929.7,360.4,929.3,360.4z"/>
		<path class="st7" d="M936.3,365.4c-0.1-0.1-0.1-0.3-0.1-0.6c-0.5,0.5-1,0.7-1.6,0.7c-0.6,0-1-0.2-1.4-0.5s-0.5-0.7-0.5-1.2
			c0-0.6,0.2-1,0.7-1.4c0.5-0.3,1.1-0.5,1.9-0.5h1v-0.5c0-0.3-0.1-0.6-0.3-0.8c-0.2-0.2-0.5-0.3-0.9-0.3c-0.3,0-0.6,0.1-0.9,0.3
			c-0.2,0.2-0.3,0.4-0.3,0.6h-1c0-0.3,0.1-0.6,0.3-0.8s0.5-0.5,0.8-0.6c0.3-0.2,0.7-0.2,1.1-0.2c0.7,0,1.2,0.2,1.5,0.5
			s0.6,0.8,0.6,1.4v2.6c0,0.5,0.1,0.9,0.2,1.2v0.1L936.3,365.4L936.3,365.4z M934.7,364.6c0.3,0,0.6-0.1,0.9-0.2s0.5-0.4,0.6-0.6
			v-1.2h-0.8c-1.2,0-1.8,0.4-1.8,1c0,0.3,0.1,0.5,0.3,0.7C934.1,364.5,934.4,364.6,934.7,364.6z"/>
		<path class="st7" d="M940,358.3v1.4h1.1v0.8H940v3.5c0,0.2,0,0.4,0.1,0.5c0.1,0.1,0.3,0.2,0.5,0.2c0.1,0,0.3,0,0.5-0.1v0.8
			c-0.3,0.1-0.5,0.1-0.8,0.1c-0.4,0-0.8-0.1-1-0.4c-0.2-0.3-0.3-0.6-0.3-1.1v-3.5h-1v-0.8h1v-1.4L940,358.3L940,358.3z"/>
		<path class="st7" d="M946.7,363l0.2,1l0.2-0.9l1.5-5.4h0.8l1.5,5.4l0.2,0.9l0.2-1l1.2-5.2h1l-1.9,7.7h-0.9l-1.6-5.6l-0.1-0.6
			l-0.1,0.6l-1.6,5.6h-0.9l-1.9-7.7h1L946.7,363z"/>
		<path class="st7" d="M957.8,365.4c-0.1-0.1-0.1-0.3-0.1-0.6c-0.5,0.5-1,0.7-1.6,0.7c-0.6,0-1-0.2-1.4-0.5s-0.5-0.7-0.5-1.2
			c0-0.6,0.2-1,0.7-1.4c0.5-0.3,1.1-0.5,1.9-0.5h1v-0.5c0-0.3-0.1-0.6-0.3-0.8c-0.2-0.2-0.5-0.3-0.9-0.3c-0.3,0-0.6,0.1-0.9,0.3
			c-0.2,0.2-0.3,0.4-0.3,0.6h-1c0-0.3,0.1-0.6,0.3-0.8s0.5-0.5,0.8-0.6c0.3-0.2,0.7-0.2,1.1-0.2c0.7,0,1.2,0.2,1.5,0.5
			s0.6,0.8,0.6,1.4v2.6c0,0.5,0.1,0.9,0.2,1.2v0.1L957.8,365.4L957.8,365.4z M956.2,364.6c0.3,0,0.6-0.1,0.9-0.2s0.5-0.4,0.6-0.6
			v-1.2h-0.8c-1.2,0-1.8,0.4-1.8,1c0,0.3,0.1,0.5,0.3,0.7C955.6,364.5,955.9,364.6,956.2,364.6z"/>
		<path class="st7" d="M961.2,365.4h-1v-8.1h1V365.4z"/>
		<path class="st7" d="M963.8,365.4h-1v-8.1h1V365.4z"/>
	</g>
	<rect x="962.8" y="357.3" class="st5" width="50.2" height="27.4"/>
	<g class="st6">
		<path class="st7" d="M974.1,362c-0.9-0.2-1.5-0.6-1.9-0.9c-0.4-0.4-0.6-0.8-0.6-1.4c0-0.6,0.2-1.1,0.7-1.5
			c0.5-0.4,1.1-0.6,1.9-0.6c0.5,0,1,0.1,1.4,0.3c0.4,0.2,0.7,0.5,1,0.8c0.2,0.4,0.3,0.8,0.3,1.2h-1c0-0.5-0.2-0.8-0.4-1.1
			c-0.3-0.3-0.7-0.4-1.2-0.4c-0.5,0-0.9,0.1-1.2,0.3s-0.4,0.5-0.4,0.9c0,0.3,0.1,0.6,0.4,0.8s0.7,0.4,1.4,0.6s1.1,0.4,1.5,0.6
			s0.6,0.5,0.8,0.8s0.3,0.6,0.3,1c0,0.6-0.2,1.1-0.7,1.5c-0.5,0.4-1.1,0.6-2,0.6c-0.5,0-1-0.1-1.5-0.3c-0.5-0.2-0.8-0.5-1.1-0.8
			c-0.2-0.4-0.4-0.8-0.4-1.2h1c0,0.5,0.2,0.8,0.5,1.1c0.3,0.3,0.8,0.4,1.4,0.4c0.5,0,0.9-0.1,1.2-0.3c0.3-0.2,0.4-0.5,0.4-0.9
			c0-0.4-0.1-0.7-0.4-0.9C975.3,362.4,974.8,362.1,974.1,362z"/>
		<path class="st7" d="M981.6,364.8c-0.4,0.5-0.9,0.7-1.7,0.7c-0.6,0-1.1-0.2-1.4-0.5s-0.5-0.9-0.5-1.6v-3.7h1v3.7
			c0,0.9,0.3,1.3,1,1.3c0.7,0,1.2-0.3,1.5-0.8v-4.1h1v5.7h-0.9L981.6,364.8z"/>
		<path class="st7" d="M988.9,362.6c0,0.9-0.2,1.6-0.6,2.1c-0.4,0.5-0.9,0.8-1.6,0.8c-0.7,0-1.3-0.3-1.7-0.8l0,0.7h-0.9v-8.1h1v3
			c0.4-0.5,0.9-0.7,1.6-0.7s1.2,0.3,1.6,0.8S988.9,361.6,988.9,362.6L988.9,362.6L988.9,362.6z M987.9,362.5c0-0.7-0.1-1.2-0.4-1.5
			c-0.3-0.4-0.6-0.5-1.1-0.5c-0.6,0-1.1,0.3-1.4,0.9v2.5c0.3,0.6,0.8,0.9,1.4,0.9c0.5,0,0.8-0.2,1.1-0.5S987.9,363.2,987.9,362.5z"
			/>
		<path class="st7" d="M993.6,365.4c-0.1-0.1-0.1-0.3-0.1-0.6c-0.5,0.5-1,0.7-1.6,0.7c-0.6,0-1-0.2-1.4-0.5s-0.5-0.7-0.5-1.2
			c0-0.6,0.2-1,0.7-1.4c0.5-0.3,1.1-0.5,1.9-0.5h1v-0.5c0-0.3-0.1-0.6-0.3-0.8c-0.2-0.2-0.5-0.3-0.9-0.3c-0.3,0-0.6,0.1-0.9,0.3
			s-0.3,0.4-0.3,0.6h-1c0-0.3,0.1-0.6,0.3-0.8s0.5-0.5,0.8-0.6c0.3-0.2,0.7-0.2,1.1-0.2c0.7,0,1.2,0.2,1.5,0.5s0.6,0.8,0.6,1.4v2.6
			c0,0.5,0.1,0.9,0.2,1.2v0.1L993.6,365.4L993.6,365.4z M992,364.6c0.3,0,0.6-0.1,0.9-0.2s0.5-0.4,0.6-0.6v-1.2h-0.8
			c-1.2,0-1.8,0.4-1.8,1c0,0.3,0.1,0.5,0.3,0.7C991.4,364.5,991.7,364.6,992,364.6z"/>
		<path class="st7" d="M998.8,360.5c-0.2,0-0.3,0-0.5,0c-0.6,0-1.1,0.3-1.3,0.8v4h-1v-5.7h1l0,0.7c0.3-0.5,0.8-0.8,1.4-0.8
			c0.2,0,0.3,0,0.4,0.1L998.8,360.5L998.8,360.5z"/>
		<path class="st7" d="M1003.2,364.8c-0.4,0.5-0.9,0.7-1.7,0.7c-0.6,0-1.1-0.2-1.4-0.5s-0.5-0.9-0.5-1.6v-3.7h1v3.7
			c0,0.9,0.3,1.3,1,1.3c0.8,0,1.2-0.3,1.5-0.8v-4.1h1v5.7h-0.9L1003.2,364.8z"/>
	</g>
	<rect x="1008.9" y="357.3" class="st5" width="50.2" height="27.4"/>
	<g class="st6">
		<path class="st7" d="M1029.3,358.5h-2.5v6.9h-1v-6.9h-2.5v-0.8h5.9V358.5z"/>
		<path class="st7" d="M1033.2,365.4c-0.1-0.1-0.1-0.3-0.1-0.6c-0.4,0.5-1,0.7-1.6,0.7c-0.6,0-1-0.2-1.4-0.5s-0.5-0.7-0.5-1.2
			c0-0.6,0.2-1,0.7-1.4c0.4-0.3,1.1-0.5,1.9-0.5h0.9v-0.5c0-0.3-0.1-0.6-0.3-0.8c-0.2-0.2-0.5-0.3-0.9-0.3c-0.3,0-0.6,0.1-0.9,0.3
			c-0.2,0.2-0.3,0.4-0.3,0.6h-1c0-0.3,0.1-0.6,0.3-0.8c0.2-0.3,0.5-0.5,0.8-0.6c0.3-0.2,0.7-0.2,1.1-0.2c0.7,0,1.2,0.2,1.5,0.5
			s0.6,0.8,0.6,1.4v2.6c0,0.5,0.1,0.9,0.2,1.2v0.1L1033.2,365.4L1033.2,365.4z M1031.6,364.6c0.3,0,0.6-0.1,0.9-0.2s0.5-0.4,0.6-0.6
			v-1.2h-0.8c-1.2,0-1.8,0.4-1.8,1c0,0.3,0.1,0.5,0.3,0.7C1031,364.5,1031.3,364.6,1031.6,364.6z"/>
		<path class="st7" d="M1036.9,358.3v1.4h1.1v0.8h-1.1v3.5c0,0.2,0.1,0.4,0.1,0.5c0.1,0.1,0.3,0.2,0.5,0.2c0.1,0,0.3,0,0.5-0.1v0.8
			c-0.3,0.1-0.5,0.1-0.8,0.1c-0.4,0-0.8-0.1-1-0.4s-0.3-0.6-0.3-1.1v-3.5h-1v-0.8h1v-1.4L1036.9,358.3L1036.9,358.3z"/>
		<path class="st7" d="M1042.6,365.4c-0.1-0.1-0.1-0.3-0.1-0.6c-0.4,0.5-1,0.7-1.6,0.7c-0.6,0-1-0.2-1.4-0.5s-0.5-0.7-0.5-1.2
			c0-0.6,0.2-1,0.7-1.4c0.4-0.3,1.1-0.5,1.9-0.5h0.9v-0.5c0-0.3-0.1-0.6-0.3-0.8c-0.2-0.2-0.5-0.3-0.9-0.3c-0.3,0-0.6,0.1-0.9,0.3
			c-0.2,0.2-0.3,0.4-0.3,0.6h-1c0-0.3,0.1-0.6,0.3-0.8s0.5-0.5,0.8-0.6c0.3-0.2,0.7-0.2,1.1-0.2c0.7,0,1.2,0.2,1.5,0.5
			s0.6,0.8,0.6,1.4v2.6c0,0.5,0.1,0.9,0.2,1.2v0.1L1042.6,365.4L1042.6,365.4z M1041,364.6c0.3,0,0.6-0.1,0.9-0.2s0.5-0.4,0.6-0.6
			v-1.2h-0.8c-1.2,0-1.8,0.4-1.8,1c0,0.3,0.1,0.5,0.3,0.7S1040.7,364.6,1041,364.6z"/>
	</g>
	<rect x="1056.1" y="357.3" class="st5" width="50.2" height="27.4"/>
	<g class="st6">
		<path class="st7" d="M1072.1,361.8c0,0.8-0.1,1.4-0.4,2s-0.6,1-1.1,1.3s-1,0.4-1.6,0.4c-0.6,0-1.1-0.1-1.6-0.5
			c-0.5-0.3-0.8-0.7-1.1-1.3s-0.4-1.2-0.4-1.9v-0.5c0-0.7,0.1-1.4,0.4-2c0.3-0.6,0.6-1,1.1-1.3s1-0.5,1.6-0.5c0.6,0,1.2,0.1,1.6,0.5
			c0.5,0.3,0.8,0.7,1.1,1.3s0.4,1.2,0.4,2L1072.1,361.8L1072.1,361.8z M1071,361.3c0-0.9-0.2-1.6-0.6-2.1c-0.4-0.5-0.9-0.7-1.5-0.7
			c-0.6,0-1.1,0.2-1.5,0.7c-0.4,0.5-0.6,1.2-0.6,2v0.6c0,0.9,0.2,1.6,0.6,2.1c0.4,0.5,0.9,0.8,1.5,0.8s1.2-0.2,1.5-0.7
			s0.5-1.2,0.6-2L1071,361.3L1071,361.3z"/>
		<path class="st7" d="M1074.7,358.3v1.4h1.1v0.8h-1.1v3.5c0,0.2,0.1,0.4,0.1,0.5c0.1,0.1,0.3,0.2,0.5,0.2c0.1,0,0.3,0,0.5-0.1v0.8
			c-0.3,0.1-0.5,0.1-0.8,0.1c-0.4,0-0.8-0.1-1-0.4s-0.3-0.6-0.3-1.1v-3.5h-1v-0.8h1v-1.4L1074.7,358.3L1074.7,358.3z"/>
		<path class="st7" d="M1077.9,360.4c0.4-0.5,1-0.8,1.7-0.8c1.2,0,1.8,0.7,1.8,2v3.8h-1v-3.8c0-0.4-0.1-0.7-0.3-0.9
			s-0.5-0.3-0.9-0.3c-0.3,0-0.6,0.1-0.8,0.2s-0.4,0.4-0.6,0.7v4.1h-1v-8.1h1L1077.9,360.4L1077.9,360.4z"/>
		<path class="st7" d="M1085.2,365.5c-0.8,0-1.4-0.2-1.9-0.8s-0.7-1.2-0.7-2v-0.2c0-0.6,0.1-1.1,0.3-1.5c0.2-0.4,0.5-0.8,0.9-1
			s0.8-0.4,1.3-0.4c0.7,0,1.3,0.2,1.7,0.7c0.4,0.5,0.6,1.2,0.6,2.1v0.4h-3.9c0,0.6,0.2,1,0.5,1.4c0.3,0.4,0.7,0.5,1.2,0.5
			c0.3,0,0.6-0.1,0.9-0.2s0.4-0.3,0.6-0.6l0.6,0.5C1086.9,365.1,1086.2,365.5,1085.2,365.5z M1085.1,360.4c-0.4,0-0.7,0.1-1,0.4
			c-0.3,0.3-0.4,0.7-0.5,1.2h2.9v-0.1c0-0.5-0.2-0.9-0.4-1.1C1085.9,360.5,1085.5,360.4,1085.1,360.4z"/>
		<path class="st7" d="M1091.4,360.5c-0.2,0-0.3,0-0.5,0c-0.6,0-1.1,0.3-1.3,0.8v4h-1v-5.7h0.9l0,0.7c0.3-0.5,0.8-0.8,1.4-0.8
			c0.2,0,0.3,0,0.4,0.1L1091.4,360.5L1091.4,360.5z"/>
		<path class="st7" d="M1095.6,363.9c0-0.3-0.1-0.5-0.3-0.6c-0.2-0.1-0.5-0.3-1-0.4s-0.9-0.2-1.2-0.4s-0.5-0.3-0.6-0.5
			c-0.1-0.2-0.2-0.5-0.2-0.7c0-0.5,0.2-0.9,0.6-1.2c0.4-0.3,0.9-0.5,1.5-0.5c0.7,0,1.2,0.2,1.6,0.5s0.6,0.8,0.6,1.3h-1
			c0-0.3-0.1-0.5-0.3-0.7s-0.5-0.3-0.9-0.3c-0.4,0-0.6,0.1-0.8,0.2c-0.2,0.1-0.3,0.4-0.3,0.6c0,0.2,0.1,0.4,0.3,0.5s0.5,0.2,1,0.3
			s0.9,0.2,1.2,0.4c0.3,0.1,0.5,0.3,0.7,0.5c0.2,0.2,0.2,0.5,0.2,0.8c0,0.5-0.2,0.9-0.6,1.2s-0.9,0.5-1.6,0.5
			c-0.5,0-0.9-0.1-1.2-0.2s-0.6-0.4-0.8-0.7c-0.2-0.3-0.3-0.6-0.3-0.9h1c0,0.3,0.2,0.6,0.4,0.8s0.6,0.3,1,0.3c0.4,0,0.7-0.1,0.9-0.2
			C1095.5,364.3,1095.6,364.1,1095.6,363.9z"/>
	</g>
	<rect x="110" y="423.9" class="st4" width="8.6" height="7.4"/>
	<rect x="127.2" y="423.9" class="st5" width="64.8" height="27.4"/>
	<g class="st6">
		<path class="st7" d="M132.4,428.4h-3.3v2.7h3.9v0.8h-4.9v-7.7h4.8v0.8h-3.8v2.5h3.3L132.4,428.4L132.4,428.4z"/>
		<path class="st7" d="M135.5,424.3l2.5,6.3l2.5-6.3h1.3v7.7h-1v-3l0.1-3.2l-2.5,6.2h-0.8l-2.5-6.2l0.1,3.2v3h-1v-7.7L135.5,424.3
			L135.5,424.3z"/>
		<path class="st7" d="M148,428.4h-3.3v2.7h3.9v0.8h-4.9v-7.7h4.8v0.8h-3.8v2.5h3.3L148,428.4L148,428.4z"/>
		<path class="st7" d="M154,430h-3.2l-0.7,2h-1l2.9-7.7h0.9l2.9,7.7h-1L154,430z M151.1,429.1h2.6l-1.3-3.6L151.1,429.1z"/>
	</g>
	<rect x="176.4" y="423.9" class="st3" width="8.6" height="7.4"/>
	<rect x="265.1" y="423.9" class="st2" width="8.6" height="7.4"/>
	<rect x="282.3" y="423.9" class="st5" width="64.8" height="27.4"/>
	<g class="st6">
		<path class="st7" d="M288.8,429.5c-0.1,0.8-0.4,1.4-0.9,1.9c-0.5,0.4-1.2,0.7-2,0.7c-0.9,0-1.6-0.3-2.2-1s-0.8-1.5-0.8-2.6v-0.7
			c0-0.7,0.1-1.3,0.4-1.9s0.6-1,1.1-1.2c0.5-0.3,1-0.4,1.6-0.4c0.8,0,1.5,0.2,2,0.7c0.5,0.5,0.8,1.1,0.9,1.9h-1
			c-0.1-0.6-0.3-1.1-0.6-1.3s-0.7-0.4-1.2-0.4c-0.6,0-1.1,0.2-1.5,0.7s-0.5,1.2-0.5,2v0.7c0,0.8,0.2,1.5,0.5,2s0.8,0.7,1.5,0.7
			c0.6,0,1-0.1,1.3-0.4c0.3-0.2,0.5-0.7,0.6-1.3H288.8z"/>
		<path class="st7" d="M296.1,432h-1v-3.5h-3.9v3.5h-1v-7.7h1v3.3h3.9v-3.3h1V432z"/>
		<path class="st7" d="M299,432h-1v-7.7h1V432z"/>
		<path class="st7" d="M306.7,432h-1l-3.9-5.9v5.9h-1v-7.7h1l3.9,5.9v-5.9h1L306.7,432L306.7,432z"/>
		<path class="st7" d="M312.9,430h-3.2l-0.7,2h-1l2.9-7.7h0.9l2.9,7.7h-1L312.9,430z M310,429.1h2.6l-1.3-3.6L310,429.1z"/>
	</g>
	<rect x="326.7" y="423.9" class="st0" width="8.6" height="7.4"/>
	<rect x="343.9" y="423.9" class="st5" width="64.8" height="27.4"/>
	<g class="st6">
		<path class="st7" d="M350.7,428.4c0,0.8-0.1,1.4-0.4,2s-0.6,1-1.1,1.3c-0.5,0.3-1,0.4-1.6,0.4s-1.1-0.1-1.6-0.5s-0.8-0.7-1.1-1.3
			s-0.4-1.2-0.4-1.9v-0.5c0-0.7,0.1-1.4,0.4-2c0.3-0.6,0.6-1,1.1-1.3s1-0.5,1.6-0.5c0.6,0,1.2,0.1,1.6,0.5c0.5,0.3,0.8,0.7,1.1,1.3
			s0.4,1.2,0.4,2L350.7,428.4L350.7,428.4z M349.7,427.9c0-0.9-0.2-1.6-0.5-2.1c-0.4-0.5-0.9-0.7-1.5-0.7c-0.6,0-1.1,0.2-1.5,0.7
			c-0.4,0.5-0.6,1.2-0.6,2v0.6c0,0.9,0.2,1.6,0.6,2.1c0.4,0.5,0.9,0.8,1.5,0.8s1.2-0.2,1.5-0.7c0.4-0.5,0.5-1.2,0.5-2L349.7,427.9
			L349.7,427.9z"/>
		<path class="st7" d="M357.4,425.1H355v6.9h-1v-6.9h-2.5v-0.8h5.9V425.1z"/>
		<path class="st7" d="M364.5,432h-1v-3.5h-3.9v3.5h-1v-7.7h1v3.3h3.9v-3.3h1V432z"/>
		<path class="st7" d="M370.6,428.4h-3.3v2.7h3.9v0.8h-4.9v-7.7h4.8v0.8h-3.8v2.5h3.3L370.6,428.4L370.6,428.4z"/>
		<path class="st7" d="M375.2,428.9h-1.8v3.1h-1v-7.7h2.5c0.9,0,1.5,0.2,2,0.6s0.7,1,0.7,1.7c0,0.5-0.1,0.9-0.4,1.2
			s-0.6,0.6-1.1,0.8l1.8,3.3v0.1h-1.1L375.2,428.9z M373.4,428h1.6c0.5,0,0.9-0.1,1.2-0.4s0.5-0.6,0.5-1c0-0.5-0.1-0.8-0.4-1.1
			s-0.7-0.4-1.2-0.4h-1.5L373.4,428L373.4,428z"/>
	</g>
	<g class="st6">
		<path class="st7" d="M349.1,442.9h-3.2l-0.7,2h-1l2.9-7.7h0.9l2.9,7.7h-1L349.1,442.9z M346.2,442.1h2.6l-1.3-3.6L346.2,442.1z"/>
		<path class="st7" d="M352.9,441.9v3h-1v-7.7h2.8c0.8,0,1.5,0.2,2,0.6s0.7,1,0.7,1.7c0,0.8-0.2,1.3-0.7,1.7s-1.1,0.6-2,0.6
			L352.9,441.9L352.9,441.9z M352.9,441.1h1.8c0.5,0,1-0.1,1.2-0.4c0.3-0.3,0.4-0.6,0.4-1.1c0-0.5-0.1-0.8-0.4-1.1
			c-0.3-0.3-0.7-0.4-1.2-0.4h-1.9L352.9,441.1L352.9,441.1z"/>
		<path class="st7" d="M362.2,442.9H359l-0.7,2h-1l2.9-7.7h0.9l2.9,7.7h-1L362.2,442.9z M359.3,442.1h2.6l-1.3-3.6L359.3,442.1z"/>
		<path class="st7" d="M370.6,442.5c-0.1,0.8-0.4,1.4-0.9,1.9c-0.5,0.4-1.2,0.7-2,0.7c-0.9,0-1.6-0.3-2.2-1
			c-0.5-0.6-0.8-1.5-0.8-2.6v-0.7c0-0.7,0.1-1.3,0.4-1.9s0.6-1,1.1-1.2s1-0.4,1.6-0.4c0.8,0,1.5,0.2,2,0.7c0.5,0.5,0.8,1.1,0.9,1.9
			h-1c-0.1-0.6-0.3-1.1-0.6-1.3c-0.3-0.3-0.7-0.4-1.2-0.4c-0.6,0-1.1,0.2-1.5,0.7s-0.5,1.2-0.5,2v0.7c0,0.8,0.2,1.5,0.5,2
			c0.4,0.5,0.8,0.7,1.5,0.7c0.6,0,1-0.1,1.3-0.4s0.5-0.7,0.6-1.3L370.6,442.5L370.6,442.5z"/>
	</g>
	<rect x="193.6" y="423.9" class="st5" width="64.8" height="27.4"/>
	<g class="st6">
		<path class="st7" d="M198.8,430h-3.2l-0.7,2h-1l2.9-7.7h0.9l2.9,7.7h-1L198.8,430z M195.9,429.1h2.6l-1.3-3.6L195.9,429.1z"/>
		<path class="st7" d="M202.9,424.3l2.5,6.3l2.5-6.3h1.3v7.7h-1v-3l0.1-3.2l-2.5,6.2H205l-2.5-6.2l0.1,3.2v3h-1v-7.7L202.9,424.3
			L202.9,424.3z"/>
		<path class="st7" d="M215.4,428.4H212v2.7h3.9v0.8H211v-7.7h4.8v0.8H212v2.5h3.3L215.4,428.4L215.4,428.4z"/>
		<path class="st7" d="M220,428.9h-1.8v3.1h-1v-7.7h2.5c0.9,0,1.5,0.2,2,0.6s0.7,1,0.7,1.7c0,0.5-0.1,0.9-0.4,1.2s-0.6,0.6-1.1,0.8
			l1.8,3.3v0.1h-1.1L220,428.9z M218.2,428h1.6c0.5,0,0.9-0.1,1.2-0.4s0.4-0.6,0.4-1c0-0.5-0.1-0.8-0.4-1.1s-0.7-0.4-1.2-0.4h-1.6
			L218.2,428L218.2,428z"/>
		<path class="st7" d="M224.9,432h-1v-7.7h1V432z"/>
		<path class="st7" d="M232.4,429.5c-0.1,0.8-0.4,1.4-0.9,1.9c-0.5,0.4-1.2,0.7-2,0.7c-0.9,0-1.6-0.3-2.2-1s-0.8-1.5-0.8-2.6v-0.7
			c0-0.7,0.1-1.3,0.4-1.9s0.6-1,1.1-1.2c0.5-0.3,1-0.4,1.6-0.4c0.8,0,1.5,0.2,2,0.7c0.5,0.5,0.8,1.1,0.9,1.9h-1
			c-0.1-0.6-0.3-1.1-0.6-1.3s-0.7-0.4-1.2-0.4c-0.6,0-1.1,0.2-1.5,0.7c-0.4,0.5-0.6,1.2-0.6,2v0.7c0,0.8,0.2,1.5,0.5,2
			s0.8,0.7,1.5,0.7c0.6,0,1-0.1,1.3-0.4c0.3-0.2,0.5-0.7,0.6-1.3L232.4,429.5L232.4,429.5z"/>
		<path class="st7" d="M238,430h-3.2l-0.7,2h-1l2.9-7.7h0.9l2.9,7.7h-1L238,430z M235.1,429.1h2.6l-1.3-3.6L235.1,429.1z"/>
		<path class="st7" d="M243.1,428.5c-0.9-0.2-1.5-0.6-1.9-0.9c-0.4-0.4-0.6-0.8-0.6-1.4c0-0.6,0.2-1.1,0.7-1.5s1.1-0.6,1.9-0.6
			c0.5,0,1,0.1,1.4,0.3s0.7,0.5,1,0.8c0.2,0.4,0.3,0.8,0.3,1.2h-1c0-0.5-0.1-0.8-0.4-1.1c-0.3-0.3-0.7-0.4-1.2-0.4
			c-0.5,0-0.9,0.1-1.2,0.3s-0.4,0.5-0.4,0.9c0,0.3,0.1,0.6,0.4,0.8c0.3,0.2,0.7,0.4,1.4,0.6c0.6,0.2,1.1,0.4,1.5,0.6
			c0.4,0.2,0.6,0.5,0.8,0.8s0.3,0.6,0.3,1c0,0.6-0.2,1.1-0.7,1.5c-0.5,0.4-1.1,0.6-1.9,0.6c-0.5,0-1-0.1-1.5-0.3
			c-0.5-0.2-0.8-0.5-1.1-0.8c-0.2-0.4-0.4-0.8-0.4-1.2h1c0,0.5,0.2,0.8,0.5,1.1c0.3,0.3,0.8,0.4,1.4,0.4c0.5,0,0.9-0.1,1.2-0.3
			c0.3-0.2,0.4-0.5,0.4-0.9s-0.1-0.7-0.4-0.9C244.2,428.9,243.8,428.7,243.1,428.5z"/>
	</g>
	<rect x="108.9" y="439.6" class="st5" width="213.1" height="13.2"/>
</g>
<polyline class="st9" points="195.2,43.7 195.2,26.4 694.7,26.4 "/>
<line class="st9" x1="567.2" y1="179.9" x2="567.2" y2="27.4"/>
<rect x="703.9" y="17.1" class="st5" width="248.3" height="167.2"/>
<g class="st6">
	<path class="st0" d="M707.3,23.8l2.2-6.3h1.1l-2.8,7.7h-0.9l-2.8-7.7h1.1L707.3,23.8z"/>
	<path class="st0" d="M713.3,22.8l0.2,1l0.2-0.9l1.5-5.4h0.8l1.5,5.4l0.2,0.9l0.2-1l1.2-5.2h1l-1.9,7.7h-0.9l-1.6-5.6l-0.1-0.6
		l-0.1,0.6l-1.6,5.6H713l-1.9-7.7h1L713.3,22.8z"/>
	<path class="st0" d="M726.6,21.1h2.1V22h-2.1v2.4h-1V22h-2.1v-0.9h2.1v-2.2h1V21.1z"/>
	<path class="st0" d="M737,21.8h-3.2v3.4h-1v-7.7h4.8v0.8h-3.7V21h3.2L737,21.8L737,21.8z"/>
	<path class="st0" d="M738.2,22.3c0-0.6,0.1-1.1,0.3-1.5c0.2-0.5,0.5-0.8,0.9-1c0.4-0.2,0.8-0.4,1.3-0.4c0.8,0,1.4,0.3,1.9,0.8
		c0.5,0.5,0.7,1.2,0.7,2.1v0.1c0,0.6-0.1,1-0.3,1.5c-0.2,0.4-0.5,0.8-0.9,1c-0.4,0.2-0.8,0.4-1.4,0.4c-0.8,0-1.4-0.3-1.9-0.8
		S738.2,23.2,738.2,22.3L738.2,22.3L738.2,22.3z M739.2,22.4c0,0.6,0.2,1.1,0.4,1.5c0.3,0.4,0.7,0.6,1.2,0.6c0.5,0,0.9-0.2,1.2-0.6
		s0.4-0.9,0.4-1.6c0-0.6-0.2-1.1-0.5-1.5c-0.3-0.4-0.7-0.6-1.2-0.6c-0.5,0-0.9,0.2-1.2,0.6C739.3,21.1,739.2,21.7,739.2,22.4z"/>
	<path class="st0" d="M747.3,20.4c-0.2,0-0.3,0-0.5,0c-0.6,0-1.1,0.3-1.3,0.8v4.1h-1v-5.7h1l0,0.7c0.3-0.5,0.8-0.8,1.4-0.8
		c0.2,0,0.3,0,0.4,0.1L747.3,20.4L747.3,20.4z"/>
	<path class="st0" d="M747.9,22.3c0-0.9,0.2-1.6,0.6-2.1s1-0.8,1.6-0.8s1.2,0.2,1.6,0.7v-3h1v8.1h-0.9l0-0.6
		c-0.4,0.5-0.9,0.7-1.6,0.7c-0.7,0-1.2-0.3-1.6-0.8C748.1,24,747.9,23.2,747.9,22.3L747.9,22.3z M748.9,22.4c0,0.6,0.1,1.1,0.4,1.5
		s0.6,0.5,1.1,0.5c0.6,0,1.1-0.3,1.3-0.8V21c-0.3-0.5-0.7-0.8-1.3-0.8c-0.5,0-0.8,0.2-1.1,0.5C749,21.1,748.9,21.7,748.9,22.4z"/>
	<path class="st0" d="M762.7,22.8c-0.1,0.8-0.4,1.4-0.9,1.9c-0.5,0.4-1.2,0.7-2,0.7c-0.9,0-1.6-0.3-2.2-1s-0.8-1.5-0.8-2.6V21
		c0-0.7,0.1-1.3,0.4-1.9c0.2-0.5,0.6-1,1.1-1.2c0.5-0.3,1-0.4,1.6-0.4c0.8,0,1.5,0.2,2,0.7s0.8,1.1,0.9,1.9h-1
		c-0.1-0.6-0.3-1.1-0.6-1.3c-0.3-0.3-0.7-0.4-1.2-0.4c-0.7,0-1.2,0.2-1.5,0.7s-0.5,1.2-0.5,2v0.7c0,0.8,0.2,1.5,0.5,2
		c0.3,0.5,0.8,0.7,1.5,0.7c0.6,0,1-0.1,1.3-0.4s0.5-0.7,0.6-1.3C761.7,22.7,762.7,22.7,762.7,22.8z"/>
	<path class="st0" d="M763.7,22.3c0-0.6,0.1-1.1,0.3-1.5s0.5-0.8,0.9-1c0.4-0.2,0.8-0.4,1.3-0.4c0.8,0,1.4,0.3,1.9,0.8
		c0.5,0.5,0.7,1.2,0.7,2.1v0.1c0,0.6-0.1,1-0.3,1.5c-0.2,0.4-0.5,0.8-0.9,1s-0.8,0.4-1.4,0.4c-0.8,0-1.4-0.3-1.9-0.8
		C763.9,24,763.7,23.2,763.7,22.3L763.7,22.3L763.7,22.3z M764.7,22.4c0,0.6,0.2,1.1,0.4,1.5c0.3,0.4,0.7,0.6,1.2,0.6
		c0.5,0,0.9-0.2,1.2-0.6s0.4-0.9,0.4-1.6c0-0.6-0.2-1.1-0.5-1.5c-0.3-0.4-0.7-0.6-1.2-0.6c-0.5,0-0.9,0.2-1.2,0.6
		C764.8,21.1,764.7,21.7,764.7,22.4z"/>
	<path class="st0" d="M771.2,25.2h-1v-8.1h1V25.2z"/>
	<path class="st0" d="M773.8,25.2h-1v-8.1h1V25.2z"/>
	<path class="st0" d="M778.8,25.2c-0.1-0.1-0.1-0.3-0.1-0.6c-0.5,0.5-1,0.7-1.6,0.7c-0.6,0-1-0.2-1.4-0.5s-0.5-0.7-0.5-1.2
		c0-0.6,0.2-1,0.7-1.4s1.1-0.5,1.9-0.5h1v-0.5c0-0.3-0.1-0.6-0.3-0.8s-0.5-0.3-0.9-0.3c-0.3,0-0.6,0.1-0.9,0.3
		c-0.2,0.2-0.3,0.4-0.3,0.6h-1c0-0.3,0.1-0.6,0.3-0.8s0.5-0.5,0.8-0.6c0.3-0.2,0.7-0.2,1.1-0.2c0.7,0,1.2,0.2,1.5,0.5
		s0.6,0.8,0.6,1.4v2.6c0,0.5,0.1,0.9,0.2,1.2v0.1L778.8,25.2L778.8,25.2z M777.2,24.4c0.3,0,0.6-0.1,0.9-0.2s0.5-0.4,0.6-0.6v-1.2
		h-0.8c-1.2,0-1.8,0.4-1.8,1c0,0.3,0.1,0.5,0.3,0.7C776.7,24.4,776.9,24.4,777.2,24.4z"/>
	<path class="st0" d="M786,22.4c0,0.9-0.2,1.6-0.6,2.1c-0.4,0.5-0.9,0.8-1.6,0.8c-0.7,0-1.3-0.2-1.7-0.8l0,0.7h-0.9v-8.1h1v3
		c0.4-0.5,0.9-0.7,1.6-0.7s1.2,0.3,1.6,0.8C785.8,20.7,786,21.4,786,22.4L786,22.4L786,22.4z M785.1,22.3c0-0.7-0.1-1.2-0.4-1.5
		s-0.6-0.5-1.1-0.5c-0.6,0-1.1,0.3-1.4,0.9v2.5c0.3,0.6,0.8,0.9,1.4,0.9c0.5,0,0.8-0.2,1.1-0.5C784.9,23.6,785.1,23,785.1,22.3z"/>
	<path class="st0" d="M787,22.3c0-0.6,0.1-1.1,0.3-1.5s0.5-0.8,0.9-1c0.4-0.2,0.8-0.4,1.3-0.4c0.8,0,1.4,0.3,1.9,0.8
		c0.5,0.5,0.7,1.2,0.7,2.1v0.1c0,0.6-0.1,1-0.3,1.5c-0.2,0.4-0.5,0.8-0.9,1s-0.8,0.4-1.4,0.4c-0.8,0-1.4-0.3-1.9-0.8
		C787.2,24,787,23.2,787,22.3L787,22.3L787,22.3z M788,22.4c0,0.6,0.2,1.1,0.4,1.5c0.3,0.4,0.7,0.6,1.2,0.6c0.5,0,0.9-0.2,1.2-0.6
		s0.4-0.9,0.4-1.6c0-0.6-0.2-1.1-0.5-1.5c-0.3-0.4-0.7-0.6-1.2-0.6c-0.5,0-0.9,0.2-1.2,0.6C788.1,21.1,788,21.7,788,22.4z"/>
	<path class="st0" d="M796.2,20.4c-0.2,0-0.3,0-0.5,0c-0.6,0-1.1,0.3-1.3,0.8v4.1h-1v-5.7h1l0,0.7c0.3-0.5,0.8-0.8,1.4-0.8
		c0.2,0,0.3,0,0.4,0.1L796.2,20.4L796.2,20.4z"/>
	<path class="st0" d="M800.4,25.2c-0.1-0.1-0.1-0.3-0.1-0.6c-0.5,0.5-1,0.7-1.6,0.7c-0.6,0-1-0.2-1.4-0.5s-0.5-0.7-0.5-1.2
		c0-0.6,0.2-1,0.7-1.4s1.1-0.5,1.9-0.5h1v-0.5c0-0.3-0.1-0.6-0.3-0.8s-0.5-0.3-0.9-0.3c-0.3,0-0.6,0.1-0.9,0.3
		c-0.2,0.2-0.3,0.4-0.3,0.6h-1c0-0.3,0.1-0.6,0.3-0.8s0.5-0.5,0.8-0.6c0.3-0.2,0.7-0.2,1.1-0.2c0.7,0,1.2,0.2,1.5,0.5
		s0.6,0.8,0.6,1.4v2.6c0,0.5,0.1,0.9,0.2,1.2v0.1L800.4,25.2L800.4,25.2z M798.8,24.4c0.3,0,0.6-0.1,0.9-0.2s0.5-0.4,0.6-0.6v-1.2
		h-0.8c-1.2,0-1.8,0.4-1.8,1c0,0.3,0.1,0.5,0.3,0.7C798.2,24.4,798.5,24.4,798.8,24.4z"/>
	<path class="st0" d="M804.1,18.1v1.4h1.1v0.8h-1.1v3.5c0,0.2,0,0.4,0.1,0.5s0.3,0.2,0.5,0.2c0.1,0,0.3,0,0.5-0.1v0.8
		c-0.3,0.1-0.5,0.1-0.8,0.1c-0.4,0-0.8-0.1-1-0.4s-0.3-0.6-0.3-1.1v-3.5h-1v-0.8h1v-1.4H804.1z"/>
	<path class="st0" d="M806.3,18c0-0.2,0-0.3,0.1-0.4c0.1-0.1,0.2-0.2,0.4-0.2s0.3,0,0.4,0.2s0.2,0.2,0.2,0.4s0,0.3-0.2,0.4
		s-0.2,0.2-0.4,0.2s-0.3,0-0.4-0.2S806.3,18.1,806.3,18z M807.3,25.2h-1v-5.7h1V25.2z"/>
	<path class="st0" d="M808.6,22.3c0-0.6,0.1-1.1,0.3-1.5c0.2-0.5,0.5-0.8,0.9-1c0.4-0.2,0.8-0.4,1.3-0.4c0.8,0,1.4,0.3,1.9,0.8
		c0.5,0.5,0.7,1.2,0.7,2.1v0.1c0,0.6-0.1,1-0.3,1.5c-0.2,0.4-0.5,0.8-0.9,1c-0.4,0.2-0.8,0.4-1.4,0.4c-0.8,0-1.4-0.3-1.9-0.8
		S808.6,23.2,808.6,22.3L808.6,22.3L808.6,22.3z M809.6,22.4c0,0.6,0.2,1.1,0.4,1.5c0.3,0.4,0.7,0.6,1.2,0.6c0.5,0,0.9-0.2,1.2-0.6
		s0.4-0.9,0.4-1.6c0-0.6-0.2-1.1-0.5-1.5c-0.3-0.4-0.7-0.6-1.2-0.6c-0.5,0-0.9,0.2-1.2,0.6C809.8,21.1,809.6,21.7,809.6,22.4z"/>
	<path class="st0" d="M816,19.5l0,0.7c0.4-0.5,1-0.8,1.7-0.8c1.2,0,1.8,0.7,1.8,2v3.8h-1v-3.8c0-0.4-0.1-0.7-0.3-0.9
		c-0.2-0.2-0.5-0.3-0.9-0.3c-0.3,0-0.6,0.1-0.8,0.2s-0.4,0.4-0.6,0.7v4.1h-1v-5.7H816z"/>
</g>
<g class="st6">
	<path class="st0" d="M709.1,47.6h-3.3v2.7h3.9v0.8h-4.9v-7.7h4.8v0.8h-3.8v2.5h3.3V47.6z"/>
	<path class="st0" d="M711.8,51.1h-1V43h1V51.1z"/>
	<path class="st0" d="M715.8,51.2c-0.8,0-1.4-0.2-1.9-0.8c-0.5-0.5-0.7-1.2-0.7-2v-0.2c0-0.6,0.1-1.1,0.3-1.5c0.2-0.4,0.5-0.8,0.9-1
		c0.4-0.2,0.8-0.4,1.3-0.4c0.7,0,1.3,0.2,1.7,0.7c0.4,0.5,0.6,1.2,0.6,2.1v0.4h-3.9c0,0.6,0.2,1,0.5,1.4c0.3,0.3,0.7,0.5,1.2,0.5
		c0.3,0,0.6-0.1,0.9-0.2s0.5-0.3,0.6-0.6l0.6,0.5C717.5,50.8,716.7,51.2,715.8,51.2z M715.7,46.1c-0.4,0-0.7,0.1-1,0.4
		s-0.4,0.7-0.5,1.2h2.9v-0.1c0-0.5-0.2-0.9-0.4-1.2C716.4,46.2,716.1,46.1,715.7,46.1z"/>
	<path class="st0" d="M721.4,50.4c0.3,0,0.7-0.1,0.9-0.3c0.3-0.2,0.4-0.5,0.4-0.8h0.9c0,0.3-0.1,0.6-0.3,0.9s-0.5,0.5-0.8,0.7
		s-0.7,0.3-1.1,0.3c-0.8,0-1.4-0.3-1.8-0.8c-0.5-0.5-0.7-1.2-0.7-2.1v-0.2c0-0.6,0.1-1,0.3-1.5c0.2-0.4,0.5-0.8,0.9-1
		c0.4-0.2,0.8-0.4,1.3-0.4c0.6,0,1.2,0.2,1.6,0.6c0.4,0.4,0.7,0.9,0.7,1.5h-0.9c0-0.4-0.2-0.7-0.4-0.9s-0.6-0.4-0.9-0.4
		c-0.5,0-0.9,0.2-1.2,0.5s-0.4,0.9-0.4,1.5v0.2c0,0.7,0.1,1.2,0.4,1.5C720.5,50.2,720.9,50.4,721.4,50.4z"/>
	<path class="st0" d="M726.1,44v1.4h1.1v0.8h-1.1v3.5c0,0.2,0,0.4,0.1,0.5c0.1,0.1,0.3,0.2,0.5,0.2c0.1,0,0.3,0,0.5-0.1v0.8
		c-0.3,0.1-0.5,0.1-0.8,0.1c-0.4,0-0.8-0.1-1-0.4s-0.3-0.6-0.3-1.1v-3.5h-1v-0.7h1V44H726.1z"/>
	<path class="st0" d="M731.1,46.3c-0.2,0-0.3,0-0.5,0c-0.6,0-1.1,0.3-1.3,0.8v4h-1v-5.7h1l0,0.7c0.3-0.5,0.8-0.8,1.4-0.8
		c0.2,0,0.3,0,0.4,0.1L731.1,46.3L731.1,46.3z"/>
	<path class="st0" d="M732,43.9c0-0.2,0-0.3,0.1-0.4c0.1-0.1,0.2-0.2,0.4-0.2s0.3,0,0.4,0.2s0.2,0.2,0.2,0.4s0,0.3-0.2,0.4
		s-0.2,0.2-0.4,0.2s-0.3,0-0.4-0.2S732,44,732,43.9z M733,51.1h-1v-5.7h1V51.1z"/>
	<path class="st0" d="M735.1,51.1v-5h-0.9v-0.7h0.9v-0.6c0-0.6,0.2-1.1,0.5-1.4s0.8-0.5,1.4-0.5c0.2,0,0.5,0,0.7,0.1l0,0.8
		c-0.2,0-0.3,0-0.5,0c-0.3,0-0.6,0.1-0.7,0.3c-0.2,0.2-0.3,0.5-0.3,0.8v0.6h1.2v0.8H736v5L735.1,51.1L735.1,51.1z"/>
	<path class="st0" d="M738.3,43.9c0-0.2,0-0.3,0.1-0.4c0.1-0.1,0.2-0.2,0.4-0.2s0.3,0,0.4,0.2s0.2,0.2,0.2,0.4s0,0.3-0.2,0.4
		s-0.2,0.2-0.4,0.2s-0.3,0-0.4-0.2S738.3,44,738.3,43.9z M739.4,51.1h-1v-5.7h1V51.1z"/>
	<path class="st0" d="M743.2,50.4c0.3,0,0.7-0.1,0.9-0.3c0.3-0.2,0.4-0.5,0.4-0.8h0.9c0,0.3-0.1,0.6-0.3,0.9s-0.5,0.5-0.8,0.7
		c-0.3,0.2-0.7,0.3-1.1,0.3c-0.8,0-1.4-0.3-1.8-0.8s-0.7-1.2-0.7-2.1v-0.2c0-0.6,0.1-1,0.3-1.5c0.2-0.4,0.5-0.8,0.9-1
		c0.4-0.2,0.8-0.4,1.3-0.4c0.6,0,1.2,0.2,1.6,0.6c0.4,0.4,0.7,0.9,0.7,1.5h-0.9c0-0.4-0.2-0.7-0.4-0.9s-0.6-0.4-0.9-0.4
		c-0.5,0-0.9,0.2-1.2,0.5s-0.4,0.9-0.4,1.5v0.2c0,0.7,0.1,1.2,0.4,1.5C742.3,50.2,742.7,50.4,743.2,50.4z"/>
	<path class="st0" d="M750.1,51.1c-0.1-0.1-0.1-0.3-0.1-0.6c-0.5,0.5-1,0.7-1.6,0.7c-0.6,0-1-0.2-1.4-0.5s-0.5-0.7-0.5-1.2
		c0-0.6,0.2-1,0.7-1.4s1.1-0.5,1.9-0.5h1v-0.4c0-0.3-0.1-0.6-0.3-0.8c-0.2-0.2-0.5-0.3-0.9-0.3c-0.3,0-0.6,0.1-0.9,0.3
		s-0.3,0.4-0.3,0.6h-1c0-0.3,0.1-0.6,0.3-0.8s0.5-0.5,0.8-0.6c0.3-0.2,0.7-0.2,1.1-0.2c0.7,0,1.2,0.2,1.5,0.5s0.6,0.8,0.6,1.4v2.6
		c0,0.5,0.1,0.9,0.2,1.2v0.1L750.1,51.1L750.1,51.1z M748.5,50.4c0.3,0,0.6-0.1,0.9-0.2s0.5-0.4,0.6-0.6v-1.2h-0.8
		c-1.2,0-1.8,0.3-1.8,1c0,0.3,0.1,0.5,0.3,0.7C747.9,50.3,748.2,50.4,748.5,50.4z"/>
	<path class="st0" d="M753.8,44v1.4h1.1v0.8h-1.1v3.5c0,0.2,0,0.4,0.1,0.5s0.3,0.2,0.5,0.2c0.1,0,0.3,0,0.5-0.1v0.8
		c-0.3,0.1-0.5,0.1-0.8,0.1c-0.4,0-0.8-0.1-1-0.4c-0.2-0.3-0.3-0.6-0.3-1.1v-3.5h-1v-0.7h1V44H753.8z"/>
	<path class="st0" d="M756,43.9c0-0.2,0-0.3,0.1-0.4c0.1-0.1,0.2-0.2,0.4-0.2s0.3,0,0.4,0.2s0.2,0.2,0.2,0.4s0,0.3-0.2,0.4
		c-0.1,0.1-0.2,0.2-0.4,0.2s-0.3,0-0.4-0.2S756,44,756,43.9z M757.1,51.1h-1v-5.7h1V51.1z"/>
	<path class="st0" d="M758.4,48.2c0-0.6,0.1-1.1,0.3-1.5c0.2-0.5,0.5-0.8,0.9-1c0.4-0.2,0.8-0.4,1.3-0.4c0.8,0,1.4,0.3,1.9,0.8
		c0.5,0.5,0.7,1.2,0.7,2.2v0.1c0,0.6-0.1,1-0.3,1.5c-0.2,0.4-0.5,0.8-0.9,1c-0.4,0.2-0.8,0.4-1.4,0.4c-0.8,0-1.4-0.3-1.9-0.8
		S758.4,49.2,758.4,48.2L758.4,48.2L758.4,48.2z M759.3,48.3c0,0.6,0.2,1.1,0.4,1.5s0.7,0.6,1.2,0.6c0.5,0,0.9-0.2,1.2-0.6
		s0.4-0.9,0.4-1.6c0-0.6-0.2-1.1-0.5-1.5s-0.7-0.6-1.2-0.6c-0.5,0-0.9,0.2-1.2,0.6C759.5,47,759.3,47.6,759.3,48.3z"/>
	<path class="st0" d="M765.7,45.4l0,0.7c0.4-0.5,1-0.8,1.7-0.8c1.2,0,1.8,0.7,1.8,2v3.8h-1v-3.8c0-0.4-0.1-0.7-0.3-0.9
		c-0.2-0.2-0.5-0.3-0.9-0.3c-0.3,0-0.6,0.1-0.8,0.2s-0.4,0.4-0.6,0.7v4.1h-1v-5.7H765.7z"/>
</g>
<g class="st6">
	<path class="st0" d="M710.5,61.6c-0.1,0.8-0.4,1.4-0.9,1.9c-0.5,0.4-1.2,0.7-2,0.7c-0.9,0-1.6-0.3-2.2-1c-0.5-0.7-0.8-1.5-0.8-2.6
		v-0.7c0-0.7,0.1-1.3,0.4-1.9s0.6-1,1.1-1.2c0.5-0.3,1-0.4,1.6-0.4c0.8,0,1.5,0.2,2,0.7s0.8,1.1,0.9,1.9h-1
		c-0.1-0.6-0.3-1.1-0.6-1.3c-0.3-0.3-0.7-0.4-1.2-0.4c-0.7,0-1.2,0.2-1.5,0.7s-0.5,1.2-0.5,2v0.7c0,0.8,0.2,1.5,0.5,2
		c0.3,0.5,0.8,0.7,1.5,0.7c0.6,0,1-0.1,1.3-0.4s0.5-0.7,0.6-1.3C709.4,61.6,710.5,61.6,710.5,61.6z"/>
	<path class="st0" d="M711.4,61.2c0-0.6,0.1-1.1,0.3-1.5s0.5-0.8,0.9-1c0.4-0.2,0.8-0.4,1.3-0.4c0.8,0,1.4,0.3,1.9,0.8
		s0.7,1.2,0.7,2.2v0.1c0,0.6-0.1,1-0.3,1.5c-0.2,0.4-0.5,0.8-0.9,1s-0.8,0.4-1.4,0.4c-0.8,0-1.4-0.3-1.9-0.8S711.4,62.1,711.4,61.2
		L711.4,61.2L711.4,61.2z M712.4,61.3c0,0.6,0.2,1.1,0.4,1.5s0.7,0.6,1.2,0.6c0.5,0,0.9-0.2,1.2-0.6c0.3-0.4,0.4-0.9,0.4-1.6
		c0-0.6-0.2-1.1-0.5-1.5s-0.7-0.6-1.2-0.6c-0.5,0-0.9,0.2-1.2,0.6C712.5,60,712.4,60.5,712.4,61.3z"/>
	<path class="st0" d="M718.8,58.3l0,0.6c0.4-0.5,1-0.7,1.7-0.7c0.8,0,1.3,0.3,1.6,0.9c0.2-0.3,0.4-0.5,0.7-0.7s0.7-0.2,1.1-0.2
		c1.2,0,1.9,0.7,1.9,2v3.8h-1v-3.8c0-0.4-0.1-0.7-0.3-0.9s-0.5-0.3-0.9-0.3c-0.4,0-0.7,0.1-0.9,0.3s-0.4,0.5-0.4,0.9v3.8h-1v-3.7
		c0-0.8-0.4-1.2-1.2-1.2c-0.6,0-1.1,0.3-1.3,0.8v4.2h-1v-5.7H718.8z"/>
	<path class="st0" d="M728.2,58.3l0,0.6c0.4-0.5,1-0.7,1.7-0.7c0.8,0,1.3,0.3,1.6,0.9c0.2-0.3,0.4-0.5,0.7-0.7s0.7-0.2,1.1-0.2
		c1.2,0,1.9,0.7,1.9,2v3.8h-1v-3.8c0-0.4-0.1-0.7-0.3-0.9c-0.2-0.2-0.5-0.3-0.9-0.3c-0.4,0-0.7,0.1-0.9,0.3
		c-0.2,0.2-0.4,0.5-0.4,0.9v3.8h-1v-3.7c0-0.8-0.4-1.2-1.2-1.2c-0.6,0-1.1,0.3-1.3,0.8v4.2h-1v-5.7H728.2z"/>
	<path class="st0" d="M739.1,64.2c-0.8,0-1.4-0.2-1.9-0.8c-0.5-0.5-0.7-1.2-0.7-2v-0.2c0-0.6,0.1-1.1,0.3-1.5c0.2-0.4,0.5-0.8,0.9-1
		c0.4-0.2,0.8-0.4,1.3-0.4c0.7,0,1.3,0.2,1.7,0.7c0.4,0.5,0.6,1.2,0.6,2.1v0.4h-3.9c0,0.6,0.2,1,0.5,1.4c0.3,0.3,0.7,0.5,1.2,0.5
		c0.3,0,0.6-0.1,0.9-0.2s0.5-0.3,0.6-0.6l0.6,0.5C740.8,63.8,740.1,64.2,739.1,64.2z M739,59c-0.4,0-0.7,0.1-1,0.4s-0.4,0.7-0.5,1.2
		h2.9v-0.1c0-0.5-0.2-0.9-0.4-1.2C739.7,59.2,739.4,59,739,59z"/>
	<path class="st0" d="M745.2,59.2c-0.2,0-0.3,0-0.5,0c-0.6,0-1.1,0.3-1.3,0.8v4h-1v-5.7h1l0,0.7c0.3-0.5,0.8-0.8,1.4-0.8
		c0.2,0,0.3,0,0.4,0.1L745.2,59.2L745.2,59.2z"/>
	<path class="st0" d="M748.3,63.4c0.3,0,0.7-0.1,0.9-0.3c0.3-0.2,0.4-0.5,0.4-0.8h0.9c0,0.3-0.1,0.6-0.3,0.9s-0.5,0.5-0.8,0.7
		s-0.7,0.3-1.1,0.3c-0.8,0-1.4-0.3-1.8-0.8c-0.5-0.5-0.7-1.2-0.7-2.1v-0.2c0-0.6,0.1-1,0.3-1.5c0.2-0.4,0.5-0.8,0.9-1
		c0.4-0.2,0.8-0.4,1.3-0.4c0.6,0,1.2,0.2,1.6,0.6c0.4,0.4,0.7,0.9,0.7,1.5h-0.9c0-0.4-0.2-0.7-0.4-0.9s-0.6-0.4-0.9-0.4
		c-0.5,0-0.9,0.2-1.2,0.5s-0.4,0.9-0.4,1.5v0.2c0,0.7,0.1,1.2,0.4,1.5C747.4,63.2,747.8,63.4,748.3,63.4z"/>
	<path class="st0" d="M751.7,56.8c0-0.2,0-0.3,0.1-0.4c0.1-0.1,0.2-0.2,0.4-0.2s0.3,0,0.4,0.2s0.2,0.2,0.2,0.4s0,0.3-0.2,0.4
		s-0.2,0.2-0.4,0.2s-0.3,0-0.4-0.2S751.7,57,751.7,56.8z M752.8,64.1h-1v-5.7h1V64.1z"/>
	<path class="st0" d="M757.8,64.1c-0.1-0.1-0.1-0.3-0.1-0.6c-0.5,0.5-1,0.7-1.6,0.7c-0.6,0-1-0.2-1.4-0.5c-0.4-0.3-0.5-0.7-0.5-1.2
		c0-0.6,0.2-1,0.7-1.4s1.1-0.5,1.9-0.5h1v-0.5c0-0.3-0.1-0.6-0.3-0.8s-0.5-0.3-0.9-0.3c-0.3,0-0.6,0.1-0.9,0.3
		c-0.2,0.2-0.3,0.4-0.3,0.6h-1c0-0.3,0.1-0.6,0.3-0.8s0.5-0.5,0.8-0.6c0.3-0.2,0.7-0.2,1.1-0.2c0.7,0,1.2,0.2,1.5,0.5
		s0.6,0.8,0.6,1.4v2.6c0,0.5,0.1,0.9,0.2,1.2v0.1L757.8,64.1L757.8,64.1z M756.2,63.3c0.3,0,0.6-0.1,0.9-0.2s0.5-0.4,0.6-0.6v-1.2
		h-0.8c-1.2,0-1.8,0.3-1.8,1c0,0.3,0.1,0.5,0.3,0.7C755.6,63.2,755.9,63.3,756.2,63.3z"/>
	<path class="st0" d="M761.2,64.1h-1V56h1V64.1z"/>
	<path class="st0" d="M768.2,62.7l2.2-6.3h1.1l-2.8,7.7h-0.9l-2.8-7.7h1.1L768.2,62.7z"/>
	<path class="st0" d="M774.5,64.2c-0.8,0-1.4-0.2-1.9-0.8c-0.5-0.5-0.7-1.2-0.7-2v-0.2c0-0.6,0.1-1.1,0.3-1.5c0.2-0.4,0.5-0.8,0.9-1
		c0.4-0.2,0.8-0.4,1.3-0.4c0.7,0,1.3,0.2,1.7,0.7c0.4,0.5,0.6,1.2,0.6,2.1v0.4h-3.9c0,0.6,0.2,1,0.5,1.4c0.3,0.3,0.7,0.5,1.2,0.5
		c0.3,0,0.6-0.1,0.9-0.2s0.5-0.3,0.6-0.6l0.6,0.5C776.2,63.8,775.4,64.2,774.5,64.2z M774.4,59c-0.4,0-0.7,0.1-1,0.4
		s-0.4,0.7-0.5,1.2h2.9v-0.1c0-0.5-0.2-0.9-0.4-1.2C775.1,59.2,774.8,59,774.4,59z"/>
	<path class="st0" d="M778.8,59c0.4-0.5,1-0.8,1.7-0.8c1.2,0,1.8,0.7,1.8,2v3.8h-1v-3.8c0-0.4-0.1-0.7-0.3-0.9
		c-0.2-0.2-0.5-0.3-0.9-0.3c-0.3,0-0.6,0.1-0.8,0.2s-0.4,0.4-0.6,0.7v4.1h-1V56h1V59z"/>
	<path class="st0" d="M783.8,56.8c0-0.2,0-0.3,0.1-0.4c0.1-0.1,0.2-0.2,0.4-0.2s0.3,0,0.4,0.2s0.2,0.2,0.2,0.4s0,0.3-0.2,0.4
		c-0.1,0.1-0.2,0.2-0.4,0.2s-0.3,0-0.4-0.2S783.8,57,783.8,56.8z M784.8,64.1h-1v-5.7h1V64.1z"/>
	<path class="st0" d="M788.7,63.4c0.3,0,0.7-0.1,0.9-0.3c0.3-0.2,0.4-0.5,0.4-0.8h0.9c0,0.3-0.1,0.6-0.3,0.9s-0.5,0.5-0.8,0.7
		c-0.3,0.2-0.7,0.3-1.1,0.3c-0.8,0-1.4-0.3-1.8-0.8s-0.7-1.2-0.7-2.1v-0.2c0-0.6,0.1-1,0.3-1.5c0.2-0.4,0.5-0.8,0.9-1
		c0.4-0.2,0.8-0.4,1.3-0.4c0.6,0,1.2,0.2,1.6,0.6c0.4,0.4,0.7,0.9,0.7,1.5H790c0-0.4-0.2-0.7-0.4-0.9s-0.6-0.4-0.9-0.4
		c-0.5,0-0.9,0.2-1.2,0.5s-0.4,0.9-0.4,1.5v0.2c0,0.7,0.1,1.2,0.4,1.5C787.8,63.2,788.2,63.4,788.7,63.4z"/>
	<path class="st0" d="M793.1,64.1h-1V56h1V64.1z"/>
	<path class="st0" d="M797,64.2c-0.8,0-1.4-0.2-1.9-0.8s-0.7-1.2-0.7-2v-0.2c0-0.6,0.1-1.1,0.3-1.5c0.2-0.4,0.5-0.8,0.9-1
		c0.4-0.2,0.8-0.4,1.3-0.4c0.7,0,1.3,0.2,1.7,0.7c0.4,0.5,0.6,1.2,0.6,2.1v0.4h-3.9c0,0.6,0.2,1,0.5,1.4c0.3,0.3,0.7,0.5,1.2,0.5
		c0.3,0,0.6-0.1,0.9-0.2s0.5-0.3,0.6-0.6l0.6,0.5C798.7,63.8,798,64.2,797,64.2z M796.9,59c-0.4,0-0.7,0.1-1,0.4s-0.4,0.7-0.5,1.2
		h2.9v-0.1c0-0.5-0.2-0.9-0.4-1.2S797.3,59,796.9,59z"/>
	<path class="st0" d="M803.7,62.5c0-0.3-0.1-0.5-0.3-0.6c-0.2-0.2-0.5-0.3-1-0.4c-0.5-0.1-0.9-0.2-1.2-0.4s-0.5-0.3-0.6-0.5
		c-0.1-0.2-0.2-0.5-0.2-0.7c0-0.5,0.2-0.9,0.6-1.2s0.9-0.5,1.5-0.5c0.7,0,1.2,0.2,1.6,0.5s0.6,0.8,0.6,1.3h-1c0-0.3-0.1-0.5-0.3-0.7
		c-0.2-0.2-0.5-0.3-0.9-0.3c-0.4,0-0.6,0.1-0.8,0.2c-0.2,0.2-0.3,0.4-0.3,0.6c0,0.2,0.1,0.4,0.3,0.5s0.5,0.2,1,0.3s0.9,0.2,1.2,0.4
		c0.3,0.2,0.5,0.3,0.7,0.5c0.2,0.2,0.2,0.5,0.2,0.8c0,0.5-0.2,0.9-0.6,1.2s-0.9,0.5-1.6,0.5c-0.5,0-0.9-0.1-1.2-0.2
		c-0.3-0.2-0.6-0.4-0.8-0.7s-0.3-0.6-0.3-0.9h1c0,0.3,0.2,0.6,0.4,0.8s0.6,0.3,1,0.3c0.4,0,0.7-0.1,0.9-0.2
		C803.6,63,803.7,62.8,803.7,62.5z"/>
</g>
<rect x="434.9" y="49.1" class="st5" width="125.8" height="85.8"/>
<g class="st6">
	<path class="st0" d="M440,53.8h-3.2v3.4h-1v-7.7h4.8v0.8h-3.7V53h3.2L440,53.8L440,53.8z"/>
	<path class="st0" d="M447.4,54.8c-0.1,0.8-0.4,1.4-0.9,1.9c-0.5,0.4-1.2,0.7-2,0.7c-0.9,0-1.6-0.3-2.2-1s-0.8-1.5-0.8-2.6V53
		c0-0.7,0.1-1.3,0.4-1.9s0.6-1,1.1-1.2c0.5-0.3,1-0.4,1.6-0.4c0.8,0,1.5,0.2,2,0.7c0.5,0.5,0.8,1.1,0.9,1.9h-1
		c-0.1-0.6-0.3-1.1-0.6-1.3s-0.7-0.4-1.2-0.4c-0.6,0-1.1,0.2-1.5,0.7s-0.5,1.2-0.5,2v0.7c0,0.8,0.2,1.5,0.5,2s0.8,0.7,1.5,0.7
		c0.6,0,1-0.1,1.3-0.4c0.3-0.2,0.5-0.7,0.6-1.3H447.4z"/>
	<path class="st0" d="M453,55.2h-3.2l-0.7,2h-1l2.9-7.7h0.9l2.9,7.7h-1L453,55.2z M450.1,54.3h2.6l-1.3-3.6L450.1,54.3z"/>
	<path class="st0" d="M461.2,53.1h2.1V54h-2.1v2.4h-1V54H458v-0.9h2.1v-2.2h1V53.1z"/>
	<path class="st0" d="M468.3,54.2v3h-1v-7.7h2.8c0.8,0,1.5,0.2,2,0.6c0.5,0.4,0.7,1,0.7,1.7c0,0.8-0.2,1.3-0.7,1.7s-1.1,0.6-2,0.6
		L468.3,54.2L468.3,54.2z M468.3,53.3h1.8c0.5,0,1-0.1,1.2-0.4c0.3-0.3,0.4-0.6,0.4-1.1c0-0.5-0.1-0.8-0.4-1.1
		c-0.3-0.3-0.7-0.4-1.2-0.4h-1.9L468.3,53.3L468.3,53.3z"/>
	<path class="st0" d="M476.4,53.8c-0.9-0.2-1.5-0.6-1.9-0.9c-0.4-0.4-0.6-0.8-0.6-1.3c0-0.6,0.2-1.1,0.7-1.5s1.1-0.6,1.9-0.6
		c0.5,0,1,0.1,1.4,0.3s0.7,0.5,1,0.8c0.2,0.4,0.3,0.8,0.3,1.2h-1c0-0.5-0.1-0.8-0.4-1.1c-0.3-0.3-0.7-0.4-1.2-0.4
		c-0.5,0-0.9,0.1-1.2,0.3s-0.4,0.5-0.4,0.9c0,0.3,0.1,0.6,0.4,0.8c0.3,0.2,0.7,0.4,1.4,0.6c0.6,0.2,1.1,0.4,1.5,0.6
		c0.4,0.2,0.6,0.5,0.8,0.8s0.3,0.6,0.3,1c0,0.6-0.2,1.1-0.7,1.5c-0.5,0.4-1.1,0.6-2,0.6c-0.5,0-1-0.1-1.5-0.3
		c-0.5-0.2-0.8-0.5-1.1-0.8c-0.2-0.3-0.4-0.8-0.4-1.2h1c0,0.5,0.2,0.8,0.5,1.1c0.3,0.3,0.8,0.4,1.4,0.4c0.5,0,0.9-0.1,1.2-0.3
		c0.3-0.2,0.4-0.5,0.4-0.9s-0.1-0.7-0.4-0.9C477.6,54.2,477.1,54,476.4,53.8z"/>
	<path class="st0" d="M484.8,55.2h-3.2l-0.7,2h-1l2.9-7.7h0.9l2.9,7.7h-1L484.8,55.2z M481.9,54.3h2.6l-1.3-3.6L481.9,54.3z"/>
	<path class="st0" d="M491.6,49.5l2.5,6.3l2.5-6.3h1.3v7.7h-1v-3L497,51l-2.5,6.2h-0.8l-2.5-6.2l0.1,3.2v3h-1v-7.7
		C490.3,49.5,491.6,49.5,491.6,49.5z"/>
	<path class="st0" d="M501.9,57.3c-0.8,0-1.4-0.2-1.9-0.8c-0.5-0.5-0.7-1.2-0.7-2v-0.2c0-0.6,0.1-1.1,0.3-1.5c0.2-0.4,0.5-0.8,0.9-1
		s0.8-0.4,1.3-0.4c0.7,0,1.3,0.2,1.7,0.7c0.4,0.5,0.6,1.2,0.6,2.1v0.4h-3.9c0,0.6,0.2,1,0.5,1.4c0.3,0.3,0.7,0.5,1.2,0.5
		c0.3,0,0.6-0.1,0.9-0.2s0.5-0.3,0.6-0.6l0.6,0.5C503.6,56.9,502.9,57.3,501.9,57.3z M501.8,52.2c-0.4,0-0.7,0.1-1,0.4
		s-0.4,0.7-0.5,1.2h2.9v-0.1c0-0.5-0.2-0.9-0.4-1.2C502.5,52.3,502.2,52.2,501.8,52.2z"/>
	<path class="st0" d="M508,52.3c-0.1,0-0.3,0-0.5,0c-0.6,0-1.1,0.3-1.3,0.8v4h-1v-5.7h1l0,0.7c0.3-0.5,0.8-0.8,1.4-0.8
		c0.2,0,0.3,0,0.4,0.1L508,52.3L508,52.3z"/>
	<path class="st0" d="M508.6,54.3c0-0.9,0.2-1.6,0.6-2.1s1-0.8,1.6-0.8c0.7,0,1.2,0.2,1.6,0.7l0-0.6h0.9V57c0,0.7-0.2,1.3-0.7,1.8
		c-0.4,0.4-1,0.6-1.8,0.6c-0.4,0-0.8-0.1-1.2-0.3s-0.7-0.4-0.9-0.7l0.5-0.6c0.4,0.5,0.9,0.8,1.5,0.8c0.5,0,0.8-0.1,1.1-0.4
		s0.4-0.6,0.4-1.1v-0.5c-0.4,0.5-0.9,0.7-1.6,0.7c-0.7,0-1.2-0.3-1.6-0.8S508.6,55.2,508.6,54.3z M509.5,54.4c0,0.6,0.1,1.2,0.4,1.5
		s0.6,0.5,1.1,0.5c0.6,0,1.1-0.3,1.4-0.8V53c-0.3-0.5-0.8-0.8-1.3-0.8c-0.5,0-0.9,0.2-1.1,0.5S509.5,53.7,509.5,54.4z"/>
	<path class="st0" d="M517.2,57.3c-0.8,0-1.4-0.2-1.9-0.8c-0.5-0.5-0.7-1.2-0.7-2v-0.2c0-0.6,0.1-1.1,0.3-1.5c0.2-0.4,0.5-0.8,0.9-1
		c0.4-0.2,0.8-0.4,1.3-0.4c0.7,0,1.3,0.2,1.7,0.7c0.4,0.5,0.6,1.2,0.6,2.1v0.4h-3.9c0,0.6,0.2,1,0.5,1.4c0.3,0.3,0.7,0.5,1.2,0.5
		c0.3,0,0.6-0.1,0.9-0.2s0.5-0.3,0.6-0.6l0.6,0.5C518.9,56.9,518.2,57.3,517.2,57.3z M517.1,52.2c-0.4,0-0.7,0.1-1,0.4
		s-0.4,0.7-0.5,1.2h2.9v-0.1c0-0.5-0.2-0.9-0.4-1.2C517.8,52.3,517.5,52.2,517.1,52.2z"/>
	<path class="st0" d="M523.3,52.3c-0.2,0-0.3,0-0.5,0c-0.6,0-1.1,0.3-1.3,0.8v4h-1v-5.7h1l0,0.7c0.3-0.5,0.8-0.8,1.4-0.8
		c0.2,0,0.3,0,0.4,0.1L523.3,52.3L523.3,52.3z"/>
</g>
<g class="st6">
	<path class="st0" d="M440.1,79.6h-3.3v2.7h3.9v0.8h-4.9v-7.7h4.8v0.8h-3.8v2.5h3.3L440.1,79.6L440.1,79.6z"/>
	<path class="st0" d="M442.7,77.4l0,0.7c0.4-0.6,1-0.8,1.7-0.8c1.2,0,1.8,0.7,1.8,2v3.8h-1v-3.8c0-0.4-0.1-0.7-0.3-0.9
		c-0.2-0.2-0.5-0.3-0.9-0.3c-0.3,0-0.6,0.1-0.8,0.2s-0.4,0.4-0.6,0.7v4.1h-1v-5.7H442.7z"/>
	<path class="st0" d="M448.7,78.1c0.4-0.5,1-0.8,1.7-0.8c1.2,0,1.8,0.7,1.8,2v3.8h-1v-3.8c0-0.4-0.1-0.7-0.3-0.9
		c-0.2-0.2-0.5-0.3-0.9-0.3c-0.3,0-0.6,0.1-0.8,0.2s-0.4,0.4-0.6,0.7v4.1h-1V75h1L448.7,78.1L448.7,78.1z"/>
	<path class="st0" d="M457.2,83.1c-0.1-0.1-0.1-0.3-0.1-0.6c-0.5,0.5-1,0.7-1.6,0.7c-0.6,0-1-0.2-1.4-0.5c-0.4-0.3-0.5-0.7-0.5-1.2
		c0-0.6,0.2-1.1,0.7-1.4c0.5-0.3,1.1-0.5,1.9-0.5h1v-0.5c0-0.3-0.1-0.6-0.3-0.8c-0.2-0.2-0.5-0.3-0.9-0.3c-0.4,0-0.6,0.1-0.9,0.3
		c-0.2,0.2-0.4,0.4-0.4,0.6h-1c0-0.3,0.1-0.6,0.3-0.8s0.5-0.5,0.8-0.6c0.4-0.2,0.7-0.2,1.1-0.2c0.7,0,1.2,0.2,1.5,0.5
		s0.6,0.8,0.6,1.4v2.6c0,0.5,0.1,0.9,0.2,1.2v0.1L457.2,83.1L457.2,83.1z M455.6,82.4c0.3,0,0.6-0.1,0.9-0.2
		c0.3-0.2,0.5-0.4,0.6-0.6v-1.2h-0.8c-1.2,0-1.8,0.3-1.8,1.1c0,0.3,0.1,0.5,0.3,0.7C455,82.3,455.3,82.4,455.6,82.4z"/>
	<path class="st0" d="M460.5,77.4l0,0.7c0.4-0.6,1-0.8,1.7-0.8c1.2,0,1.8,0.7,1.8,2v3.8h-1v-3.8c0-0.4-0.1-0.7-0.3-0.9
		c-0.2-0.2-0.5-0.3-0.9-0.3c-0.3,0-0.6,0.1-0.8,0.2s-0.4,0.4-0.6,0.7v4.1h-1v-5.7H460.5z"/>
	<path class="st0" d="M467.8,82.4c0.4,0,0.6-0.1,0.9-0.3s0.4-0.5,0.4-0.8h0.9c0,0.3-0.1,0.6-0.3,0.9s-0.5,0.5-0.8,0.7
		c-0.4,0.2-0.7,0.3-1.1,0.3c-0.8,0-1.4-0.3-1.9-0.8s-0.7-1.2-0.7-2.1v-0.2c0-0.6,0.1-1.1,0.3-1.5c0.2-0.4,0.5-0.8,0.9-1
		c0.4-0.2,0.8-0.4,1.4-0.4c0.6,0,1.2,0.2,1.6,0.6c0.4,0.4,0.6,0.9,0.7,1.5h-0.9c0-0.4-0.2-0.7-0.4-0.9s-0.6-0.4-0.9-0.4
		c-0.5,0-0.9,0.2-1.1,0.5s-0.4,0.9-0.4,1.6v0.2c0,0.7,0.1,1.2,0.4,1.5C466.9,82.2,467.3,82.4,467.8,82.4z"/>
	<path class="st0" d="M473.5,83.2c-0.8,0-1.4-0.2-1.9-0.8c-0.5-0.5-0.7-1.2-0.7-2v-0.2c0-0.6,0.1-1.1,0.3-1.5c0.2-0.4,0.5-0.8,0.9-1
		s0.8-0.4,1.3-0.4c0.7,0,1.3,0.2,1.7,0.7c0.4,0.5,0.6,1.2,0.6,2.1v0.4h-3.9c0,0.6,0.2,1,0.5,1.4c0.3,0.3,0.7,0.5,1.2,0.5
		c0.3,0,0.6-0.1,0.9-0.2s0.5-0.3,0.6-0.6l0.6,0.5C475.2,82.8,474.5,83.2,473.5,83.2z M473.4,78.1c-0.4,0-0.7,0.1-1,0.4
		s-0.4,0.7-0.5,1.2h2.9v-0.1c0-0.5-0.2-0.9-0.4-1.2C474.1,78.2,473.8,78.1,473.4,78.1z"/>
	<path class="st0" d="M476.7,80.2c0-0.9,0.2-1.6,0.6-2.1s1-0.8,1.6-0.8s1.2,0.2,1.6,0.7v-3h1v8.1h-0.9l0-0.6
		c-0.4,0.5-0.9,0.7-1.6,0.7c-0.7,0-1.2-0.3-1.6-0.8C476.9,81.9,476.7,81.2,476.7,80.2L476.7,80.2L476.7,80.2z M477.6,80.3
		c0,0.7,0.1,1.2,0.4,1.5s0.6,0.6,1.1,0.6c0.6,0,1.1-0.3,1.4-0.8v-2.6c-0.3-0.5-0.7-0.8-1.3-0.8c-0.5,0-0.9,0.2-1.1,0.6
		S477.6,79.6,477.6,80.3z"/>
	<path class="st0" d="M488.1,79.7c-0.9-0.2-1.5-0.6-1.9-0.9s-0.6-0.8-0.6-1.3c0-0.6,0.2-1.1,0.7-1.5s1.1-0.6,1.9-0.6
		c0.5,0,1,0.1,1.4,0.3s0.7,0.5,1,0.8c0.2,0.4,0.3,0.8,0.3,1.2h-1c0-0.5-0.1-0.8-0.4-1.1c-0.3-0.3-0.7-0.4-1.2-0.4
		c-0.5,0-0.9,0.1-1.2,0.3s-0.4,0.5-0.4,0.9c0,0.3,0.1,0.6,0.4,0.8c0.3,0.2,0.7,0.4,1.4,0.6c0.6,0.2,1.1,0.4,1.5,0.6
		c0.4,0.2,0.6,0.5,0.8,0.8s0.3,0.6,0.3,1c0,0.6-0.2,1.1-0.7,1.5c-0.5,0.4-1.1,0.6-2,0.6c-0.5,0-1-0.1-1.5-0.3
		c-0.5-0.2-0.8-0.5-1.1-0.8s-0.4-0.8-0.4-1.2h1c0,0.5,0.2,0.8,0.5,1.1s0.8,0.4,1.4,0.4c0.5,0,0.9-0.1,1.2-0.3
		c0.3-0.2,0.4-0.5,0.4-0.9s-0.1-0.7-0.4-0.9C489.2,80.1,488.8,79.9,488.1,79.7z"/>
	<path class="st0" d="M494.4,82.4c0.4,0,0.6-0.1,0.9-0.3s0.4-0.5,0.4-0.8h0.9c0,0.3-0.1,0.6-0.3,0.9s-0.5,0.5-0.8,0.7
		c-0.4,0.2-0.7,0.3-1.1,0.3c-0.8,0-1.4-0.3-1.9-0.8s-0.7-1.2-0.7-2.1v-0.2c0-0.6,0.1-1.1,0.3-1.5c0.2-0.4,0.5-0.8,0.9-1
		c0.4-0.2,0.8-0.4,1.4-0.4c0.6,0,1.2,0.2,1.6,0.6c0.4,0.4,0.6,0.9,0.7,1.5h-0.9c0-0.4-0.2-0.7-0.4-0.9s-0.6-0.4-0.9-0.4
		c-0.5,0-0.9,0.2-1.1,0.5s-0.4,0.9-0.4,1.6v0.2c0,0.7,0.1,1.2,0.4,1.5C493.5,82.2,493.9,82.4,494.4,82.4z"/>
	<path class="st0" d="M501.2,83.1c-0.1-0.1-0.1-0.3-0.1-0.6c-0.5,0.5-1,0.7-1.6,0.7c-0.6,0-1-0.2-1.4-0.5c-0.4-0.3-0.5-0.7-0.5-1.2
		c0-0.6,0.2-1.1,0.7-1.4c0.5-0.3,1.1-0.5,1.9-0.5h1v-0.5c0-0.3-0.1-0.6-0.3-0.8c-0.2-0.2-0.5-0.3-0.9-0.3c-0.4,0-0.6,0.1-0.9,0.3
		c-0.2,0.2-0.4,0.4-0.4,0.6h-1c0-0.3,0.1-0.6,0.3-0.8s0.5-0.5,0.8-0.6c0.4-0.2,0.7-0.2,1.1-0.2c0.7,0,1.2,0.2,1.5,0.5
		s0.6,0.8,0.6,1.4v2.6c0,0.5,0.1,0.9,0.2,1.2v0.1L501.2,83.1L501.2,83.1z M499.6,82.4c0.3,0,0.6-0.1,0.9-0.2
		c0.3-0.2,0.5-0.4,0.6-0.6v-1.2h-0.8c-1.2,0-1.8,0.3-1.8,1.1c0,0.3,0.1,0.5,0.3,0.7C499,82.3,499.3,82.4,499.6,82.4z"/>
	<path class="st0" d="M504.6,83.1h-1V75h1V83.1z"/>
	<path class="st0" d="M508.6,83.2c-0.8,0-1.4-0.2-1.9-0.8c-0.5-0.5-0.7-1.2-0.7-2v-0.2c0-0.6,0.1-1.1,0.3-1.5c0.2-0.4,0.5-0.8,0.9-1
		s0.8-0.4,1.3-0.4c0.7,0,1.3,0.2,1.7,0.7c0.4,0.5,0.6,1.2,0.6,2.1v0.4h-3.9c0,0.6,0.2,1,0.5,1.4c0.3,0.3,0.7,0.5,1.2,0.5
		c0.3,0,0.6-0.1,0.9-0.2s0.5-0.3,0.6-0.6l0.6,0.5C510.2,82.8,509.5,83.2,508.6,83.2z M508.5,78.1c-0.4,0-0.7,0.1-1,0.4
		s-0.4,0.7-0.5,1.2h2.9v-0.1c0-0.5-0.2-0.9-0.4-1.2C509.2,78.2,508.9,78.1,508.5,78.1z"/>
	<path class="st0" d="M516.5,81.8l1.4-4.4h1l-2,5.7h-0.7l-2.1-5.7h1L516.5,81.8z"/>
	<path class="st0" d="M519.8,75.9c0-0.2,0-0.3,0.1-0.4c0.1-0.1,0.2-0.2,0.4-0.2s0.3,0.1,0.4,0.2s0.2,0.2,0.2,0.4s0,0.3-0.2,0.4
		c-0.1,0.1-0.2,0.2-0.4,0.2s-0.3-0.1-0.4-0.2S519.8,76.1,519.8,75.9z M520.9,83.1h-1v-5.7h1V83.1z"/>
	<path class="st0" d="M526,83.1c-0.1-0.1-0.1-0.3-0.1-0.6c-0.5,0.5-1,0.7-1.6,0.7c-0.6,0-1-0.2-1.4-0.5s-0.5-0.7-0.5-1.2
		c0-0.6,0.2-1.1,0.7-1.4c0.5-0.3,1.1-0.5,1.9-0.5h1v-0.5c0-0.3-0.1-0.6-0.3-0.8c-0.2-0.2-0.5-0.3-0.9-0.3c-0.3,0-0.6,0.1-0.9,0.3
		c-0.2,0.2-0.3,0.4-0.3,0.6h-1c0-0.3,0.1-0.6,0.3-0.8s0.5-0.5,0.8-0.6c0.3-0.2,0.7-0.2,1.1-0.2c0.7,0,1.2,0.2,1.5,0.5
		s0.6,0.8,0.6,1.4v2.6c0,0.5,0.1,0.9,0.2,1.2v0.1L526,83.1L526,83.1z M524.4,82.4c0.3,0,0.6-0.1,0.9-0.2c0.3-0.2,0.5-0.4,0.6-0.6
		v-1.2h-0.8c-1.2,0-1.8,0.3-1.8,1.1c0,0.3,0.1,0.5,0.3,0.7C523.8,82.3,524,82.4,524.4,82.4z"/>
</g>
<g class="st6">
	<path class="st0" d="M436.8,93.1v3h-1v-7.7h2.8c0.8,0,1.5,0.2,2,0.6c0.5,0.4,0.7,1,0.7,1.7c0,0.8-0.2,1.3-0.7,1.7s-1.1,0.6-2,0.6
		L436.8,93.1L436.8,93.1z M436.8,92.2h1.8c0.5,0,1-0.1,1.2-0.4c0.3-0.3,0.4-0.6,0.4-1.1c0-0.5-0.1-0.8-0.4-1.1
		c-0.3-0.3-0.7-0.4-1.2-0.4h-1.9L436.8,92.2L436.8,92.2z"/>
	<path class="st0" d="M443.5,96.1h-1V88h1V96.1z"/>
	<path class="st0" d="M448.6,96.1c-0.1-0.1-0.1-0.3-0.1-0.6c-0.5,0.5-1,0.7-1.6,0.7c-0.6,0-1-0.2-1.4-0.5c-0.4-0.3-0.5-0.7-0.5-1.2
		c0-0.6,0.2-1.1,0.7-1.4c0.5-0.3,1.1-0.5,1.9-0.5h1v-0.4c0-0.3-0.1-0.6-0.3-0.8c-0.2-0.2-0.5-0.3-0.9-0.3c-0.4,0-0.6,0.1-0.9,0.3
		c-0.2,0.2-0.4,0.4-0.4,0.6h-1c0-0.3,0.1-0.6,0.3-0.8s0.5-0.5,0.8-0.6c0.4-0.2,0.7-0.2,1.1-0.2c0.7,0,1.2,0.2,1.5,0.5
		s0.6,0.8,0.6,1.4v2.6c0,0.5,0.1,0.9,0.2,1.2v0.1L448.6,96.1L448.6,96.1z M447,95.3c0.3,0,0.6-0.1,0.9-0.2c0.3-0.2,0.5-0.4,0.6-0.6
		v-1.2h-0.8c-1.2,0-1.8,0.3-1.8,1.1c0,0.3,0.1,0.5,0.3,0.7C446.4,95.2,446.7,95.3,447,95.3z"/>
	<path class="st0" d="M452.3,89v1.4h1.1v0.8h-1.1v3.5c0,0.2,0,0.4,0.1,0.5c0.1,0.1,0.3,0.2,0.5,0.2c0.1,0,0.3,0,0.5-0.1v0.8
		c-0.3,0.1-0.5,0.1-0.8,0.1c-0.4,0-0.8-0.1-1-0.4c-0.2-0.3-0.3-0.6-0.3-1.1v-3.5h-1v-0.8h1V89H452.3z"/>
	<path class="st0" d="M455,96.1v-5h-0.9v-0.8h0.9v-0.6c0-0.6,0.2-1.1,0.5-1.4c0.3-0.3,0.8-0.5,1.4-0.5c0.2,0,0.5,0,0.7,0.1l0,0.8
		c-0.2,0-0.3-0.1-0.5-0.1c-0.3,0-0.6,0.1-0.7,0.3c-0.2,0.2-0.3,0.4-0.3,0.8v0.6h1.2v0.8h-1.2v4.9C455.9,96.1,455,96.1,455,96.1z"/>
	<path class="st0" d="M458,93.2c0-0.6,0.1-1.1,0.3-1.5c0.2-0.4,0.5-0.8,0.9-1s0.8-0.4,1.3-0.4c0.8,0,1.4,0.3,1.9,0.8
		s0.7,1.2,0.7,2.2v0.1c0,0.6-0.1,1.1-0.3,1.5c-0.2,0.4-0.5,0.8-0.9,1c-0.4,0.2-0.9,0.4-1.4,0.4c-0.8,0-1.4-0.3-1.9-0.8
		S458,94.1,458,93.2L458,93.2z M459,93.3c0,0.6,0.1,1.1,0.4,1.5s0.7,0.6,1.2,0.6c0.5,0,0.9-0.2,1.2-0.6c0.3-0.4,0.4-0.9,0.4-1.6
		c0-0.6-0.1-1.1-0.5-1.5c-0.3-0.4-0.7-0.6-1.2-0.6c-0.5,0-0.9,0.2-1.2,0.6C459.1,92,459,92.6,459,93.3z"/>
	<path class="st0" d="M467.1,91.2c-0.1,0-0.3,0-0.5,0c-0.6,0-1.1,0.3-1.3,0.8v4.1h-1v-5.7h1l0,0.7c0.3-0.5,0.8-0.8,1.4-0.8
		c0.2,0,0.3,0,0.4,0.1L467.1,91.2L467.1,91.2z"/>
	<path class="st0" d="M469,90.3l0,0.6c0.4-0.5,1-0.7,1.7-0.7c0.8,0,1.3,0.3,1.6,0.9c0.2-0.3,0.4-0.5,0.7-0.7s0.7-0.2,1.1-0.2
		c1.2,0,1.9,0.7,1.9,2V96h-1v-3.8c0-0.4-0.1-0.7-0.3-0.9c-0.2-0.2-0.5-0.3-0.9-0.3c-0.4,0-0.7,0.1-0.9,0.3c-0.2,0.2-0.4,0.5-0.4,0.9
		V96h-1v-3.7c0-0.8-0.4-1.2-1.2-1.2c-0.6,0-1.1,0.3-1.3,0.8v4.2h-1v-5.7H469z"/>
	<path class="st0" d="M482.6,92.6c-0.9-0.2-1.5-0.6-1.9-0.9s-0.6-0.8-0.6-1.3c0-0.6,0.2-1.1,0.7-1.5s1.1-0.6,1.9-0.6
		c0.5,0,1,0.1,1.4,0.3s0.7,0.5,1,0.8c0.2,0.4,0.3,0.8,0.3,1.2h-1c0-0.5-0.1-0.8-0.4-1.1c-0.3-0.3-0.7-0.4-1.2-0.4
		c-0.5,0-0.9,0.1-1.2,0.3s-0.4,0.5-0.4,0.9c0,0.3,0.1,0.6,0.4,0.8c0.3,0.2,0.7,0.4,1.4,0.6c0.6,0.2,1.1,0.4,1.5,0.6
		c0.4,0.2,0.6,0.5,0.8,0.8s0.3,0.6,0.3,1c0,0.6-0.2,1.1-0.7,1.5c-0.5,0.4-1.1,0.6-2,0.6c-0.5,0-1-0.1-1.5-0.3
		c-0.5-0.2-0.8-0.5-1.1-0.8s-0.4-0.8-0.4-1.2h1c0,0.5,0.2,0.8,0.5,1.1s0.8,0.4,1.4,0.4c0.5,0,0.9-0.1,1.2-0.3
		c0.3-0.2,0.4-0.5,0.4-0.9s-0.1-0.7-0.4-0.9C483.8,93,483.3,92.8,482.6,92.6z"/>
	<path class="st0" d="M487.6,91c0.4-0.5,1-0.8,1.7-0.8c1.2,0,1.8,0.7,1.8,2V96h-1v-3.8c0-0.4-0.1-0.7-0.3-0.9
		c-0.2-0.2-0.5-0.3-0.9-0.3c-0.3,0-0.6,0.1-0.8,0.2s-0.4,0.4-0.6,0.7V96h-1v-8.1h1L487.6,91L487.6,91z"/>
	<path class="st0" d="M496.1,96.1c-0.1-0.1-0.1-0.3-0.1-0.6c-0.5,0.5-1,0.7-1.6,0.7c-0.6,0-1-0.2-1.4-0.5c-0.4-0.3-0.5-0.7-0.5-1.2
		c0-0.6,0.2-1.1,0.7-1.4c0.5-0.3,1.1-0.5,1.9-0.5h1v-0.4c0-0.3-0.1-0.6-0.3-0.8c-0.2-0.2-0.5-0.3-0.9-0.3c-0.4,0-0.6,0.1-0.9,0.3
		c-0.2,0.2-0.4,0.4-0.4,0.6h-1c0-0.3,0.1-0.6,0.3-0.8s0.5-0.5,0.8-0.6c0.4-0.2,0.7-0.2,1.1-0.2c0.7,0,1.2,0.2,1.5,0.5
		s0.6,0.8,0.6,1.4v2.6c0,0.5,0.1,0.9,0.2,1.2v0.1L496.1,96.1L496.1,96.1z M494.4,95.3c0.3,0,0.6-0.1,0.9-0.2
		c0.3-0.2,0.5-0.4,0.6-0.6v-1.2h-0.8c-1.2,0-1.8,0.3-1.8,1.1c0,0.3,0.1,0.5,0.3,0.7C493.9,95.2,494.1,95.3,494.4,95.3z"/>
	<path class="st0" d="M501.2,91.2c-0.1,0-0.3,0-0.5,0c-0.6,0-1.1,0.3-1.3,0.8v4.1h-1v-5.7h1l0,0.7c0.3-0.5,0.8-0.8,1.4-0.8
		c0.2,0,0.3,0,0.4,0.1L501.2,91.2L501.2,91.2z"/>
	<path class="st0" d="M502.1,88.8c0-0.2,0-0.3,0.1-0.4c0.1-0.1,0.2-0.2,0.4-0.2s0.3,0.1,0.4,0.2s0.1,0.2,0.1,0.4s0,0.3-0.1,0.4
		s-0.2,0.2-0.4,0.2s-0.3-0.1-0.4-0.2S502.1,89,502.1,88.8z M503.1,96.1h-1v-5.7h1V96.1z"/>
	<path class="st0" d="M505.6,90.3l0,0.7c0.4-0.6,1-0.8,1.7-0.8c1.2,0,1.8,0.7,1.8,2v3.8h-1v-3.8c0-0.4-0.1-0.7-0.3-0.9
		c-0.2-0.2-0.5-0.3-0.9-0.3c-0.3,0-0.6,0.1-0.8,0.2s-0.4,0.4-0.6,0.7v4.1h-1v-5.7H505.6z"/>
	<path class="st0" d="M510.4,93.2c0-0.9,0.2-1.6,0.6-2.1s1-0.8,1.6-0.8c0.7,0,1.2,0.2,1.6,0.7l0-0.6h0.9v5.6c0,0.7-0.2,1.3-0.7,1.8
		c-0.4,0.4-1,0.6-1.8,0.6c-0.4,0-0.8-0.1-1.2-0.3s-0.7-0.4-0.9-0.7l0.5-0.6c0.4,0.5,0.9,0.8,1.5,0.8c0.5,0,0.8-0.1,1.1-0.4
		c0.3-0.3,0.4-0.6,0.4-1.1v-0.5c-0.4,0.4-0.9,0.7-1.6,0.7c-0.7,0-1.2-0.3-1.6-0.8S510.4,94.1,510.4,93.2z M511.4,93.3
		c0,0.6,0.1,1.2,0.4,1.5s0.6,0.6,1.1,0.6c0.6,0,1.1-0.3,1.3-0.8v-2.6c-0.3-0.5-0.8-0.8-1.3-0.8c-0.5,0-0.8,0.2-1.1,0.6
		S511.4,92.5,511.4,93.3z"/>
</g>
<g class="st6">
	<path class="st0" d="M441.5,108c-0.3,0.4-0.6,0.7-1.1,0.8c-0.5,0.2-1,0.3-1.6,0.3c-0.6,0-1.2-0.2-1.7-0.4c-0.5-0.3-0.9-0.7-1.1-1.2
		c-0.3-0.5-0.4-1.2-0.4-1.9v-0.7c0-1.2,0.3-2.1,0.8-2.7s1.3-0.9,2.3-0.9c0.8,0,1.5,0.2,1.9,0.6c0.5,0.4,0.8,1,0.9,1.7h-1
		c-0.2-1-0.8-1.5-1.8-1.5c-0.7,0-1.2,0.2-1.5,0.7c-0.4,0.5-0.5,1.2-0.5,2.1v0.6c0,0.9,0.2,1.6,0.6,2.1c0.4,0.5,0.9,0.8,1.6,0.8
		c0.4,0,0.7,0,1-0.1c0.3-0.1,0.5-0.2,0.7-0.4V106h-1.8v-0.8h2.8L441.5,108L441.5,108z"/>
	<path class="st0" d="M444.1,109h-1v-8.1h1V109z"/>
	<path class="st0" d="M445.4,106.1c0-0.6,0.1-1.1,0.3-1.5c0.2-0.4,0.5-0.8,0.9-1s0.8-0.4,1.3-0.4c0.8,0,1.4,0.3,1.9,0.8
		s0.7,1.2,0.7,2.2v0.1c0,0.6-0.1,1.1-0.3,1.5c-0.2,0.4-0.5,0.8-0.9,1c-0.4,0.2-0.9,0.4-1.4,0.4c-0.8,0-1.4-0.3-1.9-0.8
		S445.4,107.1,445.4,106.1L445.4,106.1z M446.4,106.2c0,0.6,0.1,1.1,0.4,1.5s0.7,0.6,1.2,0.6c0.5,0,0.9-0.2,1.2-0.6
		c0.3-0.4,0.4-0.9,0.4-1.6c0-0.6-0.1-1.1-0.5-1.5c-0.3-0.4-0.7-0.6-1.2-0.6c-0.5,0-0.9,0.2-1.2,0.6
		C446.5,105,446.4,105.5,446.4,106.2z"/>
	<path class="st0" d="M456.6,106.2c0,0.9-0.2,1.6-0.6,2.1s-0.9,0.8-1.6,0.8c-0.7,0-1.3-0.2-1.7-0.8l0,0.7h-0.9v-8.1h1v3
		c0.4-0.5,0.9-0.7,1.6-0.7s1.2,0.3,1.6,0.8C456.4,104.5,456.6,105.2,456.6,106.2L456.6,106.2L456.6,106.2z M455.6,106.1
		c0-0.7-0.1-1.2-0.4-1.5c-0.3-0.4-0.6-0.5-1.1-0.5c-0.6,0-1.1,0.3-1.4,0.9v2.5c0.3,0.6,0.8,0.9,1.4,0.9c0.5,0,0.8-0.2,1.1-0.5
		C455.5,107.4,455.6,106.8,455.6,106.1z"/>
	<path class="st0" d="M461.4,109c-0.1-0.1-0.1-0.3-0.1-0.6c-0.5,0.5-1,0.7-1.6,0.7c-0.6,0-1-0.2-1.4-0.5c-0.4-0.3-0.5-0.7-0.5-1.2
		c0-0.6,0.2-1.1,0.7-1.4c0.5-0.3,1.1-0.5,1.9-0.5h1v-0.4c0-0.3-0.1-0.6-0.3-0.8c-0.2-0.2-0.5-0.3-0.9-0.3c-0.4,0-0.6,0.1-0.9,0.3
		c-0.2,0.2-0.4,0.4-0.4,0.6h-1c0-0.3,0.1-0.6,0.3-0.8s0.5-0.5,0.8-0.6c0.4-0.2,0.7-0.2,1.1-0.2c0.7,0,1.2,0.2,1.5,0.5
		s0.6,0.8,0.6,1.4v2.6c0,0.5,0.1,0.9,0.2,1.2v0.1L461.4,109L461.4,109z M459.8,108.3c0.3,0,0.6-0.1,0.9-0.2c0.3-0.2,0.5-0.4,0.6-0.6
		v-1.2h-0.8c-1.2,0-1.8,0.3-1.8,1.1c0,0.3,0.1,0.5,0.3,0.7C459.2,108.2,459.4,108.3,459.8,108.3z"/>
	<path class="st0" d="M464.8,109h-1v-8.1h1V109z"/>
	<path class="st0" d="M473.4,105.6h-3.2v3.4h-1v-7.7h4.8v0.8h-3.7v2.6h3.2L473.4,105.6L473.4,105.6z"/>
	<path class="st0" d="M474.6,106.1c0-0.6,0.1-1.1,0.3-1.5c0.2-0.4,0.5-0.8,0.9-1s0.8-0.4,1.3-0.4c0.8,0,1.4,0.3,1.9,0.8
		s0.7,1.2,0.7,2.2v0.1c0,0.6-0.1,1.1-0.3,1.5c-0.2,0.4-0.5,0.8-0.9,1c-0.4,0.2-0.9,0.4-1.4,0.4c-0.8,0-1.4-0.3-1.9-0.8
		S474.6,107.1,474.6,106.1L474.6,106.1z M475.6,106.2c0,0.6,0.1,1.1,0.4,1.5s0.7,0.6,1.2,0.6c0.5,0,0.9-0.2,1.2-0.6
		c0.3-0.4,0.4-0.9,0.4-1.6c0-0.6-0.1-1.1-0.5-1.5c-0.3-0.4-0.7-0.6-1.2-0.6c-0.5,0-0.9,0.2-1.2,0.6
		C475.7,105,475.6,105.5,475.6,106.2z"/>
	<path class="st0" d="M480.8,106.1c0-0.6,0.1-1.1,0.3-1.5c0.2-0.4,0.5-0.8,0.9-1s0.8-0.4,1.3-0.4c0.8,0,1.4,0.3,1.9,0.8
		s0.7,1.2,0.7,2.2v0.1c0,0.6-0.1,1.1-0.3,1.5c-0.2,0.4-0.5,0.8-0.9,1c-0.4,0.2-0.9,0.4-1.4,0.4c-0.8,0-1.4-0.3-1.9-0.8
		S480.8,107.1,480.8,106.1L480.8,106.1z M481.8,106.2c0,0.6,0.1,1.1,0.4,1.5s0.7,0.6,1.2,0.6c0.5,0,0.9-0.2,1.2-0.6
		c0.3-0.4,0.4-0.9,0.4-1.6c0-0.6-0.1-1.1-0.5-1.5c-0.3-0.4-0.7-0.6-1.2-0.6c-0.5,0-0.9,0.2-1.2,0.6
		C481.9,105,481.8,105.5,481.8,106.2z"/>
	<path class="st0" d="M488.5,101.9v1.4h1.1v0.8h-1.1v3.5c0,0.2,0,0.4,0.1,0.5c0.1,0.1,0.3,0.2,0.5,0.2c0.1,0,0.3,0,0.5-0.1v0.8
		c-0.3,0.1-0.5,0.1-0.8,0.1c-0.4,0-0.8-0.1-1-0.4c-0.2-0.3-0.3-0.6-0.3-1.1V104h-1v-0.8h1v-1.4L488.5,101.9L488.5,101.9z"/>
	<path class="st0" d="M495.5,106.2c0,0.9-0.2,1.6-0.6,2.1s-0.9,0.8-1.6,0.8c-0.7,0-1.2-0.2-1.6-0.7v2.8h-1v-7.9h0.9l0,0.6
		c0.4-0.5,1-0.7,1.7-0.7c0.7,0,1.2,0.3,1.6,0.8S495.5,105.2,495.5,106.2L495.5,106.2L495.5,106.2z M494.6,106.1
		c0-0.6-0.1-1.2-0.4-1.5c-0.3-0.4-0.6-0.6-1.1-0.6c-0.6,0-1,0.3-1.3,0.8v2.7c0.3,0.5,0.7,0.8,1.3,0.8c0.5,0,0.8-0.2,1.1-0.6
		S494.6,106.8,494.6,106.1z"/>
	<path class="st0" d="M499.5,104.2c-0.1,0-0.3,0-0.5,0c-0.6,0-1.1,0.3-1.3,0.8v4.1h-1v-5.7h1l0,0.7c0.3-0.5,0.8-0.8,1.4-0.8
		c0.2,0,0.3,0,0.4,0.1L499.5,104.2L499.5,104.2z"/>
	<path class="st0" d="M500.4,101.8c0-0.2,0-0.3,0.1-0.4c0.1-0.1,0.2-0.2,0.4-0.2s0.3,0.1,0.4,0.2s0.1,0.2,0.1,0.4s0,0.3-0.1,0.4
		s-0.2,0.2-0.4,0.2s-0.3-0.1-0.4-0.2S500.4,102,500.4,101.8z M501.5,109h-1v-5.7h1V109z"/>
	<path class="st0" d="M504,103.3l0,0.7c0.4-0.6,1-0.8,1.7-0.8c1.2,0,1.8,0.7,1.8,2v3.8h-1v-3.8c0-0.4-0.1-0.7-0.3-0.9
		c-0.2-0.2-0.5-0.3-0.9-0.3c-0.3,0-0.6,0.1-0.8,0.2s-0.4,0.4-0.6,0.7v4.1h-1v-5.7H504z"/>
	<path class="st0" d="M510.3,101.9v1.4h1.1v0.8h-1.1v3.5c0,0.2,0,0.4,0.1,0.5c0.1,0.1,0.3,0.2,0.5,0.2c0.1,0,0.3,0,0.5-0.1v0.8
		c-0.3,0.1-0.5,0.1-0.8,0.1c-0.4,0-0.8-0.1-1-0.4c-0.2-0.3-0.3-0.6-0.3-1.1V104h-1v-0.8h1v-1.4L510.3,101.9L510.3,101.9z"/>
</g>
<polyline class="st9" points="332.7,109.8 332.7,67.8 430.7,67.8 "/>
</svg>
