<?xml version="1.0" encoding="utf-8"?>
<!-- Generator: Adobe Illustrator 24.1.2, SVG Export Plug-In . SVG Version: 6.00 Build 0)  -->
<svg version="1.1" id="Layer_1" xmlns="http://www.w3.org/2000/svg" xmlns:xlink="http://www.w3.org/1999/xlink" x="0px" y="0px"
	 viewBox="0 0 1280 775" style="enable-background:new 0 0 1280 775;" xml:space="preserve">
<style type="text/css">
	.st0{fill:#F7F8F8;}
	.st1{fill:#FFFFFF;}
	.st2{fill:#5DC9E5;}
	.st3{fill:#E0E1E0;}
	.st4{font-family:'Roboto-Medium';}
	.st5{font-size:16px;}
	.st6{fill:#2367B1;}
	.st7{fill:none;}
	.st8{font-size:14px;}
	.st9{font-size:12px;}
	.st10{font-family:'Roboto-Black';}
	.st11{fill-rule:evenodd;clip-rule:evenodd;fill:#FFFFFF;}
	.st12{fill:none;stroke:#F7F8F8;stroke-miterlimit:10;}
	.st13{fill:none;stroke:#FFFFFF;stroke-linejoin:round;stroke-miterlimit:10;}
	.st14{font-family:'Roboto-Regular';}
	.st15{font-size:9.5936px;}
</style>
<rect class="st0" width="1279.26" height="772.96"/>
<rect x="147.89" y="98.48" class="st1" width="989" height="580.56"/>
<g>
	<rect x="330.89" y="157.66" class="st2" width="237" height="456.57"/>
	<rect x="582.39" y="157.66" class="st2" width="237" height="456.57"/>
	<rect x="833.89" y="157.66" class="st2" width="237" height="456.57"/>
	<rect x="182.39" y="234.16" class="st0" width="920" height="82"/>
	<rect x="182.39" y="324.16" class="st0" width="920" height="82"/>
	<rect x="182.39" y="414.16" class="st0" width="920" height="230"/>
	<rect x="182.39" y="234.16" class="st3" width="131" height="82"/>
	<rect x="182.39" y="324.16" class="st3" width="131" height="82"/>
	<rect x="182.39" y="414.16" class="st3" width="131" height="230"/>
	<text transform="matrix(1 0 0 1 348.553 189.738)"><tspan x="0" y="0" class="st1 st4 st5">Installed </tspan><tspan x="0" y="29.03" class="st1 st4 st5">Commercial</tspan></text>
	<text transform="matrix(1 0 0 1 601.553 189.738)"><tspan x="0" y="0" class="st1 st4 st5">Theater / </tspan><tspan x="0" y="29.03" class="st1 st4 st5">Performing Art</tspan></text>
	<text transform="matrix(1 0 0 1 854.553 189.738)"><tspan x="0" y="0" class="st1 st4 st5">Smaller &amp; </tspan><tspan x="0" y="29.03" class="st1 st4 st5">Corporate Events</tspan></text>
	<g>
		<text transform="matrix(1 0 0 1 201.6298 285.1121)" class="st6 st4 st5">DRIVERS</text>
	</g>
	<g>
		<text transform="matrix(1 0 0 1 201.6298 360.1121)"><tspan x="0" y="0" class="st6 st4 st5">KEY </tspan><tspan x="0" y="24" class="st6 st4 st5">DRIVERS</tspan></text>
	</g>
	<g>
		<text transform="matrix(1 0 0 1 201.6298 516.1121)"><tspan x="0" y="0" class="st6 st4 st5">STRATEGIC </tspan><tspan x="0" y="24" class="st6 st4 st5">MOVES</tspan></text>
	</g>
	<g>
		<rect x="348.39" y="253.77" class="st7" width="192" height="44.39"/>
		<text transform="matrix(1 0 0 1 348.3867 264.2683)"><tspan x="0" y="0" class="st6 st4 st8">Increase in the use of audio </tspan><tspan x="0" y="21" class="st6 st4 st8">as a vehicle for product sales</tspan></text>
	</g>
	<g>
		<rect x="604.39" y="253.77" class="st7" width="181.91" height="44.39"/>
		<text transform="matrix(1 0 0 1 604.3867 264.2683)"><tspan x="0" y="0" class="st6 st4 st8">Immersive sound for top </tspan><tspan x="0" y="21" class="st6 st4 st8">tours &amp; production</tspan></text>
	</g>
	<g>
		<rect x="848.39" y="253.77" class="st7" width="207.91" height="44.39"/>
		<text transform="matrix(1 0 0 1 848.3867 264.2683)"><tspan x="0" y="0" class="st6 st4 st8">Keep customers engaged and </tspan><tspan x="0" y="21" class="st6 st4 st8">improve marketing presence</tspan></text>
	</g>
	<g>
		<rect x="348.39" y="439.77" class="st7" width="192" height="44.39"/>
		<text transform="matrix(1 0 0 1 348.3867 450.2683)"><tspan x="0" y="0" class="st6 st4 st8">Partnership with Mood Media</tspan><tspan x="0" y="21" class="st6 st4 st8">Tiered product offerings</tspan></text>
	</g>
	<g>
		<rect x="604.39" y="439.77" class="st7" width="199" height="188.39"/>
		<text transform="matrix(1 0 0 1 604.3867 450.2683)"><tspan x="0" y="0" class="st6 st4 st8">Leverage ‘Immersive Sound’ as </tspan><tspan x="0" y="20" class="st6 st4 st8">Good Marketing Vehicle</tspan><tspan x="0" y="52" class="st6 st4 st8">L-Acoustics offers an </tspan><tspan x="0" y="72" class="st6 st4 st8">integrated workflow from </tspan><tspan x="0" y="92" class="st6 st4 st8">show design through live </tspan><tspan x="0" y="112" class="st6 st4 st8">production</tspan><tspan x="0" y="133" class="st6 st4 st9">-</tspan><tspan x="4.06" y="133" class="st6 st4 st9"> L-ISA Technology (Processor &amp; </tspan><tspan x="0" y="147" class="st6 st4 st9">   Controller)</tspan><tspan x="0" y="161" class="st6 st4 st9">- Loudspeaker Configurations </tspan><tspan x="0" y="175" class="st6 st4 st9">- Multidimensional Mixing</tspan></text>
	</g>
	<g>
		<rect x="848.39" y="439.77" class="st7" width="207.91" height="187.39"/>
		<text transform="matrix(1 0 0 1 848.3867 450.2683)"><tspan x="0" y="0" class="st6 st4 st8">RCF is famous for its </tspan><tspan x="137.88" y="0" class="st6 st10 st8">active </tspan><tspan x="0" y="20" class="st6 st10 st8">line-array solutions </tspan><tspan x="130.51" y="20" class="st6 st4 st8">with </tspan><tspan x="0" y="40" class="st6 st4 st8">incredible sound to weight ratio</tspan><tspan x="0" y="80" class="st6 st4 st8">L-Acoustics begun to release </tspan><tspan x="0" y="100" class="st6 st4 st8">smaller install and rental </tspan><tspan x="0" y="120" class="st6 st10 st8">products targeting smaller </tspan><tspan x="0" y="140" class="st6 st10 st8">rental and integrator channels</tspan></text>
	</g>
	<g>
		<rect x="348.39" y="361.16" class="st7" width="192" height="32"/>
		<text transform="matrix(1 0 0 1 348.3867 371.658)" class="st6 st4 st8">BOSE, QSC, JBL</text>
	</g>
	<g>
		<rect x="604.39" y="348.77" class="st7" width="181.91" height="44.39"/>
		<text transform="matrix(1 0 0 1 604.3867 359.2683)"><tspan x="0" y="0" class="st6 st4 st8">L-ISA, Soundscape, </tspan><tspan x="0" y="21" class="st6 st4 st8">Astro Spatial Audio</tspan></text>
	</g>
	<g>
		<rect x="848.39" y="348.77" class="st7" width="207.91" height="44.39"/>
		<text transform="matrix(1 0 0 1 848.3867 359.2683)"><tspan x="0" y="0" class="st6 st4 st8">RCF, CODA</tspan><tspan x="0" y="21" class="st6 st4 st8">L-Acoustics</tspan></text>
	</g>
	<g>
		<rect x="348.23" y="488.91" class="st11" width="74.6" height="37.68"/>
		<rect x="422.83" y="488.91" class="st11" width="129.94" height="37.68"/>
		<rect x="348.23" y="526.59" class="st11" width="74.6" height="37.68"/>
		<rect x="422.83" y="526.59" class="st11" width="129.94" height="37.68"/>
		<rect x="348.23" y="564.26" class="st11" width="74.6" height="37.68"/>
		<rect x="422.83" y="564.26" class="st11" width="129.94" height="37.68"/>
		<line class="st12" x1="422.83" y1="488.69" x2="422.83" y2="602.16"/>
		<line class="st12" x1="347.79" y1="526.59" x2="553.21" y2="526.59"/>
		<line class="st12" x1="347.79" y1="564.26" x2="553.21" y2="564.26"/>
		<line class="st13" x1="348.23" y1="488.69" x2="348.23" y2="602.16"/>
		<line class="st13" x1="552.78" y1="488.69" x2="552.78" y2="602.16"/>
		<line class="st12" x1="347.79" y1="488.91" x2="553.21" y2="488.91"/>
		<line class="st12" x1="347.79" y1="601.94" x2="553.21" y2="601.94"/>
		<text transform="matrix(1 0 0 1 362.9634 512.1541)"><tspan x="0" y="0" class="st6 st14 st15">Hi</tspan><tspan x="9.22" y="0" class="st6 st14 st15">g</tspan><tspan x="14.62" y="0" class="st6 st14 st15">h</tspan></text>
		<text transform="matrix(1 0 0 1 385.9663 512.1541)" class="st6 st14 st15">-</text>
		<text transform="matrix(1 0 0 1 389.8909 512.1541)"><tspan x="0" y="0" class="st6 st14 st15">e</tspan><tspan x="5.11" y="0" class="st6 st14 st15">nd</tspan></text>
		<text transform="matrix(1 0 0 1 460.4951 512.1541)"><tspan x="0" y="0" class="st6 st14 st15">D</tspan><tspan x="6.29" y="0" class="st6 st14 st15">e</tspan><tspan x="11.4" y="0" class="st6 st14 st15">s</tspan><tspan x="16.35" y="0" class="st6 st14 st15">i</tspan><tspan x="18.71" y="0" class="st6 st14 st15">g</tspan><tspan x="24.1" y="0" class="st6 st14 st15">n</tspan><tspan x="29.39" y="0" class="st6 st14 st15">M</tspan><tspan x="37.74" y="0" class="st6 st14 st15">a</tspan><tspan x="42.97" y="0" class="st6 st14 st15">x</tspan></text>
		<text transform="matrix(1 0 0 1 373.4836 549.657)"><tspan x="0" y="0" class="st6 st14 st15">M</tspan><tspan x="8.35" y="0" class="st6 st14 st15">a</tspan><tspan x="13.58" y="0" class="st6 st14 st15">ss</tspan></text>
		<text transform="matrix(1 0 0 1 462.6882 549.657)"><tspan x="0" y="0" class="st6 st14 st15">F</tspan><tspan x="5.33" y="0" class="st6 st14 st15">r</tspan><tspan x="8.36" y="0" class="st6 st14 st15">ee</tspan><tspan x="18.58" y="0" class="st6 st14 st15">S</tspan><tspan x="24.25" y="0" class="st6 st14 st15">p</tspan><tspan x="29.63" y="0" class="st6 st14 st15">a</tspan><tspan x="34.86" y="0" class="st6 st14 st15">ce</tspan></text>
		<text transform="matrix(1 0 0 1 367.7603 580.1804)"><tspan x="0" y="0" class="st6 st14 st15">U</tspan><tspan x="6.2" y="0" class="st6 st14 st15">n</tspan><tspan x="11.49" y="0" class="st6 st14 st15">i</tspan><tspan x="13.85" y="0" class="st6 st14 st15">que</tspan></text>
		<text transform="matrix(1 0 0 1 358.6462 595.0085)"><tspan x="0" y="0" class="st6 st14 st15">P</tspan><tspan x="5.81" y="0" class="st6 st14 st15">o</tspan><tspan x="11.29" y="0" class="st6 st14 st15">s</tspan><tspan x="16.24" y="0" class="st6 st14 st15">i</tspan><tspan x="18.6" y="0" class="st6 st14 st15">t</tspan><tspan x="21.71" y="0" class="st6 st14 st15">i</tspan><tspan x="24.07" y="0" class="st6 st14 st15">o</tspan><tspan x="29.55" y="0" class="st6 st14 st15">n</tspan><tspan x="34.84" y="0" class="st6 st14 st15">i</tspan><tspan x="37.2" y="0" class="st6 st14 st15">ng</tspan></text>
		<text transform="matrix(1 0 0 1 465.6733 587.1589)"><tspan x="0" y="0" class="st6 st14 st15">Ed</tspan><tspan x="10.86" y="0" class="st6 st14 st15">g</tspan><tspan x="16.25" y="0" class="st6 st14 st15">e</tspan><tspan x="21.37" y="0" class="st6 st14 st15">M</tspan><tspan x="29.71" y="0" class="st6 st14 st15">a</tspan><tspan x="34.94" y="0" class="st6 st14 st15">x</tspan></text>
	</g>
</g>
</svg>
