<?xml version="1.0" encoding="utf-8"?>
<!-- Generator: Adobe Illustrator 24.1.2, SVG Export Plug-In . SVG Version: 6.00 Build 0)  -->
<svg version="1.0" id="Layer_1" xmlns="http://www.w3.org/2000/svg" xmlns:xlink="http://www.w3.org/1999/xlink" x="0px" y="0px"
	 viewBox="0 0 364.94 218.93" style="enable-background:new 0 0 364.94 218.93;" xml:space="preserve">
<style type="text/css">
	.st0{fill:#B2E0E7;}
	.st1{fill:#D5EEF1;}
	.st2{fill:#8DCED6;}
	.st3{fill:#FFFFFF;}
	.st4{fill:#1F2959;}
	.st5{fill:#5A7195;}
	.st6{fill:#D2D2D2;}
	.st7{fill:#F6F6F6;}
	.st8{fill:#EC7B36;}
	.st9{fill:url(#SVGID_3_);}
	.st10{fill:#1D1D1B;}
	.st11{fill:#3D3D3C;}
	.st12{fill:#878787;}
	.st13{fill:url(#SVGID_4_);}
	.st14{clip-path:url(#SVGID_7_);}
	.st15{clip-path:url(#SVGID_8_);fill:url(#SVGID_9_);}
	.st16{fill:url(#SVGID_10_);}
	.st17{fill:#4CA8C6;}
	.st18{fill:url(#SVGID_11_);}
	.st19{fill:url(#SVGID_12_);}
	.st20{fill:#585856;}
	.st21{fill:#EDEDEE;}
	.st22{fill:url(#SVGID_13_);}
	.st23{fill:#8CCEF2;}
	.st24{fill:url(#SVGID_14_);}
	.st25{fill:url(#SVGID_15_);}
	.st26{fill:url(#SVGID_16_);}
	.st27{fill:url(#SVGID_17_);}
	.st28{fill:url(#SVGID_18_);}
	.st29{fill:url(#SVGID_19_);}
	.st30{fill:url(#SVGID_20_);}
	.st31{fill:#DBDADA;}
	.st32{clip-path:url(#SVGID_23_);}
	.st33{clip-path:url(#SVGID_24_);fill:url(#SVGID_25_);}
	.st34{fill:#223B62;}
	.st35{fill:#C05059;}
	.st36{opacity:0.8;fill:url(#SVGID_26_);enable-background:new    ;}
</style>
<g>
	<g>
		<rect x="21.4" y="127.52" class="st0" width="24.54" height="51.5"/>
		<g>
			<rect x="25.29" y="132.08" class="st1" width="8.38" height="2.23"/>
			<rect x="30.29" y="137.44" class="st1" width="15.65" height="2.23"/>
			<rect x="25.29" y="142.8" class="st1" width="14.92" height="2.23"/>
			<rect x="25.29" y="148.16" class="st1" width="18.03" height="2.23"/>
			<rect x="25.29" y="153.52" class="st1" width="20.65" height="2.23"/>
			<rect x="34.94" y="158.88" class="st1" width="11.01" height="2.23"/>
			<rect x="25.29" y="164.23" class="st1" width="17.09" height="2.23"/>
			<rect x="30.29" y="169.59" class="st1" width="15.65" height="9.43"/>
		</g>
		<rect x="55.45" y="110.36" class="st0" width="12.14" height="68.67"/>
		<rect x="45.94" y="127.52" class="st2" width="9.51" height="51.5"/>
		<rect x="41.96" y="122.76" class="st2" width="7.93" height="4.77"/>
		<rect x="32.82" y="122.75" class="st0" width="9.15" height="4.77"/>
		<rect x="284.75" y="84.04" class="st2" width="17.52" height="94.99"/>
		<rect x="293.51" y="101.58" class="st0" width="24.73" height="77.44"/>
		<rect x="318.24" y="101.4" class="st2" width="13.94" height="77.63"/>
		<g>
			<g>
				<rect x="293.51" y="105.29" class="st1" width="22.6" height="2.23"/>
				<rect x="293.51" y="110.65" class="st1" width="17.8" height="2.23"/>
				<rect x="293.51" y="116.01" class="st1" width="22.6" height="2.23"/>
				<rect x="303.69" y="121.37" class="st1" width="12.42" height="2.23"/>
				<rect x="293.51" y="126.73" class="st1" width="22.6" height="2.23"/>
				<rect x="293.51" y="132.08" class="st1" width="20.36" height="2.23"/>
				<rect x="309.01" y="137.44" class="st1" width="7.1" height="2.23"/>
				<rect x="296.59" y="142.8" class="st1" width="19.52" height="2.23"/>
				<rect x="305.87" y="148.16" class="st1" width="10.24" height="2.23"/>
				<rect x="293.51" y="153.52" class="st1" width="22.6" height="2.23"/>
				<rect x="293.51" y="158.88" class="st1" width="16.03" height="2.23"/>
				<rect x="293.51" y="164.23" class="st1" width="22.6" height="2.23"/>
				<rect x="293.51" y="169.59" class="st1" width="22.6" height="9.43"/>
			</g>
			<rect x="320.08" y="169.59" class="st0" width="5.13" height="9.43"/>
		</g>
		<rect x="255.49" y="84.03" class="st0" width="29.26" height="94.99"/>
		<g>
			<g>
				<rect x="255.48" y="89.22" class="st1" width="22.6" height="2.23"/>
				<rect x="255.48" y="94.58" class="st1" width="22.6" height="2.23"/>
				<rect x="255.48" y="99.93" class="st1" width="22.6" height="2.23"/>
				<rect x="255.48" y="105.29" class="st1" width="22.6" height="2.23"/>
				<rect x="255.48" y="110.65" class="st1" width="22.6" height="2.23"/>
				<rect x="255.48" y="116.01" class="st1" width="22.6" height="2.23"/>
				<rect x="255.48" y="121.37" class="st1" width="22.6" height="2.23"/>
				<rect x="255.48" y="126.73" class="st1" width="22.6" height="2.23"/>
				<rect x="255.48" y="132.08" class="st1" width="22.6" height="2.23"/>
				<rect x="255.48" y="137.44" class="st1" width="22.6" height="2.23"/>
				<rect x="255.48" y="142.8" class="st1" width="22.6" height="2.23"/>
				<rect x="255.48" y="148.16" class="st1" width="22.6" height="2.23"/>
				<rect x="255.48" y="153.52" class="st1" width="22.6" height="2.23"/>
				<rect x="255.48" y="158.88" class="st1" width="22.6" height="2.23"/>
				<rect x="255.48" y="164.23" class="st1" width="22.6" height="2.23"/>
				<rect x="255.48" y="169.59" class="st1" width="22.6" height="2.23"/>
				<rect x="255.48" y="174.95" class="st1" width="22.6" height="2.23"/>
			</g>
			<rect x="255.48" y="105.29" class="st3" width="7.4" height="2.23"/>
			<rect x="262.89" y="116.01" class="st3" width="1.77" height="2.23"/>
			<rect x="274.47" y="94.58" class="st3" width="3.62" height="2.23"/>
			<rect x="265.57" y="99.93" class="st3" width="1.74" height="2.23"/>
			<rect x="270.44" y="126.73" class="st3" width="5.77" height="2.23"/>
			<rect x="258.33" y="89.24" class="st3" width="1.6" height="2.21"/>
			<rect x="261.17" y="99.93" class="st3" width="1.72" height="2.23"/>
		</g>
		<rect x="190.35" y="66.52" class="st2" width="15.63" height="112.51"/>
		<rect x="165.78" y="66.52" class="st0" width="24.57" height="112.51"/>
		<g>
			<g>
				<rect x="165.78" y="71.7" class="st1" width="24.57" height="2.23"/>
				<rect x="165.78" y="77.06" class="st1" width="24.57" height="2.23"/>
				<rect x="165.78" y="82.42" class="st1" width="24.57" height="2.23"/>
				<rect x="165.78" y="87.77" class="st1" width="24.57" height="2.23"/>
				<rect x="165.78" y="93.13" class="st1" width="24.57" height="2.23"/>
				<rect x="165.78" y="98.49" class="st1" width="24.57" height="2.23"/>
				<rect x="165.78" y="103.85" class="st1" width="24.57" height="2.23"/>
				<rect x="165.78" y="109.21" class="st1" width="24.57" height="2.23"/>
				<rect x="165.78" y="114.57" class="st1" width="24.57" height="2.23"/>
				<rect x="165.78" y="119.92" class="st1" width="24.57" height="2.23"/>
				<rect x="165.78" y="125.28" class="st1" width="24.57" height="2.23"/>
				<rect x="165.78" y="130.64" class="st1" width="24.57" height="2.23"/>
				<rect x="165.78" y="136" class="st1" width="24.57" height="2.23"/>
				<rect x="165.78" y="141.36" class="st1" width="24.57" height="2.23"/>
				<rect x="165.78" y="146.72" class="st1" width="24.57" height="2.23"/>
				<rect x="165.78" y="152.07" class="st1" width="24.57" height="2.23"/>
				<rect x="165.78" y="157.43" class="st1" width="24.57" height="2.23"/>
			</g>
			<g>
				<rect x="190.35" y="71.7" class="st0" width="10.13" height="2.23"/>
				<rect x="190.35" y="77.06" class="st0" width="10.13" height="2.23"/>
				<rect x="190.35" y="82.42" class="st0" width="10.13" height="2.23"/>
				<rect x="190.35" y="87.77" class="st0" width="10.13" height="2.23"/>
				<rect x="190.35" y="93.13" class="st0" width="10.13" height="2.23"/>
				<rect x="190.35" y="98.49" class="st0" width="10.13" height="2.23"/>
				<rect x="190.35" y="103.85" class="st0" width="10.13" height="2.23"/>
				<rect x="190.35" y="109.21" class="st0" width="10.13" height="2.23"/>
				<rect x="190.35" y="114.57" class="st0" width="10.13" height="2.23"/>
				<rect x="190.35" y="119.92" class="st0" width="10.13" height="2.23"/>
				<rect x="190.35" y="125.28" class="st0" width="10.13" height="2.23"/>
				<rect x="190.35" y="130.64" class="st0" width="10.13" height="2.23"/>
				<rect x="190.35" y="136" class="st0" width="10.13" height="2.23"/>
				<rect x="190.35" y="141.36" class="st0" width="10.13" height="2.23"/>
				<rect x="190.35" y="146.72" class="st0" width="10.13" height="2.23"/>
				<rect x="190.35" y="152.07" class="st0" width="10.13" height="2.23"/>
				<rect x="190.35" y="157.43" class="st0" width="10.13" height="2.23"/>
			</g>
			<rect x="169.07" y="71.7" class="st3" width="2.23" height="2.23"/>
			<rect x="181.31" y="82.42" class="st3" width="9.04" height="2.23"/>
			<rect x="173.8" y="103.85" class="st3" width="2.23" height="2.23"/>
			<rect x="180.34" y="109.21" class="st3" width="7.58" height="2.23"/>
			<rect x="170.87" y="119.92" class="st3" width="2.12" height="2.23"/>
			<rect x="178.07" y="119.92" class="st3" width="2.05" height="2.23"/>
			<rect x="170.87" y="125.28" class="st3" width="2.12" height="2.23"/>
			<rect x="193.07" y="109.21" class="st1" width="1.93" height="2.23"/>
			<rect x="196.78" y="87.77" class="st1" width="3.7" height="2.23"/>
			<rect x="193.07" y="77.06" class="st1" width="1.96" height="2.23"/>
		</g>
		<rect x="143.95" y="92.63" class="st2" width="13.44" height="86.4"/>
		<g>
			<rect x="146.72" y="98.49" class="st0" width="2.32" height="80.53"/>
			<rect x="146.72" y="103.85" class="st1" width="2.32" height="2.23"/>
			<rect x="146.72" y="114.57" class="st1" width="2.32" height="7.58"/>
			<rect x="146.72" y="141.36" class="st1" width="2.32" height="2.23"/>
		</g>
		<rect x="210.57" y="48.97" class="st0" width="34.09" height="130.05"/>
		<g>
			<g>
				<rect x="213.61" y="54.45" class="st3" width="0.75" height="124.57"/>
			</g>
			<g>
				<rect x="217.02" y="54.45" class="st3" width="0.75" height="124.57"/>
			</g>
			<g>
				<rect x="220.43" y="54.45" class="st3" width="0.75" height="124.57"/>
			</g>
			<g>
				<rect x="223.84" y="54.45" class="st3" width="0.75" height="124.57"/>
			</g>
			<g>
				<rect x="227.24" y="54.45" class="st1" width="0.75" height="124.57"/>
			</g>
			<g>
				<rect x="230.65" y="54.45" class="st1" width="0.75" height="71.59"/>
			</g>
			<g>
				<rect x="234.06" y="54.45" class="st3" width="0.75" height="124.57"/>
			</g>
			<g>
				<rect x="237.47" y="54.45" class="st1" width="0.75" height="60.95"/>
			</g>
			<g>
				<rect x="240.88" y="54.45" class="st1" width="0.75" height="58.86"/>
			</g>
		</g>
		<rect x="244.67" y="110.35" class="st2" width="10.82" height="68.67"/>
		<rect x="192.76" y="61.75" class="st2" width="7.93" height="4.77"/>
		<rect x="183.61" y="61.75" class="st0" width="9.15" height="4.77"/>
		<rect x="280.78" y="79.27" class="st2" width="7.93" height="4.77"/>
		<rect x="271.63" y="79.27" class="st0" width="9.15" height="4.77"/>
	</g>
	<g>
		<g>
			<path class="st4" d="M11.52,179.11c-0.69-2.55-0.6-4.48,0.28-5.89c1.33-2.14,4.23-2.7,7.03-3.25c2.7-0.52,5.25-1.02,6.37-2.79
				c0.7-1.1,0.78-2.62,0.26-4.64c-1.18-4.57-0.95-7.38,0.72-8.83c3.07-2.66,10.69-0.26,23.68,5.12c2.45,1.01,4.04,1.27,4.87,0.77
				c0.78-0.46,0.9-1.59,1.05-2.9c0.15-1.37,0.31-2.92,1.35-3.96c2.3-2.31,5.1-0.86,8.06,0.68c2.24,1.17,4.78,2.49,7.53,2.49v0.63
				c-2.9,0-5.51-1.36-7.82-2.56c-2.99-1.56-5.35-2.78-7.33-0.8c-0.88,0.89-1.03,2.26-1.17,3.59c-0.15,1.42-0.3,2.75-1.35,3.38
				c-1.03,0.61-2.75,0.38-5.43-0.73c-12.46-5.16-20.22-7.66-23.03-5.23c-1.45,1.26-1.62,3.94-0.53,8.2c0.57,2.2,0.46,3.88-0.34,5.13
				c-1.26,2-4.07,2.54-6.77,3.07c-2.67,0.52-5.43,1.06-6.62,2.97c-0.78,1.26-0.85,3.03-0.21,5.4L11.52,179.11z"/>
		</g>
		<g>
			<path class="st4" d="M134.92,147.59l-0.54-0.32c3.2-5.35,11.62-14.59,20.55-16.64c6.8-1.55,9.29,0.54,11.48,2.39
				c1.3,1.1,2.53,2.14,4.57,2.3c3.11,0.25,5.68-1.09,8.4-2.52c4.84-2.53,9.84-5.14,18.47,0.61l-0.35,0.52
				c-8.32-5.54-13.16-3.02-17.83-0.57c-2.8,1.46-5.45,2.84-8.74,2.58c-2.24-0.18-3.54-1.28-4.92-2.44
				c-2.18-1.84-4.43-3.75-10.93-2.26C146.33,133.24,138.07,142.33,134.92,147.59z"/>
		</g>
		<g>
			<path class="st4" d="M355.89,179.12l-0.57-0.18c0.83-2.6,0.81-4.59-0.05-6.1c-1.44-2.52-5.18-3.36-8.78-4.17
				c-4.98-1.12-10.13-2.28-9.86-7.8c0.02-0.46,0.05-0.92,0.07-1.38c0.3-5.38,0.56-10.03-4.6-10.47c-5.52-0.46-11.23,2.03-19.08,8.35
				l-0.38-0.47c7.98-6.43,13.81-8.97,19.5-8.48c5.74,0.49,5.46,5.64,5.15,11.1c-0.03,0.46-0.05,0.92-0.07,1.38
				c-0.24,5.02,4.44,6.07,9.39,7.19c3.73,0.84,7.6,1.71,9.17,4.46C356.74,174.2,356.77,176.35,355.89,179.12z"/>
		</g>
		<g>
			<path class="st4" d="M312.75,157.42c-4.05-1.19-3.79-4.4-3.51-7.81c0.15-1.88,0.31-3.83-0.25-5.55c-1.33-4.02-6.3-4.42-11.1-4.81
				c-2.46-0.2-4.78-0.39-6.52-1.06c-4.54-1.75-6.1-4.24-7.6-6.64c-1.14-1.82-2.22-3.53-4.54-4.91c-5.14-3.06-10.65-1.9-16.49-0.68
				c-4.57,0.96-9.29,1.95-13.97,0.85c-1.53-0.36-2.93-1.11-4.43-1.9c-3.1-1.65-6.31-3.36-11.07-1.81
				c-3.65,1.19-9.08,4.71-12.23,7.42l-0.39-0.45c3.15-2.72,8.57-6.28,12.43-7.54c5-1.63,8.47,0.22,11.53,1.85
				c1.46,0.78,2.83,1.51,4.28,1.85c4.55,1.07,9.21,0.09,13.71-0.85c5.96-1.25,11.58-2.43,16.92,0.75c2.44,1.45,3.61,3.31,4.74,5.11
				c1.46,2.32,2.96,4.72,7.31,6.4c1.66,0.64,3.94,0.83,6.35,1.02c4.77,0.39,10.17,0.82,11.62,5.22c0.61,1.83,0.44,3.84,0.28,5.79
				c-0.27,3.29-0.5,6.13,3.09,7.18L312.75,157.42z"/>
		</g>
	</g>
	<ellipse class="st5" cx="101.06" cy="205.99" rx="53.47" ry="1.94"/>
	<g>
		<ellipse class="st5" cx="179.79" cy="205.99" rx="57.33" ry="1.58"/>
		<ellipse class="st5" cx="263.26" cy="205.99" rx="65.58" ry="1.89"/>
	</g>
	<g>
		<path class="st4" d="M124.2,205.99H87.33c-10.9,0-19.74-8.84-19.74-19.74V72.94c0-10.9,8.84-19.74,19.74-19.74h36.88
			c10.9,0,19.74,8.84,19.74,19.74v113.3C143.94,197.15,135.11,205.99,124.2,205.99z"/>
		<path class="st3" d="M127.14,203.77H84.39c-8.06,0-14.59-6.53-14.59-14.59V70.01c0-8.06,6.53-14.59,14.59-14.59h42.75
			c8.06,0,14.59,6.53,14.59,14.59v119.18C141.73,197.24,135.2,203.77,127.14,203.77z"/>
		<path class="st4" d="M105.77,55.42h-15.6l2.46,4.06c0.71,1.17,1.97,1.88,3.34,1.88h9.81h9.81c1.37,0,2.63-0.71,3.34-1.88
			l2.46-4.06H105.77z"/>
		<rect x="69.8" y="71.89" class="st6" width="71.93" height="113.59"/>
	</g>
	<g>
		<path class="st0" d="M240.85,35.85c0.32-0.6,0.51-1.26,0.51-1.95c0-3.01-3.42-5.45-7.65-5.45c-4.22,0-7.65,2.44-7.65,5.45
			c0,0.69,0.19,1.34,0.51,1.95H240.85z"/>
		<path class="st0" d="M212.5,23.83c-3.06-0.15-5.73,1.57-6.98,4.11c-0.7,1.44-2.18,2.36-3.77,2.15c-0.67-0.09-1.36-0.14-2.08-0.14
			c-4.8,0-8.69,2.07-8.69,4.63c0,0.44,0.12,0.86,0.33,1.26h15.13h1.58h9.77c1.14-1.38,1.78-3.18,1.66-5.13
			C219.24,27.03,216.19,24.01,212.5,23.83z"/>
	</g>
	<g>
		<path class="st0" d="M124.09,35.85c4-12.03-14.64-5.34-14.44-12.64c0.23-7.96-6.33-12.63-21.93-6.12
			C72.17,23.58,72.9,34.35,75.87,35.85H124.09z"/>
		<path class="st0" d="M154.06,35.85c0.29-0.54,0.45-1.12,0.45-1.73c0-2.67-3.04-4.83-6.78-4.83c-3.75,0-6.78,2.16-6.78,4.83
			c0,0.61,0.16,1.19,0.45,1.73H154.06z"/>
		<path class="st0" d="M64.03,25.18c-2.72-0.14-5.09,1.39-6.19,3.65c-0.62,1.27-1.94,2.09-3.34,1.91c-0.59-0.08-1.21-0.12-1.85-0.12
			c-4.26,0-7.71,1.84-7.71,4.11c0,0.39,0.11,0.76,0.3,1.12h13.42h1.4h8.67c1.01-1.22,1.58-2.82,1.48-4.55
			C70.01,28.03,67.31,25.35,64.03,25.18z"/>
	</g>
	<path class="st7" d="M141.73,73.65L97.89,99.02L82.23,71.89H77.9l16.74,29L69.8,115.27v4.34l26.72-15.45l9,15.59L69.8,140.4v4.34
		l15.43-8.93l9.92,17.18L69.8,167.66V172L97,156.27c5.93,11.04,6.75,20.8,6.81,29.21h3.76c-0.07-8.91-0.93-19.26-7.31-31.09
		l18.94-10.96l22.53,39.03v-7.51l-19.28-33.4l19.28-11.15v-4.34l-21.16,12.24l-8.77-15.19l14.28-8.26l-4.18-7.23l-14.27,8.26
		l-7.85-13.6l41.96-24.27v-4.36H141.73z M117.32,140.18L98.4,151.12l-9.92-17.18l18.91-10.95L117.32,140.18z"/>
	<g>
		<path class="st8" d="M121.19,140.61c-0.4,0-0.8-0.05-1.19-0.16c-1.19-0.32-2.18-1.08-2.79-2.14l-20.9-36.2l1.81-1.04l20.9,36.2
			c0.33,0.58,0.88,0.99,1.52,1.17c0.65,0.17,1.32,0.08,1.9-0.25l61.74-35.72c1.06-0.62,2.3-0.78,3.49-0.46s2.18,1.08,2.79,2.14
			l6.42,11.13c0.33,0.58,0.88,0.99,1.52,1.17c0.65,0.17,1.32,0.08,1.9-0.25l26.8-15.5l1.05,1.81l-26.8,15.5
			c-1.06,0.62-2.3,0.78-3.49,0.46s-2.18-1.08-2.79-2.14l-6.42-11.13c-0.33-0.58-0.88-0.99-1.52-1.17c-0.65-0.17-1.32-0.08-1.9,0.25
			L123.49,140C122.77,140.4,121.99,140.61,121.19,140.61z"/>
	</g>
	<g>
		<ellipse class="st4" cx="227.62" cy="101.58" rx="22.23" ry="2.43"/>
		
			<linearGradient id="SVGID_3_" gradientUnits="userSpaceOnUse" x1="213.8357" y1="126.0933" x2="238.7756" y2="169.2905" gradientTransform="matrix(1 0 0 -1 0 220)">
			<stop  offset="0" style="stop-color:#EC7B36"/>
			<stop  offset="1" style="stop-color:#F79557"/>
		</linearGradient>
		<path class="st9" d="M242.17,82.57c2.9-3.37,4.66-7.74,4.66-12.53c0-10.61-8.6-19.21-19.21-19.21s-19.21,8.6-19.21,19.21
			c0,4.79,1.76,9.16,4.66,12.53l14.55,19.02L242.17,82.57z"/>
		<circle class="st3" cx="227.62" cy="70.04" r="11.07"/>
	</g>
	<g>
		<ellipse class="st4" cx="97.2" cy="101.58" rx="11.44" ry="1.25"/>
		<path class="st8" d="M103.94,92.77c1.34-1.56,2.16-3.58,2.16-5.8c0-4.92-3.99-8.9-8.9-8.9c-4.92,0-8.9,3.99-8.9,8.9
			c0,2.22,0.82,4.24,2.16,5.8l6.74,8.81L103.94,92.77z"/>
		<circle class="st3" cx="97.2" cy="86.97" r="5.13"/>
	</g>
	<g>
		<g>
			<path class="st10" d="M134.51,173.36c-5.39,0-9.76,7.3-9.76,16.31s4.37,16.31,9.76,16.31h9.44v-32.63h-9.44V173.36z"/>
			<ellipse class="st10" cx="143.94" cy="189.67" rx="9.76" ry="16.31"/>
			<ellipse class="st11" cx="143.94" cy="189.67" rx="7.04" ry="12.24"/>
		</g>
		<path class="st10" d="M288.24,193.99c0,0,8.15,0.31,10.53,0c1.01-0.13,2.92-1.56,2.92-1.56c0.08-0.51,0.16-1.02,0.23-1.53
			c1.63-12.53-2.55-23.37-9.33-24.22s-13.6,8.62-15.23,21.15c-0.28,2.12-0.38,4.18-0.34,6.16H288.24z"/>
		<g>
			<path class="st10" d="M279.3,173.36c-5.39,0-9.76,7.3-9.76,16.31s4.37,16.31,9.76,16.31h9.44v-32.63h-9.44V173.36z"/>
			<ellipse class="st11" cx="288.74" cy="189.67" rx="9.76" ry="16.31"/>
			<ellipse class="st12" cx="288.74" cy="189.67" rx="7.04" ry="12.24"/>
		</g>
		<g>
			<path class="st10" d="M209.92,173.36c-5.39,0-9.76,7.3-9.76,16.31s4.37,16.31,9.76,16.31h9.44v-32.63h-9.44V173.36z"/>
			<ellipse class="st10" cx="219.36" cy="189.67" rx="9.76" ry="16.31"/>
			<ellipse class="st11" cx="219.36" cy="189.67" rx="7.04" ry="12.24"/>
		</g>
		<path class="st10" d="M226.83,196.42c0.47-1.62,0.83-3.32,1.06-5.09c1.6-12.29-3.62-23.08-11.67-24.08
			c-8.05-1.01-15.52,8.19-17.46,20.44c-0.53,3.36-0.76,6.25-0.74,8.74h28.81V196.42z"/>
		<g>
			<path class="st10" d="M203.89,173.36c-5.39,0-9.76,7.3-9.76,16.31s4.37,16.31,9.76,16.31h9.44v-32.63h-9.44V173.36z"/>
			<ellipse class="st11" cx="213.33" cy="189.67" rx="9.76" ry="16.31"/>
			<ellipse class="st12" cx="213.33" cy="189.67" rx="7.04" ry="12.24"/>
		</g>
		
			<linearGradient id="SVGID_4_" gradientUnits="userSpaceOnUse" x1="151.4921" y1="80.0642" x2="280.3148" y2="5.6884" gradientTransform="matrix(1 0 0 -1 0 220)">
			<stop  offset="0" style="stop-color:#3FB2D8"/>
			<stop  offset="0.3455" style="stop-color:#3AAFD6"/>
			<stop  offset="0.7029" style="stop-color:#2BA5D0"/>
			<stop  offset="1" style="stop-color:#079AC8"/>
		</linearGradient>
		<path class="st13" d="M304.48,169.3c-0.04-1.33-0.41-2.46-1.02-3.61c-0.81-1.53-0.44-2.86-0.33-4.49
			c0.08-1.23,0.11-2.54-0.15-3.75c-0.33-1.52-1.35-1.99-2.31-3.07c-0.8-0.9-1.23-1.85-2.48-2.21c-0.69-0.2-1.11-0.25-1.74-0.63
			c-0.77-0.46-1.52-0.96-2.25-1.47c-5.27-3.67-9.97-7.94-15.62-11.09c-5.53-3.1-11.53-5.41-17.75-6.77
			c-6.32-1.37-12.82-1.93-19.27-2.41c-6.69-0.5-13.39-0.57-20.1-0.56c-6.98,0.01-15.96,0.5-22.94,1.24
			c-3.15,0.33-6.13,0.96-9.14,1.7c-3.29,0.81-5.93,1.84-8.86,3.14c-8.09,3.6-22.03,13.47-25.54,15.94
			c-0.89,0.63-2.25,1.31-3.56,1.58c-5.27,1.1-10.32,3.06-13.61,4.99c-1.16,0.68-2.2,1.36-3.35,2.05c-1.26,0.76-2.47,1.13-3.82,1.72
			c-1.37,0.6-2.86,1.08-4.14,1.69c-1.27,0.61-2.14,1.12-3.28,1.95c-0.99,0.72-2.08,1.89-2.26,3.12c-0.17,1.14,0.31,2.75-0.35,3.76
			c-0.17,0.26-0.91,0.86-1.16,1.03c-1.29,0.88-1.38,2.88-1.44,4.37c-0.17,4.29,0.47,8.2,0.25,10.56c-0.14,1.45-0.42,2.92-0.08,4.36
			c0.25,1.06,0.94,3.08,1.96,3.65c0.42,0.23,0.77,0.21,1.17,0.53c0.33,0.26,0.52,0.58,0.93,0.75c0.3,0.12,0.6,0.14,0.9,0.14
			c9.73,0,26.85,0,42.55,0c14.89,0,28.49,0,33.29,0h1.38c0.04-3.43,0.39-7.33,1.21-11.23c0.74-3.51,2.79-8.28,4.41-10.66
			c5.12-7.55,12.02-5.87,14.36-4.06c4.05,3.15,5.63,9.17,5.63,14.02c0,5.85-0.91,8.4-1.55,10.86h2.14c1.94,0,4.21,0,6.59,0
			c4.66,0,9.74,0,13.54,0c6.85,0,13.69,0,20.54,0c4.11,0,6.8,0,11.93,0c0.3,0,0.58-0.05,0.77-0.27c0.4-0.46-0.81-4.26,0.16-9.97
			c0.54-3.18,1.36-6.28,2.89-9.14c1.4-2.62,4.25-7.21,8.06-6.91c4.76,0.38,7.48,6.29,8.21,9.8c1.25,6.02,0.52,9.68-0.07,13.01
			c-0.23,1.34,0.9,0.52,1.6,0.12c1.09-0.63,1.67-0.96,2.37-1.82c0.86-1.06,0.75-2.24,0.88-3.53c0.32-3.21,0.95-6.22,0-9.68
			C303.21,175.14,304.57,172.23,304.48,169.3z"/>
		<g>
			<g>
				<defs>
					<polygon id="SVGID_5_" points="1,1 2,1 1,2 					"/>
				</defs>
				<defs>
					<polygon id="SVGID_6_" points="-1,-1 -2,-1 -1,-2 					"/>
				</defs>
				<clipPath id="SVGID_7_">
					<use xlink:href="#SVGID_5_"  style="overflow:visible;"/>
				</clipPath>
				<clipPath id="SVGID_8_" class="st14">
					<use xlink:href="#SVGID_6_"  style="overflow:visible;"/>
				</clipPath>
				
					<linearGradient id="SVGID_9_" gradientUnits="userSpaceOnUse" x1="203.6075" y1="84.5876" x2="215.7865" y2="15.5171" gradientTransform="matrix(1 0 0 -1 0 220)">
					<stop  offset="0" style="stop-color:#000000"/>
					<stop  offset="0.5" style="stop-color:#1A1A1A"/>
					<stop  offset="0.5618" style="stop-color:#222222"/>
					<stop  offset="0.6626" style="stop-color:#3B3B3B"/>
					<stop  offset="0.7899" style="stop-color:#636363"/>
					<stop  offset="0.9372" style="stop-color:#999999"/>
					<stop  offset="1" style="stop-color:#B3B3B3"/>
				</linearGradient>
				<path class="st15" d="M304.48,169.3c-0.04-1.33-0.41-2.46-1.02-3.61c-0.81-1.53-0.44-2.86-0.33-4.49
					c0.08-1.23,0.11-2.54-0.15-3.75c-0.33-1.52-1.35-1.99-2.31-3.07c-0.8-0.9-1.23-1.85-2.48-2.21c-0.69-0.2-1.11-0.25-1.74-0.63
					c-0.77-0.46-1.52-0.96-2.25-1.47c-5.27-3.67-9.97-7.94-15.62-11.09c-5.53-3.1-11.53-5.41-17.75-6.77
					c-6.32-1.37-12.82-1.93-19.27-2.41c-6.69-0.5-13.39-0.57-20.1-0.56c-6.98,0.01-15.96,0.5-22.94,1.24
					c-3.15,0.33-6.13,0.96-9.14,1.7c-3.29,0.81-5.93,1.84-8.86,3.14c-8.09,3.6-22.03,13.47-25.54,15.94
					c-0.89,0.63-2.25,1.31-3.56,1.58c-5.27,1.1-10.32,3.06-13.61,4.99c-1.16,0.68-2.2,1.36-3.35,2.05
					c-1.26,0.76-2.47,1.13-3.82,1.72c-1.37,0.6-2.86,1.08-4.14,1.69c-1.27,0.61-2.14,1.12-3.28,1.95c-0.99,0.72-2.08,1.89-2.26,3.12
					c-0.17,1.14,0.31,2.75-0.35,3.76c-0.17,0.26-0.91,0.86-1.16,1.03c-1.29,0.88-1.38,2.88-1.44,4.37
					c-0.17,4.29,0.47,8.2,0.25,10.56c-0.14,1.45-0.42,2.92-0.08,4.36c0.25,1.06,0.94,3.08,1.96,3.65c0.42,0.23,0.77,0.21,1.17,0.53
					c0.33,0.26,0.52,0.58,0.93,0.75c0.3,0.12,0.6,0.14,0.9,0.14c9.73,0,26.85,0,42.55,0c14.89,0,28.49,0,33.29,0h1.38
					c0.04-3.43,0.39-7.33,1.21-11.23c0.74-3.51,2.79-8.28,4.41-10.66c5.12-7.55,12.02-5.87,14.36-4.06
					c4.05,3.15,5.63,9.17,5.63,14.02c0,5.85-0.91,8.4-1.55,10.86h2.14c1.94,0,4.21,0,6.59,0c4.66,0,9.74,0,13.54,0
					c6.85,0,13.69,0,20.54,0c4.11,0,6.8,0,11.93,0c0.3,0,0.58-0.05,0.77-0.27c0.4-0.46-0.81-4.26,0.16-9.97
					c0.54-3.18,1.36-6.28,2.89-9.14c1.4-2.62,4.25-7.21,8.06-6.91c4.76,0.38,7.48,6.29,8.21,9.8c1.25,6.02,0.52,9.68-0.07,13.01
					c-0.23,1.34,0.9,0.52,1.6,0.12c1.09-0.63,1.67-0.96,2.37-1.82c0.86-1.06,0.75-2.24,0.88-3.53c0.32-3.21,0.95-6.22,0-9.68
					C303.21,175.14,304.57,172.23,304.48,169.3z"/>
			</g>
		</g>
		
			<linearGradient id="SVGID_10_" gradientUnits="userSpaceOnUse" x1="203.6075" y1="84.5876" x2="215.7865" y2="15.5171" gradientTransform="matrix(1 0 0 -1 0 220)">
			<stop  offset="0" style="stop-color:#36C2DA"/>
			<stop  offset="0.5" style="stop-color:#36C2DA"/>
			<stop  offset="0.5939" style="stop-color:#35BAD4"/>
			<stop  offset="0.7469" style="stop-color:#2AAACA"/>
			<stop  offset="0.9391" style="stop-color:#1391B9"/>
			<stop  offset="1" style="stop-color:#0989B3"/>
		</linearGradient>
		<path class="st16" d="M304.48,169.3c-0.04-1.33-0.41-2.46-1.02-3.61c-0.81-1.53-0.44-2.86-0.33-4.49
			c0.08-1.23,0.11-2.54-0.15-3.75c-0.33-1.52-1.35-1.99-2.31-3.07c-0.8-0.9-1.23-1.85-2.48-2.21c-0.69-0.2-1.11-0.25-1.74-0.63
			c-0.77-0.46-1.52-0.96-2.25-1.47c-5.27-3.67-9.97-7.94-15.62-11.09c-5.53-3.1-11.53-5.41-17.75-6.77
			c-6.32-1.37-12.82-1.93-19.27-2.41c-6.69-0.5-13.39-0.57-20.1-0.56c-6.98,0.01-15.96,0.5-22.94,1.24
			c-3.15,0.33-6.13,0.96-9.14,1.7c-3.29,0.81-5.93,1.84-8.86,3.14c-8.09,3.6-22.03,13.47-25.54,15.94
			c-0.89,0.63-2.25,1.31-3.56,1.58c-5.27,1.1-10.32,3.06-13.61,4.99c-1.16,0.68-2.2,1.36-3.35,2.05c-1.26,0.76-2.47,1.13-3.82,1.72
			c-1.37,0.6-2.86,1.08-4.14,1.69c-1.27,0.61-2.14,1.12-3.28,1.95c-0.99,0.72-2.08,1.89-2.26,3.12c-0.17,1.14,0.31,2.75-0.35,3.76
			c-0.17,0.26-0.91,0.86-1.16,1.03c-1.29,0.88-1.38,2.88-1.44,4.37c-0.17,4.29,0.47,8.2,0.25,10.56c-0.14,1.45-0.42,2.92-0.08,4.36
			c0.25,1.06,0.94,3.08,1.96,3.65c0.42,0.23,0.77,0.21,1.17,0.53c0.33,0.26,0.52,0.58,0.93,0.75c0.3,0.12,0.6,0.14,0.9,0.14
			c9.73,0,26.85,0,42.55,0c14.89,0,28.49,0,33.29,0h1.38c0.04-3.43,0.39-7.33,1.21-11.23c0.74-3.51,2.79-8.28,4.41-10.66
			c5.12-7.55,12.02-5.87,14.36-4.06c4.05,3.15,5.63,9.17,5.63,14.02c0,5.85-0.91,8.4-1.55,10.86h2.14c1.94,0,4.21,0,6.59,0
			c4.66,0,9.74,0,13.54,0c6.85,0,13.69,0,20.54,0c4.11,0,6.8,0,11.93,0c0.3,0,0.58-0.05,0.77-0.27c0.4-0.46-0.81-4.26,0.16-9.97
			c0.54-3.18,1.36-6.28,2.89-9.14c1.4-2.62,4.25-7.21,8.06-6.91c4.76,0.38,7.48,6.29,8.21,9.8c1.25,6.02,0.52,9.68-0.07,13.01
			c-0.23,1.34,0.9,0.52,1.6,0.12c1.09-0.63,1.67-0.96,2.37-1.82c0.86-1.06,0.75-2.24,0.88-3.53c0.32-3.21,0.95-6.22,0-9.68
			C303.21,175.14,304.57,172.23,304.48,169.3z"/>
		<path class="st17" d="M162.42,145.31c-1.78-0.04-3.72,0.17-5.31,0.98c-1.24,0.64-3.45,2.73-2.26,4.26
			c0.71,0.9,1.92,0.01,2.53-0.44c0.77-0.56,4.49-2.92,5.29-3.52C163.86,145.71,163.9,145.34,162.42,145.31z"/>
		
			<linearGradient id="SVGID_11_" gradientUnits="userSpaceOnUse" x1="293.3692" y1="65.3348" x2="225.0157" y2="73.8542" gradientTransform="matrix(1 0 0 -1 0 220)">
			<stop  offset="0" style="stop-color:#2F6790"/>
			<stop  offset="0.0572" style="stop-color:#2E638B"/>
			<stop  offset="0.4698" style="stop-color:#24476B"/>
			<stop  offset="0.7984" style="stop-color:#1D3758"/>
			<stop  offset="1" style="stop-color:#1B3152"/>
		</linearGradient>
		<path class="st18" d="M236.71,133.54c-12.03-1.3-23.93-1.47-37.29-1.12c-2.92,0.08-7,0.36-9.74,0.7c-3.03,0.38-4.13,0.79-7.6,2.35
			c-2.67,1.19-5.47,2.72-7.95,4.25c-2.39,1.48-10.41,6.76-14.1,9.92c-0.77,0.66-3.04,2.44-0.95,2.3c6.37-0.44,18.41-0.73,24.22-0.71
			c19.1,0.06,27.55,1.6,30.5,1.55c1.14-0.02,2.54,0.28,3.59-0.28c1.08-0.57,2.1-2.05,2.93-2.95c2.23-2.42,11.36-11.51,13.71-13.59
			C234.36,135.66,235.5,134.55,236.71,133.54z"/>
		
			<linearGradient id="SVGID_12_" gradientUnits="userSpaceOnUse" x1="167.5106" y1="50.4813" x2="213.2481" y2="50.4813" gradientTransform="matrix(1 0 0 -1 0 220)">
			<stop  offset="0" style="stop-color:#EDEDEE"/>
			<stop  offset="0.2458" style="stop-color:#E9E9E9"/>
			<stop  offset="0.5004" style="stop-color:#DCDCDD"/>
			<stop  offset="0.7581" style="stop-color:#CAC9C9"/>
			<stop  offset="1" style="stop-color:#B3B3B3"/>
		</linearGradient>
		<path class="st19" d="M202.25,165.04c-1.48-0.32-2.97-0.6-4.48-0.72c-2.93-0.24-6.17,0.56-9.01,1.19
			c-5.9,1.32-19.13,4.47-20.39,4.78c-1.88,0.48-0.28,1.17,1.04,1.95c2.38,1.41,4.38,2.56,7.21,2.52c5.65-0.09,11.58-0.48,17.04-1.4
			c2.99-0.5,5.49-1.15,8.1-2.7c1.12-0.67,2.75-1.98,3.68-2.89c0.31-0.3,0.91-0.97,1.01-1.41
			C206.55,165.93,202.7,165.13,202.25,165.04z"/>
		<path class="st7" d="M126.5,170.59c0-0.4-0.45-0.87-0.71-1.22c-0.44-0.62-0.69-1.53-0.78-2.3c-0.1-0.87,0.15-3.06-0.62-2.77
			c-0.71,0.27-1.97,1.3-2.57,1.85c-1.31,1.19-1.15,2.61-1.08,4.25c0.05,1.15,0.72,5.67,2.4,3.99c0.69-0.69,1.17-1.27,1.87-2.01
			C125.58,171.78,126.5,171.06,126.5,170.59z"/>
		<path class="st10" d="M163.86,195.66c-1.2-0.67-1.77-0.91-3.36-0.91c-3.22,0-27.5,0-32.92,0c-2.29,0-3.18-0.21-5.01,1.45
			c-1.69,1.54,0.51,1.29,1.58,1.29c6.84,0,35.7,0,40.85,0c0.44,0,0.64-0.28,0.47-0.61C165.32,196.59,164.33,195.93,163.86,195.66z"
			/>
		<path class="st10" d="M166.58,174.97c-1.27-1.21-2.87-2.62-4.4-3.52c-1.16-0.69-3.04-1.06-5.46-0.99
			c-4.21,0.13-10.21,0.37-14.8,0.37c-4.18,0-6.96,0.04-10.88-0.2c-1.97-0.12-3.05-0.37-4.41,0.74c-1.34,1.1-3.29,3.72-4.07,5.3
			c-0.54,1.09-0.13,3.1,0.7,5.35c0.65,1.77,2.68,6.08,3.64,7.71c0.55,0.94,2.22,1.79,3.92,1.79c2.01,0,20.39,0,24.59,0
			c2.06,0,3.26-0.93,4.21-1.95c1.72-1.87,6.6-8.26,7.68-9.99C168.44,177.75,168,176.32,166.58,174.97z"/>
		<path class="st12" d="M149.71,187.42H133.1c-1.81,0-3.27-1.46-3.27-3.27l0,0c0-1.81,1.46-3.27,3.27-3.27h16.61
			c1.81,0,3.27,1.46,3.27,3.27l0,0C152.98,185.96,151.52,187.42,149.71,187.42z"/>
		<path class="st10" d="M191.55,185.79c-0.78-1.05-2.72-3.56-4.01-4.61c-1.19-0.97-3.25-0.86-5.14-0.86c-0.4,0-0.43,0.27-0.26,0.55
			c0.93,1.46,1.81,2.84,2.79,4.26c1.06,1.53,2,2.63,1.43,4.5c-0.18,0.59-1.13,1.19-2.25,1.47c-1.62,0.41-11.51,2.1-14.87,2.73
			c-0.31,0.06-0.24,0.36-0.02,0.56c0.69,0.64,2.64,0.39,3.82,0.29c1.7-0.16,13.8-1.54,15.38-1.82c1.42-0.25,2.36-0.85,3.1-1.45
			c0.68-0.56,1.34-1.39,1.46-2.06C193.25,187.8,192.43,186.98,191.55,185.79z"/>
		<path class="st10" d="M121.42,193.73c-0.13-0.49-0.83-2.04-0.99-3.25c-0.14-1.09-0.1-2.3-0.1-3.44c0.01-2.07,0.06-3.57,0.12-5.68
			c0.01-0.45-0.46-0.79-0.61-0.85c-0.49-0.21-1.01-0.31-1.55-0.32c-0.23,0-0.37,0.25-0.37,0.43c0,0,0.25,7.66,0.33,8.59
			c0.06,0.68,0.15,1.51,0.29,2.18c0.26,1.19,0.7,2.69,1.93,3.42C121.34,195.32,121.59,194.37,121.42,193.73z"/>
		<ellipse class="st20" cx="190.64" cy="187.61" rx="1.46" ry="1.54"/>
		<path class="st21" d="M120.34,186.63c0,0.13,0,0.26,0,0.4c0,0.51-0.01,1.04-0.01,1.56c-0.27,0.34-0.67,0.55-1.12,0.55
			c-0.38,0-0.73-0.16-0.99-0.41c-0.28-0.28-0.46-0.68-0.46-1.12c0-0.39,0.14-0.75,0.37-1.02c0.26-0.32,0.65-0.52,1.08-0.52
			C119.66,186.07,120.07,186.29,120.34,186.63z"/>
		<ellipse class="st21" cx="189.98" cy="187.61" rx="1.46" ry="1.54"/>
		
			<linearGradient id="SVGID_13_" gradientUnits="userSpaceOnUse" x1="221.2622" y1="58.5176" x2="294.8531" y2="58.5176" gradientTransform="matrix(1 0 0 -1 0 220)">
			<stop  offset="0" style="stop-color:#1395C0"/>
			<stop  offset="0.2364" style="stop-color:#1292BF"/>
			<stop  offset="0.4814" style="stop-color:#0E8BBB"/>
			<stop  offset="0.7303" style="stop-color:#0A7FB5"/>
			<stop  offset="0.9805" style="stop-color:#0370AE"/>
			<stop  offset="1" style="stop-color:#026FAD"/>
		</linearGradient>
		<path class="st22" d="M295.09,156.45c-9.65,0.44-49.05,4.37-59.07,5.7c-2.52,0.33-5.09,0.55-7.61,0.91
			c-1.12,0.16-6.27,0.65-6.27,1.83c0,1.33,2.86,1.54,4.85,1.61c2.48,0.08,4.88,0.02,7.23-0.42c4.83-0.91,9.33-2.32,14.14-3.35
			c4.93-1.06,9.98-1.88,14.99-2.44c5.8-0.65,29-2.97,30.37-3.12c0.39-0.04,2.64-0.19,2.86-0.53
			C296.74,156.39,295.49,156.43,295.09,156.45z"/>
		<path class="st23" d="M273.65,182.04c-1.8-0.22-3.6-0.11-5.4,0.02c-3.51,0.26-24.94,2.28-32.14,3.15
			c-0.74,0.09-7.56,0.87-6.69,2.1c0.28,0.39,1.67,0.25,2.08,0.26c1.56,0.02,34.64-2.59,38.8-2.91c1.82-0.14,7.85-0.47,7.97-1.05
			C278.41,182.96,274.99,182.2,273.65,182.04z"/>
		<path class="st3" d="M190.12,166.34c-1.34,0-2.43,1.33-2.43,2.97s1.09,2.97,2.43,2.97s2.43-1.33,2.43-2.97
			C192.55,167.67,191.46,166.34,190.12,166.34z M190.12,171.05c-0.78,0-1.42-0.78-1.42-1.74s0.64-1.74,1.42-1.74
			s1.42,0.78,1.42,1.74S190.9,171.05,190.12,171.05z"/>
		<path class="st3" d="M199.26,166.77c0.48-1.83-1.43-1.82-3.23-1.8c-0.43,0.01-3.62,0.21-3.53,0.56c0.1,0.4,3.4,0.37,4.02,0.44
			c2.2,0.23-0.79,4.16-1.77,4.8c-2,1.31-4.83,1.43-7.13,1.74c-3.15,0.42-6.34,0.75-9.53,0.98c-1.07,0.08-2.05,0.09-2.45,0.39
			c-0.37,0.28,0.82,0.29,1.2,0.28c2.89-0.09,5.79-0.28,8.67-0.56c3.05-0.29,6.15-0.47,9.05-1.23c1.42-0.37,2.35-1.36,3.14-2.55
			C198.28,168.93,198.98,167.84,199.26,166.77z"/>
		
			<linearGradient id="SVGID_14_" gradientUnits="userSpaceOnUse" x1="174.8087" y1="50.9007" x2="278.9038" y2="75.4514" gradientTransform="matrix(1 0 0 -1 0 220)">
			<stop  offset="0" style="stop-color:#1395C0"/>
			<stop  offset="0.2364" style="stop-color:#1292BF"/>
			<stop  offset="0.4814" style="stop-color:#0E8BBB"/>
			<stop  offset="0.7303" style="stop-color:#0A7FB5"/>
			<stop  offset="0.9805" style="stop-color:#0370AE"/>
			<stop  offset="1" style="stop-color:#026FAD"/>
		</linearGradient>
		<path class="st24" d="M277.78,151.57c-0.46-0.81-24.7-0.07-38.26,0.51c-2.12,0.09-18.27,1.16-20.38,1.28
			c-4.32,0.24-8.86,0.97-13.12,1.71c-7.9,1.37-15.75,3.18-27.43,7.05c-2.19,0.72-12.62,4.99-13.84,6.35
			c-0.67,0.75,3.2-1.51,8.22-3.13c10.2-3.29,20.34-5.66,33.49-7.58c3.44-0.5,8.04-0.49,10.04-0.45c2.35,0.04,6.82,0.02,9.17,0.01
			c4-0.03,7.91-0.71,14.87-1.32C250.58,155.1,278.43,152.7,277.78,151.57z"/>
		
			<linearGradient id="SVGID_15_" gradientUnits="userSpaceOnUse" x1="292.973" y1="69.4517" x2="225.6676" y2="77.8406" gradientTransform="matrix(1 0 0 -1 0 220)">
			<stop  offset="0" style="stop-color:#2F6790"/>
			<stop  offset="0.0572" style="stop-color:#2E638B"/>
			<stop  offset="0.4698" style="stop-color:#24476B"/>
			<stop  offset="0.7984" style="stop-color:#1D3758"/>
			<stop  offset="1" style="stop-color:#1B3152"/>
		</linearGradient>
		<path class="st25" d="M284.78,145.34c-0.54-0.53-7.73-5.07-11.89-6.98c-4.19-1.92-8.27-3.36-12.83-4.04
			c-4.66-0.7-9.35-1.08-14.05-0.46c-4.07,0.54-7.32,2.83-10.31,5.48c-3.3,2.94-6.29,6.32-9.26,9.45c-0.66,0.7-3.58,3.61-3.05,4.4
			c0.45,0.67,2.21,0.97,2.96,1.11c1.17,0.22,2.35,0.4,3.54,0.54c0.92,0.1,1.89,0.18,2.82,0.19c4.22,0.02,20.67-1.3,25.53-1.63
			c5.4-0.37,10.79-0.8,16.18-1.24c1.12-0.09,2.46-0.2,3.54-0.52c1.18-0.34,2.22-0.81,3.26-1.44
			C281.9,149.77,286.09,146.65,284.78,145.34z"/>
		<g>
			
				<linearGradient id="SVGID_16_" gradientUnits="userSpaceOnUse" x1="314.27" y1="76.4653" x2="226.6089" y2="76.4653" gradientTransform="matrix(1 0 0 -1 0 220)">
				<stop  offset="0" style="stop-color:#31B4BE"/>
				<stop  offset="1" style="stop-color:#254F79"/>
			</linearGradient>
			<path class="st26" d="M197.34,136.72c-6.99,0.22-11.97,1.79-17.19,4.05c-4.46,1.93-12.24,6.85-14.3,8.85
				c-0.24,0.24-0.49,0.73-0.14,0.73c1.53,0,2.81,0,4.51,0c1.47,0,2.81-0.71,4.21-1.11c3.07-0.88,6.3-1.1,9.47-1.09
				c0.22,0,0.21-0.19,0.3-0.34c1.38-2.21,5.51-2.02,7.82-0.91c0.12,0.06,0.6,0.14,0.76-0.2c1.21-2.57,3.58-7.07,4.92-9.37
				C197.83,137.12,197.93,136.7,197.34,136.72z"/>
			
				<linearGradient id="SVGID_17_" gradientUnits="userSpaceOnUse" x1="314.2697" y1="71.1612" x2="226.6085" y2="71.1612" gradientTransform="matrix(1 0 0 -1 0 220)">
				<stop  offset="0" style="stop-color:#31B4BE"/>
				<stop  offset="1" style="stop-color:#254F79"/>
			</linearGradient>
			<path class="st27" d="M192.21,148.21c-1.21-0.77-3.4-1.14-4.7-0.31c-0.21,0.13-0.61,0.37,0.01,0.53
				c0.32,0.08,0.64,0.19,0.79,0.41c0.24,0.34,0.21,1.13,0.73,1.33c0.32,0.12,2.11,0.07,2.55,0.06c0.13,0,0.27-0.01,0.33-0.17
				c0.09-0.25,0.39-1.24,0.5-1.5C192.49,148.38,192.32,148.28,192.21,148.21z"/>
			
				<linearGradient id="SVGID_18_" gradientUnits="userSpaceOnUse" x1="314.2698" y1="75.6855" x2="226.6087" y2="75.6855" gradientTransform="matrix(1 0 0 -1 0 220)">
				<stop  offset="0" style="stop-color:#31B4BE"/>
				<stop  offset="1" style="stop-color:#254F79"/>
			</linearGradient>
			<path class="st28" d="M224.05,142.84c-5.94-3.93-11.04-5.2-17.44-5.69c-0.71-0.05-0.93-0.13-1.35,0.54
				c-0.48,0.76-4.04,9.54-4.79,11.97c-0.16,0.51-0.25,0.8,0.49,0.84c5.48,0.25,8.94,0.55,14.66,0.99c0.89,0.07,1.42-0.01,2.05-0.63
				c1.02-1,4.47-4.57,6.51-6.67C224.88,143.45,224.46,143.11,224.05,142.84z M218.07,147.67h-9.6c-0.69,0-1.19-0.57-1.12-1.25
				l0.4-4.07c0.05-0.54,0.57-0.96,1.16-0.96h8.18c0.59,0,1.14,0.42,1.24,0.96l0.76,4.07C219.21,147.1,218.76,147.67,218.07,147.67z"
				/>
			
				<linearGradient id="SVGID_19_" gradientUnits="userSpaceOnUse" x1="314.2698" y1="78.7656" x2="226.6087" y2="78.7656" gradientTransform="matrix(1 0 0 -1 0 220)">
				<stop  offset="0" style="stop-color:#31B4BE"/>
				<stop  offset="1" style="stop-color:#254F79"/>
			</linearGradient>
			<path class="st29" d="M251.7,144.28c-0.16-1.13-0.29-2.17-0.53-3.28c-0.21-0.96-0.33-2.11-0.7-3.03
				c-0.24-0.6-0.68-0.95-1.33-0.92c-2.08,0.09-5.16-0.06-7.55,0.73c-2.06,0.68-3.88,1.91-5.38,3.31c-0.16,0.15-0.46,0.42-0.3,0.68
				c0.07,0.11,0.22,0.24,0.32,0.33c0.28,0.23,1.66,1.43,1.97,1.65c0.29,0.21,0.92,0.71,1.51,0.28c0.45-0.33,0.63-1.17,0.94-1.64
				c0.6-0.91,1.29-1.19,2.39-1.25c0.88-0.05,3.83-0.06,5.31-0.06c1.08,0,1.49,1.82,1.72,2.51c0.19,0.55,0.35,1.13,0.71,1.69
				C251.04,145.65,251.85,145.28,251.7,144.28z"/>
			
				<linearGradient id="SVGID_20_" gradientUnits="userSpaceOnUse" x1="314.27" y1="76.047" x2="226.6088" y2="76.047" gradientTransform="matrix(1 0 0 -1 0 220)">
				<stop  offset="0" style="stop-color:#31B4BE"/>
				<stop  offset="1" style="stop-color:#254F79"/>
			</linearGradient>
			<path class="st30" d="M279.92,147.62c-1.93-1.63-6.21-4.59-10.27-6.33c-3.97-1.7-6.27-2.61-11.82-3.65
				c-0.27-0.05-0.41,0.2-0.32,0.51c1.19,4.23,2.25,8.48,2.62,10.27c0.2,0.94,0.37,1.76,0.55,1.83c0.33,0.13,0.62-0.33,0.64-0.73
				c0.08-1.23,0.2-2.95,0.54-3.82c0.38-0.98,1.54-0.83,2.26-0.83c1.42,0,4.98-0.1,5.77-0.1c1.13,0,1.4,1.09,1.56,1.7
				c0.15,0.58,0.2,0.94,0.36,1.52c0.08,0.31,0.35,0.49,0.61,0.49c1.22,0,5.75-0.04,7.14-0.04
				C280.05,148.46,280.41,148.04,279.92,147.62z"/>
		</g>
		<path class="st3" d="M284.78,145.34c-0.1-0.1-0.41-0.32-0.88-0.64c0.9,1.38-2.97,4.3-3.61,4.7c-1.02,0.63-2.02,1.08-3.18,1.42
			c-1.06,0.31-2.41,0.45-3.51,0.54c-5.31,0.44-10.61,0.87-15.92,1.24c-4.79,0.33-20.97,1.65-25.12,1.63c-0.91,0-1.87-0.08-2.77-0.19
			c-1.17-0.13-2.33-0.31-3.48-0.54c-0.71-0.14-2.34-0.42-2.85-1.04c-0.13,0.3-0.17,0.55-0.06,0.71c0.45,0.67,2.21,0.97,2.96,1.11
			c1.17,0.22,2.35,0.4,3.54,0.54c0.92,0.1,1.89,0.18,2.82,0.19c4.22,0.02,20.67-1.3,25.53-1.63c5.4-0.37,10.79-0.8,16.18-1.24
			c1.12-0.09,2.46-0.2,3.54-0.52c1.18-0.34,2.22-0.81,3.26-1.44C281.9,149.77,286.09,146.65,284.78,145.34z"/>
		<path class="st17" d="M247.27,150.02c-0.52-2.72-6.21-3.72-8.53-3.86c-1.61-0.1-3.44-0.24-4.66,0.9
			c-1.05,0.98-1.69,2.36-1.81,3.79c-0.11,1.25,0.41,2.74,1.47,3.52c1.23,0.91,3.98,0.68,5.41,0.5
			C241.78,154.53,248.01,153.92,247.27,150.02z"/>
		<path class="st31" d="M217.61,182.41c-0.13-0.24-0.49-0.13-0.48,0.14c0.01,0.26,0.02,0.51,0.02,0.77c0,5.74-2.68,10.4-5.98,10.4
			c-1.17,0-2.25-0.58-3.17-1.58c-0.17-0.18-0.48-0.03-0.44,0.22c0.68,4.44,3.01,7.72,5.78,7.72c3.31,0,5.98-4.66,5.98-10.4
			C219.31,186.84,218.66,184.28,217.61,182.41z"/>
		<path class="st31" d="M293.02,182.41c-0.13-0.24-0.49-0.13-0.48,0.14c0.01,0.26,0.02,0.51,0.02,0.77c0,5.74-2.68,10.4-5.98,10.4
			c-1.17,0-2.25-0.58-3.17-1.58c-0.17-0.18-0.48-0.03-0.44,0.22c0.68,4.44,3.01,7.72,5.78,7.72c3.31,0,5.98-4.66,5.98-10.4
			C294.72,186.84,294.07,184.28,293.02,182.41z"/>
		<g>
			<g>
				<defs>
					<polygon id="SVGID_21_" points="1,1 2,1 1,2 					"/>
				</defs>
				<defs>
					<polygon id="SVGID_22_" points="-1,-1 -2,-1 -1,-2 					"/>
				</defs>
				<clipPath id="SVGID_23_">
					<use xlink:href="#SVGID_21_"  style="overflow:visible;"/>
				</clipPath>
				<clipPath id="SVGID_24_" class="st32">
					<use xlink:href="#SVGID_22_"  style="overflow:visible;"/>
				</clipPath>
				
					<linearGradient id="SVGID_25_" gradientUnits="userSpaceOnUse" x1="200.1438" y1="84.0312" x2="220.1191" y2="9.4825" gradientTransform="matrix(1 0 0 -1 0 220)">
					<stop  offset="0" style="stop-color:#FFFFFF"/>
					<stop  offset="1" style="stop-color:#808080"/>
				</linearGradient>
				<path class="st33" d="M304,178.03c-0.79-2.88,0.58-5.8,0.49-8.72c-0.04-1.33-0.41-2.46-1.02-3.61
					c-0.81-1.53-0.44-2.86-0.33-4.49c0.08-1.23,0.11-2.54-0.15-3.75c-0.33-1.52-1.35-1.99-2.31-3.07c-0.8-0.9-1.23-1.85-2.48-2.21
					c-0.69-0.2-1.11-0.25-1.74-0.63c-0.77-0.46-1.52-0.96-2.25-1.47c-5.27-3.67-9.97-7.94-15.62-11.09
					c-5.53-3.1-11.53-5.41-17.75-6.77c-6.32-1.37-12.82-1.93-19.27-2.41c-6.69-0.5-13.39-0.57-20.1-0.56
					c-6.98,0.01-15.96,0.5-22.94,1.24c-3.15,0.33-6.13,0.96-9.14,1.7c-3.29,0.81-5.93,1.84-8.86,3.14
					c-8.09,3.6-22.03,13.47-25.54,15.94c-0.89,0.63-2.25,1.31-3.56,1.58c-5.27,1.1-10.32,3.06-13.61,4.99
					c-1.16,0.68-2.2,1.36-3.35,2.05c-1.26,0.76-2.47,1.13-3.82,1.72c-1.37,0.6-2.86,1.08-4.14,1.69c-1.27,0.61-2.14,1.12-3.28,1.95
					c-0.99,0.72-2.08,1.89-2.26,3.12c-0.17,1.14,0.31,2.75-0.35,3.76c-0.17,0.26-0.91,0.86-1.16,1.03
					c-1.29,0.88-1.38,2.88-1.44,4.37c-0.17,4.29,0.47,8.2,0.25,10.56c-0.14,1.45-0.42,2.92-0.08,4.36c0.25,1.06,0.94,3.08,1.96,3.65
					c0.42,0.23,0.77,0.21,1.17,0.53c0.33,0.26,0.52,0.58,0.93,0.75c0.3,0.12,0.6,0.14,0.9,0.14c9.73,0,26.85,0,42.55,0
					c14.89,0,28.49,0,33.29,0h1.38c0.04-3.43,0.39-7.33,1.21-11.23c0.74-3.51,2.79-8.28,4.41-10.66c5.12-7.55,12.02-5.87,14.36-4.06
					c4.05,3.15,5.63,9.17,5.63,14.02c0,5.85-0.91,8.4-1.55,10.86h2.14c1.94,0,4.21,0,6.59,0c4.66,0,9.74,0,13.54,0
					c6.85,0,13.69,0,20.54,0c4.11,0,6.8,0,11.93,0c0.3,0,0.58-0.05,0.77-0.27c0.4-0.46-0.81-4.26,0.16-9.97
					c0.54-3.18,1.36-6.28,2.89-9.14c1.4-2.62,4.25-7.21,8.06-6.91c4.76,0.38,7.48,6.29,8.21,9.8c1.25,6.02,0.52,9.68-0.07,13.01
					c-0.23,1.34,0.9,0.52,1.6,0.12c1.09-0.63,1.67-0.96,2.37-1.82c0.86-1.06,0.75-2.24,0.88-3.53
					C304.32,184.5,304.94,181.5,304,178.03z M220.31,149.55c-0.83,0.9-1.86,2.37-2.93,2.95c-1.05,0.56-2.45,0.26-3.59,0.28
					c-2.94,0.05-11.39-1.49-30.5-1.55c-5.81-0.02-17.85,0.27-24.22,0.71c-2.09,0.14,0.19-1.64,0.95-2.3
					c3.68-3.15,11.7-8.44,14.1-9.92c2.48-1.53,5.28-3.06,7.95-4.25c3.47-1.55,4.57-1.97,7.6-2.35c2.74-0.34,6.82-0.62,9.74-0.7
					c13.36-0.35,25.26-0.18,37.29,1.12c-1.21,1-2.35,2.11-2.69,2.42C231.67,138.04,222.54,147.13,220.31,149.55z M281.23,150.18
					c-1.04,0.63-2.08,1.1-3.26,1.44c-1.08,0.31-2.42,0.43-3.54,0.52c-5.39,0.44-10.79,0.87-16.18,1.24
					c-3.11,0.21-10.92,0.83-17.26,1.24c2.94-0.45,6.89-1.45,6.29-4.6c-0.52-2.72-6.21-3.72-8.53-3.86c-1.61-0.1-3.44-0.24-4.66,0.9
					c-1.05,0.98-1.69,2.36-1.81,3.79c-0.11,1.25,0.41,2.74,1.47,3.52c0.42,0.31,1.01,0.48,1.66,0.58c-1.11,0.05-2.04,0.08-2.67,0.08
					c-0.92,0-1.9-0.08-2.82-0.19c-1.19-0.13-2.37-0.31-3.54-0.54c-0.75-0.14-2.5-0.44-2.96-1.11c-0.54-0.79,2.39-3.7,3.05-4.4
					c2.97-3.13,5.96-6.51,9.26-9.45c2.99-2.66,6.24-4.95,10.31-5.48c4.69-0.62,9.39-0.24,14.05,0.46c4.56,0.68,8.63,2.12,12.83,4.04
					c4.16,1.91,11.36,6.45,11.89,6.98C286.09,146.65,281.9,149.77,281.23,150.18z"/>
			</g>
		</g>
		<g>
			<path class="st34" d="M128.97,170.26c-0.09,0-0.18-0.07-0.19-0.16c-0.38-2.05,0.16-4.15,1.6-6.24
				c3.72-5.38,13.3-10.12,24.4-12.08c0.11-0.02,0.21,0.05,0.23,0.16c0.02,0.11-0.05,0.21-0.16,0.23c-11,1.95-20.47,6.62-24.14,11.92
				c-1.38,2-1.9,4-1.54,5.94c0.02,0.11-0.05,0.21-0.16,0.23C128.99,170.26,128.98,170.26,128.97,170.26z"/>
			<g>
				<path class="st34" d="M293.28,163.77c-1.09,0-2.32-1.52-2.9-3.67c-0.43-1.61-0.38-3.15,0.13-4.03c0.21-0.36,0.49-0.59,0.82-0.67
					c1.16-0.3,2.55,1.3,3.18,3.63c0.43,1.61,0.38,3.15-0.13,4.03c-0.21,0.36-0.49,0.59-0.82,0.67
					C293.47,163.76,293.38,163.77,293.28,163.77z M291.62,155.76c-0.07,0-0.13,0.01-0.19,0.02c-0.23,0.06-0.42,0.22-0.58,0.49
					c-0.45,0.78-0.49,2.24-0.09,3.73c0.55,2.05,1.79,3.59,2.71,3.35c0.23-0.06,0.42-0.22,0.58-0.49c0.45-0.78,0.49-2.24,0.09-3.73
					C293.62,157.22,292.51,155.76,291.62,155.76z"/>
			</g>
			<g>
				<path class="st34" d="M254.67,164.14c-0.63,0-1.12-0.32-1.32-0.87c-0.04-0.1,0.01-0.21,0.12-0.25c0.1-0.04,0.21,0.01,0.25,0.12
					c0.07,0.19,0.3,0.63,1,0.61c2.16-0.06,2.72-0.09,4.34-0.32c1.29-0.18,1.8-0.47,1.8-1.03c0-0.11,0.09-0.2,0.2-0.2
					c0.11,0,0.2,0.09,0.2,0.2c0,0.98-1.03,1.26-2.13,1.41c-1.64,0.23-2.21,0.26-4.38,0.33C254.7,164.14,254.69,164.14,254.67,164.14
					z"/>
			</g>
			<g>
				<path class="st34" d="M281.37,161.5c-0.03,0-0.07,0-0.1,0c-0.32,0-0.6-0.06-0.84-0.17c-0.29-0.13-0.5-0.4-0.56-0.71
					c-0.02-0.11,0.05-0.21,0.15-0.23c0.11-0.02,0.21,0.05,0.23,0.15c0.04,0.19,0.17,0.36,0.34,0.44c0.18,0.09,0.41,0.13,0.67,0.13
					c1.25,0,2.38-0.1,3.62-0.24h0.02c0.57-0.06,1.21-0.13,1.48-0.52c0.06-0.09,0.18-0.12,0.27-0.06s0.12,0.18,0.06,0.27
					c-0.36,0.55-1.14,0.63-1.76,0.7h-0.02C283.71,161.39,282.6,161.5,281.37,161.5z"/>
			</g>
			<g>
				<path class="st34" d="M193.84,164.71c-0.11,0-0.19-0.09-0.2-0.19c-0.02-1.44,0.54-1.65,1.25-1.93l0.08-0.03
					c5.56-2.15,13.21-4.04,17.32-5.06c0.88-0.22,1.58-0.39,2.03-0.51c0.36-0.1,0.61-0.48,0.65-0.58c0.42-1.15,0.62-2.05,0.69-3.11
					c0.01-0.22-0.07-0.34-0.29-0.4c-0.1-0.03-0.16-0.14-0.13-0.24s0.14-0.16,0.24-0.13c0.4,0.11,0.6,0.4,0.57,0.8
					c-0.07,1.1-0.28,2.03-0.72,3.22c-0.07,0.2-0.4,0.68-0.91,0.82c-0.45,0.12-1.15,0.29-2.04,0.51c-4.1,1.02-11.73,2.91-17.27,5.05
					l-0.08,0.03c-0.67,0.26-1.01,0.39-1,1.56C194.04,164.61,193.95,164.7,193.84,164.71L193.84,164.71z"/>
			</g>
			<g>
				<path class="st34" d="M176.46,174.95c-2.83,0-4.84-1.18-7.15-2.54c-0.16-0.1-0.33-0.19-0.5-0.29c-0.87-0.49-1.56-0.88-1.5-1.35
					c0.04-0.29,0.35-0.5,1-0.67c0.1-0.03,0.21,0.04,0.24,0.14s-0.04,0.21-0.14,0.24c-0.68,0.17-0.71,0.33-0.71,0.34
					c-0.03,0.21,0.77,0.66,1.3,0.96c0.17,0.1,0.34,0.19,0.51,0.29c2.26,1.33,4.22,2.49,6.95,2.49c0.05,0,0.1,0,0.15,0
					c6.36-0.1,12.08-0.57,17.01-1.39c2.96-0.5,5.46-1.14,8.04-2.67c1.13-0.68,2.74-1.99,3.64-2.86c0.32-0.31,0.82-0.89,0.94-1.26
					c-0.13-0.1-0.76-0.44-3.94-1.12l-0.1-0.02c-1.31-0.28-2.86-0.59-4.45-0.72c-0.11-0.01-0.19-0.1-0.18-0.21
					c0.01-0.11,0.1-0.19,0.21-0.18c1.61,0.13,3.18,0.44,4.5,0.73l0.1,0.02c3.91,0.83,4.13,1.18,4.21,1.31
					c0.06,0.09,0.05,0.17,0.04,0.22c-0.14,0.59-0.97,1.41-1.07,1.51c-0.92,0.89-2.56,2.23-3.72,2.92c-2.63,1.56-5.17,2.22-8.17,2.72
					c-4.94,0.83-10.68,1.3-17.07,1.4C176.57,174.95,176.52,174.95,176.46,174.95z"/>
			</g>
			<g>
				<path class="st34" d="M272.79,191.99H225.5c-0.11,0-0.2-0.09-0.2-0.2s0.09-0.2,0.2-0.2h47.29c3.6,0,4.06-1.22,4.59-2.64
					l0.05-0.13c0.37-0.97,0.77-2.58,1.16-4.14c0.31-1.22,0.62-2.49,0.92-3.42c0.85-2.71,2.21-5.48,3.64-7.42
					c0.31-0.42,0.65-0.85,1-1.3c1.16-1.48,2.36-3.01,2.87-4.58c0.93-2.84,1.25-6.04,1.05-10.37c-0.04-0.93-0.3-1.86-0.55-2.76
					c-0.22-0.8-0.45-1.62-0.53-2.43l-0.01-0.08c-0.28-2.97-0.47-5.11-2.22-6.7c-0.08-0.07-0.09-0.2-0.01-0.28
					c0.07-0.08,0.2-0.09,0.28-0.01c1.85,1.69,2.06,3.9,2.34,6.95l0.01,0.08c0.07,0.78,0.29,1.55,0.51,2.37
					c0.26,0.92,0.52,1.87,0.57,2.85c0.2,4.38-0.13,7.62-1.07,10.51c-0.53,1.63-1.75,3.19-2.93,4.7c-0.35,0.45-0.68,0.87-0.99,1.29
					c-1.4,1.91-2.74,4.64-3.58,7.31c-0.29,0.92-0.61,2.18-0.91,3.4c-0.39,1.57-0.8,3.2-1.17,4.19l-0.05,0.13
					C277.19,190.58,276.66,191.99,272.79,191.99z"/>
			</g>
			<g>
				<path class="st34" d="M260.19,191.99c-0.01,0-0.01,0-0.02,0c-0.11-0.01-0.18-0.11-0.17-0.22c0.04-0.37,0.1-0.8,0.16-1.27
					c0.21-1.64,0.47-3.67,0.43-4.93c-0.01-0.27-0.1-0.7-0.19-1.16c-0.13-0.61-0.27-1.3-0.28-1.88c-0.03-1.49,1.26-9.42,1.52-10.99
					c0.4-2.41,0.28-7.47,0.02-9.89c-0.08-0.74-0.08-1.45-0.08-2.14c0-0.81,0-1.65-0.13-2.53c-0.21-1.48-1.2-2.89-2.03-3.95
					c-0.07-0.08-0.05-0.21,0.03-0.27c0.08-0.07,0.21-0.05,0.27,0.03c0.87,1.1,1.89,2.56,2.11,4.13c0.13,0.91,0.13,1.76,0.13,2.59
					c0,0.68,0,1.38,0.08,2.1c0.26,2.44,0.38,7.55-0.02,9.99c-0.71,4.33-1.54,9.8-1.51,10.92c0.01,0.55,0.15,1.22,0.27,1.81
					c0.1,0.49,0.19,0.92,0.2,1.22c0.04,1.28-0.22,3.34-0.43,4.99c-0.06,0.47-0.11,0.9-0.16,1.26
					C260.37,191.91,260.29,191.99,260.19,191.99z"/>
			</g>
			<g>
				<path class="st34" d="M228.55,191.99c-0.01,0-0.01,0-0.02,0c-0.11-0.01-0.18-0.11-0.17-0.21c0.86-8.12,0.63-13.49,0.16-22.27
					c-0.01-0.21-0.05-0.6-0.1-1.04c-0.11-1.07-0.26-2.53-0.21-3.4c0.01-0.14,0.03-0.33,0.05-0.55c0.07-0.72,0.19-1.81,0-2.68
					c-0.31-1.48-0.81-2.96-1.29-4.38c-0.37-1.09-0.75-2.22-1.04-3.35c-0.03-0.1,0.04-0.21,0.14-0.24s0.21,0.04,0.24,0.14
					c0.29,1.11,0.67,2.24,1.04,3.32c0.49,1.44,0.99,2.92,1.3,4.43c0.19,0.94,0.08,2.06,0,2.8c-0.02,0.21-0.04,0.39-0.05,0.53
					c-0.04,0.84,0.11,2.29,0.21,3.34c0.05,0.47,0.09,0.84,0.1,1.06c0.48,8.81,0.7,14.19-0.16,22.34
					C228.73,191.91,228.65,191.99,228.55,191.99z"/>
			</g>
			<g>
				<path class="st34" d="M187.99,181.78c-0.05,0-0.1-0.02-0.14-0.06c-0.62-0.63-1.19-0.92-2.16-1.12c-0.53-0.1-2.78-0.16-4.96-0.21
					c-0.57-0.01-1.15-0.03-1.69-0.04c-0.56-0.02-1.13-0.02-1.7-0.03c-2.56-0.04-5.21-0.09-6.63-0.65c-1.44-0.57-2-1.44-2.59-2.36
					c-0.2-0.31-0.41-0.63-0.66-0.96c-0.07-0.09-0.05-0.21,0.04-0.27c0.09-0.07,0.21-0.05,0.27,0.04c0.26,0.34,0.47,0.67,0.67,0.99
					c0.58,0.9,1.08,1.68,2.41,2.21c1.35,0.54,3.97,0.58,6.49,0.62c0.57,0.01,1.15,0.02,1.71,0.03c0.54,0.01,1.12,0.03,1.69,0.04
					c2.3,0.06,4.47,0.11,5.03,0.22c1.05,0.21,1.69,0.54,2.37,1.22c0.08,0.08,0.07,0.2,0,0.28
					C188.09,181.76,188.04,181.78,187.99,181.78z"/>
			</g>
			<g>
				<path class="st34" d="M122.44,174.95c-0.1,0-0.2-0.02-0.3-0.06c-1.17-0.46-1.56-3.71-1.6-4.49c0-0.11,0.08-0.2,0.19-0.2
					s0.2,0.08,0.2,0.19c0.05,1.05,0.51,3.82,1.35,4.14c0.08,0.03,0.31,0.12,0.72-0.28c0.41-0.41,0.74-0.78,1.1-1.17
					c0.24-0.26,0.49-0.54,0.77-0.84c0.15-0.16,0.32-0.32,0.49-0.48c0.42-0.4,0.94-0.9,0.94-1.17c0-0.24-0.26-0.58-0.47-0.85
					c-0.07-0.09-0.14-0.18-0.2-0.26c-0.4-0.58-0.71-1.47-0.81-2.39c-0.03-0.23-0.03-0.54-0.03-0.87c0-0.59-0.01-1.59-0.23-1.74
					c-0.01-0.01-0.03-0.02-0.1,0c-0.1,0.04-0.21-0.01-0.25-0.11s0.01-0.21,0.11-0.25c0.21-0.08,0.36-0.02,0.45,0.04
					c0.36,0.25,0.39,0.97,0.4,2.06c0,0.32,0,0.62,0.03,0.83c0.1,0.86,0.37,1.69,0.74,2.21c0.06,0.08,0.12,0.16,0.19,0.25
					c0.26,0.33,0.55,0.71,0.55,1.09c0,0.43-0.51,0.93-1.06,1.45c-0.17,0.16-0.33,0.32-0.47,0.47c-0.28,0.3-0.53,0.57-0.76,0.83
					c-0.36,0.39-0.69,0.77-1.11,1.18C123,174.81,122.72,174.95,122.44,174.95z"/>
			</g>
		</g>
		<path class="st35" d="M303.34,158.14c0-1.22-0.64-2.1-1.51-2.95c-0.25-0.24-0.76-0.81-1.14-0.96c-0.6-0.25-1.13,0.09-1.65,0.36
			c-0.72,0.37-2.78,1.48-3.04,2.14c-0.31,0.79,1.12,1.79,1.76,2.3c0.86,0.68,1.45,1.45,2.32,2.09c0.71,0.53,1.46,0.49,2.88,0.49
			C303.5,161.6,303.34,159.22,303.34,158.14z"/>
		
			<linearGradient id="SVGID_26_" gradientUnits="userSpaceOnUse" x1="173.0087" y1="79.8964" x2="233.5124" y2="79.8964" gradientTransform="matrix(1 0 0 -1 0 220)">
			<stop  offset="0" style="stop-color:#CDE9F9"/>
			<stop  offset="1" style="stop-color:#367C98"/>
		</linearGradient>
		<path class="st36" d="M225.68,133.74c-7.49-1.25-30.02-0.6-34.77-0.08c-2.74,0.3-4.7,0.7-7.06,1.81
			c-3.55,1.66-6.82,3.42-10.14,5.45c-1.36,0.83-5.66,3.66-4.91,5.58c0.8,2.06,12.35-1.1,14.52-1.81c2.03-0.66,15.69-4.73,20.2-5.43
			c5.06-0.79,7.97-0.88,13.05-1.1c2.35-0.1,5.5,0.09,7.37-1.44C225.39,135.53,227.14,133.99,225.68,133.74z"/>
	</g>
</g>
</svg>
