<?xml version="1.0" encoding="utf-8"?>
<!-- Generator: Adobe Illustrator 24.1.2, SVG Export Plug-In . SVG Version: 6.00 Build 0)  -->
<svg version="1.0" id="Layer_1" xmlns="http://www.w3.org/2000/svg" xmlns:xlink="http://www.w3.org/1999/xlink" x="0px" y="0px"
	 viewBox="0 0 596.38 497.68" style="enable-background:new 0 0 596.38 497.68;" xml:space="preserve">
<style type="text/css">
	.st0{fill:#2A9FD9;}
	.st1{fill:none;stroke:#989898;stroke-miterlimit:10;}
	.st2{enable-background:new    ;}
	.st3{fill:#4E4E4E;}
	.st4{fill:#2367B1;}
	.st5{fill:#FFFFFF;}
	.st6{fill:none;stroke:#2367B1;stroke-width:3;stroke-linecap:round;stroke-miterlimit:10;}
	.st7{fill:#6B6C6C;}
</style>
<rect x="266.32" y="172.19" class="st0" width="30.73" height="256.25"/>
<rect x="308.07" y="64.94" class="st0" width="30.73" height="363.5"/>
<rect x="349.82" y="120.69" class="st0" width="30.73" height="307.75"/>
<rect x="475.08" y="174.19" class="st0" width="30.73" height="254.25"/>
<rect x="516.83" y="232.19" class="st0" width="30.73" height="196.25"/>
<line class="st1" x1="45.51" y1="428.48" x2="561.51" y2="428.48"/>
<line class="st1" x1="46.01" y1="468.06" x2="46.01" y2="428.06"/>
<line class="st1" x1="217.68" y1="468.06" x2="217.68" y2="428.06"/>
<line class="st1" x1="389.35" y1="468.06" x2="389.35" y2="428.06"/>
<line class="st1" x1="561.03" y1="468.06" x2="561.03" y2="428.06"/>
<g class="st2">
	<path class="st3" d="M72.13,443.31c0,0.93-0.15,1.74-0.45,2.42c-0.3,0.69-0.72,1.24-1.25,1.65l1.65,1.3l-1.31,1.16l-2.12-1.7
		c-0.24,0.04-0.49,0.06-0.75,0.06c-0.82,0-1.56-0.2-2.21-0.59s-1.15-0.96-1.5-1.7c-0.36-0.74-0.54-1.58-0.54-2.54v-0.49
		c0-0.98,0.18-1.84,0.53-2.59c0.35-0.75,0.85-1.32,1.5-1.72c0.65-0.4,1.38-0.6,2.21-0.6s1.57,0.2,2.21,0.6
		c0.65,0.4,1.14,0.97,1.5,1.72c0.35,0.74,0.53,1.6,0.53,2.58V443.31z M70.05,442.85c0-1.04-0.19-1.84-0.56-2.38s-0.91-0.81-1.6-0.81
		c-0.69,0-1.22,0.27-1.59,0.8c-0.37,0.54-0.56,1.32-0.57,2.36v0.49c0,1.02,0.19,1.8,0.56,2.37s0.91,0.84,1.61,0.84
		c0.69,0,1.22-0.27,1.59-0.81c0.37-0.54,0.56-1.33,0.56-2.36V442.85z"/>
	<path class="st3" d="M78.22,448.06h-1.98v-7.62l-2.36,0.73v-1.61l4.12-1.48h0.21V448.06z"/>
</g>
<g class="st2">
	<path class="st3" d="M114.15,443.31c0,0.93-0.15,1.74-0.45,2.42c-0.3,0.69-0.72,1.24-1.25,1.65l1.65,1.3l-1.31,1.16l-2.12-1.7
		c-0.24,0.04-0.49,0.06-0.75,0.06c-0.82,0-1.56-0.2-2.21-0.59s-1.15-0.96-1.5-1.7c-0.36-0.74-0.54-1.58-0.54-2.54v-0.49
		c0-0.98,0.18-1.84,0.53-2.59c0.35-0.75,0.85-1.32,1.5-1.72c0.65-0.4,1.38-0.6,2.21-0.6s1.57,0.2,2.21,0.6
		c0.65,0.4,1.14,0.97,1.5,1.72c0.35,0.74,0.53,1.6,0.53,2.58V443.31z M112.07,442.85c0-1.04-0.19-1.84-0.56-2.38
		s-0.91-0.81-1.6-0.81c-0.69,0-1.22,0.27-1.59,0.8c-0.37,0.54-0.56,1.32-0.57,2.36v0.49c0,1.02,0.19,1.8,0.56,2.37
		s0.91,0.84,1.61,0.84c0.69,0,1.22-0.27,1.59-0.81c0.37-0.54,0.56-1.33,0.56-2.36V442.85z"/>
	<path class="st3" d="M122.27,448.06h-6.82v-1.35l3.22-3.43c0.44-0.48,0.77-0.9,0.98-1.26s0.32-0.7,0.32-1.03
		c0-0.44-0.11-0.79-0.33-1.04c-0.22-0.25-0.54-0.38-0.96-0.38c-0.45,0-0.8,0.15-1.06,0.46c-0.26,0.31-0.39,0.71-0.39,1.21h-1.98
		c0-0.61,0.14-1.16,0.43-1.66s0.7-0.89,1.23-1.18c0.53-0.29,1.13-0.43,1.8-0.43c1.03,0,1.82,0.25,2.39,0.74s0.85,1.19,0.85,2.08
		c0,0.49-0.13,0.99-0.38,1.5s-0.69,1.11-1.31,1.78l-2.26,2.39h4.28V448.06z"/>
</g>
<g class="st2">
	<path class="st3" d="M125.48,483.77h-6.82v-1.35l3.22-3.43c0.44-0.48,0.77-0.9,0.98-1.26s0.32-0.7,0.32-1.03
		c0-0.44-0.11-0.79-0.33-1.04c-0.22-0.25-0.54-0.38-0.96-0.38c-0.45,0-0.8,0.15-1.06,0.46c-0.26,0.31-0.39,0.71-0.39,1.21h-1.98
		c0-0.61,0.14-1.16,0.43-1.66s0.7-0.89,1.23-1.18c0.53-0.29,1.13-0.43,1.8-0.43c1.03,0,1.82,0.25,2.39,0.74s0.85,1.19,0.85,2.08
		c0,0.49-0.13,0.99-0.38,1.5s-0.69,1.11-1.31,1.78l-2.26,2.39h4.28V483.77z"/>
	<path class="st3" d="M133.39,479.66c0,1.38-0.28,2.43-0.85,3.16s-1.4,1.09-2.5,1.09c-1.08,0-1.91-0.36-2.49-1.07
		s-0.87-1.74-0.88-3.08v-1.83c0-1.39,0.29-2.45,0.86-3.17s1.41-1.08,2.49-1.08s1.91,0.36,2.49,1.07c0.57,0.71,0.87,1.74,0.88,3.07
		V479.66z M131.41,477.64c0-0.83-0.11-1.43-0.34-1.8s-0.58-0.56-1.06-0.56c-0.46,0-0.81,0.18-1.03,0.54s-0.34,0.92-0.35,1.68v2.42
		c0,0.81,0.11,1.42,0.33,1.81s0.58,0.59,1.06,0.59c0.48,0,0.83-0.19,1.05-0.57c0.21-0.38,0.33-0.96,0.33-1.74V477.64z"/>
	<path class="st3" d="M139.52,483.77h-1.98v-7.62l-2.36,0.73v-1.61l4.12-1.48h0.21V483.77z"/>
	<path class="st3" d="M149.52,474.92l-3.85,8.85h-2.08l3.86-8.36h-4.95v-1.59h7.03V474.92z"/>
</g>
<g class="st2">
	<path class="st3" d="M295.51,483.77h-6.82v-1.35l3.22-3.43c0.44-0.48,0.77-0.9,0.98-1.26s0.32-0.7,0.32-1.03
		c0-0.44-0.11-0.79-0.33-1.04c-0.22-0.25-0.54-0.38-0.96-0.38c-0.45,0-0.8,0.15-1.06,0.46c-0.26,0.31-0.39,0.71-0.39,1.21h-1.98
		c0-0.61,0.14-1.16,0.43-1.66s0.7-0.89,1.23-1.18c0.53-0.29,1.13-0.43,1.8-0.43c1.03,0,1.82,0.25,2.39,0.74s0.85,1.19,0.85,2.08
		c0,0.49-0.13,0.99-0.38,1.5s-0.69,1.11-1.31,1.78l-2.26,2.39h4.28V483.77z"/>
	<path class="st3" d="M303.42,479.66c0,1.38-0.28,2.43-0.85,3.16c-0.57,0.73-1.4,1.09-2.5,1.09c-1.08,0-1.91-0.36-2.49-1.07
		s-0.87-1.74-0.88-3.08v-1.83c0-1.39,0.29-2.45,0.86-3.17s1.41-1.08,2.49-1.08c1.08,0,1.91,0.36,2.49,1.07
		c0.57,0.71,0.87,1.74,0.88,3.07V479.66z M301.44,477.64c0-0.83-0.11-1.43-0.34-1.8s-0.58-0.56-1.06-0.56
		c-0.46,0-0.81,0.18-1.03,0.54c-0.22,0.36-0.34,0.92-0.35,1.68v2.42c0,0.81,0.11,1.42,0.33,1.81s0.58,0.59,1.06,0.59
		c0.48,0,0.83-0.19,1.05-0.57c0.21-0.38,0.33-0.96,0.33-1.74V477.64z"/>
	<path class="st3" d="M309.55,483.77h-1.98v-7.62l-2.36,0.73v-1.61l4.12-1.48h0.21V483.77z"/>
	<path class="st3" d="M319.27,476.47c0,0.48-0.12,0.91-0.36,1.29c-0.24,0.37-0.57,0.67-1,0.9c0.48,0.23,0.87,0.55,1.15,0.96
		c0.28,0.41,0.42,0.89,0.42,1.44c0,0.88-0.3,1.58-0.9,2.09c-0.6,0.51-1.42,0.77-2.45,0.77c-1.03,0-1.85-0.26-2.46-0.77
		c-0.61-0.51-0.91-1.21-0.91-2.09c0-0.55,0.14-1.03,0.42-1.44c0.28-0.41,0.66-0.73,1.14-0.96c-0.42-0.22-0.75-0.52-0.99-0.9
		s-0.36-0.8-0.36-1.29c0-0.85,0.28-1.52,0.85-2.03c0.57-0.5,1.33-0.76,2.3-0.76c0.97,0,1.73,0.25,2.3,0.75
		C318.98,474.93,319.27,475.61,319.27,476.47z M317.5,480.9c0-0.43-0.12-0.78-0.38-1.04c-0.25-0.26-0.59-0.39-1.01-0.39
		c-0.42,0-0.75,0.13-1,0.39c-0.25,0.26-0.38,0.61-0.38,1.04c0,0.42,0.12,0.77,0.37,1.03s0.59,0.39,1.03,0.39
		c0.43,0,0.76-0.12,1.01-0.38C317.38,481.69,317.5,481.35,317.5,480.9z M317.29,476.56c0-0.39-0.1-0.7-0.31-0.93
		c-0.21-0.24-0.49-0.35-0.87-0.35c-0.37,0-0.66,0.11-0.86,0.34s-0.31,0.54-0.31,0.94c0,0.4,0.1,0.72,0.31,0.96s0.5,0.36,0.87,0.36
		c0.37,0,0.66-0.12,0.87-0.36C317.19,477.28,317.29,476.96,317.29,476.56z"/>
</g>
<g class="st2">
	<path class="st3" d="M458.49,483.77h-6.82v-1.35l3.22-3.43c0.44-0.48,0.77-0.9,0.98-1.26s0.32-0.7,0.32-1.03
		c0-0.44-0.11-0.79-0.33-1.04c-0.22-0.25-0.54-0.38-0.96-0.38c-0.45,0-0.8,0.15-1.06,0.46c-0.26,0.31-0.39,0.71-0.39,1.21h-1.98
		c0-0.61,0.14-1.16,0.43-1.66c0.29-0.5,0.7-0.89,1.23-1.18c0.53-0.29,1.13-0.43,1.8-0.43c1.03,0,1.82,0.25,2.39,0.74
		s0.85,1.19,0.85,2.08c0,0.49-0.13,0.99-0.38,1.5c-0.25,0.51-0.69,1.11-1.31,1.78l-2.26,2.39h4.28V483.77z"/>
	<path class="st3" d="M466.4,479.66c0,1.38-0.28,2.43-0.85,3.16c-0.57,0.73-1.4,1.09-2.5,1.09c-1.08,0-1.91-0.36-2.49-1.07
		s-0.87-1.74-0.88-3.08v-1.83c0-1.39,0.29-2.45,0.87-3.17c0.58-0.72,1.41-1.08,2.49-1.08c1.08,0,1.91,0.36,2.49,1.07
		c0.57,0.71,0.87,1.74,0.88,3.07V479.66z M464.42,477.64c0-0.83-0.11-1.43-0.34-1.8s-0.58-0.56-1.06-0.56
		c-0.46,0-0.81,0.18-1.03,0.54c-0.22,0.36-0.34,0.92-0.35,1.68v2.42c0,0.81,0.11,1.42,0.33,1.81c0.22,0.39,0.58,0.59,1.06,0.59
		c0.48,0,0.83-0.19,1.05-0.57c0.21-0.38,0.33-0.96,0.33-1.74V477.64z"/>
	<path class="st3" d="M472.53,483.77h-1.98v-7.62l-2.36,0.73v-1.61l4.12-1.48h0.21V483.77z"/>
	<path class="st3" d="M480.39,479.8c-0.51,0.51-1.12,0.76-1.8,0.76c-0.88,0-1.58-0.3-2.11-0.91c-0.53-0.6-0.79-1.42-0.79-2.44
		c0-0.65,0.14-1.25,0.43-1.79c0.28-0.54,0.68-0.97,1.19-1.27c0.51-0.3,1.08-0.46,1.72-0.46c0.66,0,1.24,0.16,1.75,0.49
		c0.51,0.33,0.91,0.8,1.19,1.42c0.28,0.62,0.43,1.32,0.43,2.11v0.73c0,1.66-0.41,2.96-1.24,3.91c-0.82,0.95-1.99,1.45-3.51,1.52
		l-0.49,0.01v-1.65l0.44-0.01C479.32,482.14,480.25,481.33,480.39,479.8z M479.07,479.04c0.32,0,0.59-0.08,0.82-0.25
		c0.23-0.16,0.4-0.36,0.52-0.59v-0.81c0-0.67-0.13-1.19-0.38-1.56c-0.25-0.37-0.6-0.55-1.03-0.55c-0.4,0-0.72,0.18-0.98,0.54
		c-0.25,0.36-0.38,0.82-0.38,1.36c0,0.54,0.12,0.99,0.37,1.34C478.27,478.87,478.62,479.04,479.07,479.04z"/>
</g>
<g class="st2">
	<path class="st3" d="M156.18,443.31c0,0.93-0.15,1.74-0.45,2.42c-0.3,0.69-0.72,1.24-1.25,1.65l1.65,1.3l-1.31,1.16l-2.12-1.7
		c-0.24,0.04-0.49,0.06-0.75,0.06c-0.82,0-1.56-0.2-2.21-0.59s-1.15-0.96-1.5-1.7c-0.36-0.74-0.54-1.58-0.54-2.54v-0.49
		c0-0.98,0.18-1.84,0.53-2.59c0.35-0.75,0.85-1.32,1.5-1.72c0.65-0.4,1.38-0.6,2.21-0.6s1.57,0.2,2.21,0.6
		c0.65,0.4,1.14,0.97,1.5,1.72c0.35,0.74,0.53,1.6,0.53,2.58V443.31z M154.1,442.85c0-1.04-0.19-1.84-0.56-2.38s-0.91-0.81-1.6-0.81
		c-0.69,0-1.22,0.27-1.59,0.8c-0.37,0.54-0.56,1.32-0.57,2.36v0.49c0,1.02,0.19,1.8,0.56,2.37s0.91,0.84,1.61,0.84
		c0.69,0,1.22-0.27,1.59-0.81c0.37-0.54,0.56-1.33,0.56-2.36V442.85z"/>
	<path class="st3" d="M159.48,442.21h1.05c0.5,0,0.87-0.12,1.11-0.38s0.36-0.58,0.36-1c0-0.4-0.12-0.71-0.36-0.94
		s-0.57-0.33-0.99-0.33c-0.38,0-0.69,0.1-0.95,0.31c-0.26,0.21-0.38,0.48-0.38,0.81h-1.98c0-0.52,0.14-0.99,0.42-1.4
		c0.28-0.41,0.67-0.74,1.18-0.97s1.06-0.35,1.66-0.35c1.05,0,1.88,0.25,2.47,0.76c0.6,0.5,0.9,1.2,0.9,2.08
		c0,0.46-0.14,0.88-0.42,1.26s-0.64,0.68-1.09,0.88c0.56,0.2,0.98,0.5,1.25,0.9s0.41,0.88,0.41,1.42c0,0.88-0.32,1.59-0.97,2.13
		s-1.5,0.8-2.56,0.8c-0.99,0-1.81-0.26-2.44-0.79s-0.95-1.22-0.95-2.08h1.98c0,0.37,0.14,0.68,0.42,0.92s0.63,0.36,1.04,0.36
		c0.47,0,0.84-0.12,1.1-0.37c0.27-0.25,0.4-0.58,0.4-0.99c0-0.99-0.55-1.49-1.64-1.49h-1.05V442.21z"/>
</g>
<g class="st2">
	<path class="st3" d="M198.2,443.31c0,0.93-0.15,1.74-0.45,2.42c-0.3,0.69-0.72,1.24-1.25,1.65l1.65,1.3l-1.31,1.16l-2.12-1.7
		c-0.24,0.04-0.49,0.06-0.75,0.06c-0.82,0-1.56-0.2-2.21-0.59s-1.15-0.96-1.5-1.7c-0.36-0.74-0.54-1.58-0.54-2.54v-0.49
		c0-0.98,0.18-1.84,0.53-2.59c0.35-0.75,0.85-1.32,1.5-1.72c0.65-0.4,1.38-0.6,2.21-0.6s1.57,0.2,2.21,0.6
		c0.65,0.4,1.14,0.97,1.5,1.72c0.35,0.74,0.53,1.6,0.53,2.58V443.31z M196.12,442.85c0-1.04-0.19-1.84-0.56-2.38
		s-0.91-0.81-1.6-0.81c-0.69,0-1.22,0.27-1.59,0.8c-0.37,0.54-0.56,1.32-0.57,2.36v0.49c0,1.02,0.19,1.8,0.56,2.37
		s0.91,0.84,1.61,0.84c0.69,0,1.22-0.27,1.59-0.81c0.37-0.54,0.56-1.33,0.56-2.36V442.85z"/>
	<path class="st3" d="M205.34,444.31h1.13v1.59h-1.13v2.15h-1.98v-2.15h-4.08l-0.09-1.24l4.15-6.56h2V444.31z M201.16,444.31h2.2
		v-3.51l-0.13,0.23L201.16,444.31z"/>
</g>
<g class="st2">
	<path class="st3" d="M240.23,443.31c0,0.93-0.15,1.74-0.45,2.42c-0.3,0.69-0.72,1.24-1.25,1.65l1.65,1.3l-1.31,1.16l-2.12-1.7
		c-0.24,0.04-0.49,0.06-0.75,0.06c-0.82,0-1.56-0.2-2.21-0.59s-1.15-0.96-1.5-1.7c-0.36-0.74-0.54-1.58-0.54-2.54v-0.49
		c0-0.98,0.18-1.84,0.53-2.59c0.35-0.75,0.85-1.32,1.5-1.72c0.65-0.4,1.38-0.6,2.21-0.6s1.57,0.2,2.21,0.6
		c0.65,0.4,1.14,0.97,1.5,1.72c0.35,0.74,0.53,1.6,0.53,2.58V443.31z M238.15,442.85c0-1.04-0.19-1.84-0.56-2.38
		s-0.91-0.81-1.6-0.81c-0.69,0-1.22,0.27-1.59,0.8c-0.37,0.54-0.56,1.32-0.57,2.36v0.49c0,1.02,0.19,1.8,0.56,2.37
		s0.91,0.84,1.61,0.84c0.69,0,1.22-0.27,1.59-0.81c0.37-0.54,0.56-1.33,0.56-2.36V442.85z"/>
	<path class="st3" d="M246.32,448.06h-1.98v-7.62l-2.36,0.73v-1.61l4.12-1.48h0.21V448.06z"/>
</g>
<g class="st2">
	<path class="st3" d="M282.25,443.31c0,0.93-0.15,1.74-0.45,2.42c-0.3,0.69-0.72,1.24-1.25,1.65l1.65,1.3l-1.31,1.16l-2.12-1.7
		c-0.24,0.04-0.49,0.06-0.75,0.06c-0.82,0-1.56-0.2-2.21-0.59s-1.15-0.96-1.5-1.7c-0.36-0.74-0.54-1.58-0.54-2.54v-0.49
		c0-0.98,0.18-1.84,0.53-2.59c0.35-0.75,0.85-1.32,1.5-1.72c0.65-0.4,1.38-0.6,2.21-0.6s1.57,0.2,2.21,0.6
		c0.65,0.4,1.14,0.97,1.5,1.72c0.35,0.74,0.53,1.6,0.53,2.58V443.31z M280.17,442.85c0-1.04-0.19-1.84-0.56-2.38
		s-0.91-0.81-1.6-0.81c-0.69,0-1.22,0.27-1.59,0.8c-0.37,0.54-0.56,1.32-0.57,2.36v0.49c0,1.02,0.19,1.8,0.56,2.37
		s0.91,0.84,1.61,0.84c0.69,0,1.22-0.27,1.59-0.81c0.37-0.54,0.56-1.33,0.56-2.36V442.85z"/>
	<path class="st3" d="M290.37,448.06h-6.82v-1.35l3.22-3.43c0.44-0.48,0.77-0.9,0.98-1.26s0.32-0.7,0.32-1.03
		c0-0.44-0.11-0.79-0.33-1.04c-0.22-0.25-0.54-0.38-0.96-0.38c-0.45,0-0.8,0.15-1.06,0.46c-0.26,0.31-0.39,0.71-0.39,1.21h-1.98
		c0-0.61,0.14-1.16,0.43-1.66s0.7-0.89,1.23-1.18c0.53-0.29,1.13-0.43,1.8-0.43c1.03,0,1.82,0.25,2.39,0.74s0.85,1.19,0.85,2.08
		c0,0.49-0.13,0.99-0.38,1.5s-0.69,1.11-1.31,1.78l-2.26,2.39h4.28V448.06z"/>
</g>
<g class="st2">
	<path class="st3" d="M324.28,443.31c0,0.93-0.15,1.74-0.45,2.42c-0.3,0.69-0.72,1.24-1.25,1.65l1.65,1.3l-1.31,1.16l-2.12-1.7
		c-0.24,0.04-0.49,0.06-0.75,0.06c-0.82,0-1.56-0.2-2.21-0.59c-0.65-0.4-1.15-0.96-1.5-1.7c-0.36-0.74-0.54-1.58-0.54-2.54v-0.49
		c0-0.98,0.18-1.84,0.53-2.59c0.35-0.75,0.85-1.32,1.5-1.72c0.64-0.4,1.38-0.6,2.21-0.6c0.83,0,1.57,0.2,2.21,0.6
		c0.64,0.4,1.14,0.97,1.5,1.72c0.35,0.74,0.53,1.6,0.53,2.58V443.31z M322.2,442.85c0-1.04-0.19-1.84-0.56-2.38
		c-0.37-0.54-0.91-0.81-1.6-0.81c-0.69,0-1.22,0.27-1.59,0.8c-0.37,0.54-0.56,1.32-0.57,2.36v0.49c0,1.02,0.19,1.8,0.56,2.37
		c0.37,0.56,0.91,0.84,1.61,0.84c0.69,0,1.22-0.27,1.59-0.81c0.37-0.54,0.56-1.33,0.56-2.36V442.85z"/>
	<path class="st3" d="M327.58,442.21h1.05c0.5,0,0.87-0.12,1.11-0.38c0.24-0.25,0.36-0.58,0.36-1c0-0.4-0.12-0.71-0.36-0.94
		s-0.57-0.33-0.99-0.33c-0.38,0-0.69,0.1-0.95,0.31c-0.25,0.21-0.38,0.48-0.38,0.81h-1.98c0-0.52,0.14-0.99,0.42-1.4
		c0.28-0.41,0.67-0.74,1.18-0.97c0.5-0.23,1.06-0.35,1.66-0.35c1.05,0,1.88,0.25,2.47,0.76c0.6,0.5,0.9,1.2,0.9,2.08
		c0,0.46-0.14,0.88-0.42,1.26c-0.28,0.38-0.64,0.68-1.09,0.88c0.56,0.2,0.98,0.5,1.25,0.9c0.28,0.4,0.41,0.88,0.41,1.42
		c0,0.88-0.32,1.59-0.97,2.13c-0.65,0.53-1.5,0.8-2.56,0.8c-0.99,0-1.81-0.26-2.44-0.79c-0.63-0.52-0.95-1.22-0.95-2.08h1.98
		c0,0.37,0.14,0.68,0.42,0.92s0.62,0.36,1.04,0.36c0.47,0,0.84-0.12,1.1-0.37c0.27-0.25,0.4-0.58,0.4-0.99
		c0-0.99-0.55-1.49-1.64-1.49h-1.05V442.21z"/>
</g>
<g class="st2">
	<path class="st3" d="M366.3,443.31c0,0.93-0.15,1.74-0.45,2.42c-0.3,0.69-0.72,1.24-1.25,1.65l1.65,1.3l-1.31,1.16l-2.12-1.7
		c-0.24,0.04-0.49,0.06-0.75,0.06c-0.82,0-1.56-0.2-2.21-0.59c-0.65-0.4-1.15-0.96-1.5-1.7c-0.36-0.74-0.54-1.58-0.54-2.54v-0.49
		c0-0.98,0.18-1.84,0.53-2.59c0.35-0.75,0.85-1.32,1.5-1.72c0.64-0.4,1.38-0.6,2.21-0.6c0.83,0,1.57,0.2,2.21,0.6
		c0.64,0.4,1.14,0.97,1.5,1.72c0.35,0.74,0.53,1.6,0.53,2.58V443.31z M364.22,442.85c0-1.04-0.19-1.84-0.56-2.38
		c-0.37-0.54-0.91-0.81-1.6-0.81c-0.69,0-1.22,0.27-1.59,0.8c-0.37,0.54-0.56,1.32-0.57,2.36v0.49c0,1.02,0.19,1.8,0.56,2.37
		c0.37,0.56,0.91,0.84,1.61,0.84c0.69,0,1.22-0.27,1.59-0.81c0.37-0.54,0.56-1.33,0.56-2.36V442.85z"/>
	<path class="st3" d="M373.44,444.31h1.13v1.59h-1.13v2.15h-1.98v-2.15h-4.08l-0.09-1.24l4.15-6.56h2V444.31z M369.26,444.31h2.2
		v-3.51l-0.13,0.23L369.26,444.31z"/>
</g>
<g class="st2">
	<path class="st3" d="M408.33,443.31c0,0.93-0.15,1.74-0.45,2.42c-0.3,0.69-0.72,1.24-1.25,1.65l1.65,1.3l-1.31,1.16l-2.12-1.7
		c-0.24,0.04-0.49,0.06-0.75,0.06c-0.82,0-1.56-0.2-2.21-0.59c-0.65-0.4-1.15-0.96-1.5-1.7c-0.36-0.74-0.54-1.58-0.54-2.54v-0.49
		c0-0.98,0.18-1.84,0.53-2.59c0.35-0.75,0.85-1.32,1.5-1.72c0.64-0.4,1.38-0.6,2.21-0.6c0.83,0,1.57,0.2,2.21,0.6
		c0.64,0.4,1.14,0.97,1.5,1.72c0.35,0.74,0.53,1.6,0.53,2.58V443.31z M406.25,442.85c0-1.04-0.19-1.84-0.56-2.38
		c-0.37-0.54-0.91-0.81-1.6-0.81c-0.69,0-1.22,0.27-1.59,0.8c-0.37,0.54-0.56,1.32-0.57,2.36v0.49c0,1.02,0.19,1.8,0.56,2.37
		c0.37,0.56,0.91,0.84,1.61,0.84c0.69,0,1.22-0.27,1.59-0.81c0.37-0.54,0.56-1.33,0.56-2.36V442.85z"/>
	<path class="st3" d="M414.42,448.06h-1.98v-7.62l-2.36,0.73v-1.61l4.12-1.48h0.21V448.06z"/>
</g>
<g class="st2">
	<path class="st3" d="M450.35,443.31c0,0.93-0.15,1.74-0.45,2.42c-0.3,0.69-0.72,1.24-1.25,1.65l1.65,1.3l-1.31,1.16l-2.12-1.7
		c-0.24,0.04-0.49,0.06-0.75,0.06c-0.82,0-1.56-0.2-2.21-0.59c-0.65-0.4-1.15-0.96-1.5-1.7c-0.36-0.74-0.54-1.58-0.54-2.54v-0.49
		c0-0.98,0.18-1.84,0.53-2.59c0.35-0.75,0.85-1.32,1.5-1.72c0.64-0.4,1.38-0.6,2.21-0.6c0.83,0,1.57,0.2,2.21,0.6
		c0.64,0.4,1.14,0.97,1.5,1.72c0.35,0.74,0.53,1.6,0.53,2.58V443.31z M448.27,442.85c0-1.04-0.19-1.84-0.56-2.38
		c-0.37-0.54-0.91-0.81-1.6-0.81c-0.69,0-1.22,0.27-1.59,0.8c-0.37,0.54-0.56,1.32-0.57,2.36v0.49c0,1.02,0.19,1.8,0.56,2.37
		c0.37,0.56,0.91,0.84,1.61,0.84c0.69,0,1.22-0.27,1.59-0.81c0.37-0.54,0.56-1.33,0.56-2.36V442.85z"/>
	<path class="st3" d="M458.47,448.06h-6.82v-1.35l3.22-3.43c0.44-0.48,0.77-0.9,0.98-1.26s0.32-0.7,0.32-1.03
		c0-0.44-0.11-0.79-0.33-1.04c-0.22-0.25-0.54-0.38-0.96-0.38c-0.45,0-0.8,0.15-1.06,0.46c-0.26,0.31-0.39,0.71-0.39,1.21h-1.98
		c0-0.61,0.14-1.16,0.43-1.66c0.29-0.5,0.7-0.89,1.23-1.18c0.53-0.29,1.13-0.43,1.8-0.43c1.03,0,1.82,0.25,2.39,0.74
		s0.85,1.19,0.85,2.08c0,0.49-0.13,0.99-0.38,1.5c-0.25,0.51-0.69,1.11-1.31,1.78l-2.26,2.39h4.28V448.06z"/>
</g>
<g class="st2">
	<path class="st3" d="M492.38,443.31c0,0.93-0.15,1.74-0.45,2.42c-0.3,0.69-0.72,1.24-1.25,1.65l1.65,1.3l-1.31,1.16l-2.12-1.7
		c-0.24,0.04-0.49,0.06-0.75,0.06c-0.83,0-1.56-0.2-2.21-0.59c-0.65-0.4-1.15-0.96-1.5-1.7c-0.36-0.74-0.54-1.58-0.54-2.54v-0.49
		c0-0.98,0.18-1.84,0.53-2.59c0.35-0.75,0.85-1.32,1.5-1.72c0.65-0.4,1.38-0.6,2.21-0.6c0.83,0,1.57,0.2,2.21,0.6
		c0.65,0.4,1.14,0.97,1.5,1.72c0.35,0.74,0.53,1.6,0.53,2.58V443.31z M490.3,442.85c0-1.04-0.19-1.84-0.56-2.38
		c-0.37-0.54-0.91-0.81-1.6-0.81c-0.69,0-1.22,0.27-1.59,0.8c-0.37,0.54-0.56,1.32-0.57,2.36v0.49c0,1.02,0.19,1.8,0.56,2.37
		c0.37,0.56,0.91,0.84,1.61,0.84c0.69,0,1.22-0.27,1.59-0.81c0.37-0.54,0.56-1.33,0.56-2.36V442.85z"/>
	<path class="st3" d="M495.68,442.21h1.05c0.5,0,0.87-0.12,1.11-0.38c0.24-0.25,0.36-0.58,0.36-1c0-0.4-0.12-0.71-0.36-0.94
		s-0.57-0.33-0.99-0.33c-0.38,0-0.7,0.1-0.95,0.31c-0.26,0.21-0.38,0.48-0.38,0.81h-1.98c0-0.52,0.14-0.99,0.42-1.4
		c0.28-0.41,0.67-0.74,1.18-0.97c0.5-0.23,1.06-0.35,1.67-0.35c1.05,0,1.88,0.25,2.47,0.76c0.6,0.5,0.9,1.2,0.9,2.08
		c0,0.46-0.14,0.88-0.42,1.26c-0.28,0.38-0.64,0.68-1.09,0.88c0.56,0.2,0.98,0.5,1.25,0.9c0.28,0.4,0.41,0.88,0.41,1.42
		c0,0.88-0.32,1.59-0.97,2.13c-0.64,0.53-1.5,0.8-2.56,0.8c-0.99,0-1.81-0.26-2.44-0.79c-0.63-0.52-0.95-1.22-0.95-2.08h1.98
		c0,0.37,0.14,0.68,0.42,0.92s0.63,0.36,1.04,0.36c0.47,0,0.84-0.12,1.1-0.37c0.27-0.25,0.4-0.58,0.4-0.99
		c0-0.99-0.55-1.49-1.64-1.49h-1.05V442.21z"/>
</g>
<g class="st2">
	<path class="st3" d="M534.4,443.31c0,0.93-0.15,1.74-0.45,2.42c-0.3,0.69-0.72,1.24-1.25,1.65l1.65,1.3l-1.31,1.16l-2.12-1.7
		c-0.24,0.04-0.49,0.06-0.75,0.06c-0.82,0-1.56-0.2-2.21-0.59c-0.65-0.4-1.15-0.96-1.5-1.7c-0.36-0.74-0.54-1.58-0.54-2.54v-0.49
		c0-0.98,0.18-1.84,0.53-2.59c0.35-0.75,0.85-1.32,1.5-1.72c0.64-0.4,1.38-0.6,2.21-0.6c0.83,0,1.57,0.2,2.21,0.6
		c0.64,0.4,1.14,0.97,1.5,1.72c0.35,0.74,0.53,1.6,0.53,2.58V443.31z M532.32,442.85c0-1.04-0.19-1.84-0.56-2.38
		c-0.37-0.54-0.91-0.81-1.6-0.81c-0.69,0-1.22,0.27-1.59,0.8c-0.37,0.54-0.56,1.32-0.57,2.36v0.49c0,1.02,0.19,1.8,0.56,2.37
		c0.37,0.56,0.91,0.84,1.61,0.84c0.69,0,1.22-0.27,1.59-0.81c0.37-0.54,0.56-1.33,0.56-2.36V442.85z"/>
	<path class="st3" d="M541.54,444.31h1.13v1.59h-1.13v2.15h-1.98v-2.15h-4.08l-0.09-1.24l4.15-6.56h2V444.31z M537.36,444.31h2.2
		v-3.51l-0.13,0.23L537.36,444.31z"/>
</g>
<g class="st2">
	<path class="st4" d="M69.93,331.72v1.63h-0.19c-0.89,0.01-1.61,0.25-2.16,0.7s-0.87,1.08-0.98,1.88c0.53-0.54,1.2-0.81,2-0.81
		c0.87,0,1.55,0.31,2.06,0.93s0.77,1.44,0.77,2.45c0,0.65-0.14,1.23-0.42,1.76s-0.68,0.93-1.19,1.22s-1.09,0.44-1.74,0.44
		c-1.05,0-1.89-0.36-2.54-1.09s-0.97-1.7-0.97-2.92v-0.71c0-1.08,0.2-2.03,0.61-2.86c0.41-0.83,0.99-1.47,1.76-1.92
		c0.76-0.45,1.65-0.68,2.66-0.69H69.93z M68,336.71c-0.32,0-0.61,0.08-0.87,0.25s-0.45,0.39-0.57,0.66v0.6
		c0,0.66,0.13,1.17,0.39,1.55c0.26,0.37,0.62,0.56,1.09,0.56c0.42,0,0.77-0.17,1.03-0.5c0.26-0.33,0.39-0.77,0.39-1.3
		c0-0.54-0.13-0.98-0.4-1.31S68.45,336.71,68,336.71z"/>
	<path class="st4" d="M79.42,341.77H72.6v-1.35l3.22-3.43c0.44-0.48,0.77-0.9,0.98-1.26s0.32-0.7,0.32-1.03
		c0-0.44-0.11-0.79-0.33-1.04c-0.22-0.25-0.54-0.38-0.96-0.38c-0.45,0-0.8,0.15-1.06,0.46c-0.26,0.31-0.39,0.71-0.39,1.21H72.4
		c0-0.61,0.14-1.16,0.43-1.66s0.7-0.89,1.23-1.18c0.53-0.29,1.13-0.43,1.8-0.43c1.03,0,1.82,0.25,2.39,0.74s0.85,1.19,0.85,2.08
		c0,0.49-0.13,0.99-0.38,1.5s-0.69,1.11-1.31,1.78l-2.26,2.39h4.28V341.77z"/>
</g>
<g class="st2">
	<path class="st4" d="M106.89,344.05l0.57-5.06h5.58v1.65h-3.96l-0.25,2.14c0.47-0.25,0.97-0.38,1.5-0.38
		c0.95,0,1.69,0.29,2.23,0.88s0.81,1.41,0.81,2.47c0,0.64-0.14,1.22-0.41,1.73c-0.27,0.51-0.66,0.9-1.17,1.18
		c-0.51,0.28-1.1,0.42-1.79,0.42c-0.6,0-1.16-0.12-1.67-0.37c-0.52-0.24-0.92-0.59-1.22-1.03s-0.46-0.95-0.48-1.51h1.96
		c0.04,0.42,0.19,0.74,0.43,0.97c0.25,0.23,0.57,0.34,0.97,0.34c0.45,0,0.79-0.16,1.03-0.48c0.24-0.32,0.36-0.78,0.36-1.36
		c0-0.57-0.14-1-0.42-1.3s-0.67-0.45-1.18-0.45c-0.47,0-0.85,0.12-1.14,0.37l-0.19,0.18L106.89,344.05z"/>
	<path class="st4" d="M116.64,343.09h1.05c0.5,0,0.87-0.12,1.11-0.38s0.36-0.58,0.36-1c0-0.4-0.12-0.71-0.36-0.94
		s-0.57-0.33-0.99-0.33c-0.38,0-0.69,0.1-0.95,0.31c-0.26,0.21-0.38,0.48-0.38,0.81h-1.98c0-0.52,0.14-0.99,0.42-1.4
		c0.28-0.41,0.67-0.74,1.18-0.97s1.06-0.35,1.66-0.35c1.05,0,1.88,0.25,2.47,0.76c0.6,0.5,0.9,1.2,0.9,2.08
		c0,0.46-0.14,0.88-0.42,1.26s-0.64,0.68-1.09,0.88c0.56,0.2,0.98,0.5,1.25,0.9s0.41,0.88,0.41,1.42c0,0.88-0.32,1.59-0.97,2.13
		s-1.5,0.8-2.56,0.8c-0.99,0-1.81-0.26-2.44-0.79s-0.95-1.22-0.95-2.08h1.98c0,0.37,0.14,0.68,0.42,0.92s0.63,0.36,1.04,0.36
		c0.47,0,0.84-0.12,1.1-0.37c0.27-0.25,0.4-0.58,0.4-0.99c0-0.99-0.55-1.49-1.64-1.49h-1.05V343.09z"/>
</g>
<g class="st2">
	<path class="st4" d="M155.39,313.49l-3.85,8.85h-2.08l3.86-8.36h-4.95v-1.59h7.03V313.49z"/>
	<path class="st4" d="M156.95,317.44l0.57-5.06h5.58v1.65h-3.96l-0.25,2.14c0.47-0.25,0.97-0.38,1.5-0.38
		c0.95,0,1.69,0.29,2.23,0.88s0.81,1.41,0.81,2.47c0,0.64-0.14,1.22-0.41,1.73c-0.27,0.51-0.66,0.9-1.17,1.18
		c-0.51,0.28-1.1,0.42-1.79,0.42c-0.6,0-1.16-0.12-1.67-0.37c-0.52-0.24-0.92-0.59-1.22-1.03s-0.46-0.95-0.48-1.51h1.96
		c0.04,0.42,0.19,0.74,0.43,0.97c0.25,0.23,0.57,0.34,0.97,0.34c0.45,0,0.79-0.16,1.03-0.48c0.24-0.32,0.36-0.78,0.36-1.36
		c0-0.57-0.14-1-0.42-1.3s-0.67-0.45-1.18-0.45c-0.47,0-0.85,0.12-1.14,0.37l-0.19,0.18L156.95,317.44z"/>
</g>
<g class="st2">
	<path class="st4" d="M181.43,281.69h-1.98v-7.62l-2.36,0.73v-1.61l4.12-1.48h0.21V281.69z"/>
	<path class="st4" d="M191.36,277.58c0,1.38-0.28,2.43-0.85,3.16s-1.4,1.09-2.5,1.09c-1.08,0-1.91-0.36-2.49-1.07
		s-0.87-1.74-0.88-3.08v-1.83c0-1.39,0.29-2.45,0.86-3.17s1.41-1.08,2.49-1.08s1.91,0.36,2.49,1.07c0.57,0.71,0.87,1.74,0.88,3.07
		V277.58z M189.38,275.56c0-0.83-0.11-1.43-0.34-1.8s-0.58-0.56-1.06-0.56c-0.46,0-0.81,0.18-1.03,0.54s-0.34,0.92-0.35,1.68v2.42
		c0,0.81,0.11,1.42,0.33,1.81s0.58,0.59,1.06,0.59c0.48,0,0.83-0.19,1.05-0.57c0.21-0.38,0.33-0.96,0.33-1.74V275.56z"/>
	<path class="st4" d="M199.46,272.84l-3.85,8.85h-2.08l3.86-8.36h-4.95v-1.59h7.03V272.84z"/>
</g>
<g class="st2">
	<path class="st4" d="M213.45,213.69h-1.98v-7.62l-2.36,0.73v-1.61l4.12-1.48h0.21V213.69z"/>
	<path class="st4" d="M223.45,204.84l-3.85,8.85h-2.08l3.86-8.36h-4.95v-1.59h7.03V204.84z"/>
	<path class="st4" d="M231.21,206.38c0,0.48-0.12,0.91-0.36,1.29s-0.57,0.67-1,0.9c0.48,0.23,0.87,0.55,1.15,0.96
		c0.28,0.41,0.42,0.89,0.42,1.44c0,0.88-0.3,1.58-0.9,2.09c-0.6,0.51-1.42,0.77-2.45,0.77s-1.85-0.26-2.46-0.77
		s-0.91-1.21-0.91-2.09c0-0.55,0.14-1.03,0.42-1.44s0.66-0.73,1.14-0.96c-0.42-0.22-0.76-0.52-0.99-0.9s-0.36-0.8-0.36-1.29
		c0-0.85,0.28-1.52,0.85-2.03c0.56-0.5,1.33-0.76,2.3-0.76c0.97,0,1.73,0.25,2.3,0.75C230.92,204.84,231.21,205.52,231.21,206.38z
		 M229.43,210.82c0-0.43-0.13-0.78-0.38-1.04s-0.59-0.39-1.01-0.39c-0.42,0-0.75,0.13-1,0.39c-0.25,0.26-0.38,0.61-0.38,1.04
		c0,0.42,0.12,0.77,0.37,1.03s0.59,0.39,1.03,0.39c0.43,0,0.76-0.12,1.01-0.38S229.43,211.26,229.43,210.82z M229.23,206.47
		c0-0.39-0.1-0.7-0.31-0.93c-0.21-0.24-0.49-0.35-0.87-0.35c-0.37,0-0.66,0.11-0.86,0.34s-0.31,0.54-0.31,0.94
		c0,0.4,0.1,0.72,0.31,0.96s0.49,0.36,0.87,0.36s0.66-0.12,0.86-0.36S229.23,206.87,229.23,206.47z"/>
</g>
<g class="st2">
	<path class="st4" d="M277.5,116.69h-6.82v-1.35l3.22-3.43c0.44-0.48,0.77-0.9,0.98-1.26s0.32-0.7,0.32-1.03
		c0-0.44-0.11-0.79-0.33-1.04c-0.22-0.25-0.54-0.38-0.96-0.38c-0.45,0-0.8,0.15-1.06,0.46c-0.26,0.31-0.39,0.71-0.39,1.21h-1.98
		c0-0.61,0.14-1.16,0.43-1.66s0.7-0.89,1.23-1.18c0.53-0.29,1.13-0.43,1.8-0.43c1.03,0,1.82,0.25,2.39,0.74s0.85,1.19,0.85,2.08
		c0,0.49-0.13,0.99-0.38,1.5s-0.69,1.11-1.31,1.78l-2.26,2.39h4.28V116.69z"/>
	<path class="st4" d="M284.55,112.94h1.13v1.59h-1.13v2.15h-1.98v-2.15h-4.08l-0.09-1.24l4.15-6.56h2V112.94z M280.38,112.94h2.2
		v-3.51l-0.13,0.23L280.38,112.94z"/>
	<path class="st4" d="M293.44,112.57c0,1.38-0.28,2.43-0.85,3.16s-1.4,1.09-2.5,1.09c-1.08,0-1.91-0.36-2.49-1.07
		s-0.87-1.74-0.88-3.08v-1.83c0-1.39,0.29-2.45,0.86-3.17s1.41-1.08,2.49-1.08s1.91,0.36,2.49,1.07c0.57,0.71,0.87,1.74,0.88,3.07
		V112.57z M291.47,110.56c0-0.83-0.11-1.43-0.34-1.8s-0.58-0.56-1.06-0.56c-0.46,0-0.81,0.18-1.03,0.54s-0.34,0.92-0.35,1.68v2.42
		c0,0.81,0.11,1.42,0.33,1.81s0.58,0.59,1.06,0.59c0.48,0,0.83-0.19,1.05-0.57c0.21-0.38,0.33-0.96,0.33-1.74V110.56z"/>
</g>
<g class="st2">
	<path class="st5" d="M319.53,193.69h-6.82v-1.35l3.22-3.43c0.44-0.48,0.77-0.9,0.98-1.26s0.32-0.7,0.32-1.03
		c0-0.44-0.11-0.79-0.33-1.04c-0.22-0.25-0.54-0.38-0.96-0.38c-0.45,0-0.8,0.15-1.06,0.46c-0.26,0.31-0.39,0.71-0.39,1.21h-1.98
		c0-0.61,0.14-1.16,0.43-1.66c0.29-0.5,0.7-0.89,1.23-1.18c0.53-0.29,1.13-0.43,1.8-0.43c1.03,0,1.82,0.25,2.39,0.74
		s0.85,1.19,0.85,2.08c0,0.49-0.13,0.99-0.38,1.5c-0.25,0.51-0.69,1.11-1.31,1.78l-2.26,2.39h4.28V193.69z"/>
	<path class="st5" d="M327.43,189.57c0,1.38-0.28,2.43-0.85,3.16c-0.57,0.73-1.4,1.09-2.5,1.09c-1.08,0-1.91-0.36-2.49-1.07
		s-0.87-1.74-0.88-3.08v-1.83c0-1.39,0.29-2.45,0.87-3.17c0.58-0.72,1.41-1.08,2.49-1.08c1.08,0,1.91,0.36,2.49,1.07
		c0.57,0.71,0.87,1.74,0.88,3.07V189.57z M325.46,187.56c0-0.83-0.11-1.43-0.34-1.8s-0.58-0.56-1.06-0.56
		c-0.46,0-0.81,0.18-1.03,0.54c-0.22,0.36-0.34,0.92-0.35,1.68v2.42c0,0.81,0.11,1.42,0.33,1.81c0.22,0.39,0.58,0.59,1.06,0.59
		c0.48,0,0.83-0.19,1.05-0.57c0.21-0.38,0.33-0.96,0.33-1.74V187.56z"/>
	<path class="st5" d="M335.59,193.69h-6.82v-1.35l3.22-3.43c0.44-0.48,0.77-0.9,0.98-1.26s0.32-0.7,0.32-1.03
		c0-0.44-0.11-0.79-0.33-1.04c-0.22-0.25-0.54-0.38-0.96-0.38c-0.45,0-0.8,0.15-1.06,0.46c-0.26,0.31-0.39,0.71-0.39,1.21h-1.98
		c0-0.61,0.14-1.16,0.43-1.66c0.29-0.5,0.7-0.89,1.23-1.18c0.53-0.29,1.13-0.43,1.8-0.43c1.03,0,1.82,0.25,2.39,0.74
		s0.85,1.19,0.85,2.08c0,0.49-0.13,0.99-0.38,1.5c-0.25,0.51-0.69,1.11-1.31,1.78l-2.26,2.39h4.28V193.69z"/>
</g>
<g class="st2">
	<path class="st5" d="M361.55,168.69h-6.82v-1.35l3.22-3.43c0.44-0.48,0.77-0.9,0.98-1.26s0.32-0.7,0.32-1.03
		c0-0.44-0.11-0.79-0.33-1.04c-0.22-0.25-0.54-0.38-0.96-0.38c-0.45,0-0.8,0.15-1.06,0.46c-0.26,0.31-0.39,0.71-0.39,1.21h-1.98
		c0-0.61,0.14-1.16,0.43-1.66c0.29-0.5,0.7-0.89,1.23-1.18c0.53-0.29,1.13-0.43,1.8-0.43c1.03,0,1.82,0.25,2.39,0.74
		s0.85,1.19,0.85,2.08c0,0.49-0.13,0.99-0.38,1.5c-0.25,0.51-0.69,1.11-1.31,1.78l-2.26,2.39h4.28V168.69z"/>
	<path class="st5" d="M369.46,164.57c0,1.38-0.28,2.43-0.85,3.16c-0.57,0.73-1.4,1.09-2.5,1.09c-1.08,0-1.91-0.36-2.49-1.07
		s-0.87-1.74-0.88-3.08v-1.83c0-1.39,0.29-2.45,0.87-3.17c0.58-0.72,1.41-1.08,2.49-1.08c1.08,0,1.91,0.36,2.49,1.07
		c0.57,0.71,0.87,1.74,0.88,3.07V164.57z M367.48,162.56c0-0.83-0.11-1.43-0.34-1.8s-0.58-0.56-1.06-0.56
		c-0.46,0-0.81,0.18-1.03,0.54c-0.22,0.36-0.34,0.92-0.35,1.68v2.42c0,0.81,0.11,1.42,0.33,1.81c0.22,0.39,0.58,0.59,1.06,0.59
		c0.48,0,0.83-0.19,1.05-0.57c0.21-0.38,0.33-0.96,0.33-1.74V162.56z"/>
	<path class="st5" d="M377.62,168.69h-6.82v-1.35l3.22-3.43c0.44-0.48,0.77-0.9,0.98-1.26s0.32-0.7,0.32-1.03
		c0-0.44-0.11-0.79-0.33-1.04c-0.22-0.25-0.54-0.38-0.96-0.38c-0.45,0-0.8,0.15-1.06,0.46c-0.26,0.31-0.39,0.71-0.39,1.21h-1.98
		c0-0.61,0.14-1.16,0.43-1.66c0.29-0.5,0.7-0.89,1.23-1.18c0.53-0.29,1.13-0.43,1.8-0.43c1.03,0,1.82,0.25,2.39,0.74
		s0.85,1.19,0.85,2.08c0,0.49-0.13,0.99-0.38,1.5c-0.25,0.51-0.69,1.11-1.31,1.78l-2.26,2.39h4.28V168.69z"/>
</g>
<g class="st2">
	<path class="st4" d="M401.55,171.69h-1.98v-7.62l-2.36,0.73v-1.61l4.12-1.48h0.21V171.69z"/>
	<path class="st4" d="M409.41,167.71c-0.51,0.51-1.12,0.76-1.8,0.76c-0.88,0-1.58-0.3-2.11-0.91c-0.53-0.6-0.79-1.42-0.79-2.44
		c0-0.65,0.14-1.25,0.43-1.79c0.28-0.54,0.68-0.97,1.19-1.27c0.51-0.3,1.08-0.46,1.72-0.46c0.66,0,1.24,0.16,1.75,0.49
		c0.51,0.33,0.91,0.8,1.19,1.42c0.28,0.62,0.43,1.32,0.43,2.11v0.73c0,1.66-0.41,2.96-1.24,3.91c-0.82,0.95-1.99,1.45-3.51,1.52
		l-0.49,0.01v-1.65l0.44-0.01C408.34,170.05,409.27,169.24,409.41,167.71z M408.09,166.96c0.32,0,0.59-0.08,0.82-0.25
		c0.23-0.16,0.4-0.36,0.52-0.59v-0.81c0-0.67-0.13-1.19-0.38-1.56c-0.25-0.37-0.6-0.55-1.03-0.55c-0.4,0-0.72,0.18-0.98,0.54
		c-0.25,0.36-0.38,0.82-0.38,1.36c0,0.54,0.12,0.99,0.37,1.34C407.29,166.78,407.64,166.96,408.09,166.96z"/>
	<path class="st4" d="M418.18,161.63v1.63h-0.19c-0.89,0.01-1.61,0.25-2.16,0.7c-0.54,0.45-0.87,1.08-0.98,1.88
		c0.53-0.54,1.2-0.81,2-0.81c0.87,0,1.55,0.31,2.06,0.93c0.51,0.62,0.77,1.44,0.77,2.45c0,0.65-0.14,1.23-0.42,1.76
		s-0.68,0.93-1.19,1.22s-1.09,0.44-1.74,0.44c-1.05,0-1.89-0.36-2.54-1.09c-0.65-0.73-0.97-1.7-0.97-2.92v-0.71
		c0-1.08,0.2-2.03,0.61-2.86c0.41-0.83,0.99-1.47,1.76-1.92c0.76-0.45,1.65-0.68,2.66-0.69H418.18z M416.25,166.62
		c-0.32,0-0.61,0.08-0.87,0.25s-0.45,0.39-0.57,0.66v0.6c0,0.66,0.13,1.17,0.39,1.55c0.26,0.37,0.62,0.56,1.09,0.56
		c0.42,0,0.77-0.17,1.03-0.5c0.26-0.33,0.39-0.77,0.39-1.3c0-0.54-0.13-0.98-0.4-1.31C417.05,166.79,416.7,166.62,416.25,166.62z"/>
</g>
<g class="st2">
	<path class="st4" d="M441.58,212.69h-1.98v-7.62l-2.36,0.73v-1.61l4.12-1.48h0.21V212.69z"/>
	<path class="st4" d="M451.3,205.38c0,0.48-0.12,0.91-0.36,1.29c-0.24,0.37-0.57,0.67-1,0.9c0.48,0.23,0.87,0.55,1.15,0.96
		c0.28,0.41,0.42,0.89,0.42,1.44c0,0.88-0.3,1.58-0.9,2.09c-0.6,0.51-1.42,0.77-2.45,0.77c-1.03,0-1.85-0.26-2.46-0.77
		c-0.61-0.51-0.91-1.21-0.91-2.09c0-0.55,0.14-1.03,0.42-1.44c0.28-0.41,0.66-0.73,1.14-0.96c-0.42-0.22-0.75-0.52-0.99-0.9
		s-0.36-0.8-0.36-1.29c0-0.85,0.28-1.52,0.85-2.03c0.57-0.5,1.33-0.76,2.3-0.76c0.97,0,1.73,0.25,2.3,0.75
		C451.01,203.84,451.3,204.52,451.3,205.38z M449.53,209.82c0-0.43-0.12-0.78-0.38-1.04c-0.25-0.26-0.59-0.39-1.01-0.39
		c-0.42,0-0.75,0.13-1,0.39c-0.25,0.26-0.38,0.61-0.38,1.04c0,0.42,0.12,0.77,0.37,1.03s0.59,0.39,1.03,0.39
		c0.43,0,0.76-0.12,1.01-0.38C449.41,210.6,449.53,210.26,449.53,209.82z M449.32,205.47c0-0.39-0.1-0.7-0.31-0.93
		c-0.21-0.24-0.49-0.35-0.87-0.35c-0.37,0-0.66,0.11-0.86,0.34s-0.31,0.54-0.31,0.94c0,0.4,0.1,0.72,0.31,0.96s0.5,0.36,0.87,0.36
		c0.37,0,0.66-0.12,0.87-0.36C449.22,206.19,449.32,205.87,449.32,205.47z"/>
	<path class="st4" d="M458.2,202.63v1.63h-0.19c-0.89,0.01-1.61,0.25-2.16,0.7c-0.54,0.45-0.87,1.08-0.98,1.88
		c0.53-0.54,1.2-0.81,2-0.81c0.87,0,1.55,0.31,2.06,0.93c0.51,0.62,0.77,1.44,0.77,2.45c0,0.65-0.14,1.23-0.42,1.76
		s-0.68,0.93-1.19,1.22s-1.09,0.44-1.74,0.44c-1.05,0-1.89-0.36-2.54-1.09c-0.65-0.73-0.97-1.7-0.97-2.92v-0.71
		c0-1.08,0.2-2.03,0.61-2.86c0.41-0.83,0.99-1.47,1.76-1.92c0.76-0.45,1.65-0.68,2.66-0.69H458.2z M456.27,207.62
		c-0.32,0-0.61,0.08-0.87,0.25s-0.45,0.39-0.57,0.66v0.6c0,0.66,0.13,1.17,0.39,1.55c0.26,0.37,0.62,0.56,1.09,0.56
		c0.42,0,0.77-0.17,1.03-0.5c0.26-0.33,0.39-0.77,0.39-1.3c0-0.54-0.13-0.98-0.4-1.31C457.08,207.79,456.72,207.62,456.27,207.62z"
		/>
</g>
<g class="st2">
	<path class="st4" d="M487.63,91.69h-6.82v-1.35l3.22-3.43c0.44-0.48,0.77-0.9,0.98-1.26s0.32-0.7,0.32-1.03
		c0-0.44-0.11-0.79-0.33-1.04c-0.22-0.25-0.54-0.38-0.96-0.38c-0.45,0-0.8,0.15-1.06,0.46c-0.26,0.31-0.39,0.71-0.39,1.21h-1.98
		c0-0.61,0.14-1.16,0.43-1.66c0.29-0.5,0.7-0.89,1.23-1.18c0.53-0.29,1.13-0.43,1.8-0.43c1.03,0,1.82,0.25,2.39,0.74
		s0.85,1.19,0.85,2.08c0,0.49-0.13,0.99-0.38,1.5c-0.26,0.51-0.69,1.11-1.31,1.78l-2.26,2.39h4.28V91.69z"/>
	<path class="st4" d="M494.2,81.63v1.63H494c-0.89,0.01-1.61,0.25-2.16,0.7c-0.54,0.45-0.87,1.08-0.98,1.88
		c0.53-0.54,1.2-0.81,2-0.81c0.87,0,1.55,0.31,2.06,0.93c0.51,0.62,0.77,1.44,0.77,2.45c0,0.65-0.14,1.23-0.42,1.76
		s-0.68,0.93-1.19,1.22s-1.09,0.44-1.74,0.44c-1.05,0-1.89-0.36-2.54-1.09c-0.64-0.73-0.97-1.7-0.97-2.92V87.1
		c0-1.08,0.2-2.03,0.61-2.86c0.41-0.83,0.99-1.47,1.76-1.92c0.76-0.45,1.65-0.68,2.66-0.69H494.2z M492.27,86.62
		c-0.32,0-0.61,0.08-0.87,0.25s-0.45,0.39-0.57,0.66v0.6c0,0.66,0.13,1.17,0.39,1.55c0.26,0.37,0.62,0.56,1.09,0.56
		c0.42,0,0.77-0.17,1.03-0.5c0.26-0.33,0.39-0.77,0.39-1.3c0-0.54-0.13-0.98-0.4-1.31C493.07,86.79,492.71,86.62,492.27,86.62z"/>
	<path class="st4" d="M503.57,87.57c0,1.38-0.29,2.43-0.85,3.16c-0.57,0.73-1.4,1.09-2.5,1.09c-1.08,0-1.91-0.36-2.49-1.07
		s-0.87-1.74-0.88-3.08v-1.83c0-1.39,0.29-2.45,0.86-3.17c0.58-0.72,1.41-1.08,2.49-1.08c1.08,0,1.91,0.36,2.49,1.07
		c0.57,0.71,0.87,1.74,0.88,3.07V87.57z M501.59,85.56c0-0.83-0.11-1.43-0.34-1.8s-0.58-0.56-1.06-0.56c-0.46,0-0.81,0.18-1.03,0.54
		c-0.22,0.36-0.34,0.92-0.35,1.68v2.42c0,0.81,0.11,1.42,0.33,1.81c0.22,0.39,0.58,0.59,1.06,0.59c0.48,0,0.83-0.19,1.05-0.57
		c0.21-0.38,0.33-0.96,0.33-1.74V85.56z"/>
</g>
<g class="st2">
	<path class="st4" d="M539.63,223.69h-1.98v-7.62l-2.36,0.73v-1.61l4.12-1.48h0.21V223.69z"/>
	<path class="st4" d="M548.22,213.63v1.63h-0.19c-0.89,0.01-1.61,0.25-2.16,0.7c-0.54,0.45-0.87,1.08-0.98,1.88
		c0.53-0.54,1.2-0.81,2-0.81c0.87,0,1.55,0.31,2.06,0.93c0.51,0.62,0.77,1.44,0.77,2.45c0,0.65-0.14,1.23-0.42,1.76
		s-0.68,0.93-1.19,1.22s-1.09,0.44-1.74,0.44c-1.05,0-1.89-0.36-2.54-1.09c-0.65-0.73-0.97-1.7-0.97-2.92v-0.71
		c0-1.08,0.2-2.03,0.61-2.86c0.41-0.83,0.99-1.47,1.76-1.92c0.76-0.45,1.65-0.68,2.66-0.69H548.22z M546.29,218.62
		c-0.32,0-0.61,0.08-0.87,0.25s-0.45,0.39-0.57,0.66v0.6c0,0.66,0.13,1.17,0.39,1.55c0.26,0.37,0.62,0.56,1.09,0.56
		c0.42,0,0.77-0.17,1.03-0.5c0.26-0.33,0.39-0.77,0.39-1.3c0-0.54-0.13-0.98-0.4-1.31C547.09,218.79,546.74,218.62,546.29,218.62z"
		/>
	<path class="st4" d="M556.74,219.94h1.13v1.59h-1.13v2.15h-1.98v-2.15h-4.08l-0.09-1.24l4.15-6.56h2V219.94z M552.56,219.94h2.2
		v-3.51l-0.13,0.23L552.56,219.94z"/>
</g>
<rect x="57.56" y="386.94" class="st0" width="30.73" height="41.5"/>
<rect x="99.31" y="361.94" class="st0" width="30.73" height="66.5"/>
<rect x="141.06" y="358.69" class="st0" width="30.73" height="69.75"/>
<rect x="182.82" y="292.69" class="st0" width="30.73" height="135.75"/>
<rect x="224.57" y="289.69" class="st0" width="30.73" height="138.75"/>
<rect x="391.57" y="269.44" class="st0" width="30.73" height="159"/>
<rect x="433.33" y="268.44" class="st0" width="30.73" height="160"/>
<g class="st2">
	<path class="st0" d="M24.79,428.94c0,1.38-0.28,2.43-0.85,3.16s-1.4,1.09-2.5,1.09c-1.08,0-1.91-0.36-2.49-1.07
		s-0.87-1.74-0.88-3.08v-1.83c0-1.39,0.29-2.45,0.86-3.17s1.41-1.08,2.49-1.08s1.91,0.36,2.49,1.07c0.57,0.71,0.87,1.74,0.88,3.07
		V428.94z M22.81,426.93c0-0.83-0.11-1.43-0.34-1.8s-0.58-0.56-1.06-0.56c-0.46,0-0.81,0.18-1.03,0.54s-0.34,0.92-0.35,1.68v2.42
		c0,0.81,0.11,1.42,0.33,1.81s0.58,0.59,1.06,0.59c0.48,0,0.83-0.19,1.05-0.57c0.21-0.38,0.33-0.96,0.33-1.74V426.93z"/>
</g>
<g class="st2">
	<path class="st4" d="M585.19,428.94c0,1.38-0.28,2.43-0.85,3.16c-0.57,0.73-1.4,1.09-2.5,1.09c-1.08,0-1.91-0.36-2.49-1.07
		s-0.87-1.74-0.88-3.08v-1.83c0-1.39,0.29-2.45,0.87-3.17c0.58-0.72,1.41-1.08,2.49-1.08c1.08,0,1.91,0.36,2.49,1.07
		c0.57,0.71,0.87,1.74,0.88,3.07V428.94z M583.21,426.93c0-0.83-0.11-1.43-0.34-1.8s-0.58-0.56-1.06-0.56
		c-0.46,0-0.81,0.18-1.03,0.54c-0.22,0.36-0.34,0.92-0.35,1.68v2.42c0,0.81,0.11,1.42,0.33,1.81c0.22,0.39,0.58,0.59,1.06,0.59
		c0.48,0,0.83-0.19,1.05-0.57c0.21-0.38,0.33-0.96,0.33-1.74V426.93z"/>
</g>
<g class="st2">
	<path class="st4" d="M570.75,365.67l0.57-5.06h5.58v1.65h-3.96l-0.25,2.14c0.47-0.25,0.97-0.38,1.5-0.38
		c0.95,0,1.69,0.29,2.23,0.88c0.54,0.59,0.81,1.41,0.81,2.47c0,0.64-0.14,1.22-0.41,1.73c-0.27,0.51-0.66,0.9-1.17,1.18
		c-0.51,0.28-1.1,0.42-1.79,0.42c-0.6,0-1.16-0.12-1.67-0.37c-0.51-0.24-0.92-0.59-1.22-1.03c-0.3-0.44-0.46-0.95-0.48-1.51h1.96
		c0.04,0.42,0.19,0.74,0.43,0.97c0.25,0.23,0.57,0.34,0.97,0.34c0.45,0,0.79-0.16,1.03-0.48c0.24-0.32,0.36-0.78,0.36-1.36
		c0-0.57-0.14-1-0.42-1.3c-0.28-0.3-0.67-0.45-1.18-0.45c-0.47,0-0.85,0.12-1.14,0.37l-0.19,0.18L570.75,365.67z"/>
	<path class="st4" d="M585.19,366.45c0,1.38-0.28,2.43-0.85,3.16c-0.57,0.73-1.4,1.09-2.5,1.09c-1.08,0-1.91-0.36-2.49-1.07
		s-0.87-1.74-0.88-3.08v-1.83c0-1.39,0.29-2.45,0.87-3.17c0.58-0.72,1.41-1.08,2.49-1.08c1.08,0,1.91,0.36,2.49,1.07
		c0.57,0.71,0.87,1.74,0.88,3.07V366.45z M583.21,364.44c0-0.83-0.11-1.43-0.34-1.8s-0.58-0.56-1.06-0.56
		c-0.46,0-0.81,0.18-1.03,0.54c-0.22,0.36-0.34,0.92-0.35,1.68v2.42c0,0.81,0.11,1.42,0.33,1.81c0.22,0.39,0.58,0.59,1.06,0.59
		c0.48,0,0.83-0.19,1.05-0.57c0.21-0.38,0.33-0.96,0.33-1.74V364.44z"/>
</g>
<g class="st2">
	<path class="st4" d="M567.22,308.07h-1.98v-7.62l-2.36,0.73v-1.61l4.12-1.48h0.21V308.07z"/>
	<path class="st4" d="M577.16,303.96c0,1.38-0.28,2.43-0.85,3.16c-0.57,0.73-1.4,1.09-2.5,1.09c-1.08,0-1.91-0.36-2.49-1.07
		s-0.87-1.74-0.88-3.08v-1.83c0-1.39,0.29-2.45,0.87-3.17c0.58-0.72,1.41-1.08,2.49-1.08c1.08,0,1.91,0.36,2.49,1.07
		c0.57,0.71,0.87,1.74,0.88,3.07V303.96z M575.18,301.94c0-0.83-0.11-1.43-0.34-1.8s-0.58-0.56-1.06-0.56
		c-0.46,0-0.81,0.18-1.03,0.54c-0.22,0.36-0.34,0.92-0.35,1.68v2.42c0,0.81,0.11,1.42,0.33,1.81c0.22,0.39,0.58,0.59,1.06,0.59
		c0.48,0,0.83-0.19,1.05-0.57c0.21-0.38,0.33-0.96,0.33-1.74V301.94z"/>
	<path class="st4" d="M585.19,303.96c0,1.38-0.28,2.43-0.85,3.16c-0.57,0.73-1.4,1.09-2.5,1.09c-1.08,0-1.91-0.36-2.49-1.07
		s-0.87-1.74-0.88-3.08v-1.83c0-1.39,0.29-2.45,0.87-3.17c0.58-0.72,1.41-1.08,2.49-1.08c1.08,0,1.91,0.36,2.49,1.07
		c0.57,0.71,0.87,1.74,0.88,3.07V303.96z M583.21,301.94c0-0.83-0.11-1.43-0.34-1.8s-0.58-0.56-1.06-0.56
		c-0.46,0-0.81,0.18-1.03,0.54c-0.22,0.36-0.34,0.92-0.35,1.68v2.42c0,0.81,0.11,1.42,0.33,1.81c0.22,0.39,0.58,0.59,1.06,0.59
		c0.48,0,0.83-0.19,1.05-0.57c0.21-0.38,0.33-0.96,0.33-1.74V301.94z"/>
</g>
<g class="st2">
	<path class="st4" d="M567.22,245.58h-1.98v-7.62l-2.36,0.73v-1.61l4.12-1.48h0.21V245.58z"/>
	<path class="st4" d="M570.75,240.69l0.57-5.06h5.58v1.65h-3.96l-0.25,2.14c0.47-0.25,0.97-0.38,1.5-0.38
		c0.95,0,1.69,0.29,2.23,0.88c0.54,0.59,0.81,1.41,0.81,2.47c0,0.64-0.14,1.22-0.41,1.73c-0.27,0.51-0.66,0.9-1.17,1.18
		c-0.51,0.28-1.1,0.42-1.79,0.42c-0.6,0-1.16-0.12-1.67-0.37c-0.51-0.24-0.92-0.59-1.22-1.03c-0.3-0.44-0.46-0.95-0.48-1.51h1.96
		c0.04,0.42,0.19,0.74,0.43,0.97c0.25,0.23,0.57,0.34,0.97,0.34c0.45,0,0.79-0.16,1.03-0.48c0.24-0.32,0.36-0.78,0.36-1.36
		c0-0.57-0.14-1-0.42-1.3c-0.28-0.3-0.67-0.45-1.18-0.45c-0.47,0-0.85,0.12-1.14,0.37l-0.19,0.18L570.75,240.69z"/>
	<path class="st4" d="M585.19,241.47c0,1.38-0.28,2.43-0.85,3.16c-0.57,0.73-1.4,1.09-2.5,1.09c-1.08,0-1.91-0.36-2.49-1.07
		s-0.87-1.74-0.88-3.08v-1.83c0-1.39,0.29-2.45,0.87-3.17c0.58-0.72,1.41-1.08,2.49-1.08c1.08,0,1.91,0.36,2.49,1.07
		c0.57,0.71,0.87,1.74,0.88,3.07V241.47z M583.21,239.45c0-0.83-0.11-1.43-0.34-1.8s-0.58-0.56-1.06-0.56
		c-0.46,0-0.81,0.18-1.03,0.54c-0.22,0.36-0.34,0.92-0.35,1.68v2.42c0,0.81,0.11,1.42,0.33,1.81c0.22,0.39,0.58,0.59,1.06,0.59
		c0.48,0,0.83-0.19,1.05-0.57c0.21-0.38,0.33-0.96,0.33-1.74V239.45z"/>
</g>
<g class="st2">
	<path class="st4" d="M569.25,183.09h-6.82v-1.35l3.22-3.43c0.44-0.48,0.77-0.9,0.98-1.26s0.32-0.7,0.32-1.03
		c0-0.44-0.11-0.79-0.33-1.04c-0.22-0.25-0.54-0.38-0.96-0.38c-0.45,0-0.8,0.15-1.06,0.46c-0.26,0.31-0.39,0.71-0.39,1.21h-1.98
		c0-0.61,0.14-1.16,0.43-1.66c0.29-0.5,0.7-0.89,1.23-1.18c0.53-0.29,1.13-0.43,1.8-0.43c1.03,0,1.82,0.25,2.39,0.74
		s0.85,1.19,0.85,2.08c0,0.49-0.13,0.99-0.38,1.5c-0.25,0.51-0.69,1.11-1.31,1.78l-2.26,2.39h4.28V183.09z"/>
	<path class="st4" d="M577.16,178.98c0,1.38-0.28,2.43-0.85,3.16c-0.57,0.73-1.4,1.09-2.5,1.09c-1.08,0-1.91-0.36-2.49-1.07
		s-0.87-1.74-0.88-3.08v-1.83c0-1.39,0.29-2.45,0.87-3.17c0.58-0.72,1.41-1.08,2.49-1.08c1.08,0,1.91,0.36,2.49,1.07
		c0.57,0.71,0.87,1.74,0.88,3.07V178.98z M575.18,176.96c0-0.83-0.11-1.43-0.34-1.8s-0.58-0.56-1.06-0.56
		c-0.46,0-0.81,0.18-1.03,0.54c-0.22,0.36-0.34,0.92-0.35,1.68v2.42c0,0.81,0.11,1.42,0.33,1.81c0.22,0.39,0.58,0.59,1.06,0.59
		c0.48,0,0.83-0.19,1.05-0.57c0.21-0.38,0.33-0.96,0.33-1.74V176.96z"/>
	<path class="st4" d="M585.19,178.98c0,1.38-0.28,2.43-0.85,3.16c-0.57,0.73-1.4,1.09-2.5,1.09c-1.08,0-1.91-0.36-2.49-1.07
		s-0.87-1.74-0.88-3.08v-1.83c0-1.39,0.29-2.45,0.87-3.17c0.58-0.72,1.41-1.08,2.49-1.08c1.08,0,1.91,0.36,2.49,1.07
		c0.57,0.71,0.87,1.74,0.88,3.07V178.98z M583.21,176.96c0-0.83-0.11-1.43-0.34-1.8s-0.58-0.56-1.06-0.56
		c-0.46,0-0.81,0.18-1.03,0.54c-0.22,0.36-0.34,0.92-0.35,1.68v2.42c0,0.81,0.11,1.42,0.33,1.81c0.22,0.39,0.58,0.59,1.06,0.59
		c0.48,0,0.83-0.19,1.05-0.57c0.21-0.38,0.33-0.96,0.33-1.74V176.96z"/>
</g>
<g class="st2">
	<path class="st4" d="M569.25,120.6h-6.82v-1.35l3.22-3.43c0.44-0.48,0.77-0.9,0.98-1.26s0.32-0.7,0.32-1.03
		c0-0.44-0.11-0.79-0.33-1.04c-0.22-0.25-0.54-0.38-0.96-0.38c-0.45,0-0.8,0.15-1.06,0.46c-0.26,0.31-0.39,0.71-0.39,1.21h-1.98
		c0-0.61,0.14-1.16,0.43-1.66c0.29-0.5,0.7-0.89,1.23-1.18c0.53-0.29,1.13-0.43,1.8-0.43c1.03,0,1.82,0.25,2.39,0.74
		s0.85,1.19,0.85,2.08c0,0.49-0.13,0.99-0.38,1.5c-0.25,0.51-0.69,1.11-1.31,1.78l-2.26,2.39h4.28V120.6z"/>
	<path class="st4" d="M570.75,115.71l0.57-5.06h5.58v1.65h-3.96l-0.25,2.14c0.47-0.25,0.97-0.38,1.5-0.38
		c0.95,0,1.69,0.29,2.23,0.88c0.54,0.59,0.81,1.41,0.81,2.47c0,0.64-0.14,1.22-0.41,1.73c-0.27,0.51-0.66,0.9-1.17,1.18
		c-0.51,0.28-1.1,0.42-1.79,0.42c-0.6,0-1.16-0.12-1.67-0.37c-0.51-0.24-0.92-0.59-1.22-1.03c-0.3-0.44-0.46-0.95-0.48-1.51h1.96
		c0.04,0.42,0.19,0.74,0.43,0.97c0.25,0.23,0.57,0.34,0.97,0.34c0.45,0,0.79-0.16,1.03-0.48c0.24-0.32,0.36-0.78,0.36-1.36
		c0-0.57-0.14-1-0.42-1.3c-0.28-0.3-0.67-0.45-1.18-0.45c-0.47,0-0.85,0.12-1.14,0.37l-0.19,0.18L570.75,115.71z"/>
	<path class="st4" d="M585.19,116.48c0,1.38-0.28,2.43-0.85,3.16c-0.57,0.73-1.4,1.09-2.5,1.09c-1.08,0-1.91-0.36-2.49-1.07
		s-0.87-1.74-0.88-3.08v-1.83c0-1.39,0.29-2.45,0.87-3.17c0.58-0.72,1.41-1.08,2.49-1.08c1.08,0,1.91,0.36,2.49,1.07
		c0.57,0.71,0.87,1.74,0.88,3.07V116.48z M583.21,114.47c0-0.83-0.11-1.43-0.34-1.8s-0.58-0.56-1.06-0.56
		c-0.46,0-0.81,0.18-1.03,0.54c-0.22,0.36-0.34,0.92-0.35,1.68v2.42c0,0.81,0.11,1.42,0.33,1.81c0.22,0.39,0.58,0.59,1.06,0.59
		c0.48,0,0.83-0.19,1.05-0.57c0.21-0.38,0.33-0.96,0.33-1.74V114.47z"/>
</g>
<g class="st2">
	<path class="st4" d="M544.15,98.37v-9.95h3.06c0.88,0,1.66,0.2,2.35,0.59c0.69,0.39,1.23,0.95,1.62,1.68
		c0.39,0.73,0.58,1.55,0.58,2.48v0.46c0,0.92-0.19,1.75-0.57,2.47c-0.38,0.72-0.92,1.28-1.61,1.67c-0.69,0.4-1.47,0.6-2.34,0.6
		H544.15z M546.2,90.08v6.64h0.99c0.8,0,1.42-0.26,1.84-0.79s0.64-1.27,0.65-2.25v-0.53c0-1.01-0.21-1.78-0.63-2.3
		c-0.42-0.52-1.03-0.78-1.84-0.78H546.2z"/>
	<path class="st4" d="M559.24,94.06h-3.94v2.67h4.62v1.65h-6.67v-9.95h6.66v1.66h-4.61v2.37h3.94V94.06z"/>
	<path class="st4" d="M566.75,96.32h-3.6l-0.68,2.05h-2.18l3.71-9.95h1.9l3.73,9.95h-2.18L566.75,96.32z M563.7,94.66h2.49
		l-1.25-3.73L563.7,94.66z"/>
	<path class="st4" d="M572.6,96.73h4.35v1.65h-6.41v-9.95h2.05V96.73z"/>
	<path class="st4" d="M583.29,95.76c0-0.39-0.14-0.68-0.41-0.89c-0.27-0.21-0.77-0.43-1.48-0.66c-0.71-0.23-1.27-0.46-1.69-0.68
		c-1.13-0.61-1.7-1.43-1.7-2.47c0-0.54,0.15-1.02,0.46-1.44c0.3-0.42,0.74-0.75,1.31-0.99s1.2-0.36,1.91-0.36
		c0.71,0,1.34,0.13,1.9,0.39c0.56,0.26,0.99,0.62,1.3,1.09s0.46,1,0.46,1.6h-2.05c0-0.46-0.14-0.81-0.43-1.06
		c-0.29-0.25-0.69-0.38-1.21-0.38c-0.5,0-0.89,0.11-1.17,0.32c-0.28,0.21-0.42,0.49-0.42,0.84c0,0.32,0.16,0.59,0.49,0.81
		c0.33,0.22,0.81,0.42,1.44,0.62c1.17,0.35,2.02,0.79,2.55,1.31s0.8,1.17,0.8,1.94c0,0.86-0.33,1.54-0.98,2.03
		c-0.65,0.49-1.53,0.73-2.63,0.73c-0.77,0-1.46-0.14-2.09-0.42c-0.63-0.28-1.11-0.67-1.44-1.15c-0.33-0.49-0.5-1.05-0.5-1.7h2.06
		c0,1.1,0.66,1.65,1.97,1.65c0.49,0,0.87-0.1,1.14-0.3C583.15,96.4,583.29,96.12,583.29,95.76z"/>
</g>
<g class="st2">
	<path class="st0" d="M24.91,383.46h-6.82v-1.35l3.22-3.43c0.44-0.48,0.77-0.9,0.98-1.26s0.32-0.7,0.32-1.03
		c0-0.44-0.11-0.79-0.33-1.04c-0.22-0.25-0.54-0.38-0.96-0.38c-0.45,0-0.8,0.15-1.06,0.46c-0.26,0.31-0.39,0.71-0.39,1.21h-1.98
		c0-0.61,0.14-1.16,0.43-1.66s0.7-0.89,1.23-1.18c0.53-0.29,1.13-0.43,1.8-0.43c1.03,0,1.82,0.25,2.39,0.74s0.85,1.19,0.85,2.08
		c0,0.49-0.13,0.99-0.38,1.5s-0.69,1.11-1.31,1.78l-2.26,2.39h4.28V383.46z"/>
	<path class="st0" d="M32.82,379.35c0,1.38-0.28,2.43-0.85,3.16s-1.4,1.09-2.5,1.09c-1.08,0-1.91-0.36-2.49-1.07
		s-0.87-1.74-0.88-3.08v-1.83c0-1.39,0.29-2.45,0.86-3.17s1.41-1.08,2.49-1.08s1.91,0.36,2.49,1.07c0.57,0.71,0.87,1.74,0.88,3.07
		V379.35z M30.84,377.33c0-0.83-0.11-1.43-0.34-1.8s-0.58-0.56-1.06-0.56c-0.46,0-0.81,0.18-1.03,0.54s-0.34,0.92-0.35,1.68v2.42
		c0,0.81,0.11,1.42,0.33,1.81s0.58,0.59,1.06,0.59c0.48,0,0.83-0.19,1.05-0.57c0.21-0.38,0.33-0.96,0.33-1.74V377.33z"/>
	<path class="st0" d="M40.85,379.35c0,1.38-0.28,2.43-0.85,3.16s-1.4,1.09-2.5,1.09c-1.08,0-1.91-0.36-2.49-1.07
		s-0.87-1.74-0.88-3.08v-1.83c0-1.39,0.29-2.45,0.86-3.17s1.41-1.08,2.49-1.08s1.91,0.36,2.49,1.07c0.57,0.71,0.87,1.74,0.88,3.07
		V379.35z M38.88,377.33c0-0.83-0.11-1.43-0.34-1.8s-0.58-0.56-1.06-0.56c-0.46,0-0.81,0.18-1.03,0.54s-0.34,0.92-0.35,1.68v2.42
		c0,0.81,0.11,1.42,0.33,1.81s0.58,0.59,1.06,0.59c0.48,0,0.83-0.19,1.05-0.57c0.21-0.38,0.33-0.96,0.33-1.74V377.33z"/>
</g>
<g class="st2">
	<path class="st0" d="M23.93,330.12h1.13v1.59h-1.13v2.15h-1.98v-2.15h-4.08l-0.09-1.24l4.15-6.56h2V330.12z M19.76,330.12h2.2
		v-3.51l-0.13,0.23L19.76,330.12z"/>
	<path class="st0" d="M32.82,329.75c0,1.38-0.28,2.43-0.85,3.16s-1.4,1.09-2.5,1.09c-1.08,0-1.91-0.36-2.49-1.07
		s-0.87-1.74-0.88-3.08v-1.83c0-1.39,0.29-2.45,0.86-3.17s1.41-1.08,2.49-1.08s1.91,0.36,2.49,1.07c0.57,0.71,0.87,1.74,0.88,3.07
		V329.75z M30.84,327.74c0-0.83-0.11-1.43-0.34-1.8s-0.58-0.56-1.06-0.56c-0.46,0-0.81,0.18-1.03,0.54s-0.34,0.92-0.35,1.68v2.42
		c0,0.81,0.11,1.42,0.33,1.81s0.58,0.59,1.06,0.59c0.48,0,0.83-0.19,1.05-0.57c0.21-0.38,0.33-0.96,0.33-1.74V327.74z"/>
	<path class="st0" d="M40.85,329.75c0,1.38-0.28,2.43-0.85,3.16s-1.4,1.09-2.5,1.09c-1.08,0-1.91-0.36-2.49-1.07
		s-0.87-1.74-0.88-3.08v-1.83c0-1.39,0.29-2.45,0.86-3.17s1.41-1.08,2.49-1.08s1.91,0.36,2.49,1.07c0.57,0.71,0.87,1.74,0.88,3.07
		V329.75z M38.88,327.74c0-0.83-0.11-1.43-0.34-1.8s-0.58-0.56-1.06-0.56c-0.46,0-0.81,0.18-1.03,0.54s-0.34,0.92-0.35,1.68v2.42
		c0,0.81,0.11,1.42,0.33,1.81s0.58,0.59,1.06,0.59c0.48,0,0.83-0.19,1.05-0.57c0.21-0.38,0.33-0.96,0.33-1.74V327.74z"/>
</g>
<g class="st2">
	<path class="st0" d="M23.45,274.22v1.63h-0.19c-0.89,0.01-1.61,0.25-2.16,0.7s-0.87,1.08-0.98,1.88c0.53-0.54,1.2-0.81,2-0.81
		c0.87,0,1.55,0.31,2.06,0.93s0.77,1.44,0.77,2.45c0,0.65-0.14,1.23-0.42,1.76s-0.68,0.93-1.19,1.22s-1.09,0.44-1.74,0.44
		c-1.05,0-1.89-0.36-2.54-1.09s-0.97-1.7-0.97-2.92v-0.71c0-1.08,0.2-2.03,0.61-2.86c0.41-0.83,0.99-1.47,1.76-1.92
		c0.76-0.45,1.65-0.68,2.66-0.69H23.45z M21.52,279.21c-0.32,0-0.61,0.08-0.87,0.25s-0.45,0.39-0.57,0.66v0.6
		c0,0.66,0.13,1.17,0.39,1.55c0.26,0.37,0.62,0.56,1.09,0.56c0.42,0,0.77-0.17,1.03-0.5c0.26-0.33,0.39-0.77,0.39-1.3
		c0-0.54-0.13-0.98-0.4-1.31S21.97,279.21,21.52,279.21z"/>
	<path class="st0" d="M32.82,280.16c0,1.38-0.28,2.43-0.85,3.16s-1.4,1.09-2.5,1.09c-1.08,0-1.91-0.36-2.49-1.07
		s-0.87-1.74-0.88-3.08v-1.83c0-1.39,0.29-2.45,0.86-3.17s1.41-1.08,2.49-1.08s1.91,0.36,2.49,1.07c0.57,0.71,0.87,1.74,0.88,3.07
		V280.16z M30.84,278.14c0-0.83-0.11-1.43-0.34-1.8s-0.58-0.56-1.06-0.56c-0.46,0-0.81,0.18-1.03,0.54s-0.34,0.92-0.35,1.68v2.42
		c0,0.81,0.11,1.42,0.33,1.81s0.58,0.59,1.06,0.59c0.48,0,0.83-0.19,1.05-0.57c0.21-0.38,0.33-0.96,0.33-1.74V278.14z"/>
	<path class="st0" d="M40.85,280.16c0,1.38-0.28,2.43-0.85,3.16s-1.4,1.09-2.5,1.09c-1.08,0-1.91-0.36-2.49-1.07
		s-0.87-1.74-0.88-3.08v-1.83c0-1.39,0.29-2.45,0.86-3.17s1.41-1.08,2.49-1.08s1.91,0.36,2.49,1.07c0.57,0.71,0.87,1.74,0.88,3.07
		V280.16z M38.88,278.14c0-0.83-0.11-1.43-0.34-1.8s-0.58-0.56-1.06-0.56c-0.46,0-0.81,0.18-1.03,0.54s-0.34,0.92-0.35,1.68v2.42
		c0,0.81,0.11,1.42,0.33,1.81s0.58,0.59,1.06,0.59c0.48,0,0.83-0.19,1.05-0.57c0.21-0.38,0.33-0.96,0.33-1.74V278.14z"/>
</g>
<g class="st2">
	<path class="st0" d="M24.58,227.37c0,0.48-0.12,0.91-0.36,1.29s-0.57,0.67-1,0.9c0.48,0.23,0.87,0.55,1.15,0.96
		c0.28,0.41,0.42,0.89,0.42,1.44c0,0.88-0.3,1.58-0.9,2.09c-0.6,0.51-1.42,0.77-2.45,0.77s-1.85-0.26-2.46-0.77
		s-0.91-1.21-0.91-2.09c0-0.55,0.14-1.03,0.42-1.44s0.66-0.73,1.14-0.96c-0.42-0.22-0.76-0.52-0.99-0.9s-0.36-0.8-0.36-1.29
		c0-0.85,0.28-1.52,0.85-2.03c0.56-0.5,1.33-0.76,2.3-0.76c0.97,0,1.73,0.25,2.3,0.75C24.29,225.84,24.58,226.51,24.58,227.37z
		 M22.81,231.81c0-0.43-0.13-0.78-0.38-1.04s-0.59-0.39-1.01-0.39c-0.42,0-0.75,0.13-1,0.39c-0.25,0.26-0.38,0.61-0.38,1.04
		c0,0.42,0.12,0.77,0.37,1.03s0.59,0.39,1.03,0.39c0.43,0,0.76-0.12,1.01-0.38S22.81,232.25,22.81,231.81z M22.6,227.47
		c0-0.39-0.1-0.7-0.31-0.93c-0.21-0.24-0.49-0.35-0.87-0.35c-0.37,0-0.66,0.11-0.86,0.34s-0.31,0.54-0.31,0.94
		c0,0.4,0.1,0.72,0.31,0.96s0.49,0.36,0.87,0.36s0.66-0.12,0.86-0.36S22.6,227.86,22.6,227.47z"/>
	<path class="st0" d="M32.82,230.56c0,1.38-0.28,2.43-0.85,3.16s-1.4,1.09-2.5,1.09c-1.08,0-1.91-0.36-2.49-1.07
		s-0.87-1.74-0.88-3.08v-1.83c0-1.39,0.29-2.45,0.86-3.17s1.41-1.08,2.49-1.08s1.91,0.36,2.49,1.07c0.57,0.71,0.87,1.74,0.88,3.07
		V230.56z M30.84,228.55c0-0.83-0.11-1.43-0.34-1.8s-0.58-0.56-1.06-0.56c-0.46,0-0.81,0.18-1.03,0.54s-0.34,0.92-0.35,1.68v2.42
		c0,0.81,0.11,1.42,0.33,1.81s0.58,0.59,1.06,0.59c0.48,0,0.83-0.19,1.05-0.57c0.21-0.38,0.33-0.96,0.33-1.74V228.55z"/>
	<path class="st0" d="M40.85,230.56c0,1.38-0.28,2.43-0.85,3.16s-1.4,1.09-2.5,1.09c-1.08,0-1.91-0.36-2.49-1.07
		s-0.87-1.74-0.88-3.08v-1.83c0-1.39,0.29-2.45,0.86-3.17s1.41-1.08,2.49-1.08s1.91,0.36,2.49,1.07c0.57,0.71,0.87,1.74,0.88,3.07
		V230.56z M38.88,228.55c0-0.83-0.11-1.43-0.34-1.8s-0.58-0.56-1.06-0.56c-0.46,0-0.81,0.18-1.03,0.54s-0.34,0.92-0.35,1.68v2.42
		c0,0.81,0.11,1.42,0.33,1.81s0.58,0.59,1.06,0.59c0.48,0,0.83-0.19,1.05-0.57c0.21-0.38,0.33-0.96,0.33-1.74V228.55z"/>
</g>
<g class="st2">
	<path class="st0" d="M22.89,185.08h-1.98v-7.62l-2.36,0.73v-1.61l4.12-1.48h0.21V185.08z"/>
	<path class="st0" d="M26.72,187.58l-1.03-0.54l0.25-0.44c0.31-0.56,0.46-1.11,0.47-1.66v-1.53h1.67l-0.01,1.37
		c0,0.51-0.13,1.02-0.38,1.53S27.11,187.24,26.72,187.58z"/>
	<path class="st0" d="M36.24,180.97c0,1.38-0.28,2.43-0.85,3.16s-1.4,1.09-2.5,1.09c-1.08,0-1.91-0.36-2.49-1.07
		s-0.87-1.74-0.88-3.08v-1.83c0-1.39,0.29-2.45,0.86-3.17s1.41-1.08,2.49-1.08s1.91,0.36,2.49,1.07c0.57,0.71,0.87,1.74,0.88,3.07
		V180.97z M34.26,178.95c0-0.83-0.11-1.43-0.34-1.8s-0.58-0.56-1.06-0.56c-0.46,0-0.81,0.18-1.03,0.54s-0.34,0.92-0.35,1.68v2.42
		c0,0.81,0.11,1.42,0.33,1.81s0.58,0.59,1.06,0.59c0.48,0,0.83-0.19,1.05-0.57c0.21-0.38,0.33-0.96,0.33-1.74V178.95z"/>
	<path class="st0" d="M44.27,180.97c0,1.38-0.28,2.43-0.85,3.16s-1.4,1.09-2.5,1.09c-1.08,0-1.91-0.36-2.49-1.07
		s-0.87-1.74-0.88-3.08v-1.83c0-1.39,0.29-2.45,0.86-3.17s1.41-1.08,2.49-1.08s1.91,0.36,2.49,1.07c0.57,0.71,0.87,1.74,0.88,3.07
		V180.97z M42.29,178.95c0-0.83-0.11-1.43-0.34-1.8s-0.58-0.56-1.06-0.56c-0.46,0-0.81,0.18-1.03,0.54s-0.34,0.92-0.35,1.68v2.42
		c0,0.81,0.11,1.42,0.33,1.81s0.58,0.59,1.06,0.59c0.48,0,0.83-0.19,1.05-0.57c0.21-0.38,0.33-0.96,0.33-1.74V178.95z"/>
	<path class="st0" d="M52.3,180.97c0,1.38-0.28,2.43-0.85,3.16s-1.4,1.09-2.5,1.09c-1.08,0-1.91-0.36-2.49-1.07
		s-0.87-1.74-0.88-3.08v-1.83c0-1.39,0.29-2.45,0.86-3.17s1.41-1.08,2.49-1.08s1.91,0.36,2.49,1.07c0.57,0.71,0.87,1.74,0.88,3.07
		V180.97z M50.33,178.95c0-0.83-0.11-1.43-0.34-1.8s-0.58-0.56-1.06-0.56c-0.46,0-0.81,0.18-1.03,0.54s-0.34,0.92-0.35,1.68v2.42
		c0,0.81,0.11,1.42,0.33,1.81s0.58,0.59,1.06,0.59c0.48,0,0.83-0.19,1.05-0.57c0.21-0.38,0.33-0.96,0.33-1.74V178.95z"/>
</g>
<g class="st2">
	<path class="st0" d="M22.89,135.49h-1.98v-7.62l-2.36,0.73V127l4.12-1.48h0.21V135.49z"/>
	<path class="st0" d="M26.72,137.98l-1.03-0.54l0.25-0.44c0.31-0.56,0.46-1.11,0.47-1.66v-1.53h1.67l-0.01,1.37
		c0,0.51-0.13,1.02-0.38,1.53S27.11,137.65,26.72,137.98z"/>
	<path class="st0" d="M36.36,135.49h-6.82v-1.35l3.22-3.43c0.44-0.48,0.77-0.9,0.98-1.26s0.32-0.7,0.32-1.03
		c0-0.44-0.11-0.79-0.33-1.04c-0.22-0.25-0.54-0.38-0.96-0.38c-0.45,0-0.8,0.15-1.06,0.46c-0.26,0.31-0.39,0.71-0.39,1.21h-1.98
		c0-0.61,0.14-1.16,0.43-1.66s0.7-0.89,1.23-1.18c0.53-0.29,1.13-0.43,1.8-0.43c1.03,0,1.82,0.25,2.39,0.74s0.85,1.19,0.85,2.08
		c0,0.49-0.13,0.99-0.38,1.5s-0.69,1.11-1.31,1.78l-2.26,2.39h4.28V135.49z"/>
	<path class="st0" d="M44.27,131.37c0,1.38-0.28,2.43-0.85,3.16s-1.4,1.09-2.5,1.09c-1.08,0-1.91-0.36-2.49-1.07
		s-0.87-1.74-0.88-3.08v-1.83c0-1.39,0.29-2.45,0.86-3.17s1.41-1.08,2.49-1.08s1.91,0.36,2.49,1.07c0.57,0.71,0.87,1.74,0.88,3.07
		V131.37z M42.29,129.36c0-0.83-0.11-1.43-0.34-1.8s-0.58-0.56-1.06-0.56c-0.46,0-0.81,0.18-1.03,0.54s-0.34,0.92-0.35,1.68v2.42
		c0,0.81,0.11,1.42,0.33,1.81s0.58,0.59,1.06,0.59c0.48,0,0.83-0.19,1.05-0.57c0.21-0.38,0.33-0.96,0.33-1.74V129.36z"/>
	<path class="st0" d="M52.3,131.37c0,1.38-0.28,2.43-0.85,3.16s-1.4,1.09-2.5,1.09c-1.08,0-1.91-0.36-2.49-1.07
		s-0.87-1.74-0.88-3.08v-1.83c0-1.39,0.29-2.45,0.86-3.17s1.41-1.08,2.49-1.08s1.91,0.36,2.49,1.07c0.57,0.71,0.87,1.74,0.88,3.07
		V131.37z M50.33,129.36c0-0.83-0.11-1.43-0.34-1.8s-0.58-0.56-1.06-0.56c-0.46,0-0.81,0.18-1.03,0.54s-0.34,0.92-0.35,1.68v2.42
		c0,0.81,0.11,1.42,0.33,1.81s0.58,0.59,1.06,0.59c0.48,0,0.83-0.19,1.05-0.57c0.21-0.38,0.33-0.96,0.33-1.74V129.36z"/>
</g>
<g class="st2">
	<path class="st0" d="M22.89,85.89h-1.98v-7.62l-2.36,0.73V77.4l4.12-1.48h0.21V85.89z"/>
	<path class="st0" d="M26.72,88.39l-1.03-0.54l0.25-0.44c0.31-0.56,0.46-1.11,0.47-1.66v-1.53h1.67l-0.01,1.37
		c0,0.51-0.13,1.02-0.38,1.53S27.11,88.05,26.72,88.39z"/>
	<path class="st0" d="M35.38,82.15h1.13v1.59h-1.13v2.15h-1.98v-2.15h-4.08l-0.09-1.24l4.15-6.56h2V82.15z M31.21,82.15h2.2v-3.51
		l-0.13,0.23L31.21,82.15z"/>
	<path class="st0" d="M44.27,81.78c0,1.38-0.28,2.43-0.85,3.16s-1.4,1.09-2.5,1.09c-1.08,0-1.91-0.36-2.49-1.07
		s-0.87-1.74-0.88-3.08v-1.83c0-1.39,0.29-2.45,0.86-3.17s1.41-1.08,2.49-1.08s1.91,0.36,2.49,1.07c0.57,0.71,0.87,1.74,0.88,3.07
		V81.78z M42.29,79.76c0-0.83-0.11-1.43-0.34-1.8s-0.58-0.56-1.06-0.56c-0.46,0-0.81,0.18-1.03,0.54s-0.34,0.92-0.35,1.68v2.42
		c0,0.81,0.11,1.42,0.33,1.81s0.58,0.59,1.06,0.59c0.48,0,0.83-0.19,1.05-0.57c0.21-0.38,0.33-0.96,0.33-1.74V79.76z"/>
	<path class="st0" d="M52.3,81.78c0,1.38-0.28,2.43-0.85,3.16s-1.4,1.09-2.5,1.09c-1.08,0-1.91-0.36-2.49-1.07s-0.87-1.74-0.88-3.08
		v-1.83c0-1.39,0.29-2.45,0.86-3.17s1.41-1.08,2.49-1.08s1.91,0.36,2.49,1.07c0.57,0.71,0.87,1.74,0.88,3.07V81.78z M50.33,79.76
		c0-0.83-0.11-1.43-0.34-1.8s-0.58-0.56-1.06-0.56c-0.46,0-0.81,0.18-1.03,0.54s-0.34,0.92-0.35,1.68v2.42
		c0,0.81,0.11,1.42,0.33,1.81s0.58,0.59,1.06,0.59c0.48,0,0.83-0.19,1.05-0.57c0.21-0.38,0.33-0.96,0.33-1.74V79.76z"/>
</g>
<g class="st2">
	<path class="st0" d="M24.29,40.16h-3.94v4.07H18.3v-9.95h6.48v1.66h-4.43v2.57h3.94V40.16z"/>
	<path class="st0" d="M33.5,34.27v6.56c0,1.09-0.34,1.95-1.02,2.58s-1.61,0.95-2.79,0.95c-1.16,0-2.08-0.31-2.77-0.92
		s-1.03-1.46-1.05-2.54v-6.63h2.05v6.57c0,0.65,0.16,1.13,0.47,1.42c0.31,0.3,0.74,0.45,1.3,0.45c1.15,0,1.74-0.61,1.76-1.82v-6.62
		H33.5z"/>
	<path class="st0" d="M43.28,44.22h-2.05l-3.99-6.55v6.55h-2.05v-9.95h2.05l4,6.56v-6.56h2.04V44.22z"/>
	<path class="st0" d="M45.07,44.22v-9.95h3.06c0.88,0,1.66,0.2,2.35,0.59c0.69,0.39,1.23,0.95,1.62,1.68
		c0.39,0.73,0.58,1.55,0.58,2.48v0.46c0,0.92-0.19,1.75-0.57,2.47s-0.92,1.28-1.61,1.67s-1.47,0.6-2.34,0.6H45.07z M47.12,35.93
		v6.64h0.99c0.8,0,1.42-0.26,1.84-0.79s0.64-1.27,0.65-2.25v-0.53c0-1.01-0.21-1.78-0.63-2.3c-0.42-0.52-1.03-0.78-1.84-0.78H47.12z
		"/>
	<path class="st0" d="M56.35,44.22H54.3v-9.95h2.05V44.22z"/>
	<path class="st0" d="M66.34,44.22h-2.05l-3.99-6.55v6.55h-2.05v-9.95h2.05l4,6.56v-6.56h2.04V44.22z"/>
	<path class="st0" d="M76.01,42.96c-0.37,0.44-0.89,0.79-1.57,1.03c-0.67,0.24-1.42,0.37-2.24,0.37c-0.86,0-1.62-0.19-2.27-0.56
		c-0.65-0.38-1.15-0.92-1.5-1.64s-0.53-1.56-0.54-2.52v-0.68c0-0.99,0.17-1.85,0.5-2.58c0.33-0.73,0.82-1.28,1.45-1.67
		c0.63-0.39,1.37-0.58,2.22-0.58c1.18,0,2.1,0.28,2.77,0.84c0.67,0.56,1.06,1.38,1.18,2.46h-2c-0.09-0.57-0.29-0.99-0.6-1.25
		s-0.74-0.4-1.29-0.4c-0.7,0-1.23,0.26-1.59,0.79s-0.55,1.3-0.55,2.34v0.64c0,1.04,0.2,1.83,0.59,2.37s0.98,0.8,1.74,0.8
		c0.77,0,1.32-0.16,1.65-0.49V40.5h-1.87v-1.51h3.92V42.96z"/>
</g>
<g class="st2">
	<path class="st0" d="M23.92,60.17h-3.6l-0.68,2.05h-2.18l3.71-9.95h1.9l3.73,9.95h-2.18L23.92,60.17z M20.88,58.51h2.49l-1.25-3.73
		L20.88,58.51z"/>
	<path class="st0" d="M30.4,52.27l2.56,7.22l2.54-7.22h2.69v9.95h-2.06V59.5l0.21-4.7l-2.69,7.42h-1.41l-2.68-7.41l0.21,4.69v2.72
		h-2.05v-9.95H30.4z"/>
	<path class="st0" d="M48.16,57.47c0,0.98-0.17,1.84-0.52,2.58s-0.84,1.31-1.49,1.71s-1.38,0.6-2.22,0.6c-0.82,0-1.56-0.2-2.21-0.59
		s-1.15-0.96-1.5-1.7c-0.36-0.74-0.54-1.58-0.54-2.54v-0.49c0-0.98,0.18-1.84,0.53-2.59c0.35-0.75,0.85-1.32,1.5-1.72
		c0.65-0.4,1.38-0.6,2.21-0.6s1.57,0.2,2.21,0.6c0.65,0.4,1.14,0.97,1.5,1.72c0.35,0.74,0.53,1.6,0.53,2.58V57.47z M46.08,57.02
		c0-1.04-0.19-1.84-0.56-2.38s-0.91-0.81-1.6-0.81c-0.69,0-1.22,0.27-1.59,0.8c-0.37,0.54-0.56,1.32-0.57,2.36v0.49
		c0,1.02,0.19,1.8,0.56,2.37s0.91,0.84,1.61,0.84c0.69,0,1.22-0.27,1.59-0.81c0.37-0.54,0.56-1.33,0.56-2.36V57.02z"/>
	<path class="st0" d="M57.18,52.27v6.56c0,1.09-0.34,1.95-1.02,2.58s-1.61,0.95-2.79,0.95c-1.16,0-2.08-0.31-2.77-0.92
		s-1.03-1.46-1.05-2.54v-6.63h2.05v6.57c0,0.65,0.16,1.13,0.47,1.42c0.31,0.3,0.74,0.45,1.3,0.45c1.15,0,1.74-0.61,1.76-1.82v-6.62
		H57.18z"/>
	<path class="st0" d="M66.96,62.22h-2.05l-3.99-6.55v6.55h-2.05v-9.95h2.05l4,6.56v-6.56h2.04V62.22z"/>
	<path class="st0" d="M76.04,53.93h-3.05v8.29h-2.05v-8.29h-3.01v-1.66h8.11V53.93z"/>
</g>
<polyline class="st6" points="71.41,350.17 113.29,361.42 155.17,333.87 197.06,293.92 238.94,205.17 280.82,127.67 322.7,175.17 
	365.19,175.17 406.46,182.67 448.34,195.17 490.22,102.67 532.2,222.67 "/>
<g class="st2">
	<path class="st5" d="M66.21,421.66h-1.94v-7.6l-1.89,0.73v-1.61l3.63-1.48h0.21V421.66z"/>
	<path class="st5" d="M73.65,411.6v1.64h-0.11c-0.72,0-1.3,0.22-1.73,0.65c-0.43,0.43-0.68,1.03-0.78,1.81
		c0.41-0.47,0.93-0.71,1.56-0.71c0.72,0,1.3,0.31,1.73,0.92s0.65,1.44,0.65,2.46c0,0.65-0.12,1.24-0.37,1.76s-0.59,0.93-1.04,1.22
		c-0.44,0.29-0.95,0.43-1.51,0.43c-0.9,0-1.63-0.36-2.17-1.09s-0.82-1.7-0.82-2.93v-0.72c0-1.1,0.17-2.06,0.52-2.88
		s0.84-1.46,1.49-1.9c0.65-0.44,1.41-0.67,2.27-0.67H73.65z M71.99,416.58c-0.25,0-0.45,0.08-0.62,0.23
		c-0.17,0.16-0.29,0.35-0.37,0.58v0.7c0,0.7,0.09,1.23,0.28,1.58s0.43,0.52,0.74,0.52c0.31,0,0.56-0.17,0.75-0.5
		c0.19-0.34,0.28-0.77,0.28-1.29c0-0.53-0.1-0.97-0.29-1.31C72.55,416.75,72.3,416.58,71.99,416.58z"/>
	<path class="st5" d="M80.73,411.6v1.64h-0.11c-0.72,0-1.3,0.22-1.73,0.65c-0.43,0.43-0.68,1.03-0.78,1.81
		c0.41-0.47,0.93-0.71,1.56-0.71c0.72,0,1.3,0.31,1.73,0.92s0.65,1.44,0.65,2.46c0,0.65-0.12,1.24-0.37,1.76s-0.59,0.93-1.04,1.22
		c-0.44,0.29-0.95,0.43-1.51,0.43c-0.9,0-1.63-0.36-2.17-1.09s-0.82-1.7-0.82-2.93v-0.72c0-1.1,0.17-2.06,0.52-2.88
		s0.84-1.46,1.49-1.9c0.65-0.44,1.41-0.67,2.27-0.67H80.73z M79.07,416.58c-0.25,0-0.45,0.08-0.62,0.23
		c-0.17,0.16-0.29,0.35-0.37,0.58v0.7c0,0.7,0.09,1.23,0.28,1.58s0.43,0.52,0.74,0.52c0.31,0,0.56-0.17,0.75-0.5
		c0.19-0.34,0.28-0.77,0.28-1.29c0-0.53-0.1-0.97-0.29-1.31C79.64,416.75,79.38,416.58,79.07,416.58z"/>
</g>
<g class="st2">
	<path class="st5" d="M109.84,421.66h-5.87v-1.37l2.69-3.42c0.34-0.47,0.59-0.89,0.76-1.25c0.16-0.36,0.24-0.7,0.24-1.03
		c0-0.44-0.08-0.79-0.23-1.04s-0.37-0.38-0.66-0.38c-0.31,0-0.56,0.15-0.75,0.44s-0.28,0.7-0.28,1.23h-1.94
		c0-0.61,0.13-1.17,0.38-1.67s0.61-0.9,1.07-1.18c0.46-0.28,0.98-0.42,1.56-0.42c0.89,0,1.58,0.25,2.07,0.73
		c0.49,0.49,0.73,1.19,0.73,2.09c0,0.56-0.14,1.13-0.41,1.71c-0.27,0.58-0.76,1.29-1.47,2.13l-1.28,1.83h3.38V421.66z"/>
	<path class="st5" d="M115.67,411.6v1.64h-0.11c-0.72,0-1.3,0.22-1.73,0.65c-0.43,0.43-0.68,1.03-0.78,1.81
		c0.41-0.47,0.93-0.71,1.56-0.71c0.72,0,1.3,0.31,1.73,0.92s0.65,1.44,0.65,2.46c0,0.65-0.12,1.24-0.37,1.76s-0.59,0.93-1.04,1.22
		c-0.44,0.29-0.95,0.43-1.51,0.43c-0.9,0-1.63-0.36-2.17-1.09s-0.82-1.7-0.82-2.93v-0.72c0-1.1,0.17-2.06,0.52-2.88
		s0.84-1.46,1.49-1.9c0.65-0.44,1.41-0.67,2.27-0.67H115.67z M114.01,416.58c-0.25,0-0.45,0.08-0.62,0.23
		c-0.17,0.16-0.29,0.35-0.37,0.58v0.7c0,0.7,0.09,1.23,0.28,1.58s0.43,0.52,0.74,0.52c0.31,0,0.56-0.17,0.75-0.5
		c0.19-0.34,0.28-0.77,0.28-1.29c0-0.53-0.1-0.97-0.29-1.31C114.58,416.75,114.33,416.58,114.01,416.58z"/>
	<path class="st5" d="M122.75,411.6v1.64h-0.11c-0.72,0-1.3,0.22-1.73,0.65c-0.43,0.43-0.68,1.03-0.78,1.81
		c0.41-0.47,0.93-0.71,1.56-0.71c0.72,0,1.3,0.31,1.73,0.92s0.65,1.44,0.65,2.46c0,0.65-0.12,1.24-0.37,1.76s-0.59,0.93-1.04,1.22
		c-0.44,0.29-0.95,0.43-1.51,0.43c-0.9,0-1.63-0.36-2.17-1.09s-0.82-1.7-0.82-2.93v-0.72c0-1.1,0.17-2.06,0.52-2.88
		s0.84-1.46,1.49-1.9c0.65-0.44,1.41-0.67,2.27-0.67H122.75z M121.09,416.58c-0.25,0-0.45,0.08-0.62,0.23
		c-0.17,0.16-0.29,0.35-0.37,0.58v0.7c0,0.7,0.09,1.23,0.28,1.58s0.43,0.52,0.74,0.52c0.31,0,0.56-0.17,0.75-0.5
		c0.19-0.34,0.28-0.77,0.28-1.29c0-0.53-0.1-0.97-0.29-1.31C121.66,416.75,121.41,416.58,121.09,416.58z"/>
</g>
<g class="st2">
	<path class="st5" d="M151.87,421.66H146v-1.37l2.69-3.42c0.34-0.47,0.59-0.89,0.76-1.25c0.16-0.36,0.24-0.7,0.24-1.03
		c0-0.44-0.08-0.79-0.23-1.04c-0.15-0.25-0.37-0.38-0.66-0.38c-0.31,0-0.56,0.15-0.75,0.44s-0.28,0.7-0.28,1.23h-1.94
		c0-0.61,0.13-1.17,0.38-1.67s0.61-0.9,1.07-1.18c0.46-0.28,0.98-0.42,1.55-0.42c0.89,0,1.58,0.25,2.07,0.73
		c0.49,0.49,0.73,1.19,0.73,2.09c0,0.56-0.14,1.13-0.41,1.71c-0.27,0.58-0.76,1.29-1.47,2.13l-1.28,1.83h3.38V421.66z"/>
	<path class="st5" d="M158.92,412.82l-3.14,8.84h-2.04l3.16-8.35h-3.99v-1.61h6.02V412.82z"/>
	<path class="st5" d="M163.92,417.81c-0.41,0.42-0.86,0.63-1.35,0.63c-0.76,0-1.35-0.3-1.79-0.91c-0.44-0.61-0.65-1.42-0.65-2.44
		c0-0.66,0.12-1.26,0.37-1.8c0.25-0.54,0.59-0.97,1.03-1.27c0.44-0.3,0.93-0.45,1.47-0.45c0.56,0,1.06,0.17,1.5,0.5
		s0.78,0.81,1.02,1.43c0.24,0.62,0.36,1.33,0.36,2.12v0.7c0,1.7-0.37,3.02-1.12,3.97c-0.75,0.96-1.8,1.44-3.17,1.46h-0.2v-1.67h0.13
		c0.76,0,1.33-0.2,1.71-0.59C163.61,419.12,163.84,418.55,163.92,417.81z M163.06,416.92c0.37,0,0.67-0.25,0.88-0.77v-0.89
		c0-0.65-0.09-1.16-0.27-1.53c-0.18-0.37-0.41-0.56-0.69-0.56c-0.28,0-0.5,0.18-0.67,0.55c-0.17,0.37-0.26,0.82-0.26,1.34
		c0,0.57,0.09,1.03,0.27,1.36C162.5,416.75,162.75,416.92,163.06,416.92z"/>
</g>
<g class="st2">
	<path class="st5" d="M188.22,416.76l0.49-5.06h4.82v1.65h-3.23l-0.18,2.13c0.37-0.25,0.76-0.38,1.16-0.38
		c0.82,0,1.45,0.29,1.9,0.88s0.67,1.41,0.67,2.47c0,1-0.26,1.8-0.79,2.41s-1.23,0.92-2.12,0.92c-0.52,0-1.01-0.12-1.46-0.37
		c-0.45-0.25-0.8-0.59-1.06-1.04s-0.39-0.94-0.39-1.5h1.91c0.03,0.42,0.13,0.74,0.31,0.96s0.4,0.34,0.67,0.34
		c0.32,0,0.56-0.15,0.74-0.46c0.17-0.31,0.26-0.77,0.26-1.38c0-0.57-0.1-1.01-0.31-1.3s-0.5-0.44-0.87-0.44
		c-0.36,0-0.65,0.12-0.85,0.38l-0.12,0.17L188.22,416.76z"/>
	<path class="st5" d="M200.21,417.9h0.85v1.61h-0.85v2.15h-1.93v-2.15h-3.29l-0.09-1.25l3.38-6.55h1.94V417.9z M196.77,417.9h1.5
		v-3.33l-0.04,0.08L196.77,417.9z"/>
	<path class="st5" d="M203.91,415.8h0.94c0.36,0,0.62-0.12,0.78-0.37c0.17-0.25,0.25-0.58,0.25-1c0-0.4-0.09-0.71-0.26-0.93
		c-0.17-0.22-0.4-0.33-0.69-0.33c-0.27,0-0.49,0.1-0.66,0.31s-0.26,0.47-0.26,0.79h-1.93c0-0.52,0.12-0.99,0.36-1.4
		c0.24-0.41,0.57-0.74,1-0.97s0.91-0.35,1.43-0.35c0.92,0,1.63,0.25,2.15,0.76s0.78,1.2,0.78,2.08c0,0.45-0.12,0.87-0.35,1.25
		c-0.23,0.38-0.54,0.68-0.93,0.88c0.47,0.2,0.82,0.5,1.05,0.9s0.35,0.88,0.35,1.42c0,0.88-0.28,1.59-0.84,2.13s-1.3,0.8-2.22,0.8
		c-0.85,0-1.54-0.26-2.07-0.79c-0.53-0.53-0.8-1.22-0.8-2.08h1.93c0,0.36,0.09,0.65,0.28,0.9s0.42,0.36,0.71,0.36
		c0.33,0,0.6-0.12,0.79-0.37s0.29-0.57,0.29-0.98c0-0.98-0.38-1.47-1.14-1.48h-0.95V415.8z"/>
</g>
<g class="st2">
	<path class="st5" d="M229.25,416.76l0.49-5.06h4.82v1.65h-3.23l-0.18,2.13c0.37-0.25,0.76-0.38,1.16-0.38
		c0.82,0,1.45,0.29,1.9,0.88s0.67,1.41,0.67,2.47c0,1-0.26,1.8-0.79,2.41s-1.23,0.92-2.12,0.92c-0.52,0-1.01-0.12-1.46-0.37
		c-0.45-0.25-0.8-0.59-1.06-1.04s-0.39-0.94-0.39-1.5h1.91c0.03,0.42,0.13,0.74,0.31,0.96s0.4,0.34,0.67,0.34
		c0.32,0,0.56-0.15,0.74-0.46c0.17-0.31,0.26-0.77,0.26-1.38c0-0.57-0.1-1.01-0.31-1.3s-0.5-0.44-0.87-0.44
		c-0.36,0-0.65,0.12-0.85,0.38l-0.12,0.17L229.25,416.76z"/>
	<path class="st5" d="M236.33,416.76l0.49-5.06h4.82v1.65h-3.23l-0.18,2.13c0.37-0.25,0.76-0.38,1.16-0.38
		c0.82,0,1.45,0.29,1.9,0.88s0.67,1.41,0.67,2.47c0,1-0.26,1.8-0.79,2.41s-1.23,0.92-2.12,0.92c-0.52,0-1.01-0.12-1.46-0.37
		c-0.45-0.25-0.8-0.59-1.06-1.04s-0.39-0.94-0.39-1.5h1.91c0.03,0.42,0.13,0.74,0.31,0.96s0.4,0.34,0.67,0.34
		c0.32,0,0.56-0.15,0.74-0.46c0.17-0.31,0.26-0.77,0.26-1.38c0-0.57-0.1-1.01-0.31-1.3s-0.5-0.44-0.87-0.44
		c-0.36,0-0.65,0.12-0.85,0.38l-0.12,0.17L236.33,416.76z"/>
	<path class="st5" d="M243.41,416.76l0.49-5.06h4.82v1.65h-3.23l-0.18,2.13c0.37-0.25,0.76-0.38,1.16-0.38
		c0.82,0,1.45,0.29,1.9,0.88s0.67,1.41,0.67,2.47c0,1-0.26,1.8-0.79,2.41s-1.23,0.92-2.12,0.92c-0.52,0-1.01-0.12-1.46-0.37
		c-0.45-0.25-0.8-0.59-1.06-1.04s-0.39-0.94-0.39-1.5h1.91c0.03,0.42,0.13,0.74,0.31,0.96s0.4,0.34,0.67,0.34
		c0.32,0,0.56-0.15,0.74-0.46c0.17-0.31,0.26-0.77,0.26-1.38c0-0.57-0.1-1.01-0.31-1.3s-0.5-0.44-0.87-0.44
		c-0.36,0-0.65,0.12-0.85,0.38l-0.12,0.17L243.41,416.76z"/>
</g>
<g class="st2">
	<path class="st5" d="M271.79,421.66h-1.94v-7.6l-1.89,0.73v-1.61l3.63-1.48h0.21V421.66z"/>
	<path class="st5" d="M280.4,417.54c0,1.38-0.25,2.43-0.75,3.16s-1.21,1.09-2.14,1.09c-0.92,0-1.62-0.35-2.12-1.06
		c-0.5-0.71-0.76-1.72-0.78-3.05v-1.88c0-1.37,0.25-2.42,0.75-3.15c0.5-0.73,1.21-1.09,2.14-1.09s1.64,0.36,2.14,1.08
		s0.75,1.75,0.76,3.08V417.54z M278.46,415.52c0-0.78-0.08-1.37-0.23-1.76s-0.4-0.59-0.72-0.59c-0.62,0-0.93,0.72-0.96,2.15v2.48
		c0,0.8,0.08,1.4,0.24,1.79s0.4,0.59,0.73,0.59c0.31,0,0.55-0.18,0.7-0.55c0.15-0.37,0.23-0.93,0.24-1.69V415.52z"/>
	<path class="st5" d="M287.56,421.66h-5.87v-1.37l2.69-3.42c0.34-0.47,0.59-0.89,0.76-1.25c0.16-0.36,0.24-0.7,0.24-1.03
		c0-0.44-0.08-0.79-0.23-1.04s-0.37-0.38-0.66-0.38c-0.31,0-0.56,0.15-0.75,0.44s-0.28,0.7-0.28,1.23h-1.94
		c0-0.61,0.13-1.17,0.38-1.67s0.61-0.9,1.07-1.18c0.46-0.28,0.98-0.42,1.56-0.42c0.89,0,1.58,0.25,2.07,0.73
		c0.49,0.49,0.73,1.19,0.73,2.09c0,0.56-0.14,1.13-0.41,1.71c-0.27,0.58-0.76,1.29-1.47,2.13l-1.28,1.83h3.38V421.66z"/>
	<path class="st5" d="M288.98,416.76l0.49-5.06h4.82v1.65h-3.23l-0.18,2.13c0.37-0.25,0.76-0.38,1.16-0.38
		c0.82,0,1.45,0.29,1.9,0.88s0.67,1.41,0.67,2.47c0,1-0.26,1.8-0.79,2.41s-1.23,0.92-2.12,0.92c-0.52,0-1.01-0.12-1.46-0.37
		c-0.45-0.25-0.8-0.59-1.06-1.04s-0.39-0.94-0.39-1.5h1.91c0.03,0.42,0.13,0.74,0.31,0.96s0.4,0.34,0.67,0.34
		c0.32,0,0.56-0.15,0.74-0.46c0.17-0.31,0.26-0.77,0.26-1.38c0-0.57-0.1-1.01-0.31-1.3s-0.5-0.44-0.87-0.44
		c-0.36,0-0.65,0.12-0.85,0.38l-0.12,0.17L288.98,416.76z"/>
</g>
<g class="st2">
	<path class="st5" d="M313.82,421.66h-1.94v-7.6l-1.89,0.73v-1.61l3.63-1.48h0.21V421.66z"/>
	<path class="st5" d="M321.74,417.9h0.85v1.61h-0.85v2.15h-1.93v-2.15h-3.29l-0.09-1.25l3.38-6.55h1.94V417.9z M318.3,417.9h1.5
		v-3.33l-0.04,0.08L318.3,417.9z"/>
	<path class="st5" d="M323.92,416.76l0.49-5.06h4.82v1.65H326l-0.18,2.13c0.37-0.25,0.76-0.38,1.16-0.38c0.82,0,1.45,0.29,1.9,0.88
		s0.67,1.41,0.67,2.47c0,1-0.26,1.8-0.79,2.41c-0.53,0.61-1.24,0.92-2.12,0.92c-0.52,0-1.01-0.12-1.46-0.37
		c-0.45-0.25-0.8-0.59-1.06-1.04c-0.26-0.44-0.39-0.94-0.39-1.5h1.91c0.03,0.42,0.13,0.74,0.31,0.96c0.17,0.23,0.4,0.34,0.67,0.34
		c0.32,0,0.56-0.15,0.74-0.46c0.17-0.31,0.26-0.77,0.26-1.38c0-0.57-0.1-1.01-0.31-1.3c-0.21-0.29-0.5-0.44-0.87-0.44
		c-0.37,0-0.65,0.12-0.85,0.38l-0.12,0.17L323.92,416.76z"/>
	<path class="st5" d="M335.91,417.9h0.85v1.61h-0.85v2.15h-1.93v-2.15h-3.29l-0.09-1.25l3.38-6.55h1.94V417.9z M332.47,417.9h1.5
		v-3.33l-0.04,0.08L332.47,417.9z"/>
</g>
<g class="st2">
	<path class="st5" d="M355.84,421.66h-1.94v-7.6l-1.89,0.73v-1.61l3.63-1.48h0.21V421.66z"/>
	<path class="st5" d="M364.53,421.66h-5.87v-1.37l2.69-3.42c0.34-0.47,0.59-0.89,0.75-1.25c0.16-0.36,0.24-0.7,0.24-1.03
		c0-0.44-0.08-0.79-0.23-1.04c-0.15-0.25-0.37-0.38-0.66-0.38c-0.31,0-0.56,0.15-0.75,0.44s-0.28,0.7-0.28,1.23h-1.94
		c0-0.61,0.13-1.17,0.38-1.67s0.61-0.9,1.07-1.18c0.46-0.28,0.98-0.42,1.56-0.42c0.89,0,1.58,0.25,2.07,0.73
		c0.49,0.49,0.74,1.19,0.74,2.09c0,0.56-0.14,1.13-0.41,1.71c-0.27,0.58-0.76,1.29-1.47,2.13l-1.28,1.83h3.38V421.66z"/>
	<path class="st5" d="M367.47,415.8h0.94c0.36,0,0.62-0.12,0.78-0.37c0.17-0.25,0.25-0.58,0.25-1c0-0.4-0.09-0.71-0.26-0.93
		c-0.17-0.22-0.4-0.33-0.69-0.33c-0.27,0-0.49,0.1-0.66,0.31s-0.26,0.47-0.26,0.79h-1.93c0-0.52,0.12-0.99,0.36-1.4
		c0.24-0.41,0.57-0.74,1-0.97s0.91-0.35,1.43-0.35c0.92,0,1.63,0.25,2.15,0.76s0.78,1.2,0.78,2.08c0,0.45-0.12,0.87-0.35,1.25
		c-0.23,0.38-0.54,0.68-0.93,0.88c0.47,0.2,0.82,0.5,1.05,0.9c0.23,0.4,0.35,0.88,0.35,1.42c0,0.88-0.28,1.59-0.84,2.13
		c-0.56,0.53-1.3,0.8-2.22,0.8c-0.85,0-1.54-0.26-2.08-0.79c-0.53-0.53-0.8-1.22-0.8-2.08h1.93c0,0.36,0.09,0.65,0.28,0.9
		c0.19,0.24,0.42,0.36,0.71,0.36c0.33,0,0.6-0.12,0.79-0.37c0.19-0.25,0.29-0.57,0.29-0.98c0-0.98-0.38-1.47-1.14-1.48h-0.95V415.8z
		"/>
	<path class="st5" d="M377.09,421.66h-1.94v-7.6l-1.89,0.73v-1.61l3.63-1.48h0.21V421.66z"/>
</g>
<g class="st2">
	<path class="st5" d="M401.77,411.6v1.64h-0.11c-0.72,0-1.3,0.22-1.73,0.65c-0.43,0.43-0.68,1.03-0.78,1.81
		c0.41-0.47,0.93-0.71,1.56-0.71c0.72,0,1.29,0.31,1.73,0.92s0.65,1.44,0.65,2.46c0,0.65-0.12,1.24-0.37,1.76s-0.59,0.93-1.04,1.22
		c-0.44,0.29-0.95,0.43-1.51,0.43c-0.9,0-1.63-0.36-2.17-1.09c-0.54-0.72-0.82-1.7-0.82-2.93v-0.72c0-1.1,0.17-2.06,0.52-2.88
		c0.34-0.83,0.84-1.46,1.49-1.9c0.65-0.44,1.41-0.67,2.27-0.67H401.77z M400.1,416.58c-0.25,0-0.45,0.08-0.62,0.23
		c-0.17,0.16-0.29,0.35-0.37,0.58v0.7c0,0.7,0.09,1.23,0.28,1.58c0.19,0.35,0.43,0.52,0.74,0.52c0.31,0,0.56-0.17,0.75-0.5
		c0.19-0.34,0.28-0.77,0.28-1.29c0-0.53-0.1-0.97-0.29-1.31C400.67,416.75,400.42,416.58,400.1,416.58z"/>
	<path class="st5" d="M405.96,415.8h0.94c0.36,0,0.62-0.12,0.78-0.37c0.17-0.25,0.25-0.58,0.25-1c0-0.4-0.09-0.71-0.26-0.93
		c-0.17-0.22-0.4-0.33-0.69-0.33c-0.27,0-0.49,0.1-0.66,0.31s-0.26,0.47-0.26,0.79h-1.93c0-0.52,0.12-0.99,0.36-1.4
		c0.24-0.41,0.57-0.74,1-0.97s0.91-0.35,1.43-0.35c0.92,0,1.63,0.25,2.15,0.76s0.78,1.2,0.78,2.08c0,0.45-0.12,0.87-0.35,1.25
		c-0.23,0.38-0.54,0.68-0.93,0.88c0.47,0.2,0.82,0.5,1.05,0.9c0.23,0.4,0.35,0.88,0.35,1.42c0,0.88-0.28,1.59-0.84,2.13
		c-0.56,0.53-1.3,0.8-2.22,0.8c-0.85,0-1.54-0.26-2.08-0.79c-0.53-0.53-0.8-1.22-0.8-2.08h1.93c0,0.36,0.09,0.65,0.28,0.9
		c0.19,0.24,0.42,0.36,0.71,0.36c0.33,0,0.6-0.12,0.79-0.37c0.19-0.25,0.29-0.57,0.29-0.98c0-0.98-0.38-1.47-1.14-1.48h-0.95V415.8z
		"/>
	<path class="st5" d="M415.93,411.6v1.64h-0.11c-0.72,0-1.3,0.22-1.73,0.65c-0.43,0.43-0.68,1.03-0.78,1.81
		c0.41-0.47,0.93-0.71,1.56-0.71c0.72,0,1.29,0.31,1.73,0.92s0.65,1.44,0.65,2.46c0,0.65-0.12,1.24-0.37,1.76s-0.59,0.93-1.04,1.22
		c-0.44,0.29-0.95,0.43-1.51,0.43c-0.9,0-1.63-0.36-2.17-1.09c-0.54-0.72-0.82-1.7-0.82-2.93v-0.72c0-1.1,0.17-2.06,0.52-2.88
		c0.34-0.83,0.84-1.46,1.49-1.9c0.65-0.44,1.41-0.67,2.27-0.67H415.93z M414.27,416.58c-0.25,0-0.45,0.08-0.62,0.23
		c-0.17,0.16-0.29,0.35-0.37,0.58v0.7c0,0.7,0.09,1.23,0.28,1.58c0.19,0.35,0.43,0.52,0.74,0.52c0.31,0,0.56-0.17,0.75-0.5
		c0.19-0.34,0.28-0.77,0.28-1.29c0-0.53-0.1-0.97-0.29-1.31C414.84,416.75,414.58,416.58,414.27,416.58z"/>
</g>
<g class="st2">
	<path class="st5" d="M442.79,411.6v1.64h-0.11c-0.72,0-1.3,0.22-1.73,0.65c-0.43,0.43-0.68,1.03-0.78,1.81
		c0.41-0.47,0.93-0.71,1.56-0.71c0.72,0,1.29,0.31,1.73,0.92s0.65,1.44,0.65,2.46c0,0.65-0.12,1.24-0.37,1.76s-0.59,0.93-1.04,1.22
		c-0.44,0.29-0.95,0.43-1.51,0.43c-0.9,0-1.63-0.36-2.17-1.09c-0.54-0.72-0.82-1.7-0.82-2.93v-0.72c0-1.1,0.17-2.06,0.52-2.88
		c0.34-0.83,0.84-1.46,1.49-1.9c0.65-0.44,1.41-0.67,2.27-0.67H442.79z M441.13,416.58c-0.25,0-0.45,0.08-0.62,0.23
		c-0.17,0.16-0.29,0.35-0.37,0.58v0.7c0,0.7,0.09,1.23,0.28,1.58c0.19,0.35,0.43,0.52,0.74,0.52c0.31,0,0.56-0.17,0.75-0.5
		c0.19-0.34,0.28-0.77,0.28-1.29c0-0.53-0.1-0.97-0.29-1.31C441.7,416.75,441.44,416.58,441.13,416.58z"/>
	<path class="st5" d="M450.36,417.9h0.85v1.61h-0.85v2.15h-1.93v-2.15h-3.29l-0.09-1.25l3.38-6.55h1.94V417.9z M446.92,417.9h1.5
		v-3.33l-0.04,0.08L446.92,417.9z"/>
	<path class="st5" d="M458.12,417.54c0,1.38-0.25,2.43-0.75,3.16s-1.21,1.09-2.14,1.09c-0.92,0-1.62-0.35-2.12-1.06
		c-0.5-0.71-0.76-1.72-0.78-3.05v-1.88c0-1.37,0.25-2.42,0.75-3.15c0.5-0.73,1.21-1.09,2.14-1.09s1.64,0.36,2.14,1.08
		c0.5,0.72,0.75,1.75,0.76,3.08V417.54z M456.18,415.52c0-0.78-0.08-1.37-0.23-1.76c-0.16-0.39-0.4-0.59-0.72-0.59
		c-0.62,0-0.93,0.72-0.96,2.15v2.48c0,0.8,0.08,1.4,0.24,1.79s0.4,0.59,0.74,0.59c0.31,0,0.55-0.18,0.7-0.55
		c0.15-0.37,0.23-0.93,0.24-1.69V415.52z"/>
</g>
<g class="st2">
	<path class="st5" d="M480.92,421.66h-1.94v-7.6l-1.89,0.73v-1.61l3.63-1.48h0.21V421.66z"/>
	<path class="st5" d="M489.53,417.54c0,1.38-0.25,2.43-0.75,3.16s-1.21,1.09-2.14,1.09c-0.92,0-1.62-0.35-2.12-1.06
		c-0.5-0.71-0.76-1.72-0.78-3.05v-1.88c0-1.37,0.25-2.42,0.75-3.15c0.5-0.73,1.21-1.09,2.14-1.09s1.64,0.36,2.14,1.08
		c0.5,0.72,0.75,1.75,0.76,3.08V417.54z M487.58,415.52c0-0.78-0.08-1.37-0.23-1.76c-0.15-0.39-0.4-0.59-0.72-0.59
		c-0.62,0-0.93,0.72-0.96,2.15v2.48c0,0.8,0.08,1.4,0.24,1.79s0.4,0.59,0.73,0.59c0.31,0,0.55-0.18,0.7-0.55
		c0.15-0.37,0.23-0.93,0.24-1.69V415.52z"/>
	<path class="st5" d="M495.08,421.66h-1.94v-7.6l-1.89,0.73v-1.61l3.63-1.48h0.21V421.66z"/>
	<path class="st5" d="M503.74,412.82l-3.14,8.84h-2.04l3.16-8.35h-3.99v-1.61h6.02V412.82z"/>
</g>
<g class="st2">
	<path class="st5" d="M528.06,412.82l-3.14,8.84h-2.04l3.16-8.35h-3.99v-1.61h6.02V412.82z"/>
	<path class="st5" d="M534.89,414.35c0,0.48-0.1,0.91-0.31,1.29s-0.49,0.67-0.85,0.9c0.41,0.23,0.73,0.55,0.97,0.96
		c0.24,0.41,0.36,0.89,0.36,1.44c0,0.88-0.26,1.58-0.77,2.09c-0.51,0.51-1.21,0.77-2.08,0.77c-0.88,0-1.58-0.26-2.1-0.77
		c-0.52-0.51-0.78-1.21-0.78-2.09c0-0.55,0.12-1.03,0.36-1.44c0.24-0.41,0.56-0.73,0.98-0.96c-0.37-0.22-0.65-0.52-0.85-0.9
		s-0.31-0.8-0.31-1.29c0-0.87,0.24-1.55,0.73-2.04c0.49-0.49,1.14-0.74,1.96-0.74c0.83,0,1.49,0.25,1.97,0.75
		C534.64,412.81,534.89,413.49,534.89,414.35z M532.21,420.19c0.29,0,0.52-0.12,0.67-0.37c0.16-0.25,0.24-0.59,0.24-1.04
		s-0.08-0.79-0.25-1.04s-0.39-0.38-0.68-0.38s-0.51,0.12-0.68,0.38c-0.17,0.25-0.25,0.6-0.25,1.04s0.08,0.79,0.25,1.04
		C531.68,420.06,531.91,420.19,532.21,420.19z M532.96,414.45c0-0.39-0.06-0.7-0.19-0.93c-0.12-0.23-0.32-0.35-0.58-0.35
		c-0.25,0-0.43,0.11-0.56,0.34c-0.13,0.22-0.19,0.54-0.19,0.94c0,0.39,0.06,0.71,0.19,0.95c0.13,0.24,0.32,0.36,0.57,0.36
		c0.25,0,0.44-0.12,0.57-0.36C532.9,415.16,532.96,414.84,532.96,414.45z"/>
	<path class="st5" d="M536.59,416.76l0.49-5.06h4.82v1.65h-3.23l-0.18,2.13c0.37-0.25,0.76-0.38,1.16-0.38
		c0.82,0,1.45,0.29,1.9,0.88s0.67,1.41,0.67,2.47c0,1-0.26,1.8-0.79,2.41c-0.53,0.61-1.24,0.92-2.12,0.92
		c-0.52,0-1.01-0.12-1.46-0.37c-0.45-0.25-0.8-0.59-1.06-1.04c-0.26-0.44-0.39-0.94-0.39-1.5h1.91c0.03,0.42,0.13,0.74,0.31,0.96
		c0.17,0.23,0.4,0.34,0.67,0.34c0.32,0,0.56-0.15,0.74-0.46c0.17-0.31,0.26-0.77,0.26-1.38c0-0.57-0.1-1.01-0.31-1.3
		c-0.21-0.29-0.5-0.44-0.87-0.44c-0.37,0-0.65,0.12-0.85,0.38l-0.12,0.17L536.59,416.76z"/>
</g>
<g class="st2">
	<path class="st7" d="M474.39,19.73c0.07-0.52-0.2-0.9-0.81-1.14l-0.84-0.31l-0.28-0.12c-0.95-0.43-1.39-1.04-1.33-1.83
		c0.03-0.39,0.17-0.74,0.41-1.04c0.24-0.3,0.55-0.54,0.95-0.7c0.39-0.17,0.81-0.24,1.25-0.23c0.43,0.01,0.81,0.11,1.15,0.29
		s0.59,0.44,0.77,0.76c0.18,0.33,0.25,0.7,0.23,1.11l-0.92,0c0.03-0.44-0.06-0.78-0.29-1.02c-0.23-0.24-0.55-0.36-0.98-0.37
		c-0.45-0.01-0.82,0.1-1.12,0.31c-0.3,0.21-0.47,0.51-0.52,0.88c-0.06,0.49,0.23,0.85,0.89,1.11l0.73,0.26l0.37,0.16
		c0.92,0.42,1.34,1.05,1.27,1.88c-0.04,0.4-0.17,0.75-0.41,1.04c-0.23,0.29-0.55,0.52-0.95,0.68c-0.4,0.16-0.83,0.23-1.3,0.22
		c-0.45,0-0.85-0.1-1.22-0.29c-0.37-0.19-0.65-0.44-0.84-0.77c-0.19-0.33-0.28-0.7-0.25-1.11l0.92,0c-0.03,0.42,0.09,0.76,0.34,1.01
		c0.26,0.25,0.62,0.38,1.1,0.38c0.47,0.01,0.86-0.1,1.17-0.31C474.16,20.37,474.34,20.09,474.39,19.73z"/>
	<path class="st7" d="M479,16.18c0.44,0.01,0.82,0.13,1.14,0.36c0.32,0.23,0.55,0.56,0.7,0.97c0.15,0.41,0.2,0.86,0.15,1.35
		l-0.01,0.11c-0.06,0.51-0.21,0.98-0.46,1.39c-0.24,0.42-0.56,0.74-0.95,0.97c-0.39,0.23-0.81,0.34-1.27,0.33
		c-0.44-0.01-0.82-0.13-1.13-0.36s-0.55-0.55-0.7-0.96s-0.2-0.85-0.16-1.33c0.05-0.55,0.2-1.04,0.44-1.47
		c0.25-0.44,0.57-0.77,0.96-1.01C478.1,16.28,478.53,16.17,479,16.18z M477.2,19.01c-0.02,0.21-0.02,0.42,0,0.64
		c0.03,0.38,0.15,0.69,0.34,0.92c0.2,0.23,0.46,0.35,0.79,0.36c0.29,0.01,0.56-0.06,0.81-0.22c0.25-0.16,0.46-0.39,0.62-0.7
		c0.17-0.31,0.28-0.66,0.33-1.04c0.03-0.3,0.03-0.55,0.01-0.76c-0.04-0.39-0.16-0.71-0.36-0.93c-0.2-0.23-0.46-0.35-0.79-0.36
		c-0.46-0.01-0.84,0.17-1.16,0.54c-0.32,0.37-0.52,0.85-0.59,1.45L477.2,19.01z"/>
	<path class="st7" d="M485,21.04c-0.41,0.43-0.94,0.63-1.58,0.62c-0.5-0.01-0.88-0.19-1.12-0.54c-0.24-0.35-0.33-0.82-0.27-1.43
		l0.57-3.41h0.88l-0.57,3.43c-0.02,0.14-0.02,0.28-0.01,0.42c0.02,0.23,0.09,0.42,0.21,0.55c0.12,0.13,0.3,0.21,0.52,0.21
		c0.63,0.02,1.12-0.24,1.46-0.77l0.66-3.85h0.88l-0.92,5.28h-0.83L485,21.04z"/>
	<path class="st7" d="M490.32,17.08l-0.42-0.04c-0.57,0-1.01,0.26-1.34,0.77l-0.65,3.75h-0.88l0.92-5.28l0.85,0l-0.13,0.62
		c0.38-0.49,0.82-0.73,1.32-0.72c0.11,0,0.25,0.02,0.42,0.07L490.32,17.08z"/>
	<path class="st7" d="M492.51,20.92c0.32,0.01,0.6-0.09,0.85-0.28c0.25-0.19,0.42-0.44,0.5-0.75l0.83,0
		c-0.05,0.33-0.18,0.63-0.4,0.91c-0.22,0.27-0.49,0.49-0.82,0.64c-0.33,0.15-0.67,0.22-1.01,0.21c-0.44-0.01-0.81-0.12-1.12-0.34
		c-0.3-0.22-0.53-0.53-0.67-0.93c-0.14-0.4-0.19-0.85-0.15-1.34l0.02-0.24c0.06-0.51,0.21-0.96,0.44-1.36s0.54-0.71,0.92-0.94
		c0.38-0.22,0.79-0.33,1.25-0.31c0.55,0.01,1,0.2,1.33,0.56s0.5,0.81,0.5,1.36l-0.83,0c-0.01-0.34-0.1-0.62-0.29-0.84
		c-0.19-0.21-0.44-0.33-0.75-0.34c-0.46-0.01-0.84,0.16-1.14,0.51c-0.3,0.35-0.49,0.84-0.57,1.47l-0.01,0.13
		c-0.02,0.21-0.02,0.42-0.01,0.64c0.02,0.38,0.13,0.68,0.32,0.9C491.91,20.8,492.17,20.91,492.51,20.92z"/>
	<path class="st7" d="M497.69,21.66c-0.66-0.01-1.17-0.26-1.54-0.73s-0.53-1.08-0.47-1.81l0.02-0.21c0.06-0.52,0.21-1,0.47-1.44
		c0.25-0.43,0.57-0.76,0.93-0.98c0.37-0.22,0.77-0.32,1.19-0.31c0.54,0.01,0.97,0.19,1.28,0.54c0.31,0.35,0.48,0.82,0.51,1.42
		c0.01,0.21,0,0.42-0.02,0.63l-0.05,0.41h-3.45c-0.06,0.48,0.02,0.89,0.24,1.22c0.22,0.33,0.54,0.51,0.97,0.52
		c0.52,0.01,1-0.22,1.45-0.7l0.51,0.43c-0.22,0.32-0.51,0.57-0.86,0.75C498.51,21.58,498.12,21.66,497.69,21.66z M498.25,16.92
		c-0.36-0.01-0.68,0.11-0.95,0.37c-0.27,0.26-0.49,0.64-0.65,1.15l2.57,0l0.02-0.08c0.05-0.41-0.01-0.75-0.2-1.02
		C498.85,17.07,498.59,16.92,498.25,16.92z"/>
	<path class="st7" d="M501.19,20.53c0.16,0,0.29,0.05,0.4,0.15c0.1,0.1,0.16,0.23,0.15,0.39c0,0.16-0.06,0.29-0.16,0.39
		c-0.1,0.1-0.23,0.15-0.39,0.16s-0.28-0.04-0.39-0.13c-0.1-0.1-0.15-0.22-0.15-0.38s0.05-0.29,0.15-0.4
		C500.9,20.6,501.03,20.54,501.19,20.53z M501.94,16.22c0.16,0,0.29,0.05,0.4,0.15c0.1,0.1,0.16,0.23,0.15,0.39
		c0,0.16-0.06,0.29-0.16,0.39c-0.1,0.1-0.23,0.15-0.39,0.16s-0.28-0.04-0.39-0.13c-0.1-0.1-0.15-0.22-0.15-0.38s0.05-0.29,0.15-0.4
		C501.65,16.28,501.78,16.23,501.94,16.22z"/>
	<path class="st7" d="M507.67,20.92c0.32,0.01,0.6-0.09,0.85-0.28c0.25-0.19,0.42-0.44,0.5-0.75l0.83,0
		c-0.05,0.33-0.18,0.63-0.4,0.91c-0.22,0.27-0.49,0.49-0.82,0.64c-0.33,0.15-0.67,0.22-1.01,0.21c-0.44-0.01-0.81-0.12-1.12-0.34
		c-0.3-0.22-0.53-0.53-0.67-0.93c-0.14-0.4-0.19-0.85-0.15-1.34l0.02-0.24c0.06-0.51,0.21-0.96,0.44-1.36s0.54-0.71,0.92-0.94
		c0.38-0.22,0.79-0.33,1.25-0.31c0.55,0.01,1,0.2,1.33,0.56s0.5,0.81,0.5,1.36l-0.83,0c-0.01-0.34-0.1-0.62-0.29-0.84
		c-0.19-0.21-0.44-0.33-0.75-0.34c-0.46-0.01-0.84,0.16-1.14,0.51c-0.3,0.35-0.49,0.84-0.57,1.47l-0.01,0.13
		c-0.02,0.21-0.02,0.42-0.01,0.64c0.02,0.38,0.13,0.68,0.32,0.9C507.07,20.8,507.33,20.91,507.67,20.92z"/>
	<path class="st7" d="M515.36,18.94c-0.06,0.54-0.21,1.03-0.44,1.46c-0.23,0.43-0.51,0.75-0.84,0.96c-0.33,0.21-0.69,0.31-1.09,0.3
		c-0.64-0.01-1.11-0.25-1.42-0.72l-0.18,0.62h-0.82l1.3-7.5h0.88l-0.53,2.8c0.42-0.47,0.94-0.7,1.54-0.68
		c0.51,0.01,0.9,0.2,1.19,0.56s0.43,0.86,0.45,1.49c0,0.21-0.01,0.41-0.03,0.61L515.36,18.94z M514.52,18.43
		c0.01-0.47-0.07-0.84-0.24-1.09c-0.17-0.25-0.43-0.38-0.78-0.4c-0.55-0.01-1.02,0.26-1.4,0.83l-0.4,2.3
		c0.2,0.54,0.56,0.81,1.1,0.82c0.35,0.01,0.65-0.09,0.91-0.31c0.26-0.22,0.46-0.52,0.59-0.91
		C514.44,19.28,514.51,18.87,514.52,18.43z"/>
	<path class="st7" d="M517.01,21.56h-0.88l0.92-5.28h0.88L517.01,21.56z M517.74,14.35c0.15-0.01,0.27,0.04,0.37,0.13
		c0.1,0.1,0.15,0.22,0.15,0.38c0,0.15-0.05,0.28-0.15,0.38c-0.1,0.1-0.22,0.15-0.37,0.16c-0.15,0.01-0.28-0.04-0.38-0.13
		s-0.14-0.22-0.14-0.37c0-0.15,0.05-0.28,0.15-0.38C517.46,14.41,517.59,14.35,517.74,14.35z"/>
	<path class="st7" d="M520.21,16.27l-0.13,0.67c0.48-0.52,1.02-0.77,1.62-0.76c0.5,0.01,0.87,0.19,1.1,0.52
		c0.24,0.33,0.33,0.8,0.26,1.4l-0.58,3.46h-0.88l0.58-3.47c0.02-0.16,0.02-0.31,0-0.44c-0.05-0.46-0.32-0.69-0.81-0.7
		c-0.53-0.01-1,0.27-1.4,0.85l-0.65,3.77h-0.88l0.92-5.28L520.21,16.27z"/>
	<path class="st7" d="M527.13,20.13c0.05-0.36-0.15-0.62-0.6-0.77l-0.92-0.27c-0.77-0.27-1.15-0.71-1.12-1.33
		c0.02-0.47,0.24-0.85,0.64-1.14c0.4-0.3,0.88-0.44,1.42-0.44c0.53,0.01,0.97,0.16,1.3,0.47c0.33,0.3,0.49,0.7,0.48,1.19l-0.88,0
		c0.01-0.26-0.08-0.48-0.25-0.64c-0.17-0.17-0.4-0.25-0.69-0.26c-0.31-0.01-0.57,0.07-0.79,0.22c-0.21,0.15-0.32,0.34-0.36,0.58
		c-0.04,0.31,0.15,0.53,0.56,0.67l0.44,0.12c0.61,0.16,1.04,0.36,1.29,0.61s0.37,0.56,0.35,0.93c-0.02,0.33-0.13,0.62-0.32,0.86
		s-0.46,0.43-0.78,0.56c-0.33,0.13-0.67,0.19-1.04,0.18c-0.56-0.01-1.02-0.17-1.39-0.49c-0.36-0.32-0.54-0.73-0.53-1.24l0.88,0
		c0,0.3,0.09,0.53,0.28,0.71c0.19,0.18,0.45,0.27,0.78,0.27c0.32,0.01,0.6-0.06,0.83-0.2C526.96,20.57,527.1,20.38,527.13,20.13z"/>
	<path class="st7" d="M529.87,21.56h-0.88l0.92-5.28h0.88L529.87,21.56z M530.59,14.35c0.15-0.01,0.27,0.04,0.37,0.13
		c0.1,0.1,0.15,0.22,0.15,0.38c0,0.15-0.05,0.28-0.15,0.38c-0.1,0.1-0.22,0.15-0.37,0.16c-0.15,0.01-0.28-0.04-0.38-0.13
		s-0.14-0.22-0.14-0.37c0-0.15,0.05-0.28,0.15-0.38C530.32,14.41,530.44,14.35,530.59,14.35z"/>
	<path class="st7" d="M531.57,18.91c0.08-0.58,0.23-1.08,0.47-1.5c0.23-0.43,0.52-0.74,0.85-0.94c0.33-0.2,0.7-0.3,1.1-0.29
		c0.61,0.01,1.07,0.24,1.39,0.69l0.18-0.59h0.81l-0.88,5.17c-0.09,0.67-0.37,1.21-0.82,1.62c-0.45,0.41-1.01,0.6-1.67,0.58
		c-0.36-0.01-0.7-0.09-1.03-0.25s-0.58-0.39-0.77-0.67l0.5-0.54c0.32,0.47,0.74,0.71,1.26,0.73c0.42,0.01,0.78-0.1,1.07-0.35
		c0.29-0.25,0.48-0.6,0.58-1.05l0.1-0.47c-0.43,0.43-0.93,0.64-1.51,0.62c-0.33-0.01-0.61-0.1-0.86-0.27
		c-0.24-0.17-0.43-0.41-0.56-0.73c-0.13-0.32-0.21-0.67-0.22-1.06C531.53,19.41,531.54,19.18,531.57,18.91z M532.42,19.41
		c-0.01,0.46,0.07,0.83,0.24,1.08s0.43,0.39,0.77,0.4c0.53,0.01,0.98-0.25,1.36-0.78l0.42-2.42c-0.2-0.48-0.55-0.73-1.06-0.75
		c-0.48-0.01-0.87,0.18-1.18,0.58s-0.49,0.95-0.54,1.63L532.42,19.41z"/>
	<path class="st7" d="M538.45,16.92c0.46-0.5,1-0.75,1.6-0.74c0.5,0.01,0.86,0.18,1.1,0.51c0.24,0.33,0.33,0.8,0.27,1.4l-0.58,3.46
		h-0.88l0.58-3.48c0.02-0.16,0.02-0.31,0-0.44c-0.05-0.46-0.32-0.69-0.81-0.7c-0.54-0.01-1.01,0.27-1.4,0.85l-0.65,3.77h-0.88
		l1.3-7.5h0.88L538.45,16.92z"/>
	<path class="st7" d="M544.53,15l-0.22,1.28h0.96l-0.12,0.7h-0.96l-0.55,3.29c-0.01,0.08-0.01,0.16,0,0.23
		c0.02,0.25,0.16,0.38,0.42,0.38c0.11,0,0.25-0.02,0.43-0.05l-0.07,0.74c-0.21,0.06-0.43,0.09-0.64,0.09
		c-0.35-0.01-0.62-0.14-0.79-0.39c-0.18-0.25-0.24-0.59-0.21-1.02l0.54-3.27h-0.93l0.12-0.7h0.93l0.22-1.28H544.53z"/>
	<path class="st7" d="M548.68,20.13c0.05-0.36-0.15-0.62-0.6-0.77l-0.92-0.27c-0.77-0.27-1.15-0.71-1.12-1.33
		c0.02-0.47,0.24-0.85,0.64-1.14c0.4-0.3,0.88-0.44,1.42-0.44c0.53,0.01,0.97,0.16,1.3,0.47c0.33,0.3,0.49,0.7,0.48,1.19l-0.88,0
		c0.01-0.26-0.08-0.48-0.25-0.64c-0.17-0.17-0.4-0.25-0.69-0.26c-0.31-0.01-0.57,0.07-0.79,0.22c-0.21,0.15-0.32,0.34-0.36,0.58
		c-0.04,0.31,0.15,0.53,0.56,0.67l0.44,0.12c0.61,0.16,1.04,0.36,1.29,0.61s0.37,0.56,0.35,0.93c-0.02,0.33-0.13,0.62-0.32,0.86
		s-0.46,0.43-0.78,0.56c-0.33,0.13-0.67,0.19-1.04,0.18c-0.56-0.01-1.02-0.17-1.39-0.49c-0.36-0.32-0.54-0.73-0.53-1.24l0.88,0
		c0,0.3,0.09,0.53,0.28,0.71c0.19,0.18,0.45,0.27,0.78,0.27c0.32,0.01,0.6-0.06,0.83-0.2C548.52,20.57,548.65,20.38,548.68,20.13z"
		/>
	<path class="st7" d="M551.11,20.53c0.16,0,0.29,0.05,0.4,0.15c0.1,0.1,0.16,0.23,0.15,0.39c0,0.16-0.06,0.29-0.16,0.39
		c-0.1,0.1-0.23,0.15-0.39,0.16s-0.28-0.04-0.39-0.13c-0.1-0.1-0.15-0.22-0.15-0.38s0.05-0.29,0.15-0.4
		C550.82,20.6,550.95,20.54,551.11,20.53z"/>
	<path class="st7" d="M555.29,20.92c0.32,0.01,0.6-0.09,0.85-0.28c0.25-0.19,0.42-0.44,0.5-0.75l0.83,0
		c-0.05,0.33-0.18,0.63-0.4,0.91c-0.22,0.27-0.49,0.49-0.82,0.64c-0.33,0.15-0.67,0.22-1.01,0.21c-0.44-0.01-0.81-0.12-1.12-0.34
		c-0.3-0.22-0.53-0.53-0.67-0.93c-0.14-0.4-0.19-0.85-0.15-1.34l0.02-0.24c0.06-0.51,0.21-0.96,0.44-1.36s0.54-0.71,0.92-0.94
		c0.38-0.22,0.79-0.33,1.25-0.31c0.55,0.01,1,0.2,1.33,0.56s0.5,0.81,0.5,1.36l-0.83,0c-0.01-0.34-0.1-0.62-0.29-0.84
		c-0.19-0.21-0.44-0.33-0.75-0.34c-0.46-0.01-0.84,0.16-1.14,0.51c-0.3,0.35-0.49,0.84-0.57,1.47l-0.01,0.13
		c-0.02,0.21-0.02,0.42-0.01,0.64c0.02,0.38,0.13,0.68,0.32,0.9C554.7,20.8,554.96,20.91,555.29,20.92z"/>
	<path class="st7" d="M561.12,16.18c0.44,0.01,0.82,0.13,1.14,0.36c0.32,0.23,0.55,0.56,0.7,0.97c0.15,0.41,0.2,0.86,0.15,1.35
		l-0.01,0.11c-0.06,0.51-0.21,0.98-0.46,1.39c-0.24,0.42-0.56,0.74-0.95,0.97c-0.39,0.23-0.81,0.34-1.27,0.33
		c-0.44-0.01-0.82-0.13-1.13-0.36s-0.55-0.55-0.7-0.96s-0.2-0.85-0.16-1.33c0.05-0.55,0.2-1.04,0.44-1.47
		c0.25-0.44,0.57-0.77,0.96-1.01C560.23,16.28,560.66,16.17,561.12,16.18z M559.33,19.01c-0.02,0.21-0.02,0.42,0,0.64
		c0.03,0.38,0.15,0.69,0.34,0.92c0.2,0.23,0.46,0.35,0.79,0.36c0.29,0.01,0.56-0.06,0.81-0.22c0.25-0.16,0.46-0.39,0.62-0.7
		c0.17-0.31,0.28-0.66,0.33-1.04c0.03-0.3,0.03-0.55,0.01-0.76c-0.04-0.39-0.16-0.71-0.36-0.93c-0.2-0.23-0.46-0.35-0.79-0.36
		c-0.46-0.01-0.84,0.17-1.16,0.54c-0.32,0.37-0.52,0.85-0.59,1.45L559.33,19.01z"/>
	<path class="st7" d="M565.51,16.27l-0.11,0.59c0.44-0.47,0.98-0.7,1.61-0.68c0.34,0.01,0.62,0.08,0.85,0.23
		c0.23,0.15,0.39,0.35,0.48,0.62c0.5-0.58,1.08-0.86,1.75-0.85c0.53,0.01,0.92,0.19,1.17,0.53c0.25,0.34,0.34,0.8,0.28,1.38
		l-0.58,3.47h-0.88l0.58-3.48c0.02-0.17,0.02-0.32,0-0.46c-0.06-0.44-0.35-0.67-0.87-0.68c-0.32-0.01-0.61,0.09-0.88,0.3
		c-0.26,0.21-0.43,0.48-0.51,0.81l-0.6,3.51h-0.89l0.59-3.48c0.04-0.36-0.01-0.64-0.16-0.83s-0.39-0.3-0.71-0.3
		c-0.55-0.01-0.99,0.24-1.31,0.75l-0.67,3.86h-0.88l0.92-5.28L565.51,16.27z"/>
</g>
</svg>
